<svg width="133" height="133" viewBox="0 0 133 133" fill="none" xmlns="http://www.w3.org/2000/svg">
<path d="M66.5 132C102.675 132 132 102.675 132 66.5C132 30.3253 102.675 1 66.5 1C30.3254 1 1 30.3253 1 66.5C1 102.675 30.3254 132 66.5 132Z" fill="black" stroke="#00C797" stroke-linecap="round" stroke-linejoin="round"/>
<path d="M28.3169 16.8914C42.1406 6.24917 59.0658 1.78868 75.0052 4.47455C97.7764 8.31151 92.4207 20.9095 55.3248 34.8238C22.9079 46.9795 3.39807 45.1356 17.3443 27.7148C20.4992 23.7766 24.1336 20.1102 28.3169 16.8914Z" fill="#00C797"/>
<path d="M66.5054 107.433C36.2947 107.433 11.4024 102.418 7.99713 95.9648H7.99179C18.7779 117.34 40.931 132 66.5054 132C92.0264 132 114.137 117.404 124.95 96.1034C121.262 102.493 96.5029 107.433 66.5107 107.433H66.5054Z" fill="#00C797" stroke="#00C797" stroke-linecap="round" stroke-linejoin="round"/>
<path d="M113.641 102.237L113.476 102.397C111.621 104.209 94.6856 99.7538 92.3461 101.422C71.2322 116.471 44.0645 136.157 18.9058 102.093C18.9058 102.093 15.2447 100.889 13.7685 100.233C14.3281 101.107 14.9143 101.976 15.5218 102.829C35.5912 130.982 74.6855 137.537 102.839 117.468C108.669 113.311 113.572 108.339 117.505 102.818L119.269 100.34L116.407 101.342C115.608 101.624 114.76 101.896 113.87 102.163L113.647 102.232L113.641 102.237Z" fill="black"/>
<path d="M66.5054 117.185C98.5272 117.185 124.486 107.004 124.486 94.4453C124.486 81.8868 98.5272 71.7061 66.5054 71.7061C34.4836 71.7061 8.52472 81.8868 8.52472 94.4453C8.52472 107.004 34.4836 117.185 66.5054 117.185Z" fill="#B5DF77" stroke="#00C797" stroke-linecap="round" stroke-linejoin="round"/>
<path d="M124.944 96.0976C124.944 96.0976 124.944 96.0922 124.944 96.0869C124.944 96.0869 124.944 96.0923 124.944 96.0976Z" fill="#EBE9E9" stroke="#00C797" stroke-linecap="round" stroke-linejoin="round"/>
<path d="M101.608 56.6683C103.314 52.9144 96.9384 46.3451 87.3674 41.9955C77.7964 37.6458 68.6546 37.1629 66.9485 40.9168C65.2425 44.6707 71.6184 51.24 81.1894 55.5896C90.7604 59.9393 99.9023 60.4223 101.608 56.6683Z" fill="#B5DF77" stroke="#00C797" stroke-linecap="round" stroke-linejoin="round"/>
<path d="M81.203 55.6088C78.4319 54.3511 75.9325 52.9069 73.8169 51.3988L89.3139 42.9521C97.7925 47.2634 103.207 53.2 101.619 56.6906C99.9135 60.4423 90.7688 59.9626 81.1977 55.6088H81.203Z" fill="black"/>
<path d="M87.3794 42.0135C77.8084 37.665 68.669 37.18 66.9583 40.9317L69.1486 36.1089C70.8539 32.3572 79.9986 32.8368 89.5697 37.1907C99.1408 41.5445 105.52 48.11 103.809 51.8617L101.619 56.6845C103.324 52.9328 96.9505 46.3621 87.3794 42.0135Z" fill="#00C797" stroke="#00C797" stroke-linecap="round" stroke-linejoin="round"/>
<path d="M85.0346 41.022C83.6544 40.4784 82.2955 40.0201 80.9738 39.6471L83.1641 34.8242C84.4804 35.1973 85.8393 35.6609 87.2249 36.1991L85.0346 41.022Z" fill="#B5DF77"/>
<path d="M79.0553 39.152C75.746 38.3952 72.8096 38.2087 70.6247 38.6297L72.8149 33.8069C74.9999 33.3912 77.9362 33.5724 81.2456 34.3291L79.0553 39.152Z" fill="black"/>
<path d="M87.3794 42.0135C77.8084 37.665 68.669 37.18 66.9583 40.9317L69.1486 36.1089C70.8539 32.3572 79.9986 32.8368 89.5697 37.1907C99.1408 41.5445 105.52 48.11 103.809 51.8617L101.619 56.6845C103.324 52.9329 96.9505 46.3621 87.3794 42.0135Z" stroke="#00C797" stroke-linecap="round" stroke-linejoin="round"/>
<path d="M68.1513 41.8172C75.6136 34.412 77.4127 24.1258 72.1698 18.8424C66.9268 13.559 56.6271 15.2792 49.1648 22.6844C41.7025 30.0896 39.9033 40.3758 45.1463 45.6592C50.3892 50.9426 60.6889 49.2225 68.1513 41.8172Z" fill="#B5DF77" stroke="#00C797" stroke-linecap="round" stroke-linejoin="round"/>
<path d="M68.1467 41.7892C75.6074 34.3817 77.4087 24.0966 72.1649 18.8154L74.872 21.5439C80.1159 26.8251 78.3146 37.1156 70.8539 44.5177C63.3931 51.9251 53.092 53.6464 47.8482 48.36L45.141 45.6315C50.3848 50.9126 60.6859 49.1913 68.1467 41.7892Z" fill="#00C797" stroke="#00C797" stroke-linecap="round" stroke-linejoin="round"/>
<path d="M69.868 39.9076C70.8219 38.7618 71.6532 37.5734 72.3566 36.3584L75.0638 39.0869C74.3604 40.3019 73.529 41.4903 72.5751 42.6361L69.868 39.9076Z" fill="#B5DF77"/>
<path d="M73.2999 34.5415C74.7974 31.3281 75.4156 28.0453 75.0745 25.125L77.7817 27.8535C78.1228 30.7792 77.5046 34.0619 76.0071 37.27L73.2999 34.5415Z" fill="black"/>
<path d="M68.1467 41.7892C75.6074 34.3817 77.4087 24.0966 72.1649 18.8154L74.872 21.5439C80.1159 26.8251 78.3146 37.1156 70.8539 44.5177C63.3931 51.9251 53.092 53.6464 47.8482 48.36L45.141 45.6315C50.3848 50.9126 60.6859 49.1913 68.1467 41.7892Z" stroke="#00C797" stroke-linecap="round" stroke-linejoin="round"/>
<path d="M61.2028 34.7378L63.4677 34.514C64.1551 34.4447 64.9385 33.9704 65.2049 33.4535L67.4272 29.2062C67.699 28.6893 67.3526 28.3269 66.6651 28.3962L64.4002 28.62L61.1974 34.7378H61.2028Z" fill="black"/>
<path d="M55.1063 29.5425L64.4056 28.6206L65.514 26.4943C65.7858 25.9773 65.4394 25.615 64.752 25.6843L56.705 26.4836C56.0176 26.5529 55.2342 27.0272 54.9677 27.5441L54.3442 28.7325C54.0725 29.2494 54.4188 29.6118 55.1063 29.5425Z" fill="black"/>
<path d="M50.3048 38.7244L58.3517 37.9251C59.0392 37.8558 59.8225 37.3815 60.089 36.8646L61.1975 34.7383L51.8982 35.6602C51.2107 35.7295 50.4273 36.2038 50.1609 36.7207L49.5374 37.9091C49.2656 38.426 49.612 38.7884 50.2994 38.7191L50.3048 38.7244Z" fill="black"/>
<path d="M52.2179 41.4316L53.2358 41.3303C53.9232 41.2611 54.7066 40.7868 54.9731 40.2699L56.0815 38.1436L52.5643 38.4953L51.4559 40.6216C51.1841 41.1385 51.5305 41.5009 52.2179 41.4316Z" fill="black"/>
<path d="M58.9699 26.2594L62.4871 25.9077L63.5956 23.7814C63.8674 23.2645 63.521 22.9021 62.8335 22.9714L61.8156 23.0726C61.1282 23.1419 60.3448 23.6162 60.0784 24.1331L58.9699 26.2594Z" fill="black"/>
<path d="M51.4986 91.8872C62.0117 91.8872 70.5342 88.5446 70.5342 84.4212C70.5342 80.2978 62.0117 76.9551 51.4986 76.9551C40.9856 76.9551 32.4631 80.2978 32.4631 84.4212C32.4631 88.5446 40.9856 91.8872 51.4986 91.8872Z" fill="#B5DF77" stroke="#00C797" stroke-linecap="round" stroke-linejoin="round"/>
<path d="M51.4987 91.887C62.013 91.887 70.5343 88.5456 70.5343 84.4209V89.718C70.5343 93.8428 62.013 97.1841 51.4987 97.1841C40.9844 97.1841 32.4632 93.8428 32.4632 89.718V84.4209C32.4632 88.5456 40.9844 91.887 51.4987 91.887Z" fill="#00C797" stroke="#00C797" stroke-linecap="round" stroke-linejoin="round"/>
<path d="M54.046 91.8179C55.5275 91.738 56.9557 91.5941 58.3093 91.3916V96.6887C56.9557 96.8912 55.5275 97.0351 54.046 97.1151V91.8179Z" fill="#B5DF77"/>
<path d="M60.2597 91.051C63.5851 90.3742 66.3349 89.3244 68.1521 88.04V93.3372C66.3349 94.6215 63.5851 95.6713 60.2597 96.3481V91.051Z" fill="black"/>
<path d="M51.4987 91.887C62.013 91.887 70.5343 88.5456 70.5343 84.4209V89.718C70.5343 93.8428 62.013 97.1841 51.4987 97.1841C40.9844 97.1841 32.4632 93.8428 32.4632 89.718V84.4209C32.4632 88.5456 40.9844 91.887 51.4987 91.887Z" stroke="#00C797" stroke-linecap="round" stroke-linejoin="round"/>
<path d="M60.2597 96.3479C63.5851 95.6711 66.3349 94.6212 68.1521 93.3369" stroke="#00C797" stroke-linecap="round" stroke-linejoin="round"/>
<path d="M51.4986 86.5904C62.0117 86.5904 70.5342 83.2477 70.5342 79.1243C70.5342 75.0009 62.0117 71.6582 51.4986 71.6582C40.9856 71.6582 32.4631 75.0009 32.4631 79.1243C32.4631 83.2477 40.9856 86.5904 51.4986 86.5904Z" fill="#B5DF77" stroke="#00C797" stroke-linecap="round" stroke-linejoin="round"/>
<path d="M51.4987 86.5901C62.013 86.5901 70.5343 83.2487 70.5343 79.124V84.4212C70.5343 88.5459 62.013 91.8872 51.4987 91.8872C40.9844 91.8872 32.4632 88.5459 32.4632 84.4212V79.124C32.4632 83.2487 40.9844 86.5901 51.4987 86.5901Z" fill="#00C797" stroke="#00C797" stroke-linecap="round" stroke-linejoin="round"/>
<path d="M54.046 86.521C55.5275 86.4411 56.9557 86.2972 58.3093 86.0947V91.3919C56.9557 91.5944 55.5275 91.7382 54.046 91.8182V86.521Z" fill="#B5DF77"/>
<path d="M60.2597 85.7541C63.5851 85.0773 66.3349 84.0275 68.1521 82.7432V88.0403C66.3349 89.3246 63.5851 90.3744 60.2597 91.0512V85.7541Z" fill="black"/>
<path d="M51.4987 86.5901C62.013 86.5901 70.5343 83.2487 70.5343 79.124V84.4212C70.5343 88.5459 62.013 91.8872 51.4987 91.8872C40.9844 91.8872 32.4632 88.5459 32.4632 84.4212V79.124C32.4632 83.2487 40.9844 86.5901 51.4987 86.5901Z" stroke="#00C797" stroke-linecap="round" stroke-linejoin="round"/>
<path d="M60.2597 91.051C63.5851 90.3742 66.3349 89.3244 68.1521 88.04" stroke="#00C797" stroke-linecap="round" stroke-linejoin="round"/>
<path d="M51.4986 81.2935C62.0117 81.2935 70.5342 77.9508 70.5342 73.8274C70.5342 69.704 62.0117 66.3613 51.4986 66.3613C40.9856 66.3613 32.4631 69.704 32.4631 73.8274C32.4631 77.9508 40.9856 81.2935 51.4986 81.2935Z" fill="#B5DF77" stroke="#00C797" stroke-linecap="round" stroke-linejoin="round"/>
<path d="M51.4986 81.2932C62.013 81.2932 70.5342 77.9519 70.5342 73.8271V79.1243C70.5342 83.249 62.013 86.5904 51.4986 86.5904C40.9843 86.5904 32.4631 83.249 32.4631 79.1243V73.8271C32.4631 77.9519 40.9843 81.2932 51.4986 81.2932Z" fill="#00C797" stroke="#00C797" stroke-linecap="round" stroke-linejoin="round"/>
<path d="M54.046 81.2232C55.5275 81.1433 56.9556 80.9994 58.3092 80.7969V86.094C56.9556 86.2965 55.5275 86.4404 54.046 86.5203V81.2232Z" fill="#B5DF77"/>
<path d="M60.2596 80.4562C63.585 79.7794 66.3348 78.7296 68.152 77.4453V82.7424C66.3348 84.0268 63.585 85.0766 60.2596 85.7534V80.4562Z" fill="black"/>
<path d="M51.4986 81.2932C62.013 81.2932 70.5342 77.9519 70.5342 73.8271V79.1243C70.5342 83.249 62.013 86.5904 51.4986 86.5904C40.9843 86.5904 32.4631 83.249 32.4631 79.1243V73.8271C32.4631 77.9519 40.9843 81.2932 51.4986 81.2932Z" stroke="#00C797" stroke-linecap="round" stroke-linejoin="round"/>
<path d="M60.2596 85.7541C63.585 85.0773 66.3348 84.0275 68.152 82.7432" stroke="#00C797" stroke-linecap="round" stroke-linejoin="round"/>
<path d="M82.3488 97.6646C92.8619 97.6646 101.384 94.3219 101.384 90.1985C101.384 86.0751 92.8619 82.7324 82.3488 82.7324C71.8358 82.7324 63.3133 86.0751 63.3133 90.1985C63.3133 94.3219 71.8358 97.6646 82.3488 97.6646Z" fill="#B5DF77" stroke="#00C797" stroke-linecap="round" stroke-linejoin="round"/>
<path d="M82.3488 97.6643C92.8631 97.6643 101.384 94.323 101.384 90.1982V95.4954C101.384 99.6201 92.8631 102.961 82.3488 102.961C71.8345 102.961 63.3133 99.6201 63.3133 95.4954V90.1982C63.3133 94.323 71.8345 97.6643 82.3488 97.6643Z" fill="#00C797" stroke="#00C797" stroke-linecap="round" stroke-linejoin="round"/>
<path d="M84.8961 97.5953C86.3776 97.5154 87.8058 97.3715 89.1594 97.1689V102.466C87.8058 102.669 86.3776 102.812 84.8961 102.892V97.5953Z" fill="#B5DF77"/>
<path d="M91.1152 96.8283C94.4406 96.1515 97.1904 95.1017 99.0076 93.8174V99.1145C97.1904 100.399 94.4406 101.449 91.1152 102.125V96.8283Z" fill="black"/>
<path d="M82.3488 97.6643C92.8631 97.6643 101.384 94.323 101.384 90.1982V95.4954C101.384 99.6201 92.8631 102.961 82.3488 102.961C71.8345 102.961 63.3133 99.6201 63.3133 95.4954V90.1982C63.3133 94.323 71.8345 97.6643 82.3488 97.6643Z" stroke="#00C797" stroke-linecap="round" stroke-linejoin="round"/>
<path d="M91.1152 102.126C94.4406 101.449 97.1904 100.4 99.0076 99.1152" stroke="#00C797" stroke-linecap="round" stroke-linejoin="round"/>
<path d="M82.3488 92.3677C92.8619 92.3677 101.384 89.025 101.384 84.9016C101.384 80.7782 92.8619 77.4355 82.3488 77.4355C71.8358 77.4355 63.3133 80.7782 63.3133 84.9016C63.3133 89.025 71.8358 92.3677 82.3488 92.3677Z" fill="#B5DF77" stroke="#00C797" stroke-linecap="round" stroke-linejoin="round"/>
<path d="M82.3488 92.3684C92.8631 92.3684 101.384 89.0271 101.384 84.9023V90.1995C101.384 94.3242 92.8631 97.6656 82.3488 97.6656C71.8345 97.6656 63.3133 94.3242 63.3133 90.1995V84.9023C63.3133 89.0271 71.8345 92.3684 82.3488 92.3684Z" fill="#00C797" stroke="#00C797" stroke-linecap="round" stroke-linejoin="round"/>
<path d="M84.8961 92.2984C86.3776 92.2185 87.8058 92.0746 89.1594 91.8721V97.1692C87.8058 97.3717 86.3776 97.5156 84.8961 97.5956V92.2984Z" fill="#B5DF77"/>
<path d="M91.1152 91.5315C94.4406 90.8547 97.1904 89.8048 99.0076 88.5205V93.8176C97.1904 95.102 94.4406 96.1518 91.1152 96.8286V91.5315Z" fill="black"/>
<path d="M82.3488 92.3684C92.8631 92.3684 101.384 89.0271 101.384 84.9023V90.1995C101.384 94.3242 92.8631 97.6656 82.3488 97.6656C71.8345 97.6656 63.3133 94.3242 63.3133 90.1995V84.9023C63.3133 89.0271 71.8345 92.3684 82.3488 92.3684Z" stroke="#00C797" stroke-linecap="round" stroke-linejoin="round"/>
<path d="M91.1152 96.8283C94.4406 96.1515 97.1904 95.1017 99.0076 93.8174" stroke="#00C797" stroke-linecap="round" stroke-linejoin="round"/>
<path d="M82.3488 87.0708C92.8619 87.0708 101.384 83.7281 101.384 79.6048C101.384 75.4814 92.8619 72.1387 82.3488 72.1387C71.8358 72.1387 63.3133 75.4814 63.3133 79.6048C63.3133 83.7281 71.8358 87.0708 82.3488 87.0708Z" fill="#B5DF77" stroke="#00C797" stroke-linecap="round" stroke-linejoin="round"/>
<path d="M82.3488 87.0706C92.8631 87.0706 101.384 83.7292 101.384 79.6045V84.9016C101.384 89.0263 92.8631 92.3677 82.3488 92.3677C71.8345 92.3677 63.3133 89.0263 63.3133 84.9016V79.6045C63.3133 83.7292 71.8345 87.0706 82.3488 87.0706Z" fill="#00C797" stroke="#00C797" stroke-linecap="round" stroke-linejoin="round"/>
<path d="M84.8961 87.0015C86.3776 86.9216 87.8058 86.7777 89.1594 86.5752V91.8723C87.8058 92.0748 86.3776 92.2187 84.8961 92.2987V87.0015Z" fill="#B5DF77"/>
<path d="M91.1152 86.2346C94.4406 85.5578 97.1904 84.5079 99.0076 83.2236V88.5208C97.1904 89.8051 94.4406 90.8549 91.1152 91.5317V86.2346Z" fill="black"/>
<path d="M82.3488 87.0706C92.8631 87.0706 101.384 83.7292 101.384 79.6045V84.9016C101.384 89.0263 92.8631 92.3677 82.3488 92.3677C71.8345 92.3677 63.3133 89.0263 63.3133 84.9016V79.6045C63.3133 83.7292 71.8345 87.0706 82.3488 87.0706Z" stroke="#00C797" stroke-linecap="round" stroke-linejoin="round"/>
<path d="M91.1152 91.5315C94.4406 90.8547 97.1904 89.8048 99.0076 88.5205" stroke="#00C797" stroke-linecap="round" stroke-linejoin="round"/>
<path d="M78.2667 81.7144C88.7798 81.7144 97.3023 78.3717 97.3023 74.2483C97.3023 70.1249 88.7798 66.7822 78.2667 66.7822C67.7537 66.7822 59.2312 70.1249 59.2312 74.2483C59.2312 78.3717 67.7537 81.7144 78.2667 81.7144Z" fill="#B5DF77" stroke="#00C797" stroke-linecap="round" stroke-linejoin="round"/>
<path d="M78.2668 81.7141C88.7811 81.7141 97.3023 78.3728 97.3023 74.248V79.5452C97.3023 83.6699 88.7811 87.0112 78.2668 87.0112C67.7525 87.0112 59.2312 83.6699 59.2312 79.5452V74.248C59.2312 78.3728 67.7525 81.7141 78.2668 81.7141Z" fill="#00C797" stroke="#00C797" stroke-linecap="round" stroke-linejoin="round"/>
<path d="M80.8141 81.6451C82.2956 81.5651 83.7238 81.4213 85.0774 81.2188V86.5159C83.7238 86.7184 82.2956 86.8623 80.8141 86.9422V81.6451Z" fill="#B5DF77"/>
<path d="M87.0331 80.8723C90.3585 80.1955 93.1083 79.1456 94.9255 77.8613V83.1585C93.1083 84.4428 90.3585 85.4926 87.0331 86.1694V80.8723Z" fill="black"/>
<path d="M78.2668 81.7141C88.7811 81.7141 97.3023 78.3728 97.3023 74.248V79.5452C97.3023 83.6699 88.7811 87.0112 78.2668 87.0112C67.7525 87.0112 59.2312 83.6699 59.2312 79.5452V74.248C59.2312 78.3728 67.7525 81.7141 78.2668 81.7141Z" stroke="#00C797" stroke-linecap="round" stroke-linejoin="round"/>
<path d="M87.0331 86.1692C90.3585 85.4924 93.1083 84.4425 94.9255 83.1582" stroke="#00C797" stroke-linecap="round" stroke-linejoin="round"/>
<path d="M83.9848 75.0903C94.4979 75.0903 103.02 71.7476 103.02 67.6242C103.02 63.5009 94.4979 60.1582 83.9848 60.1582C73.4718 60.1582 64.9493 63.5009 64.9493 67.6242C64.9493 71.7476 73.4718 75.0903 83.9848 75.0903Z" fill="#B5DF77" stroke="#00C797" stroke-linecap="round" stroke-linejoin="round"/>
<path d="M83.9848 75.0901C94.4991 75.0901 103.02 71.7487 103.02 67.624V72.9212C103.02 77.0459 94.4991 80.3872 83.9848 80.3872C73.4705 80.3872 64.9492 77.0459 64.9492 72.9212V67.624C64.9492 71.7487 73.4705 75.0901 83.9848 75.0901Z" fill="#00C797" stroke="#00C797" stroke-linecap="round" stroke-linejoin="round"/>
<path d="M86.5321 75.021C88.0136 74.9411 89.4418 74.7972 90.7954 74.5947V79.8919C89.4418 80.0944 88.0136 80.2382 86.5321 80.3182V75.021Z" fill="#B5DF77"/>
<path d="M92.7459 74.2531C96.0712 73.5763 98.8211 72.5265 100.638 71.2422V76.5393C98.8211 77.8236 96.0712 78.8734 92.7459 79.5502V74.2531Z" fill="black"/>
<path d="M83.9848 75.0901C94.4991 75.0901 103.02 71.7487 103.02 67.624V72.9212C103.02 77.0459 94.4991 80.3872 83.9848 80.3872C73.4705 80.3872 64.9492 77.0459 64.9492 72.9212V67.624C64.9492 71.7487 73.4705 75.0901 83.9848 75.0901Z" stroke="#00C797" stroke-linecap="round" stroke-linejoin="round"/>
<path d="M92.7459 79.551C96.0712 78.8742 98.8211 77.8244 100.638 76.54" stroke="#00C797" stroke-linecap="round" stroke-linejoin="round"/>
<path d="M48.9566 105.12C59.4697 105.12 67.9922 101.777 67.9922 97.6536C67.9922 93.5302 59.4697 90.1875 48.9566 90.1875C38.4436 90.1875 29.9211 93.5302 29.9211 97.6536C29.9211 101.777 38.4436 105.12 48.9566 105.12Z" fill="#B5DF77" stroke="#00C797" stroke-linecap="round" stroke-linejoin="round"/>
<path d="M48.9567 105.119C59.471 105.119 67.9922 101.778 67.9922 97.6533V102.95C67.9922 107.075 59.471 110.417 48.9567 110.417C38.4424 110.417 29.9211 107.075 29.9211 102.95V97.6533C29.9211 101.778 38.4424 105.119 48.9567 105.119Z" fill="#00C797" stroke="#00C797" stroke-linecap="round" stroke-linejoin="round"/>
<path d="M51.4986 105.05C52.9801 104.97 54.4083 104.827 55.7619 104.624V109.921C54.4083 110.124 52.9801 110.268 51.4986 110.347V105.05Z" fill="#B5DF77"/>
<path d="M57.7177 104.282C61.0431 103.606 63.7929 102.556 65.6101 101.271V106.569C63.7929 107.853 61.0431 108.903 57.7177 109.58V104.282Z" fill="black"/>
<path d="M48.9567 105.119C59.471 105.119 67.9922 101.778 67.9922 97.6533V102.95C67.9922 107.075 59.471 110.417 48.9567 110.417C38.4424 110.417 29.9211 107.075 29.9211 102.95V97.6533C29.9211 101.778 38.4424 105.119 48.9567 105.119Z" stroke="#00C797" stroke-linecap="round" stroke-linejoin="round"/>
<path d="M57.7177 109.58C61.0431 108.903 63.7929 107.854 65.6101 106.569" stroke="#00C797" stroke-linecap="round" stroke-linejoin="round"/>
<path d="M124.944 96.0976C124.944 96.0976 124.944 96.0922 124.944 96.0869C124.944 96.0869 124.944 96.0923 124.944 96.0976Z" fill="#00C797" stroke="#00C797" stroke-linecap="round" stroke-linejoin="round"/>
</svg>
