<svg width="79" height="79" viewBox="0 0 79 79" fill="none" xmlns="http://www.w3.org/2000/svg">
<path d="M39.5 78C60.763 78 78 60.763 78 39.5C78 18.237 60.763 1 39.5 1C18.237 1 1 18.237 1 39.5C1 60.763 18.237 78 39.5 78Z" fill="black" stroke="#00C797" stroke-linecap="round" stroke-linejoin="round"/>
<path d="M17.0567 10.341C25.1821 4.08569 35.1305 1.46388 44.4994 3.04259C57.884 5.2979 54.736 12.7028 32.9315 20.8815C13.8773 28.0264 2.40972 26.9426 10.6071 16.7029C12.4615 14.3881 14.5978 12.233 17.0567 10.341Z" fill="#00C797"/>
<path d="M39.5033 63.5602C21.7459 63.5602 7.11459 60.6126 5.113 56.8193H5.10986C11.4498 69.3833 24.4711 78.0004 39.5033 78.0004C54.5043 78.0004 67.5005 69.4209 73.8561 56.9008C71.6885 60.6565 57.1355 63.5602 39.5065 63.5602H39.5033Z" fill="#00C797" stroke="#00C797" stroke-linecap="round" stroke-linejoin="round"/>
<path d="M67.2092 60.5059L67.1121 60.5999C66.022 61.6649 56.0673 59.0462 54.6922 60.0267C42.2818 68.8725 26.3129 80.4435 11.525 60.4213C11.525 60.4213 9.37304 59.7134 8.50537 59.3281C8.83427 59.8418 9.17882 60.3524 9.53592 60.8536C21.3324 77.4019 44.3115 81.2547 60.8599 69.4582C64.2867 67.015 67.1684 64.0925 69.4801 60.8473L70.517 59.3908L68.8349 59.9797C68.365 60.1457 67.867 60.3054 67.3439 60.462L67.2123 60.5028L67.2092 60.5059Z" fill="black"/>
<path d="M39.5036 69.2922C58.3256 69.2922 73.5838 63.3081 73.5838 55.9264C73.5838 48.5446 58.3256 42.5605 39.5036 42.5605C20.6816 42.5605 5.42334 48.5446 5.42334 55.9264C5.42334 63.3081 20.6816 69.2922 39.5036 69.2922Z" fill="#B5DF77" stroke="#00C797" stroke-linecap="round" stroke-linejoin="round"/>
<path d="M73.8535 56.8986C73.8535 56.8986 73.8535 56.8951 73.8535 56.8916C73.8535 56.8916 73.8535 56.8951 73.8535 56.8986Z" fill="#EBE9E9" stroke="#00C797" stroke-linecap="round" stroke-linejoin="round"/>
<path d="M60.1364 33.7203C61.1392 31.5138 57.3916 27.6525 51.7659 25.0958C46.1401 22.5392 40.7667 22.2553 39.7639 24.4618C38.7612 26.6683 42.5088 30.5296 48.1345 33.0863C53.7602 35.643 59.1337 35.9268 60.1364 33.7203Z" fill="#B5DF77" stroke="#00C797" stroke-linecap="round" stroke-linejoin="round"/>
<path d="M48.1427 33.0966C46.5139 32.3574 45.0448 31.5085 43.8013 30.622L52.9102 25.6572C57.8938 28.1913 61.0763 31.6808 60.1429 33.7325C59.1405 35.9377 53.7654 35.6558 48.1396 33.0966H48.1427Z" fill="black"/>
<path d="M51.7728 25.1063C46.147 22.5503 40.775 22.2652 39.7695 24.4704L41.0569 21.6356C42.0593 19.4304 47.4344 19.7124 53.0602 22.2715C58.6859 24.8306 62.4354 28.6897 61.4299 30.8949L60.1425 33.7297C61.1448 31.5245 57.3985 27.6623 51.7728 25.1063Z" fill="#00C797" stroke="#00C797" stroke-linecap="round" stroke-linejoin="round"/>
<path d="M50.3947 24.5238C49.5834 24.2043 48.7846 23.9349 48.0078 23.7157L49.2952 20.8809C50.0689 21.1001 50.8677 21.3726 51.6821 21.689L50.3947 24.5238Z" fill="#B5DF77"/>
<path d="M46.8802 23.4242C44.935 22.9794 43.2091 22.8698 41.9248 23.1172L43.2122 20.2824C44.4965 20.0381 46.2224 20.1446 48.1676 20.5894L46.8802 23.4242Z" fill="black"/>
<path d="M51.7728 25.1063C46.147 22.5503 40.775 22.2652 39.7695 24.4704L41.0569 21.6356C42.0593 19.4304 47.4344 19.7124 53.0602 22.2715C58.6859 24.8306 62.4354 28.6897 61.4299 30.8949L60.1425 33.7297C61.1448 31.5245 57.3985 27.6623 51.7728 25.1063Z" stroke="#00C797" stroke-linecap="round" stroke-linejoin="round"/>
<path d="M40.4707 24.9917C44.8569 20.639 45.9144 14.5929 42.8327 11.4874C39.7509 8.38192 33.6969 9.39299 29.3107 13.7457C24.9244 18.0984 23.8669 24.1445 26.9486 27.25C30.0304 30.3555 36.0844 29.3444 40.4707 24.9917Z" fill="#B5DF77" stroke="#00C797" stroke-linecap="round" stroke-linejoin="round"/>
<path d="M40.4683 24.9744C44.8536 20.6204 45.9123 14.5749 42.8301 11.4707L44.4213 13.0745C47.5036 16.1787 46.4448 22.2273 42.0595 26.5781C37.6742 30.9321 31.6193 31.9439 28.5371 28.8366L26.9458 27.2328C30.0281 30.337 36.0829 29.3252 40.4683 24.9744Z" fill="#00C797" stroke="#00C797" stroke-linecap="round" stroke-linejoin="round"/>
<path d="M41.4795 23.8684C42.0402 23.1949 42.5288 22.4964 42.9423 21.7822L44.5336 23.386C44.1201 24.1002 43.6314 24.7987 43.0707 25.4722L41.4795 23.8684Z" fill="#B5DF77"/>
<path d="M43.4971 20.7146C44.3773 18.8258 44.7406 16.8962 44.5401 15.1797L46.1314 16.7835C46.3319 18.5032 45.9685 20.4327 45.0883 22.3184L43.4971 20.7146Z" fill="black"/>
<path d="M40.4683 24.9744C44.8536 20.6204 45.9123 14.5749 42.8301 11.4707L44.4213 13.0745C47.5036 16.1787 46.4448 22.2273 42.0595 26.5781C37.6742 30.9321 31.6193 31.9439 28.5371 28.8366L26.9458 27.2328C30.0281 30.337 36.0829 29.3252 40.4683 24.9744Z" stroke="#00C797" stroke-linecap="round" stroke-linejoin="round"/>
<path d="M36.3864 20.8302L37.7177 20.6986C38.1218 20.6579 38.5822 20.3791 38.7389 20.0753L40.045 17.5788C40.2048 17.2749 40.0012 17.0619 39.5971 17.1026L38.2659 17.2342L36.3833 20.8302H36.3864Z" fill="black"/>
<path d="M32.8028 17.7758L38.2688 17.2338L38.9203 15.984C39.08 15.6802 38.8764 15.4672 38.4724 15.5079L33.7425 15.9778C33.3384 16.0185 32.8779 16.2973 32.7213 16.6011L32.3548 17.2996C32.1951 17.6035 32.3987 17.8165 32.8028 17.7758Z" fill="black"/>
<path d="M29.9807 23.1731L34.7106 22.7032C35.1147 22.6625 35.5751 22.3837 35.7317 22.0799L36.3833 20.8301L30.9173 21.372C30.5132 21.4127 30.0527 21.6915 29.8961 21.9953L29.5296 22.6938C29.3699 22.9977 29.5735 23.2107 29.9776 23.17L29.9807 23.1731Z" fill="black"/>
<path d="M31.105 24.7647L31.7033 24.7052C32.1074 24.6645 32.5678 24.3857 32.7244 24.0818L33.376 22.832L31.3086 23.0388L30.6571 24.2886C30.4973 24.5924 30.7009 24.8054 31.105 24.7647Z" fill="black"/>
<path d="M35.0737 15.8468L37.1411 15.6401L37.7926 14.3903C37.9524 14.0865 37.7488 13.8734 37.3447 13.9142L36.7464 13.9737C36.3423 14.0144 35.8819 14.2932 35.7253 14.597L35.0737 15.8468Z" fill="black"/>
<path d="M30.6825 54.4214C36.8619 54.4214 41.8713 52.4567 41.8713 50.033C41.8713 47.6093 36.8619 45.6445 30.6825 45.6445C24.5031 45.6445 19.4937 47.6093 19.4937 50.033C19.4937 52.4567 24.5031 54.4214 30.6825 54.4214Z" fill="#B5DF77" stroke="#00C797" stroke-linecap="round" stroke-linejoin="round"/>
<path d="M30.6825 54.4217C36.8627 54.4217 41.8713 52.4577 41.8713 50.0332V53.1468C41.8713 55.5712 36.8627 57.5352 30.6825 57.5352C24.5023 57.5352 19.4937 55.5712 19.4937 53.1468V50.0332C19.4937 52.4577 24.5023 54.4217 30.6825 54.4217Z" fill="#00C797" stroke="#00C797" stroke-linecap="round" stroke-linejoin="round"/>
<path d="M32.1797 54.3805C33.0505 54.3335 33.89 54.2489 34.6856 54.1299V57.2435C33.89 57.3625 33.0505 57.4471 32.1797 57.494V54.3805Z" fill="#B5DF77"/>
<path d="M35.832 53.93C37.7866 53.5321 39.4029 52.9151 40.4711 52.1602V55.2737C39.4029 56.0286 37.7866 56.6457 35.832 57.0435V53.93Z" fill="black"/>
<path d="M30.6825 54.4217C36.8627 54.4217 41.8713 52.4577 41.8713 50.0332V53.1468C41.8713 55.5712 36.8627 57.5352 30.6825 57.5352C24.5023 57.5352 19.4937 55.5712 19.4937 53.1468V50.0332C19.4937 52.4577 24.5023 54.4217 30.6825 54.4217Z" stroke="#00C797" stroke-linecap="round" stroke-linejoin="round"/>
<path d="M35.832 57.0432C37.7866 56.6454 39.4029 56.0283 40.4711 55.2734" stroke="#00C797" stroke-linecap="round" stroke-linejoin="round"/>
<path d="M30.6825 51.3082C36.8619 51.3082 41.8713 49.3434 41.8713 46.9197C41.8713 44.496 36.8619 42.5312 30.6825 42.5312C24.5031 42.5312 19.4937 44.496 19.4937 46.9197C19.4937 49.3434 24.5031 51.3082 30.6825 51.3082Z" fill="#B5DF77" stroke="#00C797" stroke-linecap="round" stroke-linejoin="round"/>
<path d="M30.6825 51.3084C36.8627 51.3084 41.8713 49.3444 41.8713 46.9199V50.0335C41.8713 52.458 36.8627 54.422 30.6825 54.422C24.5023 54.422 19.4937 52.458 19.4937 50.0335V46.9199C19.4937 49.3444 24.5023 51.3084 30.6825 51.3084Z" fill="#00C797" stroke="#00C797" stroke-linecap="round" stroke-linejoin="round"/>
<path d="M32.1797 51.2682C33.0505 51.2212 33.89 51.1366 34.6856 51.0176V54.1312C33.89 54.2502 33.0505 54.3348 32.1797 54.3817V51.2682Z" fill="#B5DF77"/>
<path d="M35.832 50.8167C37.7866 50.4188 39.4029 49.8018 40.4711 49.0469V52.1604C39.4029 52.9153 37.7866 53.5324 35.832 53.9302V50.8167Z" fill="black"/>
<path d="M30.6825 51.3084C36.8627 51.3084 41.8713 49.3444 41.8713 46.9199V50.0335C41.8713 52.458 36.8627 54.422 30.6825 54.422C24.5023 54.422 19.4937 52.458 19.4937 50.0335V46.9199C19.4937 49.3444 24.5023 51.3084 30.6825 51.3084Z" stroke="#00C797" stroke-linecap="round" stroke-linejoin="round"/>
<path d="M35.832 53.93C37.7866 53.5321 39.4029 52.9151 40.4711 52.1602" stroke="#00C797" stroke-linecap="round" stroke-linejoin="round"/>
<path d="M30.6825 48.1949C36.8619 48.1949 41.8713 46.2301 41.8713 43.8064C41.8713 41.3828 36.8619 39.418 30.6825 39.418C24.5031 39.418 19.4937 41.3828 19.4937 43.8064C19.4937 46.2301 24.5031 48.1949 30.6825 48.1949Z" fill="#B5DF77" stroke="#00C797" stroke-linecap="round" stroke-linejoin="round"/>
<path d="M30.6825 48.1951C36.8627 48.1951 41.8713 46.2311 41.8713 43.8066V46.9202C41.8713 49.3447 36.8627 51.3087 30.6825 51.3087C24.5023 51.3087 19.4937 49.3447 19.4937 46.9202V43.8066C19.4937 46.2311 24.5023 48.1951 30.6825 48.1951Z" fill="#00C797" stroke="#00C797" stroke-linecap="round" stroke-linejoin="round"/>
<path d="M32.1797 48.1539C33.0505 48.1069 33.89 48.0224 34.6856 47.9033V51.0169C33.89 51.1359 33.0505 51.2205 32.1797 51.2675V48.1539Z" fill="#B5DF77"/>
<path d="M35.832 47.7024C37.7866 47.3046 39.4029 46.6875 40.4711 45.9326V49.0462C39.4029 49.8011 37.7866 50.4182 35.832 50.816V47.7024Z" fill="black"/>
<path d="M30.6825 48.1951C36.8627 48.1951 41.8713 46.2311 41.8713 43.8066V46.9202C41.8713 49.3447 36.8627 51.3087 30.6825 51.3087C24.5023 51.3087 19.4937 49.3447 19.4937 46.9202V43.8066C19.4937 46.2311 24.5023 48.1951 30.6825 48.1951Z" stroke="#00C797" stroke-linecap="round" stroke-linejoin="round"/>
<path d="M35.832 50.8167C37.7866 50.4188 39.4029 49.8018 40.4711 49.0469" stroke="#00C797" stroke-linecap="round" stroke-linejoin="round"/>
<path d="M48.8158 57.817C54.9952 57.817 60.0046 55.8522 60.0046 53.4285C60.0046 51.0048 54.9952 49.04 48.8158 49.04C42.6364 49.04 37.627 51.0048 37.627 53.4285C37.627 55.8522 42.6364 57.817 48.8158 57.817Z" fill="#B5DF77" stroke="#00C797" stroke-linecap="round" stroke-linejoin="round"/>
<path d="M48.8158 57.8172C54.996 57.8172 60.0046 55.8532 60.0046 53.4287V56.5423C60.0046 58.9667 54.996 60.9307 48.8158 60.9307C42.6356 60.9307 37.627 58.9667 37.627 56.5423V53.4287C37.627 55.8532 42.6356 57.8172 48.8158 57.8172Z" fill="#00C797" stroke="#00C797" stroke-linecap="round" stroke-linejoin="round"/>
<path d="M50.313 57.776C51.1838 57.729 52.0233 57.6444 52.8189 57.5254V60.639C52.0233 60.758 51.1838 60.8426 50.313 60.8896V57.776Z" fill="#B5DF77"/>
<path d="M53.9683 57.3255C55.9229 56.9277 57.5392 56.3106 58.6073 55.5557V58.6692C57.5392 59.4241 55.9229 60.0412 53.9683 60.439V57.3255Z" fill="black"/>
<path d="M48.8158 57.8172C54.996 57.8172 60.0046 55.8532 60.0046 53.4287V56.5423C60.0046 58.9667 54.996 60.9307 48.8158 60.9307C42.6356 60.9307 37.627 58.9667 37.627 56.5423V53.4287C37.627 55.8532 42.6356 57.8172 48.8158 57.8172Z" stroke="#00C797" stroke-linecap="round" stroke-linejoin="round"/>
<path d="M53.9683 60.4387C55.9229 60.0409 57.5392 59.4238 58.6073 58.6689" stroke="#00C797" stroke-linecap="round" stroke-linejoin="round"/>
<path d="M48.8158 54.7037C54.9952 54.7037 60.0046 52.7389 60.0046 50.3152C60.0046 47.8915 54.9952 45.9268 48.8158 45.9268C42.6364 45.9268 37.627 47.8915 37.627 50.3152C37.627 52.7389 42.6364 54.7037 48.8158 54.7037Z" fill="#B5DF77" stroke="#00C797" stroke-linecap="round" stroke-linejoin="round"/>
<path d="M48.8158 54.7039C54.996 54.7039 60.0046 52.7399 60.0046 50.3154V53.429C60.0046 55.8535 54.996 57.8175 48.8158 57.8175C42.6356 57.8175 37.627 55.8535 37.627 53.429V50.3154C37.627 52.7399 42.6356 54.7039 48.8158 54.7039Z" fill="#00C797" stroke="#00C797" stroke-linecap="round" stroke-linejoin="round"/>
<path d="M50.313 54.6627C51.1838 54.6157 52.0233 54.5311 52.8189 54.4121V57.5257C52.0233 57.6447 51.1838 57.7293 50.313 57.7763V54.6627Z" fill="#B5DF77"/>
<path d="M53.9683 54.2112C55.9229 53.8134 57.5392 53.1963 58.6073 52.4414V55.555C57.5392 56.3099 55.9229 56.927 53.9683 57.3248V54.2112Z" fill="black"/>
<path d="M48.8158 54.7039C54.996 54.7039 60.0046 52.7399 60.0046 50.3154V53.429C60.0046 55.8535 54.996 57.8175 48.8158 57.8175C42.6356 57.8175 37.627 55.8535 37.627 53.429V50.3154C37.627 52.7399 42.6356 54.7039 48.8158 54.7039Z" stroke="#00C797" stroke-linecap="round" stroke-linejoin="round"/>
<path d="M53.9683 57.3255C55.9229 56.9277 57.5392 56.3106 58.6073 55.5557" stroke="#00C797" stroke-linecap="round" stroke-linejoin="round"/>
<path d="M48.8158 51.5904C54.9952 51.5904 60.0046 49.6256 60.0046 47.2019C60.0046 44.7783 54.9952 42.8135 48.8158 42.8135C42.6364 42.8135 37.627 44.7783 37.627 47.2019C37.627 49.6256 42.6364 51.5904 48.8158 51.5904Z" fill="#B5DF77" stroke="#00C797" stroke-linecap="round" stroke-linejoin="round"/>
<path d="M48.8158 51.5906C54.996 51.5906 60.0046 49.6266 60.0046 47.2021V50.3157C60.0046 52.7402 54.996 54.7042 48.8158 54.7042C42.6356 54.7042 37.627 52.7402 37.627 50.3157V47.2021C37.627 49.6266 42.6356 51.5906 48.8158 51.5906Z" fill="#00C797" stroke="#00C797" stroke-linecap="round" stroke-linejoin="round"/>
<path d="M50.313 51.5494C51.1838 51.5024 52.0233 51.4179 52.8189 51.2988V54.4124C52.0233 54.5314 51.1838 54.616 50.313 54.663V51.5494Z" fill="#B5DF77"/>
<path d="M53.9683 51.0989C55.9229 50.7011 57.5392 50.084 58.6073 49.3291V52.4427C57.5392 53.1976 55.9229 53.8147 53.9683 54.2125V51.0989Z" fill="black"/>
<path d="M48.8158 51.5906C54.996 51.5906 60.0046 49.6266 60.0046 47.2021V50.3157C60.0046 52.7402 54.996 54.7042 48.8158 54.7042C42.6356 54.7042 37.627 52.7402 37.627 50.3157V47.2021C37.627 49.6266 42.6356 51.5906 48.8158 51.5906Z" stroke="#00C797" stroke-linecap="round" stroke-linejoin="round"/>
<path d="M53.9683 54.2122C55.9229 53.8144 57.5392 53.1973 58.6073 52.4424" stroke="#00C797" stroke-linecap="round" stroke-linejoin="round"/>
<path d="M46.4164 48.4419C52.5958 48.4419 57.6052 46.4772 57.6052 44.0535C57.6052 41.6298 52.5958 39.665 46.4164 39.665C40.237 39.665 35.2275 41.6298 35.2275 44.0535C35.2275 46.4772 40.237 48.4419 46.4164 48.4419Z" fill="#B5DF77" stroke="#00C797" stroke-linecap="round" stroke-linejoin="round"/>
<path d="M46.4164 48.4422C52.5966 48.4422 57.6052 46.4782 57.6052 44.0537V47.1673C57.6052 49.5917 52.5966 51.5557 46.4164 51.5557C40.2362 51.5557 35.2275 49.5917 35.2275 47.1673V44.0537C35.2275 46.4782 40.2362 48.4422 46.4164 48.4422Z" fill="#00C797" stroke="#00C797" stroke-linecap="round" stroke-linejoin="round"/>
<path d="M47.9136 48.401C48.7844 48.354 49.6239 48.2694 50.4195 48.1504V51.264C49.6239 51.383 48.7844 51.4676 47.9136 51.5146V48.401Z" fill="#B5DF77"/>
<path d="M51.5693 47.9475C53.5239 47.5497 55.1402 46.9326 56.2084 46.1777V49.2913C55.1402 50.0462 53.5239 50.6633 51.5693 51.0611V47.9475Z" fill="black"/>
<path d="M46.4164 48.4422C52.5966 48.4422 57.6052 46.4782 57.6052 44.0537V47.1673C57.6052 49.5917 52.5966 51.5557 46.4164 51.5557C40.2362 51.5557 35.2275 49.5917 35.2275 47.1673V44.0537C35.2275 46.4782 40.2362 48.4422 46.4164 48.4422Z" stroke="#00C797" stroke-linecap="round" stroke-linejoin="round"/>
<path d="M51.5693 51.0608C53.5239 50.663 55.1402 50.0459 56.2084 49.291" stroke="#00C797" stroke-linecap="round" stroke-linejoin="round"/>
<path d="M49.7777 44.5484C55.9571 44.5484 60.9665 42.5836 60.9665 40.1599C60.9665 37.7362 55.9571 35.7715 49.7777 35.7715C43.5983 35.7715 38.5889 37.7362 38.5889 40.1599C38.5889 42.5836 43.5983 44.5484 49.7777 44.5484Z" fill="#B5DF77" stroke="#00C797" stroke-linecap="round" stroke-linejoin="round"/>
<path d="M49.7777 44.5486C55.9579 44.5486 60.9665 42.5846 60.9665 40.1602V43.2737C60.9665 45.6982 55.9579 47.6622 49.7777 47.6622C43.5975 47.6622 38.5889 45.6982 38.5889 43.2737V40.1602C38.5889 42.5846 43.5975 44.5486 49.7777 44.5486Z" fill="#00C797" stroke="#00C797" stroke-linecap="round" stroke-linejoin="round"/>
<path d="M51.2749 44.5074C52.1457 44.4604 52.9852 44.3759 53.7808 44.2568V47.3704C52.9852 47.4894 52.1457 47.574 51.2749 47.621V44.5074Z" fill="#B5DF77"/>
<path d="M54.9277 44.0569C56.8823 43.6591 58.4986 43.042 59.5668 42.2871V45.4007C58.4986 46.1556 56.8823 46.7727 54.9277 47.1705V44.0569Z" fill="black"/>
<path d="M49.7777 44.5486C55.9579 44.5486 60.9665 42.5846 60.9665 40.1602V43.2737C60.9665 45.6982 55.9579 47.6622 49.7777 47.6622C43.5975 47.6622 38.5889 45.6982 38.5889 43.2737V40.1602C38.5889 42.5846 43.5975 44.5486 49.7777 44.5486Z" stroke="#00C797" stroke-linecap="round" stroke-linejoin="round"/>
<path d="M54.9277 47.1702C56.8823 46.7724 58.4986 46.1553 59.5668 45.4004" stroke="#00C797" stroke-linecap="round" stroke-linejoin="round"/>
<path d="M29.1884 62.1998C35.3678 62.1998 40.3772 60.235 40.3772 57.8113C40.3772 55.3876 35.3678 53.4229 29.1884 53.4229C23.0089 53.4229 17.9995 55.3876 17.9995 57.8113C17.9995 60.235 23.0089 62.1998 29.1884 62.1998Z" fill="#B5DF77" stroke="#00C797" stroke-linecap="round" stroke-linejoin="round"/>
<path d="M29.1884 62.2C35.3685 62.2 40.3772 60.236 40.3772 57.8115V60.9251C40.3772 63.3496 35.3685 65.3136 29.1884 65.3136C23.0082 65.3136 17.9995 63.3496 17.9995 60.9251V57.8115C17.9995 60.236 23.0082 62.2 29.1884 62.2Z" fill="#00C797" stroke="#00C797" stroke-linecap="round" stroke-linejoin="round"/>
<path d="M30.6826 62.1588C31.5534 62.1118 32.3929 62.0272 33.1885 61.9082V65.0218C32.3929 65.1408 31.5534 65.2254 30.6826 65.2724V62.1588Z" fill="#B5DF77"/>
<path d="M34.3379 61.7073C36.2925 61.3095 37.9088 60.6924 38.9769 59.9375V63.0511C37.9088 63.806 36.2925 64.4231 34.3379 64.8209V61.7073Z" fill="black"/>
<path d="M29.1884 62.2C35.3685 62.2 40.3772 60.236 40.3772 57.8115V60.9251C40.3772 63.3496 35.3685 65.3136 29.1884 65.3136C23.0082 65.3136 17.9995 63.3496 17.9995 60.9251V57.8115C17.9995 60.236 23.0082 62.2 29.1884 62.2Z" stroke="#00C797" stroke-linecap="round" stroke-linejoin="round"/>
<path d="M34.3379 64.8216C36.2925 64.4237 37.9088 63.8067 38.9769 63.0518" stroke="#00C797" stroke-linecap="round" stroke-linejoin="round"/>
<path d="M73.8525 56.8976C73.8525 56.8976 73.8525 56.8941 73.8525 56.8906C73.8525 56.8906 73.8525 56.8941 73.8525 56.8976Z" fill="#00C797" stroke="#00C797" stroke-linecap="round" stroke-linejoin="round"/>
</svg>
