<svg width="64" height="51" viewBox="0 0 64 51" fill="none" xmlns="http://www.w3.org/2000/svg">
<path d="M19.9158 6.82767L31.7914 6.62971C31.8793 6.62971 31.9673 6.65175 32.0552 6.67374L20.1797 6.87165C20.0917 6.82766 19.9817 6.82767 19.9158 6.82767Z" fill="#EBE9E9" stroke="#00C797" stroke-linecap="round" stroke-linejoin="round"/>
<path d="M20.1768 6.87164L32.0304 6.65172L33.2619 7.11357L21.4083 7.31147L20.1768 6.87164Z" fill="#EBE9E9" stroke="#00C797" stroke-linecap="round" stroke-linejoin="round"/>
<path d="M33.5284 7.15776L21.6528 7.35566C21.5648 7.35566 21.4769 7.33368 21.3889 7.31169L33.2645 7.11378C33.3525 7.13578 33.4404 7.15776 33.5284 7.15776Z" fill="#EBE9E9" stroke="#00C797" stroke-linecap="round" stroke-linejoin="round"/>
<path d="M23.6993 4.23294L35.5749 4.03503C35.6629 4.03503 35.7508 4.05702 35.8388 4.07901L23.9632 4.27691C23.8753 4.25492 23.7873 4.23294 23.6993 4.23294Z" fill="#EBE9E9" stroke="#00C797" stroke-linecap="round" stroke-linejoin="round"/>
<path d="M23.964 4.27659L35.8396 4.07869L37.0711 4.51853L25.1956 4.73844L23.964 4.27659Z" fill="#EBE9E9" stroke="#00C797" stroke-linecap="round" stroke-linejoin="round"/>
<path d="M37.3341 4.56248L25.4585 4.76039C25.3705 4.76039 25.2825 4.73841 25.1946 4.71641L37.0702 4.51851C37.1581 4.56249 37.2461 4.56248 37.3341 4.56248Z" fill="#EBE9E9" stroke="#00C797" stroke-linecap="round" stroke-linejoin="round"/>
<path d="M27.4795 1.6596L39.3551 1.46164C39.443 1.46164 39.531 1.48367 39.619 1.50567L27.7434 1.70357C27.6554 1.65959 27.5675 1.6596 27.4795 1.6596Z" fill="#EBE9E9" stroke="#00C797" stroke-linecap="round" stroke-linejoin="round"/>
<path d="M39.7059 45.6872C39.332 45.6872 38.9801 45.9951 38.8702 46.4789L38.5183 47.9963C38.4084 48.4802 38.0565 48.7881 37.6826 48.7881L49.5582 48.5901C49.9321 48.5901 50.2839 48.2822 50.3939 47.7984L50.7458 46.281C50.8557 45.7971 51.2076 45.4893 51.5815 45.4893L39.7059 45.6872Z" fill="#00C797" stroke="#00C797" stroke-linecap="round" stroke-linejoin="round"/>
<path d="M43.5118 43.0921C43.1379 43.0921 42.786 43.4001 42.6761 43.8839L42.3242 45.4013C42.2142 45.8851 41.8624 46.193 41.4885 46.193L53.3641 45.9951C53.738 45.9951 54.0898 45.6872 54.1998 45.2034L54.5517 43.6859C54.6616 43.2021 55.0135 42.8942 55.3873 42.8942L43.5118 43.0921Z" fill="#00C797" stroke="#00C797" stroke-linecap="round" stroke-linejoin="round"/>
<path d="M32.275 7.59745L44.1506 7.39949C45.5361 7.3775 46.9436 7.59746 48.351 8.10327C55.8942 10.8522 60.2706 20.6386 58.1154 29.9851C56.3561 37.5943 50.8361 42.5644 44.7664 42.6744L32.8908 42.8723C38.9605 42.7623 44.4805 37.7922 46.2398 30.183C48.395 20.8365 44.0186 11.0282 36.4755 8.30118C35.068 7.79536 33.6605 7.55346 32.275 7.59745Z" fill="#EBE9E9" stroke="#00C797" stroke-linecap="round" stroke-linejoin="round"/>
<path d="M27.7438 1.70369L39.6194 1.50578L58.5323 8.36722L46.6567 8.56512L27.7438 1.70369Z" fill="#EBE9E9" stroke="#00C797" stroke-linecap="round" stroke-linejoin="round"/>
<path d="M60.6452 13.0956L59.4137 12.6558C58.9299 12.4799 58.666 11.8641 58.7979 11.2923L59.1498 9.77486C59.2817 9.18108 59.0178 8.56532 58.534 8.41138L46.6584 8.60928C47.1423 8.78522 47.4062 9.40103 47.2742 9.97282L46.9223 11.4902C46.7904 12.084 47.0543 12.6998 47.5381 12.8537L48.7697 13.2935L60.6452 13.0956Z" fill="#EBE9E9" stroke="#00C797" stroke-linecap="round" stroke-linejoin="round"/>
<path d="M62.7557 17.8235L61.5242 17.3837C61.0404 17.2077 60.7764 16.592 60.9084 16.0202L61.2603 14.5027C61.3922 13.909 61.1283 13.2932 60.6445 13.1393L48.7689 13.3372C49.2527 13.5131 49.5167 14.1289 49.3847 14.7007L49.0328 16.2181C48.9009 16.8119 49.1648 17.4276 49.6486 17.5816L50.8801 18.0214L62.7557 17.8235Z" fill="#EBE9E9" stroke="#00C797" stroke-linecap="round" stroke-linejoin="round"/>
<path d="M26.645 2.45157C26.7769 1.85779 27.2828 1.52794 27.7446 1.70387L46.6575 8.58732C47.1414 8.76326 47.4053 9.37902 47.2733 9.9508L46.9214 11.4682C46.7895 12.062 47.0534 12.6778 47.5372 12.8318L48.7688 13.2716C49.2526 13.4475 49.5165 14.0633 49.3845 14.6351L49.0326 16.1525C48.9007 16.7463 49.1646 17.362 49.6484 17.516L50.88 17.9558C51.3638 18.1317 51.6277 18.7476 51.4957 19.3193L46.1077 42.7626C45.9758 43.3564 45.47 43.6863 45.0082 43.5103L43.7766 43.0705C43.2928 42.8946 42.809 43.2244 42.677 43.8182L42.3251 45.3356C42.1932 45.9294 41.6874 46.2593 41.2256 46.0834L39.994 45.6435C39.5102 45.4676 39.0264 45.7975 38.8944 46.3912L38.5426 47.9087C38.4106 48.5025 37.9048 48.8323 37.443 48.6564L18.53 41.773C18.0462 41.597 17.7823 40.9813 17.9142 40.4095L18.2661 38.8921C18.3981 38.2983 18.1342 37.6825 17.6503 37.5285L16.4188 37.0887C15.935 36.9128 15.6711 36.297 15.803 35.7252L16.1549 34.2078C16.2868 33.614 16.0229 32.9983 15.5391 32.8443L14.3076 32.4045C13.8238 32.2285 13.5599 31.6127 13.6918 31.0409L19.0798 7.59769C19.2118 7.00391 19.6956 6.674 20.1794 6.84994L21.4109 7.28977C21.8948 7.46571 22.3786 7.11386 22.5105 6.54207L22.8624 5.02466C22.9943 4.43088 23.5001 4.10097 23.962 4.27691L25.1935 4.71674C25.6774 4.89268 26.1612 4.54083 26.2931 3.96904L26.645 2.45157Z" fill="#EBE9E9" stroke="#00C797" stroke-linecap="round" stroke-linejoin="round"/>
<path d="M63.3714 19.1873C63.5033 18.5936 63.2394 17.9778 62.7556 17.8239L50.88 18.0218C51.3638 18.1977 51.6277 18.8135 51.4958 19.3852L46.1078 42.8285C45.9978 43.3123 45.646 43.6203 45.2721 43.6203L57.1477 43.4223C57.5215 43.4223 57.8734 43.1144 57.9834 42.6306L63.3714 19.1873Z" fill="#EBE9E9" stroke="#00C797" stroke-linecap="round" stroke-linejoin="round"/>
<path d="M16.5016 46.9629C16.3037 46.9629 16.1058 47.0508 15.9518 47.2048L14.9402 48.1944C14.7862 48.3483 14.5883 48.4363 14.3904 48.4363L26.0021 48.2384C26.2 48.2384 26.3979 48.1504 26.5519 47.9965L27.5635 47.0069C27.7174 46.8529 27.9154 46.7649 28.1133 46.7649L16.5016 46.9629Z" fill="#00C797" stroke="#00C797" stroke-linecap="round" stroke-linejoin="round"/>
<path d="M20.8556 47.5789C20.6577 47.5789 20.4597 47.6668 20.3058 47.8208L19.2942 48.8104C19.1402 48.9644 18.9423 49.0523 18.7444 49.0523L30.3561 48.8544C30.554 48.8544 30.7519 48.7665 30.9059 48.6125L31.9175 47.6229C32.0714 47.4689 32.2694 47.381 32.4673 47.381L20.8556 47.5789Z" fill="#00C797" stroke="#00C797" stroke-linecap="round" stroke-linejoin="round"/>
<path d="M31.4761 2.67135L30.6624 1.41782C30.4864 1.13193 30.2005 1 29.9366 1L18.325 1.1979C18.5889 1.1979 18.8748 1.32989 19.0507 1.61578L19.8644 2.8693C20.0403 3.1552 20.3262 3.28713 20.5901 3.28713L32.2018 3.08922C31.9379 3.08922 31.652 2.93525 31.4761 2.67135Z" fill="#EBE9E9" stroke="#00C797" stroke-linecap="round" stroke-linejoin="round"/>
<path d="M35.8336 3.28689L35.0199 2.03336C34.844 1.74747 34.5581 1.61554 34.2942 1.61554L22.6825 1.81344C22.9464 1.81344 23.2103 1.94537 23.4082 2.23127L24.2219 3.48484C24.3979 3.77074 24.6837 3.90267 24.9476 3.90267L36.5593 3.70476C36.2954 3.70476 36.0315 3.55079 35.8336 3.28689Z" fill="#EBE9E9" stroke="#00C797" stroke-linecap="round" stroke-linejoin="round"/>
<path d="M39.1746 34.2516L23.6704 49.426C23.5165 49.5799 23.3185 49.6679 23.1206 49.6679L34.7323 49.4699C34.9302 49.4699 35.1281 49.382 35.2821 49.2281L50.7863 34.0537L39.1746 34.2516Z" fill="#00C797" stroke="#00C797" stroke-linecap="round" stroke-linejoin="round"/>
<path d="M39.1098 24.5311L40.1214 23.5415L51.7331 23.3435L50.7215 24.3332C50.3256 24.707 50.2816 25.4108 50.5895 25.8946L38.9778 26.0925C38.6479 25.6087 38.7139 24.927 39.1098 24.5311Z" fill="#00C797" stroke="#00C797" stroke-linecap="round" stroke-linejoin="round"/>
<path d="M50.9182 32.4921L50.1045 31.2386L38.4928 31.4365L39.3065 32.69C39.6144 33.1738 39.5484 33.8776 39.1745 34.2515L50.7862 34.0535C51.1601 33.6797 51.2261 32.9759 50.9182 32.4921Z" fill="#EBE9E9" stroke="#00C797" stroke-linecap="round" stroke-linejoin="round"/>
<path d="M51.247 28.7098L39.6353 28.9077L38.6237 29.8973C38.2278 30.2712 38.1838 30.975 38.4917 31.4588L50.1034 31.2608C49.7955 30.777 49.8615 30.0733 50.2353 29.6994L51.247 28.7098Z" fill="#00C797" stroke="#00C797" stroke-linecap="round" stroke-linejoin="round"/>
<path d="M51.3791 27.1482L50.5654 25.8947L38.9537 26.0926L39.7674 27.3462C40.0753 27.83 40.0093 28.5337 39.6355 28.9076L51.2472 28.7096C51.643 28.3138 51.687 27.632 51.3791 27.1482Z" fill="#EBE9E9" stroke="#00C797" stroke-linecap="round" stroke-linejoin="round"/>
<path d="M51.8657 21.8043L39.3964 2.64943C39.2204 2.36354 38.9345 2.23155 38.6706 2.23155L27.059 2.42951C27.3229 2.42951 27.5867 2.56144 27.7847 2.84733L40.254 22.0022C40.5619 22.486 40.4959 23.1897 40.1221 23.5636L51.7338 23.3657C52.1076 22.9699 52.1736 22.2881 51.8657 21.8043Z" fill="#EBE9E9" stroke="#00C797" stroke-linecap="round" stroke-linejoin="round"/>
<path d="M26.5076 2.67119C26.9035 2.29733 27.4533 2.36331 27.7831 2.84713L40.2525 22.002C40.5604 22.4858 40.4944 23.1895 40.1205 23.5634L39.1089 24.553C38.7131 24.9269 38.6691 25.6307 38.977 26.1145L39.7907 27.368C40.0986 27.8518 40.0326 28.5556 39.6587 28.9294L38.6471 29.9191C38.2513 30.2929 38.2073 30.9966 38.5152 31.4805L39.3288 32.734C39.6367 33.2179 39.5708 33.9216 39.1969 34.2954L23.6927 49.4698C23.2968 49.8436 22.747 49.7776 22.4171 49.2938L21.6034 48.0403C21.2956 47.5565 20.7238 47.4685 20.3279 47.8644L19.3163 48.854C18.9204 49.2279 18.3707 49.1619 18.0408 48.6781L17.2271 47.4245C16.9192 46.9407 16.3474 46.8528 15.9516 47.2486L14.9399 48.2383C14.5441 48.6121 13.9943 48.5461 13.6644 48.0623L1.19503 28.9074C0.887148 28.4236 0.953145 27.7199 1.32701 27.346L2.33862 26.3564C2.73448 25.9825 2.80045 25.2788 2.47057 24.795L1.65688 23.5414C1.349 23.0576 1.41497 22.3539 1.78883 21.98L2.80045 20.9904C3.1963 20.6165 3.26227 19.9128 2.93239 19.429L2.11871 18.1754C1.81082 17.6916 1.87679 16.9879 2.25065 16.614L17.7549 1.43968C18.1507 1.06582 18.7005 1.1318 19.0304 1.61562L19.8441 2.86915C20.152 3.35297 20.7238 3.44094 21.1196 3.04509L22.1313 2.05546C22.5271 1.6816 23.0769 1.74753 23.4068 2.23135L24.2205 3.48493C24.5284 3.96875 25.1001 4.05667 25.496 3.66082L26.5076 2.67119Z" fill="#EBE9E9" stroke="#00C797" stroke-linecap="round" stroke-linejoin="round"/>
<path d="M24.0464 15.5801C24.3983 15.2282 24.9261 15.3161 25.212 15.756L25.9597 16.8996C26.2456 17.3394 26.1796 17.9772 25.8277 18.307L24.2663 19.8244L22.485 17.0975L24.0464 15.5801Z" fill="#00C797"/>
<path d="M16.1079 14.4586C16.4598 14.1068 16.9876 14.1948 17.2735 14.6346L18.527 16.5699L20.0884 15.0524C20.4403 14.7005 20.9681 14.7885 21.254 15.2284L22.5075 17.1637L15.888 23.6292L17.6693 26.3562L24.2888 19.8906L26.0702 22.6176L19.4506 29.0832L21.232 31.8102L27.8515 25.3446L26.0702 22.6176L27.6316 21.1002C27.9835 20.7483 28.5113 20.8363 28.7972 21.2761L31.3042 25.1247C31.5901 25.5645 31.5242 26.2023 31.1723 26.5321L27.4117 30.2268L28.6652 32.1621C28.9511 32.6019 28.8851 33.2396 28.5333 33.5695L27.6096 34.4712C27.2578 34.8231 26.7299 34.7351 26.4441 34.2952L25.1905 32.36L22.9914 34.5152L24.2449 36.4505C24.5308 36.8903 24.4648 37.528 24.1129 37.8579L23.1893 38.7596C22.8374 39.1115 22.3096 39.0235 22.0237 38.5837L20.7702 36.6484L19.2087 38.1658C18.8569 38.5177 18.3291 38.4297 18.0432 37.9899L17.2955 36.8463C17.0096 36.4065 17.0755 35.7687 17.4274 35.4388L18.9888 33.9214L13.6668 25.7624L12.1054 27.2799C11.7535 27.6318 11.2257 27.5438 10.9398 27.1039L10.1921 25.9604C9.90621 25.5205 9.97218 24.8827 10.324 24.5529L11.8855 23.0355L10.6319 21.1002C10.346 20.6603 10.412 20.0226 10.7639 19.6927L11.6876 18.791C12.0394 18.4392 12.5672 18.5271 12.8531 18.967L14.1067 20.9023L16.3058 18.747L15.0523 16.8118C14.7664 16.3719 14.8324 15.7342 15.1843 15.4043L16.1079 14.4586Z" fill="#00C797"/>
<path d="M21.0144 43.2019C20.9485 43.2019 20.8605 43.2019 20.7725 43.2019C20.6845 43.2019 20.5966 43.1139 20.5966 43.0259C20.5966 42.938 20.6625 42.85 20.7725 42.85C20.8385 42.85 20.9264 42.85 20.9924 42.85C21.0804 42.85 21.1684 42.916 21.1684 43.0259C21.1904 43.1359 21.1024 43.2019 21.0144 43.2019ZM19.1671 43.0919C19.0792 43.0699 18.9912 43.0699 18.9032 43.048C18.8152 43.026 18.7493 42.938 18.7493 42.85C18.7713 42.7621 18.8592 42.6961 18.9472 42.7181C19.0132 42.7401 19.1011 42.7401 19.1671 42.762C19.2551 42.784 19.3211 42.872 19.3211 42.96C19.3211 43.026 19.2551 43.0919 19.1671 43.0919ZM17.3638 42.6741C17.3418 42.6741 17.3198 42.6741 17.3198 42.6741C17.2538 42.6521 17.1659 42.6301 17.0999 42.6081C17.0119 42.5861 16.9679 42.4762 16.9899 42.3882C17.0119 42.3002 17.1219 42.2562 17.2098 42.2782C17.2758 42.3002 17.3638 42.3222 17.4298 42.3442C17.5177 42.3662 17.5837 42.4762 17.5397 42.5641C17.5177 42.6301 17.4517 42.6741 17.3638 42.6741ZM15.6484 42.0143C15.6264 42.0143 15.6044 42.0143 15.5824 41.9923C15.5165 41.9703 15.4505 41.9264 15.3625 41.8824C15.2746 41.8384 15.2306 41.7285 15.2966 41.6405C15.3405 41.5525 15.4505 41.5085 15.5385 41.5525C15.6044 41.5745 15.6704 41.6185 15.7364 41.6405C15.8244 41.6845 15.8683 41.7944 15.8243 41.8824C15.7804 41.9703 15.7144 42.0143 15.6484 42.0143ZM14.043 41.1127C13.999 41.1127 13.977 41.1127 13.955 41.0907C13.8891 41.0467 13.8231 41.0027 13.7571 40.9587C13.6692 40.9147 13.6692 40.8048 13.7131 40.7168C13.7571 40.6288 13.8671 40.6288 13.955 40.6728C14.021 40.7168 14.087 40.7608 14.153 40.8048C14.2409 40.8488 14.2629 40.9587 14.197 41.0467C14.153 41.0687 14.109 41.1127 14.043 41.1127ZM12.5696 39.9911C12.5256 39.9911 12.4816 39.9691 12.4596 39.9471C12.3936 39.9031 12.3496 39.8371 12.2837 39.7932C12.2177 39.7272 12.1957 39.6173 12.2617 39.5513C12.3277 39.4853 12.4376 39.4633 12.5036 39.5293C12.5696 39.5732 12.6136 39.6392 12.6795 39.6832C12.7455 39.7492 12.7675 39.8591 12.7015 39.9251C12.6575 39.9691 12.6136 39.9911 12.5696 39.9911ZM11.2501 38.7156C11.2061 38.7156 11.1621 38.6936 11.1181 38.6716C11.0741 38.6056 11.0081 38.5616 10.9642 38.4957C10.8982 38.4297 10.8982 38.3197 10.9861 38.2537C11.0521 38.1878 11.1621 38.1878 11.2281 38.2757C11.2721 38.3417 11.338 38.3857 11.382 38.4517C11.448 38.5177 11.448 38.6276 11.36 38.6936C11.338 38.6936 11.294 38.7156 11.2501 38.7156ZM10.0845 37.2861C10.0405 37.2861 9.97454 37.2641 9.93056 37.2201L9.79861 37.0222C9.75463 36.9342 9.75462 36.8463 9.84258 36.7803C9.93055 36.7363 10.0185 36.7363 10.0845 36.8243L10.2164 37.0002C10.2824 37.0882 10.2604 37.1762 10.1725 37.2421C10.1505 37.2641 10.1065 37.2861 10.0845 37.2861ZM9.07287 35.7467C9.0069 35.7467 8.94093 35.7247 8.91894 35.6587L8.80898 35.4608C8.765 35.3728 8.78697 35.2628 8.87494 35.2188C8.96291 35.1749 9.07286 35.1969 9.11684 35.2848L9.2268 35.4828C9.27079 35.5708 9.24881 35.6807 9.16084 35.7247C9.11686 35.7247 9.09486 35.7467 9.07287 35.7467ZM8.21519 34.0973C8.14921 34.0973 8.08325 34.0533 8.06125 33.9873L7.97328 33.7674C7.9293 33.6795 7.97329 33.5695 8.06125 33.5475C8.14922 33.5035 8.25918 33.5475 8.28117 33.6354L8.36914 33.8334C8.41313 33.9214 8.36914 34.0313 8.28117 34.0533C8.25918 34.0973 8.23718 34.0973 8.21519 34.0973ZM7.51146 32.4039C7.44548 32.4039 7.3795 32.36 7.33551 32.294L7.26955 32.0741C7.24756 31.9861 7.29155 31.8761 7.37951 31.8541C7.46748 31.8321 7.57744 31.8761 7.59943 31.9641L7.66539 32.184C7.68738 32.272 7.6434 32.3819 7.55543 32.4039C7.55543 32.3819 7.53345 32.3819 7.51146 32.4039ZM6.98365 30.6226C6.89568 30.6226 6.8297 30.5786 6.8077 30.4906L6.76373 30.2707C6.74174 30.1827 6.80771 30.0728 6.89568 30.0728C6.98364 30.0508 7.07162 30.1168 7.09361 30.2048L7.13758 30.4247C7.15957 30.5126 7.0936 30.6226 7.00564 30.6446C7.00564 30.6226 7.00564 30.6226 6.98365 30.6226ZM6.6098 28.8193C6.52183 28.8193 6.45585 28.7533 6.43385 28.6653L6.38988 28.4454C6.36789 28.3574 6.43385 28.2694 6.54381 28.2475C6.63178 28.2255 6.71975 28.2914 6.74174 28.4014L6.78572 28.6213C6.80771 28.7093 6.74175 28.7973 6.6098 28.8193C6.63179 28.8193 6.63179 28.8193 6.6098 28.8193ZM6.38988 26.9939C6.30191 26.9939 6.21394 26.928 6.21394 26.84L6.19195 26.5981C6.19195 26.5101 6.25791 26.4221 6.34588 26.4221C6.43385 26.4221 6.52183 26.4881 6.52183 26.5761L6.54381 26.796C6.5658 26.906 6.49984 26.9719 6.38988 26.9939ZM6.32389 25.1466C6.21394 25.1466 6.14795 25.0587 6.14795 24.9707V24.7288C6.14795 24.6408 6.23593 24.5528 6.32389 24.5528C6.41186 24.5528 6.49984 24.6408 6.49984 24.7288V24.9487C6.49984 25.0586 6.43385 25.1466 6.32389 25.1466ZM6.43385 23.2993C6.32389 23.2993 6.25791 23.2113 6.25791 23.1014L6.27992 22.8595C6.27992 22.7715 6.36787 22.6835 6.47783 22.7055C6.56579 22.7055 6.65378 22.7935 6.63179 22.9034L6.6098 23.1233C6.58781 23.2333 6.49983 23.2993 6.43385 23.2993ZM6.67576 21.474C6.65377 21.474 6.65378 21.474 6.63179 21.474C6.54382 21.452 6.47785 21.364 6.49984 21.2761L6.54381 21.0561C6.5658 20.9682 6.65378 20.9022 6.74174 20.9242C6.82971 20.9462 6.89568 21.0342 6.87369 21.1221L6.82972 21.342C6.82972 21.408 6.76373 21.474 6.67576 21.474ZM7.09361 19.6706C7.07162 19.6706 7.04964 19.6706 7.04964 19.6706C6.96167 19.6487 6.89567 19.5387 6.91766 19.4507C6.93965 19.3848 6.96166 19.2968 6.98365 19.2308C7.00564 19.1428 7.1156 19.0769 7.20357 19.1208C7.29153 19.1428 7.35751 19.2528 7.31353 19.3408C7.29153 19.4067 7.26953 19.4947 7.24754 19.5607C7.22555 19.6267 7.15958 19.6706 7.09361 19.6706ZM7.66539 17.9113C7.6434 17.9113 7.62142 17.9113 7.59943 17.8893C7.51146 17.8673 7.46748 17.7574 7.48947 17.6694C7.51146 17.6034 7.53343 17.5155 7.57742 17.4495C7.6214 17.3615 7.70937 17.3175 7.79734 17.3615C7.8853 17.4055 7.92929 17.4935 7.88531 17.5814C7.86332 17.6474 7.84132 17.7134 7.79734 17.8013C7.79734 17.8673 7.73137 17.9113 7.66539 17.9113ZM8.39113 16.24C8.36914 16.24 8.34714 16.2399 8.30316 16.2179C8.21519 16.174 8.1712 16.064 8.21519 15.976C8.25917 15.91 8.28116 15.8441 8.32514 15.7781C8.36913 15.6901 8.47908 15.6681 8.56705 15.7121C8.65502 15.7561 8.67702 15.8661 8.63303 15.9541C8.58905 16.02 8.56706 16.086 8.52308 16.152C8.52308 16.1959 8.45711 16.24 8.39113 16.24ZM9.29279 14.6125C9.24881 14.6125 9.22681 14.6126 9.20482 14.5906C9.11685 14.5466 9.09487 14.4366 9.16084 14.3486C9.20483 14.2827 9.24881 14.2167 9.29279 14.1507C9.33677 14.0628 9.44673 14.0407 9.53469 14.1067C9.62266 14.1507 9.64467 14.2607 9.57869 14.3486C9.53471 14.4146 9.49071 14.4806 9.44672 14.5465C9.40274 14.5905 9.35876 14.6125 9.29279 14.6125Z" fill="#00C797"/>
<path d="M32.496 35.8566C32.474 35.8566 32.43 35.8566 32.408 35.8346C32.32 35.7907 32.298 35.6807 32.342 35.5928C32.386 35.5268 32.408 35.4608 32.452 35.3948C32.496 35.3068 32.6059 35.2848 32.6939 35.3288C32.7819 35.3728 32.8038 35.4828 32.7599 35.5707C32.7159 35.6367 32.6939 35.7027 32.6499 35.7687C32.6059 35.8126 32.5399 35.8566 32.496 35.8566ZM33.3317 34.2073C33.3097 34.2073 33.2877 34.2072 33.2657 34.1853C33.1777 34.1413 33.1337 34.0533 33.1777 33.9653C33.1997 33.8994 33.2437 33.8334 33.2657 33.7674C33.3097 33.6795 33.3976 33.6354 33.4856 33.6794C33.5736 33.7234 33.6176 33.8114 33.5736 33.8993C33.5516 33.9653 33.5076 34.0313 33.4856 34.1193C33.4636 34.1852 33.3976 34.2073 33.3317 34.2073ZM34.0134 32.4919C33.9914 32.4919 33.9694 32.4919 33.9474 32.4919C33.8594 32.4699 33.8155 32.3599 33.8375 32.272L33.9034 32.0521C33.9254 31.9641 34.0354 31.9201 34.1234 31.9421C34.2113 31.9641 34.2553 32.074 34.2333 32.162L34.1673 32.3819C34.1453 32.4479 34.0794 32.4919 34.0134 32.4919ZM34.5192 30.7105C34.4972 30.7105 34.4972 30.7105 34.4752 30.7105C34.3873 30.6885 34.3213 30.6006 34.3433 30.5126C34.3653 30.4467 34.3873 30.3587 34.3873 30.2927C34.4092 30.2047 34.4972 30.1387 34.5852 30.1607C34.6732 30.1827 34.7391 30.2707 34.7171 30.3587C34.6951 30.4247 34.6732 30.5126 34.6732 30.5786C34.6732 30.6666 34.5852 30.7105 34.5192 30.7105ZM34.8711 28.9072C34.7611 28.8852 34.6951 28.7973 34.6951 28.7093C34.7171 28.6433 34.7171 28.5554 34.7391 28.4894C34.7611 28.4014 34.8271 28.3355 34.937 28.3355C35.025 28.3575 35.091 28.4454 35.091 28.5334C35.069 28.6213 35.069 28.6873 35.047 28.7753C35.025 28.8413 34.9591 28.9072 34.8711 28.9072ZM35.069 27.0819C34.959 27.0819 34.8931 26.994 34.8931 26.906C34.8931 26.818 34.8931 26.7521 34.9151 26.6861C34.9151 26.5981 35.003 26.5101 35.091 26.5101C35.179 26.5101 35.2669 26.5981 35.2669 26.6861C35.2669 26.774 35.2669 26.84 35.2449 26.928C35.2229 26.9939 35.157 27.0819 35.069 27.0819ZM35.091 25.2346C35.003 25.2346 34.9151 25.1686 34.9151 25.0586C34.9151 24.9707 34.9151 24.9047 34.9151 24.8387C34.9151 24.7508 34.981 24.6628 35.091 24.6628C35.179 24.6628 35.2669 24.7288 35.2669 24.8387C35.2669 24.9267 35.2669 24.9927 35.2669 25.0807C35.2669 25.1466 35.201 25.2346 35.091 25.2346ZM34.981 23.3873C34.8931 23.3873 34.8051 23.3213 34.8051 23.2333L34.7831 23.0134C34.7611 22.9254 34.8491 22.8375 34.937 22.8155C35.025 22.7935 35.113 22.8815 35.135 22.9694L35.157 23.2114C35.157 23.2993 35.091 23.3653 34.981 23.3873ZM34.6951 21.562C34.6072 21.562 34.5412 21.518 34.5192 21.43L34.4752 21.2101C34.4532 21.1221 34.5192 21.0342 34.6072 21.0122C34.6951 20.9902 34.7831 21.0561 34.8051 21.1441L34.8491 21.364C34.8711 21.452 34.8051 21.54 34.6951 21.562C34.7171 21.562 34.7171 21.562 34.6951 21.562ZM34.2773 19.7587C34.2113 19.7587 34.1234 19.7146 34.1014 19.6267L34.0354 19.4068C34.0134 19.3188 34.0574 19.2088 34.1453 19.1868C34.2333 19.1649 34.3213 19.2088 34.3653 19.2968L34.4313 19.5167C34.4532 19.6047 34.4093 19.7146 34.3213 19.7366C34.2993 19.7586 34.2773 19.7587 34.2773 19.7587ZM33.6835 18.0213C33.6176 18.0213 33.5516 17.9773 33.5076 17.9113L33.4196 17.6914C33.3756 17.6034 33.4196 17.4935 33.5076 17.4715C33.5955 17.4275 33.7055 17.4715 33.7275 17.5595C33.7495 17.6254 33.7935 17.6914 33.8155 17.7794C33.8595 17.8674 33.8155 17.9773 33.7275 17.9993C33.7275 18.0213 33.7055 18.0213 33.6835 18.0213ZM32.9358 16.3279C32.8698 16.3279 32.8039 16.3059 32.7819 16.24C32.7379 16.174 32.7159 16.108 32.6719 16.042C32.6279 15.954 32.6499 15.8441 32.7379 15.8001C32.8258 15.7561 32.9358 15.7781 32.9798 15.8661C33.0238 15.932 33.0457 15.998 33.0897 16.064C33.1337 16.152 33.0897 16.2619 33.0238 16.3059C32.9798 16.3279 32.9578 16.3279 32.9358 16.3279ZM32.0122 14.7225C31.9462 14.7225 31.9022 14.7005 31.8582 14.6346C31.8142 14.5686 31.7702 14.5026 31.7262 14.4366C31.6823 14.3486 31.7042 14.2387 31.7702 14.1947C31.8582 14.1507 31.9462 14.1727 32.0122 14.2387C32.0561 14.3047 32.1001 14.3706 32.1441 14.4366C32.1881 14.5246 32.1661 14.6345 32.1001 14.6785C32.0781 14.7225 32.0561 14.7225 32.0122 14.7225ZM30.9565 13.227C30.9126 13.227 30.8466 13.2051 30.8246 13.1611C30.7806 13.0951 30.7366 13.0511 30.6706 12.9852C30.6047 12.9192 30.6267 12.8092 30.6926 12.7432C30.7586 12.6773 30.8686 12.6993 30.9345 12.7652C30.9785 12.8312 31.0225 12.8972 31.0885 12.9412C31.1545 13.0072 31.1325 13.1171 31.0665 13.1831C31.0225 13.2271 30.9785 13.227 30.9565 13.227ZM29.725 11.8416C29.681 11.8416 29.637 11.8196 29.5931 11.7976C29.5491 11.7536 29.4831 11.6876 29.4391 11.6436C29.3731 11.5777 29.3731 11.4677 29.4391 11.4018C29.5051 11.3358 29.615 11.3358 29.681 11.4018C29.725 11.4457 29.791 11.5117 29.8569 11.5557C29.9229 11.6217 29.9229 11.7316 29.8569 11.7976C29.813 11.8416 29.769 11.8416 29.725 11.8416ZM28.3395 10.6321C28.2955 10.6321 28.2735 10.61 28.2295 10.588C28.1636 10.544 28.1196 10.5001 28.0536 10.4561C27.9877 10.3901 27.9656 10.2801 28.0096 10.2142C28.0756 10.1262 28.1856 10.1262 28.2515 10.1922C28.3175 10.2362 28.3835 10.2801 28.4275 10.3241C28.4935 10.3901 28.5154 10.5001 28.4495 10.5661C28.4275 10.61 28.3835 10.6321 28.3395 10.6321ZM26.8221 9.57643C26.8001 9.57643 26.7561 9.57641 26.7341 9.55442C26.6681 9.51044 26.6022 9.46645 26.5362 9.44446C26.4482 9.40048 26.4262 9.29055 26.4702 9.20258C26.5142 9.11462 26.6241 9.09261 26.7121 9.1366C26.7781 9.18058 26.8441 9.22456 26.91 9.24656C26.998 9.29054 27.02 9.40047 26.976 9.48843C26.932 9.55441 26.866 9.57643 26.8221 9.57643ZM25.1727 8.76275C25.1507 8.76275 25.1287 8.76273 25.1067 8.74073C25.0407 8.71874 24.9748 8.67478 24.8868 8.65279C24.7988 8.6088 24.7548 8.52084 24.7988 8.43287C24.8428 8.3449 24.9308 8.30089 25.0187 8.34487C25.0847 8.36686 25.1727 8.41088 25.2387 8.43287C25.3266 8.47685 25.3706 8.56482 25.3266 8.65279C25.3046 8.71876 25.2387 8.76275 25.1727 8.76275ZM23.4133 8.19094C23.3913 8.19094 23.3914 8.19094 23.3694 8.19094C23.3034 8.16895 23.2154 8.14697 23.1494 8.14697C23.0615 8.12497 22.9955 8.03697 23.0175 7.94901C23.0395 7.86104 23.1275 7.7951 23.2154 7.81709C23.2814 7.83908 23.3694 7.86106 23.4353 7.86106C23.5233 7.88305 23.5893 7.971 23.5673 8.05897C23.5673 8.12494 23.4793 8.19094 23.4133 8.19094ZM21.588 7.88307C21.5001 7.88307 21.4121 7.86106 21.3461 7.86106C21.2582 7.86106 21.1702 7.77308 21.1922 7.68512C21.1922 7.59715 21.2801 7.50919 21.3681 7.53118C21.4341 7.53118 21.522 7.5532 21.61 7.5532C21.698 7.5532 21.7859 7.64114 21.7639 7.7511C21.7639 7.81708 21.676 7.88307 21.588 7.88307ZM19.5208 7.88307C19.4328 7.88307 19.3448 7.81706 19.3448 7.72909C19.3448 7.64112 19.4108 7.55318 19.4988 7.53118C19.5648 7.53118 19.6527 7.50917 19.7407 7.50917C19.8287 7.50917 19.9167 7.57519 19.9167 7.66316C19.9167 7.75112 19.8507 7.83905 19.7627 7.83905C19.6747 7.88303 19.6088 7.88307 19.5208 7.88307Z" fill="#00C797"/>
<path d="M20.2864 6.51981L19.1208 7.72936L20.7263 8.98293L20.2864 6.51981Z" fill="#00C797" stroke="#00C797" stroke-linecap="round" stroke-linejoin="round"/>
<path d="M21.3203 44.2578L22.4859 43.0702L20.8805 41.8167L21.3203 44.2578Z" fill="#00C797" stroke="#00C797" stroke-linecap="round" stroke-linejoin="round"/>
</svg>
