<svg width="306" height="390" viewBox="0 0 306 390" fill="none" xmlns="http://www.w3.org/2000/svg">
<path d="M302.364 118.773L297.922 125.21C292.845 132.644 280.878 134.819 267.188 129.833C249.147 123.215 234.914 106.534 235.276 92.6629C235.367 89.3085 236.274 86.4075 237.905 84.141L242.348 77.7041C240.716 80.0612 239.809 82.9625 239.719 86.2262C239.356 100.097 253.589 116.778 271.631 123.396C285.32 128.473 297.287 126.207 302.364 118.773Z" fill="#B6BEBC" stroke="black" stroke-linecap="round" stroke-linejoin="round"/>
<path d="M239.719 86.2262C239.81 82.8718 240.716 79.9706 242.348 77.7041L237.906 84.141C236.274 86.4981 235.368 89.3991 235.277 92.6629C235.005 101.004 240.172 110.342 248.15 117.957L251.233 110.251C244.071 102.907 239.538 94.1136 239.719 86.2262Z" fill="black"/>
<path d="M273.081 73.0805C291.122 79.6986 305.356 96.3799 304.993 110.251C304.631 124.122 289.672 130.014 271.631 123.396C253.59 116.778 239.356 100.097 239.719 86.2261C240.081 72.3552 255.04 66.4624 273.081 73.0805Z" fill="#EBE9E9" stroke="black" stroke-linecap="round" stroke-linejoin="round"/>
<path d="M273.082 73.0805C255.041 66.4624 240.172 72.3552 239.719 86.2261C239.538 94.1134 244.071 102.907 251.324 110.251L294.931 87.858C289.219 81.6025 281.604 76.2536 273.082 73.0805Z" fill="black" stroke="black" stroke-linecap="round" stroke-linejoin="round"/>
<path d="M77.8024 146.605C69.0991 146.514 65.4728 152.588 69.6431 160.113L125.58 260.745C129.75 268.36 140.267 274.525 148.97 274.706L264.651 276.247C273.354 276.338 276.981 270.264 272.81 262.739L216.874 162.107C212.703 154.492 202.187 148.327 193.484 148.146L77.8024 146.605Z" fill="black" stroke="black" stroke-linecap="round" stroke-linejoin="round"/>
<path d="M175.895 247.236C176.348 248.324 175.804 250.137 174.716 251.134L169.821 255.486L167.826 250.409C167.373 249.321 167.917 247.508 169.005 246.511L173.9 242.159L175.895 247.236Z" fill="#00C797" stroke="#00C797" stroke-linecap="round" stroke-linejoin="round"/>
<path d="M182.513 254.941C183.601 253.944 184.144 252.221 183.691 251.043L181.697 245.966L173.9 242.067L175.894 247.144C176.348 248.232 175.804 250.046 174.716 251.043L169.82 255.394L177.617 259.293L182.513 254.941Z" fill="#B6BEBC"/>
<path d="M194.48 223.664L173.9 242.249L171.905 237.173C171.452 235.994 171.996 234.271 173.084 233.274L189.675 218.315C190.763 217.318 192.032 217.409 192.485 218.587L194.48 223.664Z" fill="#00C797" stroke="#00C797" stroke-linecap="round" stroke-linejoin="round"/>
<path d="M194.48 223.664L202.277 227.562L181.697 246.057L173.9 242.249L194.48 223.664Z" fill="#B6BEBC"/>
<path d="M200.282 222.486C200.1 222.123 199.919 221.851 199.556 221.67L191.76 217.771C192.032 217.953 192.304 218.225 192.485 218.588L194.48 223.664L202.276 227.563L200.282 222.486Z" fill="#B6BEBC"/>
<path d="M194.479 223.664L199.375 219.313C200.463 218.315 201.732 218.406 202.186 219.584L204.18 224.661L199.284 229.013C198.197 230.01 196.927 229.829 196.474 228.741L194.479 223.664Z" fill="#00C797" stroke="#00C797" stroke-linecap="round" stroke-linejoin="round"/>
<path d="M204.09 224.57L211.886 228.469L207.353 233.092C206.9 233.546 205.993 233.727 205.45 233.455L197.381 229.647C197.381 229.647 198.106 230.01 199.194 229.013L204.09 224.57Z" fill="#B6BEBC"/>
<path d="M209.891 223.392C209.71 223.03 209.528 222.757 209.166 222.576L201.369 218.678C201.641 218.859 201.913 219.131 202.094 219.494L204.089 224.571L211.886 228.469L209.891 223.392Z" fill="#B6BEBC"/>
<path d="M218.595 237.716C219.048 238.895 218.504 240.617 217.417 241.614L212.521 245.966L203.999 224.661L208.895 220.309C209.983 219.312 211.252 219.494 211.705 220.581L218.595 237.716Z" fill="#00C797" stroke="#00C797" stroke-linecap="round" stroke-linejoin="round"/>
<path d="M225.304 245.422C226.392 244.425 226.936 242.702 226.483 241.524L219.683 224.298C219.502 223.936 219.32 223.664 218.958 223.482L211.161 219.584C211.433 219.765 211.705 220.037 211.886 220.4L218.686 237.625C219.139 238.804 218.595 240.526 217.507 241.524L212.612 245.875L220.408 249.774L225.304 245.422Z" fill="#B6BEBC"/>
<path d="M178.343 276.882L173.447 281.233C172.359 282.231 171.09 282.14 170.637 280.962L163.837 263.736C163.384 262.558 163.928 260.835 165.016 259.838L169.911 255.486L178.343 276.882Z" fill="#00C797" stroke="#00C797" stroke-linecap="round" stroke-linejoin="round"/>
<path d="M186.14 280.688L178.343 276.79L173.447 281.142C172.722 281.776 171.906 281.958 171.362 281.686L179.159 285.584C179.703 285.856 180.519 285.675 181.244 285.04L186.14 280.688Z" fill="#B6BEBC"/>
<path d="M169.82 255.486L177.617 259.385L186.139 280.69L178.342 276.882L169.82 255.486Z" fill="#B6BEBC"/>
<path d="M214.606 250.953C215.059 252.041 214.515 253.854 213.427 254.851L208.532 259.203L206.537 254.126C206.084 253.038 206.628 251.225 207.716 250.228L212.611 245.876L214.606 250.953Z" fill="#00C797" stroke="#00C797" stroke-linecap="round" stroke-linejoin="round"/>
<path d="M221.225 258.75C222.312 257.753 222.856 256.03 222.403 254.851L220.409 249.774L212.612 245.876L214.606 250.953C215.06 252.041 214.516 253.854 213.428 254.851L208.532 259.203L216.329 263.101L221.225 258.75Z" fill="#B6BEBC"/>
<path d="M185.323 271.895L193.12 275.793C193.392 275.974 193.664 276.246 193.845 276.609L186.049 272.71C185.867 272.348 185.595 272.076 185.323 271.895Z" fill="#B6BEBC"/>
<path d="M188.043 277.787L183.148 282.139C182.06 283.136 180.791 283.046 180.337 281.867L178.343 276.79L183.238 272.438C184.326 271.441 185.596 271.622 186.049 272.71L188.043 277.787Z" fill="#00C797" stroke="#00C797" stroke-linecap="round" stroke-linejoin="round"/>
<path d="M195.84 281.686L188.043 277.788L183.148 282.14C182.422 282.774 181.606 282.956 181.062 282.684L188.859 286.582C189.403 286.854 190.219 286.673 190.944 286.038L195.84 281.686Z" fill="#B6BEBC"/>
<path d="M186.049 272.711L193.845 276.609L195.84 281.686L188.043 277.788L186.049 272.711Z" fill="#B6BEBC"/>
<path d="M210.617 264.28C211.07 265.368 210.526 267.181 209.439 268.178L192.848 283.137C191.76 284.134 190.491 284.044 190.037 282.865L188.043 277.788L208.623 259.203L210.617 264.28Z" fill="#00C797" stroke="#00C797" stroke-linecap="round" stroke-linejoin="round"/>
<path d="M217.235 271.986C218.323 270.989 218.867 269.266 218.414 268.087L216.419 263.011L208.623 259.112L210.617 264.189C211.07 265.277 210.526 267.09 209.439 268.087L192.848 283.046C192.123 283.681 191.307 283.862 190.763 283.59L198.559 287.489C199.103 287.761 199.919 287.579 200.645 286.945L217.235 271.986Z" fill="#B6BEBC"/>
<path d="M208.17 153.223C203.637 150.231 198.198 148.237 193.393 148.146L77.7116 146.605C69.0083 146.514 65.3819 152.588 69.5523 160.113L101.283 217.137L208.17 153.223Z" fill="#B6BEBC"/>
<path d="M69.6426 160.112L125.579 260.744C129.75 268.359 140.266 274.524 148.969 274.705L264.651 276.246C269.002 276.337 272.175 274.796 273.626 272.348L206.81 384.766C205.359 387.213 202.277 388.754 197.835 388.664L82.1536 387.123C73.4503 387.032 62.9338 380.776 58.7635 373.161L2.82673 272.529C0.741573 268.722 0.560246 265.367 2.01079 262.919L68.8266 150.502C67.3761 152.95 67.5574 156.395 69.6426 160.112Z" fill="#00C797"/>
<path d="M69.0986 383.134C64.747 380.595 60.9393 377.059 58.7635 373.161L2.82673 272.529C0.741573 268.722 0.560246 265.367 2.01079 262.919L68.8266 150.502C67.3761 152.95 67.5574 156.304 69.6426 160.112L125.579 260.744C127.755 264.642 131.563 268.178 136.005 270.716L69.0986 383.134Z" fill="#EBE9E9"/>
<path d="M69.6426 160.112L125.579 260.744C129.75 268.359 140.266 274.524 148.969 274.705L264.651 276.246C269.002 276.337 272.175 274.796 273.626 272.348L206.81 384.766C205.359 387.213 202.277 388.754 197.835 388.664L82.1536 387.123C73.4503 387.032 62.9338 380.776 58.7635 373.161L2.82673 272.529C0.741573 268.722 0.560246 265.367 2.01079 262.919L68.8266 150.502C67.3761 152.95 67.5574 156.395 69.6426 160.112Z" stroke="black" stroke-linecap="round" stroke-linejoin="round"/>
<path d="M272.81 262.739L216.874 162.107C212.703 154.492 202.187 148.327 193.484 148.146L77.8024 146.605C69.0991 146.514 65.4728 152.588 69.6431 160.113L125.58 260.745C129.75 268.36 140.267 274.525 148.97 274.706L264.651 276.247C273.354 276.338 276.981 270.264 272.81 262.739ZM257.58 266.456L145.162 264.915C141.717 264.824 137.638 262.376 136.006 259.385L81.6101 161.745C79.9782 158.753 81.4288 156.396 84.7832 156.396L197.201 157.937C200.646 158.028 204.725 160.475 206.357 163.467L260.662 261.198C262.385 264.099 261.025 266.456 257.58 266.456Z" fill="#EBE9E9" stroke="black" stroke-linecap="round" stroke-linejoin="round"/>
<path d="M81.8818 221.67C82.6977 223.12 82.4257 225.931 81.3378 227.835L76.4422 236.266L69.4614 248.142L64.5658 256.574C63.4779 258.477 61.8461 258.84 61.0301 257.39L58.8543 253.491C58.0384 252.041 58.3104 249.23 59.3983 247.326L64.2939 238.895L71.2746 227.019L76.1702 218.587C77.2581 216.684 78.89 216.321 79.7059 217.771L81.8818 221.67Z" fill="#B6BEBC"/>
<path d="M97.203 249.411C98.019 250.862 97.747 253.672 96.6591 255.576L91.7635 264.007L84.7827 275.884L79.8871 284.315C78.7992 286.219 77.1673 286.581 76.3514 285.131L74.1756 281.323C73.3597 279.873 73.6316 277.062 74.7195 275.158L79.6151 266.727L86.5959 254.851L91.4915 246.419C92.5794 244.515 94.2113 244.153 95.0272 245.603L97.203 249.411Z" fill="#B6BEBC"/>
<path d="M48.8821 260.109C49.6981 261.56 49.4261 264.37 48.3382 266.274L43.4426 274.705L39.8162 268.178C39.0003 266.727 39.2723 263.917 40.3602 262.013L43.2613 257.027C44.3492 255.123 45.9811 254.76 46.797 256.211L48.8821 260.109Z" fill="#B6BEBC"/>
<path d="M63.9311 311.603L59.0355 320.035C57.9476 321.939 56.3157 322.301 55.4998 320.851L51.8734 314.323L46.7059 305.076L41.5383 295.829L37.9119 289.301C37.096 287.851 37.368 285.04 38.4559 283.136L43.3515 274.705L48.519 283.952L53.6866 293.2L58.8542 302.447L63.9311 311.603Z" fill="#B6BEBC"/>
<path d="M74.5388 306.254C75.3547 307.704 75.0827 310.515 73.9948 312.419L71.0937 317.405C70.0058 319.309 68.3739 319.671 67.558 318.221L63.9316 311.693L68.8272 303.262C69.9151 301.358 71.547 300.996 72.363 302.446L74.5388 306.254Z" fill="#B6BEBC"/>
<path d="M58.5826 110.069L160.302 111.429C168.008 111.519 179.431 107.984 186.049 103.632L272.629 44.7943C279.156 40.352 278.25 36.7255 270.544 36.5442L168.824 35.1843C161.118 35.0937 149.695 38.6295 143.077 42.9811L56.4974 101.819C49.9699 106.261 50.8765 109.978 58.5826 110.069Z" fill="#EBE9E9" stroke="black" stroke-linecap="round" stroke-linejoin="round"/>
<path d="M72.5438 104.992L161.752 106.171C167.373 106.262 175.805 103.632 180.61 100.459L257.307 48.3303C262.112 45.0666 261.387 42.3467 255.766 42.3467L166.557 41.1683C160.937 41.0776 152.505 43.7066 147.7 46.8796L71.0026 99.0087C66.1976 102.182 66.9229 104.902 72.5438 104.992Z" fill="#B6BEBC" stroke="black" stroke-linecap="round" stroke-linejoin="round"/>
<path d="M257.307 48.3306C262.112 45.0669 261.387 42.347 255.766 42.347L234.461 42.0752L166.014 83.9597L171.453 104.63C174.898 103.633 178.162 102.092 180.519 100.55L257.307 48.3306Z" fill="black"/>
<path d="M147.701 46.8804L75.3545 96.0178L159.577 97.1057C165.198 97.1964 173.629 94.5672 178.434 91.3941L250.78 42.2569L166.558 41.169C160.937 40.9877 152.505 43.6166 147.701 46.8804Z" fill="#B6BEBC" stroke="black" stroke-linecap="round" stroke-linejoin="round"/>
<path d="M270.453 36.545L168.733 35.1852C161.027 35.0945 149.604 38.6303 142.986 42.9819L56.4064 101.82C53.1427 104.086 51.6921 106.081 52.1454 107.622L43.0795 73.4433C42.7169 71.9928 44.0768 69.9077 47.3405 67.6412L133.92 8.80324C140.448 4.36093 151.961 0.825357 159.667 1.00668L261.387 2.36656C265.195 2.45722 267.37 3.36377 267.733 4.81432L276.799 38.9928C276.436 37.5423 274.261 36.6357 270.453 36.545Z" fill="#EBE9E9"/>
<path d="M152.415 38.4492L143.439 4.27051" stroke="#B6BEBC" stroke-linecap="round" stroke-linejoin="round"/>
<path d="M146.159 3.36384C150.964 1.9133 155.86 1.00684 159.758 1.00684L261.478 2.36672C265.285 2.45738 267.461 3.36393 267.824 4.81448L276.89 38.993C276.527 37.5424 274.351 36.6359 270.544 36.5452L168.824 35.1853C164.835 35.0947 159.849 36.0013 155.134 37.5425L146.159 3.36384Z" fill="#B6BEBC"/>
<path d="M270.453 36.545L168.733 35.1852C161.027 35.0945 149.604 38.6303 142.986 42.9819L56.4064 101.82C53.1427 104.086 51.6921 106.081 52.1454 107.622L43.0795 73.4433C42.7169 71.9928 44.0768 69.9077 47.3405 67.6412L133.92 8.80324C140.448 4.36093 151.961 0.825357 159.667 1.00668L261.387 2.36656C265.195 2.45722 267.37 3.36377 267.733 4.81432L276.799 38.9928C276.436 37.5423 274.261 36.6357 270.453 36.545Z" stroke="black" stroke-linecap="round" stroke-linejoin="round"/>
<path d="M217.961 162.743C235.458 159.298 245.431 161.473 240.263 167.457C235.005 173.44 216.601 181.146 199.104 184.501C181.607 187.946 171.634 185.77 176.802 179.787C182.06 173.803 200.464 166.097 217.961 162.743Z" fill="#EBE9E9" stroke="black" stroke-linecap="round" stroke-linejoin="round"/>
<path d="M241.533 164.012L244.072 172.806C244.344 173.712 243.981 174.891 242.802 176.251C237.544 182.234 219.14 189.94 201.643 193.294C188.044 195.924 178.978 195.289 178.072 192.025L175.533 183.231C176.44 186.495 185.506 187.13 199.105 184.501C216.602 181.056 235.096 173.44 240.264 167.457C241.442 166.097 241.805 164.918 241.533 164.012Z" fill="#B6BEBC" stroke="black" stroke-linecap="round" stroke-linejoin="round"/>
<path d="M186.594 186.132C180.157 186.404 176.168 185.317 175.533 183.231L178.072 192.025C178.706 194.111 182.605 195.108 188.86 194.926L186.594 186.132Z" fill="black"/>
<path d="M260.671 158.014L251.335 164.907L258.228 174.243L267.564 167.35L260.671 158.014Z" fill="black"/>
<path d="M280.64 147.412L272.88 156.04L281.508 163.8L289.268 155.172L280.64 147.412Z" fill="#B6BEBC"/>
<path d="M153.213 175.813L145.453 184.44L154.081 192.2L161.841 183.572L153.213 175.813Z" fill="#00C797"/>
<path d="M166.02 118.488L161.351 129.111L171.974 133.781L176.644 123.157L166.02 118.488Z" fill="#B6BEBC"/>
</svg>
