<svg width="43" height="58" viewBox="0 0 43 58" fill="none" xmlns="http://www.w3.org/2000/svg">
<path d="M8.24788 37.9034C8.01657 38.5288 7.41239 39.4704 5.98998 39.1577C6.04177 39.2307 2.33385 38.3377 2.33385 38.3377L0 44.1575L6.54237 45.6203C7.75763 45.8948 8.95218 46.1832 10.126 46.4542L8.27205 54.859L13.2919 55.9813L15.1286 47.6633C16.4992 48.0004 17.8319 48.3096 19.1369 48.6014L17.3071 56.8777L22.3338 58L24.1878 49.6125C32.7464 51.0162 39.1334 50.1962 41.633 42.3751C43.6457 36.0793 41.2739 32.5353 36.734 30.3012C39.9793 29.4569 42.3787 27.2332 42.9207 22.7546C43.6734 16.636 38.978 13.4776 32.6152 11.452L34.4519 3.14095L29.4251 2.01869L27.6368 10.1108C26.3145 9.81549 24.9577 9.541 23.6147 9.26652L25.4134 1.12226L20.3901 0L18.5534 8.30755C17.459 8.08518 16.3853 7.86629 15.3461 7.63697L15.3496 7.60918L8.41705 6.05607L7.22596 11.4589C7.22596 11.4589 10.9546 12.2164 10.8752 12.272C12.9121 12.7271 13.3126 14.0648 13.2781 15.135L8.24788 37.9034ZM31.9213 39.1543C30.5368 45.4362 20.0069 42.3334 16.5993 41.5725L19.0609 30.4367C22.4685 31.2011 33.3678 32.6048 31.9213 39.1543ZM33.0537 22.9213C31.7901 28.6369 23.0243 25.9754 20.1864 25.3396L22.4167 15.2392C25.2546 15.875 34.369 16.9591 33.0537 22.9213Z" fill="white"/>
</svg>
