<svg width="448" height="333" viewBox="0 0 448 333" fill="none" xmlns="http://www.w3.org/2000/svg">
<path d="M365.884 309.042C390.302 309.042 410.097 289.247 410.097 264.829C410.097 240.412 390.302 220.617 365.884 220.617C341.467 220.617 321.672 240.412 321.672 264.829C321.672 289.247 341.467 309.042 365.884 309.042Z" fill="black" stroke="#00C797" stroke-linecap="round" stroke-linejoin="round"/>
<path d="M362.357 252.084C388.481 248.638 408.938 260.446 401.601 244.43C400.251 241.487 397.834 237.811 394.847 235.011C377.961 219.182 351.439 220.039 335.61 236.925C330.494 242.387 327.129 248.853 325.477 255.64C324.573 261.858 324.429 268.913 325.554 274.188C325.554 274.188 336.457 255.506 362.357 252.089V252.084Z" fill="#302247"/>
<path d="M394.306 234.507C377.558 218.808 351.257 219.66 335.562 236.407C323.333 249.455 321.15 268.295 328.699 283.405H328.703C325.568 277.073 334.112 250.695 366.636 243.869C385.566 239.897 391.276 239.7 394.306 234.507Z" fill="black"/>
<path d="M365.32 290.905C366.564 289.675 367.828 288.358 369.091 286.946C371.939 288.832 374.696 290.474 377.305 291.848C380.679 293.767 377.18 295.887 376.348 296.132C375.022 296.519 373.926 295.983 373.399 295.725C370.834 294.37 368.124 292.757 365.32 290.9M372.739 282.667C373.921 281.203 375.07 279.704 376.18 278.187C378.836 279.944 381.407 281.485 383.848 282.792C387.055 284.654 384.154 287.439 382.809 287.746C381.809 287.975 380.99 287.573 380.55 287.358C378.061 286.027 375.443 284.457 372.734 282.667M388.026 278.225C387.39 277.895 386.739 277.551 386.083 277.192C386.026 277.287 385.973 277.388 385.916 277.484C384.738 276.833 383.537 276.134 382.307 275.378C382.364 275.282 382.426 275.186 382.484 275.09C381.536 274.506 380.569 273.894 379.598 273.248C379.535 273.343 379.473 273.434 379.411 273.53C378.147 272.692 376.86 271.802 375.558 270.864C375.625 270.773 375.687 270.682 375.754 270.586C374.624 269.773 373.485 268.921 372.341 268.035C371.13 269.615 369.895 271.199 368.632 272.769C366.736 275.133 364.793 277.479 362.821 279.767C361.093 281.772 359.418 283.644 357.81 285.381C356.594 286.693 355.416 287.923 354.287 289.072C355.445 289.967 356.594 290.823 357.733 291.647C357.814 291.57 357.901 291.489 357.982 291.412C359.293 292.36 360.591 293.255 361.869 294.102C361.782 294.179 361.696 294.255 361.605 294.327C362.591 294.978 363.563 295.6 364.52 296.189C364.611 296.117 364.702 296.041 364.788 295.969C366.028 296.73 367.244 297.438 368.431 298.094C368.335 298.166 368.244 298.238 368.148 298.309C368.972 298.764 369.785 299.195 370.58 299.592C379.952 303.929 386.83 296.61 385.351 293.169C385.169 292.743 384.887 292.384 384.681 292.125C391.066 291.513 395.512 283.979 390.324 279.7C389.936 279.379 389.223 278.867 388.026 278.225Z" fill="#00C797"/>
<path d="M372.346 268.034C371.901 267.689 371.456 267.34 371.011 266.986C369.953 266.143 368.91 265.291 367.89 264.43C366.607 265.952 365.31 267.483 364.003 269.02C365.066 269.915 366.148 270.8 367.249 271.676C367.713 272.045 368.177 272.409 368.637 272.763C369.896 271.193 371.135 269.609 372.346 268.029" fill="#00C797"/>
<path d="M357.814 285.379C357.35 285.02 356.886 284.657 356.422 284.288C355.316 283.407 354.225 282.517 353.162 281.617C351.985 282.962 350.864 284.235 349.797 285.442C350.826 286.308 351.879 287.169 352.947 288.021C353.397 288.38 353.846 288.73 354.292 289.079C355.426 287.931 356.603 286.7 357.814 285.389" fill="#00C797"/>
<path d="M382.646 268.34C381.455 267.55 380.244 266.713 379.018 265.832C377.97 267.416 376.884 269.005 375.759 270.585C375.692 270.676 375.63 270.767 375.562 270.863C376.864 271.801 378.147 272.691 379.416 273.529C379.478 273.433 379.54 273.342 379.602 273.246C380.665 271.624 381.68 269.987 382.646 268.345" fill="#00C797"/>
<path d="M388.768 272.064C387.663 271.451 386.528 270.79 385.37 270.082C384.465 271.762 383.503 273.433 382.489 275.089C382.431 275.184 382.369 275.28 382.312 275.376C383.542 276.132 384.743 276.831 385.92 277.482C385.978 277.386 386.031 277.286 386.088 277.19C387.05 275.505 387.945 273.792 388.768 272.068" fill="#00C797"/>
<path d="M361.873 294.1C360.595 293.253 359.298 292.358 357.987 291.41C357.905 291.487 357.819 291.568 357.738 291.645C356.599 292.712 355.493 293.693 354.421 294.588C355.661 295.483 356.891 296.331 358.097 297.13C359.246 296.288 360.418 295.349 361.615 294.32C361.701 294.244 361.787 294.172 361.878 294.095" fill="#00C797"/>
<path d="M368.435 298.094C367.248 297.438 366.033 296.73 364.793 295.969C364.702 296.041 364.611 296.117 364.525 296.189C363.29 297.189 362.065 298.094 360.858 298.903C362.031 299.626 363.18 300.296 364.3 300.913C365.578 300.147 366.865 299.281 368.153 298.309C368.249 298.238 368.34 298.166 368.435 298.094Z" fill="#00C797"/>
<path d="M390.611 156.058C393.416 155.172 396.034 154.76 398.293 154.76C401.443 154.76 403.898 155.555 405.21 156.962C406.899 158.781 407.392 162.424 406.521 166.707C402.682 185.676 379.928 199.408 368.048 196.604L359.102 235.35C363.065 236.269 367.224 236.743 371.508 236.743C374.007 236.743 376.544 236.585 379.114 236.259C394.201 234.349 409.316 226.983 421.67 215.51C434.024 204.037 442.491 189.51 445.507 174.605C448.962 157.541 444.899 141.248 434.354 129.895C423.81 118.542 407.861 113.281 390.592 115.469C386.59 115.976 382.584 116.866 378.626 118.116L390.606 156.058H390.611Z" fill="#00C797" stroke="black" stroke-miterlimit="10"/>
<path d="M407.526 157.126C408.957 159.572 409.187 162.98 408.364 167.086C406.066 178.382 397.671 187.663 388.567 193.216C386.968 194.192 383.278 195.963 383.278 195.963C387.538 195.451 389.95 197.768 392.616 199.079C396.096 200.793 399.633 201.309 404.468 196.868C416.807 185.529 420.057 169.106 411.939 160.419C410.661 159.05 409.173 157.954 407.526 157.121V157.126Z" fill="black"/>
<path d="M364.133 221.543C378.205 228.167 399.112 223.117 415.338 207.954C434.914 189.66 440.266 163.569 427.285 149.679C418.191 139.948 402.515 138.79 387.213 145.256L388.591 148.885C401.634 144.089 414.826 145.577 422.723 154.03C434.508 166.637 430.056 189.943 412.782 206.087C396.436 221.361 374.476 224.735 362.18 214.377L364.128 221.547L364.133 221.543Z" fill="#EBE9E9"/>
<path d="M390.611 156.066C394.732 154.765 395.392 145.217 392.085 134.74C388.778 124.264 382.756 116.825 378.634 118.127C374.512 119.428 373.852 128.975 377.16 139.452C380.467 149.929 386.489 157.367 390.611 156.066Z" fill="black" stroke="#00C797" stroke-miterlimit="10"/>
<path d="M369.615 217.383C372.085 206.684 371.392 197.388 368.067 196.62C364.742 195.852 360.043 203.904 357.573 214.603C355.103 225.303 355.796 234.599 359.122 235.367C362.447 236.134 367.145 228.083 369.615 217.383Z" fill="black" stroke="#00C797" stroke-miterlimit="10"/>
<path d="M368.052 196.606C366.516 196.242 365.3 195.615 364.511 194.763C361.907 191.958 362.065 184.788 366.152 176.943L330.972 158.367C327.799 164.408 325.501 170.731 324.209 177.12C320.753 194.184 324.817 210.477 335.361 221.831C341.646 228.599 349.85 233.198 359.111 235.352C362.438 236.118 367.138 228.067 369.608 217.37C372.078 206.672 371.384 197.377 368.057 196.606H368.052Z" fill="black"/>
<path d="M331.68 183.249C326.75 202.984 336.429 221.392 352.583 231.104C337.434 225.073 324.888 211.393 324.888 188.897C324.888 182.727 325.98 177.051 327.349 172.355C329.627 164.529 334.859 170.522 331.68 183.244V183.249Z" fill="#00C797"/>
<path d="M368.052 196.606C366.516 196.242 365.3 195.615 364.511 194.763C361.907 191.958 362.065 184.788 366.152 176.943L330.972 158.367C327.799 164.408 325.501 170.731 324.209 177.12C320.753 194.184 324.817 210.477 335.361 221.831C341.646 228.599 349.85 233.198 359.111 235.352C362.438 236.118 367.138 228.067 369.608 217.37C372.078 206.672 371.384 197.377 368.057 196.606H368.052Z" stroke="black" stroke-miterlimit="10"/>
<path d="M366.16 176.967C367.754 173.949 361.17 167.344 351.456 162.213C341.741 157.083 332.574 155.37 330.98 158.388C329.386 161.405 335.97 168.011 345.684 173.141C355.399 178.272 364.566 179.985 366.16 176.967Z" fill="#B5DF77" stroke="black" stroke-miterlimit="10"/>
<path d="M289.455 31.8556C289.23 31.4248 288.789 31.1041 288.201 30.9988L285.161 30.4675C283.998 30.2665 282.663 30.9797 282.194 32.0566L263.34 75.2159C262.871 76.2929 261.531 77.006 260.368 76.8002L250.067 75.0005C249.474 74.8952 249.038 74.5745 248.808 74.1437L254.921 85.8274C255.146 86.2582 255.586 86.5789 256.179 86.6842L266.48 88.4839C267.643 88.6849 268.983 87.9765 269.452 86.8996L288.306 43.7403C288.775 42.6634 290.11 41.9454 291.274 42.1512L294.313 42.6825C294.902 42.7878 295.342 43.1085 295.567 43.5393L289.455 31.8556Z" fill="#00C797" stroke="#00C797" stroke-miterlimit="10"/>
<path d="M300.052 15.3751L293.939 3.69141C294.16 4.10783 294.179 4.62955 293.949 5.16084L291.867 9.93292L297.979 21.6166L300.061 16.8445C300.291 16.3132 300.272 15.7915 300.052 15.3751Z" fill="black" stroke="#00C797" stroke-miterlimit="10"/>
<path d="M267.647 28.0461C267.422 27.6153 266.987 27.2946 266.398 27.1941L263.359 26.6628C262.196 26.4618 260.855 27.175 260.386 28.2519L259.156 31.0616C258.687 32.1337 257.352 32.8517 256.189 32.6459L253.149 32.1146C251.986 31.9136 250.646 32.6267 250.177 33.7037L248.952 36.5085C248.482 37.5855 247.147 38.3034 245.984 38.0976L242.945 37.5663C241.781 37.3653 240.441 38.0785 239.972 39.1506L238.742 41.9603C238.273 43.0372 236.938 43.7552 235.774 43.5494L232.735 43.0181C232.146 42.9176 231.711 42.5969 231.486 42.1661L237.598 53.8498C237.823 54.2806 238.259 54.6013 238.847 54.7018L241.887 55.2331C243.05 55.4341 244.385 54.7209 244.854 53.644L246.084 50.8343C246.554 49.7622 247.894 49.0442 249.057 49.25L252.096 49.7813C253.259 49.9823 254.595 49.2692 255.064 48.1874L256.289 45.3826C256.758 44.3056 258.098 43.5877 259.262 43.7935L262.301 44.3248C263.464 44.5258 264.799 43.8126 265.268 42.7405L266.499 39.9308C266.968 38.8539 268.308 38.1359 269.471 38.3417L272.51 38.873C273.099 38.9735 273.535 39.2942 273.76 39.725L267.647 28.0413V28.0461Z" fill="#00C797" stroke="#00C797" stroke-miterlimit="10"/>
<path d="M304.393 24.8387C304.623 24.3074 304.603 23.7857 304.383 23.3692L298.271 11.6855C298.491 12.102 298.51 12.6237 298.281 13.155L297.05 15.9646C296.821 16.4959 296.84 17.0176 297.055 17.4341L303.167 29.1177C302.947 28.7013 302.928 28.1796 303.163 27.6483L304.393 24.8387Z" fill="black" stroke="#00C797" stroke-miterlimit="10"/>
<path d="M308.725 32.8317C308.955 32.3004 308.935 31.7787 308.715 31.3575L302.603 19.6738C302.823 20.095 302.842 20.6168 302.613 21.1481L301.382 23.9577C301.153 24.489 301.172 25.0107 301.387 25.4271L307.5 37.1108C307.279 36.6944 307.26 36.1727 307.495 35.6414L308.725 32.8317Z" fill="black" stroke="#00C797" stroke-miterlimit="10"/>
<path d="M313.047 40.8259C313.281 40.2946 313.257 39.7681 313.042 39.3517L306.93 27.668C307.15 28.0892 307.169 28.6109 306.935 29.1422L305.704 31.9518C305.475 32.4831 305.494 33.0048 305.714 33.4213L311.826 45.105C311.606 44.6885 311.587 44.1668 311.817 43.6355L313.047 40.8259Z" fill="black" stroke="#00C797" stroke-miterlimit="10"/>
<path d="M293.786 39.8494C293.561 39.4187 293.121 39.098 292.532 38.9927L289.493 38.4614C288.904 38.3608 288.469 38.0402 288.244 37.6094L294.356 49.2931C294.581 49.7238 295.016 50.0445 295.605 50.1451L298.645 50.6763C299.233 50.7816 299.674 51.1023 299.899 51.5331L293.786 39.8494Z" fill="#00C797" stroke="#00C797" stroke-miterlimit="10"/>
<path d="M298.113 47.8427C297.888 47.4119 297.453 47.0912 296.864 46.9907L293.824 46.4594C293.236 46.3541 292.8 46.0382 292.575 45.6074L298.687 57.2911C298.912 57.7219 299.348 58.0426 299.937 58.1431L302.976 58.6744C303.565 58.7797 304 59.0956 304.225 59.5264L298.113 47.8427Z" fill="#00C797" stroke="#00C797" stroke-miterlimit="10"/>
<path d="M317.374 47.3438L311.261 35.6602C311.482 36.0814 311.501 36.6031 311.266 37.1344L304.163 53.3939C303.694 54.4708 302.359 55.1888 301.196 54.983L298.156 54.4517C297.567 54.3464 297.127 54.0257 296.902 53.5949L303.014 65.2786C303.239 65.7094 303.68 66.0301 304.268 66.1354L307.308 66.6667C308.471 66.8677 309.806 66.1545 310.275 65.0776L317.378 48.8181C317.613 48.2868 317.589 47.7603 317.374 47.3438Z" fill="black" stroke="#00C797" stroke-miterlimit="10"/>
<path d="M302.698 54.7732C302.22 54.979 301.693 55.0699 301.196 54.9838L298.156 54.4525C297.567 54.3472 297.127 54.0265 296.902 53.5957L303.014 65.2794C303.239 65.7102 303.68 66.0309 304.268 66.1362L307.308 66.6675C307.782 66.7488 308.284 66.6722 308.749 66.4856L302.698 54.7732Z" fill="#00C797" stroke="#00C797" stroke-miterlimit="10"/>
<path d="M292.681 2.83509C293.844 3.03612 294.413 4.08435 293.944 5.1613L292.709 7.99008C292.24 9.05746 292.8 10.0961 293.949 10.2971L297.012 10.8332C298.175 11.0343 298.745 12.0825 298.276 13.1594L297.046 15.9691C296.577 17.046 297.141 18.0895 298.305 18.2905L301.344 18.8218C302.507 19.0228 303.077 20.0758 302.608 21.1528L301.377 23.9624C300.908 25.0394 301.473 26.0828 302.636 26.2838L305.676 26.8151C306.839 27.0162 307.404 28.0644 306.93 29.1461L305.7 31.9558C305.231 33.0327 305.8 34.0762 306.963 34.282L310.003 34.8133C311.166 35.0143 311.731 36.0625 311.257 37.1443L304.154 53.4038C303.685 54.4807 302.349 55.1987 301.186 54.9929L298.147 54.4616C296.984 54.2606 296.414 53.2075 296.883 52.1306L298.113 49.321C298.582 48.2488 298.017 47.2006 296.854 46.9995L293.815 46.4682C292.652 46.2672 292.087 45.2142 292.561 44.1372L293.786 41.3324C294.255 40.2554 293.69 39.2072 292.523 39.0014L289.483 38.4701C288.32 38.2691 287.755 37.2161 288.224 36.1487L289.454 33.339C289.924 32.2621 289.359 31.2139 288.191 31.0081L285.151 30.4768C283.988 30.2757 282.653 30.9889 282.184 32.0659L263.33 75.2251C262.861 76.3021 261.521 77.0153 260.358 76.8095L250.057 75.0098C248.894 74.8087 248.325 73.7605 248.794 72.6835L267.647 29.5243C268.117 28.4473 267.552 27.3991 266.393 27.1933L263.354 26.662C262.191 26.4609 260.851 27.1741 260.382 28.2511L259.152 31.0607C258.682 32.1329 257.347 32.8508 256.184 32.645L253.145 32.1137C251.981 31.9127 250.641 32.6259 250.172 33.7028L248.947 36.5077C248.478 37.5846 247.142 38.3026 245.979 38.0968L242.94 37.5655C241.777 37.3644 240.437 38.0776 239.968 39.1498L238.737 41.9594C238.268 43.0364 236.933 43.7543 235.77 43.5485L232.73 43.0172C231.567 42.8162 231.003 41.7632 231.476 40.6862L238.579 24.4267C239.049 23.3498 240.384 22.6318 241.547 22.8376L244.586 23.3689C245.75 23.5699 247.08 22.8615 247.554 21.7846L248.784 18.975C249.253 17.898 250.593 17.18 251.757 17.3859L254.796 17.9172C255.959 18.1182 257.29 17.4098 257.763 16.3328L258.994 13.5232C259.463 12.4463 260.803 11.7283 261.966 11.9341L265.005 12.4654C266.168 12.6664 267.499 11.958 267.973 10.8811L269.203 8.07145C269.672 6.9945 271.012 6.28133 272.175 6.48714L275.215 7.01844C276.373 7.21947 277.713 6.50629 278.182 5.42934L279.413 2.6197C279.882 1.54275 281.222 0.829576 282.385 1.03539L292.685 2.83509H292.681Z" fill="black" stroke="#00C797" stroke-miterlimit="10"/>
<path d="M116.104 257.949C114.874 256.919 112.557 256.072 110.954 256.072H83.7144C82.111 256.072 80.3496 257.307 79.7991 258.815L69.4317 287.294C68.8813 288.802 69.4413 290.879 70.6666 291.908L91.5355 309.417C92.7656 310.446 95.0822 311.293 96.6857 311.293H123.925C125.529 311.293 127.29 310.058 127.841 308.551L138.208 280.071C138.758 278.564 138.198 276.486 136.973 275.457L116.104 257.949Z" fill="#302247" stroke="#00C797" stroke-linecap="round" stroke-linejoin="round"/>
<path d="M94.7663 308.555C94.2159 310.063 92.7656 310.45 91.5355 309.421L70.6666 291.912C69.4365 290.883 68.8813 288.806 69.4317 287.298L79.7991 258.819C80.3496 257.311 81.7998 256.924 83.03 257.953L103.899 275.461C105.129 276.491 105.684 278.568 105.134 280.076L94.7663 308.555Z" fill="black" stroke="#00C797" stroke-linecap="round" stroke-linejoin="round"/>
<path d="M90.832 286.924C89.3147 285.651 88.7691 282.755 89.6163 280.457C89.8412 279.854 90.138 279.352 90.4826 278.959C90.0183 277.935 89.3913 277.05 88.6255 276.403C85.969 274.173 82.6137 275.628 81.1299 279.644C79.6461 283.664 80.5986 288.728 83.2551 290.954C85.9116 293.185 89.2669 291.73 90.7507 287.714C90.832 287.489 90.9086 287.264 90.9756 287.029C90.9278 286.996 90.8799 286.957 90.832 286.919V286.924Z" fill="#EBE9E9"/>
<path d="M96.2024 284.831C95.5323 283.85 94.5415 283.424 93.5795 283.841C92.6174 284.257 91.9234 285.411 91.6936 286.78C92.3637 287.761 93.3545 288.187 94.3166 287.77C95.2786 287.354 95.9727 286.2 96.2024 284.831Z" fill="#EBE9E9"/>
<path d="M94.7663 308.556C94.2159 310.064 95.0823 311.299 96.6857 311.299H123.925C125.529 311.299 127.29 310.064 127.841 308.556L138.208 280.077C138.758 278.569 137.892 277.334 136.289 277.334H109.049C107.446 277.334 105.684 278.569 105.134 280.077L94.7663 308.556Z" fill="black" stroke="#00C797" stroke-linecap="round" stroke-linejoin="round"/>
<path d="M83.0301 257.949C81.7999 256.919 82.1063 256.072 83.7145 256.072H110.954C112.558 256.072 114.874 256.915 116.104 257.949L136.973 275.457C138.203 276.486 137.897 277.334 136.289 277.334H109.049C107.446 277.334 105.129 276.491 103.899 275.457L83.0301 257.949Z" fill="black" stroke="#00C797" stroke-linecap="round" stroke-linejoin="round"/>
<path d="M384.936 29.5813C383.485 28.3608 380.743 27.3652 378.847 27.3652H346.654C344.758 27.3652 342.676 28.8203 342.03 30.6056L329.782 64.2591C329.135 66.0396 329.791 68.4951 331.241 69.7108L355.901 90.4026C357.351 91.6231 360.094 92.6187 361.99 92.6187H394.183C396.079 92.6187 398.161 91.1636 398.807 89.3783L411.055 55.7249C411.701 53.9443 411.046 51.4889 409.595 50.2731L384.936 29.5813Z" fill="#302247" stroke="#00C797" stroke-linecap="round" stroke-linejoin="round"/>
<path d="M359.726 89.379C359.079 91.1595 357.361 91.619 355.906 90.4033L331.246 69.7115C329.796 68.491 329.135 66.0403 329.786 64.2598L342.035 30.6063C342.681 28.8258 344.399 28.3663 345.854 29.582L370.514 50.2738C371.964 51.4943 372.625 53.945 371.974 55.7256L359.726 89.379Z" fill="black" stroke="#00C797" stroke-linecap="round" stroke-linejoin="round"/>
<path d="M340.427 50.2958L341.757 51.411L342.7 48.8359L343.404 49.4247L342.461 51.9998L343.801 53.1246L343.337 54.393L341.997 53.2682L341.054 55.8433L340.35 55.2545L341.293 52.6794L339.962 51.5642L340.427 50.2958Z" fill="#EBE9E9"/>
<path d="M346.826 56.2632C347.841 53.4823 349.253 52.3622 350.426 53.3482C351.622 54.3534 351.713 56.7179 350.694 59.5084C349.684 62.275 348.3 63.4381 347.099 62.4281C345.917 61.4373 345.816 59.0297 346.826 56.2632ZM349.732 58.7043C350.406 56.8663 350.569 55.3968 349.889 54.8225C349.2 54.2433 348.463 55.2197 347.788 57.0721C347.118 58.9101 346.955 60.3891 347.645 60.9635C348.334 61.5426 349.052 60.571 349.732 58.7043Z" fill="#EBE9E9"/>
<path d="M350.086 62.2676L351.072 63.0956L350.402 64.9336L349.416 64.1056L350.09 62.2676H350.086Z" fill="#EBE9E9"/>
<path d="M353.484 59.5962L352.436 58.7155L352.852 57.5715C353.432 58.0119 354.087 58.0406 354.585 57.002L355.389 57.6768L352.187 66.4312L351.259 65.6558L353.475 59.5914L353.484 59.5962Z" fill="#EBE9E9"/>
<path d="M353.762 64.4725C354.154 63.3956 354.8 62.8403 355.442 62.8978L355.456 62.8595C355.174 62.1559 355.131 61.4283 355.437 60.5907C355.973 59.1165 356.964 58.8532 357.964 59.6908C358.965 60.5285 359.314 61.8974 358.778 63.3573C358.481 64.171 358.031 64.5347 357.5 64.5587L357.486 64.5969C357.873 65.3723 357.897 66.4684 357.51 67.5215C356.854 69.3116 355.705 69.6371 354.657 68.7564C353.609 67.8757 353.12 66.2243 353.757 64.4725H353.762ZM356.562 66.7413C356.887 65.851 356.768 64.9894 356.203 64.5156C355.633 64.0369 355.064 64.3241 354.738 65.2096C354.427 66.0616 354.59 66.8753 355.15 67.3444C355.691 67.7991 356.26 67.5645 356.562 66.7413ZM357.821 62.7733C358.07 62.0889 357.955 61.3948 357.476 60.988C356.988 60.5811 356.538 60.7965 356.289 61.4858C356.04 62.175 356.145 62.893 356.634 63.2998C357.112 63.7019 357.572 63.4578 357.825 62.7733H357.821Z" fill="#EBE9E9"/>
<path d="M359.726 89.3782C359.08 91.1588 360.099 92.6186 361.994 92.6186H394.188C396.083 92.6186 398.166 91.1636 398.812 89.3782L411.06 55.7248C411.706 53.9442 410.687 52.4844 408.791 52.4844H376.598C374.702 52.4844 372.62 53.9395 371.974 55.7248L359.726 89.3782Z" fill="#00C797" stroke="#00C797" stroke-linecap="round" stroke-linejoin="round"/>
<path d="M376.832 73.9098L381.542 81.3575L396.825 63.8535C396.825 63.8535 389.77 69.8174 384.591 73.9673C381.216 76.6716 376.832 73.9146 376.832 73.9146V73.9098Z" fill="#EBE9E9"/>
<path d="M345.85 29.5813C344.399 28.3608 344.758 27.3652 346.654 27.3652H378.847C380.743 27.3652 383.48 28.3608 384.936 29.5813L409.595 50.2731C411.046 51.4937 410.687 52.4892 408.791 52.4892H376.598C374.702 52.4892 371.964 51.4937 370.509 50.2731L345.85 29.5813Z" fill="black" stroke="#00C797" stroke-linecap="round" stroke-linejoin="round"/>
<path d="M148.762 260.194C146.709 260.098 143.688 261.041 142.051 262.286L114.261 283.471C112.624 284.72 111.787 287.348 112.399 289.31L123.973 326.424C124.586 328.387 126.768 330.076 128.822 330.172L163.729 331.809C165.783 331.905 168.803 330.962 170.44 329.717L198.23 308.532C199.867 307.283 200.704 304.655 200.092 302.693L188.518 265.579C187.905 263.616 185.723 261.927 183.669 261.831L148.762 260.199V260.194Z" fill="#302247" stroke="#00C797" stroke-linecap="round" stroke-linejoin="round"/>
<path d="M166.352 328.405C166.965 330.368 165.782 331.899 163.729 331.804L128.822 330.167C126.768 330.071 124.586 328.386 123.973 326.419L112.399 289.305C111.787 287.343 112.969 285.811 115.022 285.907L149.93 287.544C151.983 287.639 154.166 289.324 154.778 291.291L166.352 328.405Z" fill="black" stroke="#00C797" stroke-linecap="round" stroke-linejoin="round"/>
<path d="M156.248 296.102C147.422 296.102 154.348 316.932 146.833 316.793C139.663 316.659 139.869 304.459 133.139 304.114C126.414 303.769 133.661 320.019 127.347 319.56L121.676 319.148" stroke="#EBE9E9" stroke-linecap="round" stroke-linejoin="round"/>
<path d="M166.352 328.404C166.965 330.366 168.803 330.955 170.44 329.706L198.23 308.521C199.867 307.272 200.704 304.644 200.092 302.682L188.518 265.568C187.906 263.605 186.068 263.016 184.431 264.266L156.641 285.45C155.004 286.7 154.166 289.327 154.779 291.29L166.352 328.404Z" fill="#00C797" stroke="#00C797" stroke-linecap="round" stroke-linejoin="round"/>
<path d="M115.022 285.916C112.969 285.82 112.624 284.719 114.261 283.475L142.051 262.29C143.688 261.041 146.709 260.102 148.762 260.198L183.669 261.835C185.723 261.931 186.067 263.032 184.431 264.276L156.64 285.461C155.003 286.71 151.983 287.648 149.93 287.553L115.022 285.916Z" fill="black" stroke="#00C797" stroke-linecap="round" stroke-linejoin="round"/>
<path d="M172.182 271.298C174.039 271.374 175.81 272.083 177.208 273.308L196.076 289.821L188.513 265.573C187.901 263.611 185.718 261.921 183.665 261.825L148.757 260.188C146.704 260.093 143.684 261.036 142.047 262.28L132.407 269.627L172.182 271.293V271.298Z" fill="black"/>
<path d="M178.103 295.108L183.837 290.733L182.439 286.339C181.717 284.066 179.668 283.319 177.892 284.674L175.389 286.583L178.103 295.108Z" fill="#EBE9E9"/>
<path d="M171.162 300.397L176.896 296.023L174.183 287.498L171.679 289.408C169.904 290.762 169.037 293.73 169.765 295.999L171.162 300.393V300.397Z" fill="#EBE9E9"/>
<path d="M181.343 305.287L183.847 303.377C185.622 302.023 186.489 299.055 185.761 296.787L184.364 292.393L178.629 296.767L181.343 305.292V305.287Z" fill="#EBE9E9"/>
<path d="M177.639 308.112L180.142 306.202L177.428 297.678L171.694 302.053L173.091 306.446C173.814 308.72 175.863 309.467 177.639 308.112Z" fill="#EBE9E9"/>
<path d="M148.762 260.194C146.709 260.098 143.688 261.041 142.051 262.286L114.261 283.471C112.624 284.72 111.787 287.348 112.399 289.31L123.973 326.424C124.586 328.387 126.768 330.076 128.822 330.172L163.729 331.809C165.783 331.905 168.803 330.962 170.44 329.717L198.23 308.532C199.867 307.283 200.704 304.655 200.092 302.693L188.518 265.579C187.905 263.616 185.723 261.927 183.669 261.831L148.762 260.199V260.194Z" stroke="#00C797" stroke-linecap="round" stroke-linejoin="round"/>
<path d="M177.045 267.271C170.344 270.095 161.116 267.783 156.535 262.13L78.813 166.167C74.2372 160.514 75.9747 153.579 82.6757 150.755L278.637 68.1697C285.338 65.3457 294.566 67.6576 299.147 73.3104L376.869 169.274C381.445 174.926 379.708 181.862 373.007 184.686L177.045 267.271Z" fill="#00C797" stroke="#00C797" stroke-miterlimit="10"/>
<path d="M177.404 265.845C170.703 268.669 161.475 266.357 156.894 260.705L79.1719 164.741C74.5961 159.089 76.3335 152.153 83.0346 149.329L278.996 66.7439C285.697 63.9199 294.925 66.2318 299.506 71.8846L377.228 167.848C381.804 173.501 380.066 180.436 373.365 183.26L177.404 265.845Z" fill="black"/>
<path d="M321.888 99.5254L270.606 226.567L373.361 183.264C380.062 180.44 381.799 173.505 377.224 167.852L321.888 99.5302V99.5254Z" fill="#302247"/>
<path d="M276.321 224.155C303.163 159.581 312.027 165.488 305.436 211.882L276.321 224.155Z" fill="#00C797"/>
<path d="M234.635 222.338C235.049 218.863 231.602 215.594 226.935 215.038C222.268 214.481 218.148 216.847 217.734 220.323C217.319 223.798 220.767 227.066 225.434 227.623C230.101 228.179 234.22 225.813 234.635 222.338Z" stroke="#00C797" stroke-linecap="round" stroke-linejoin="round"/>
<path d="M231.216 226.647C232.57 225.358 231.414 221.946 228.634 219.027C225.855 216.107 222.504 214.784 221.15 216.073C219.797 217.362 220.953 220.773 223.732 223.693C226.512 226.613 229.862 227.935 231.216 226.647Z" stroke="#00C797" stroke-linecap="round" stroke-linejoin="round"/>
<path d="M221.31 226.279L234.545 220.703" stroke="#00C797" stroke-linecap="round" stroke-linejoin="round"/>
<path d="M217.821 221.957L231.055 216.381" stroke="#00C797" stroke-linecap="round" stroke-linejoin="round"/>
<path d="M197.598 202.147L200.221 196.753C201.403 194.321 187.015 185.567 168.08 177.195C162.178 174.587 156.53 172.323 151.514 170.518C151.514 170.518 151.514 170.518 151.509 170.518C151.457 170.499 151.409 170.48 151.356 170.466C150.964 170.322 150.571 170.183 150.184 170.049C150.131 170.03 150.078 170.011 150.021 169.992C156.679 170.025 165.395 169.863 174.934 169.499C195.789 168.704 212.656 167.235 212.613 166.215C212.613 166.215 212.35 159.983 212.35 159.979C212.307 158.959 195.368 158.782 174.518 159.576C165.759 159.912 157.708 160.361 151.308 160.854C151.5 160.773 151.686 160.692 151.878 160.61C151.988 160.562 152.098 160.519 152.208 160.472C152.945 160.156 153.687 159.835 154.443 159.505C154.606 159.433 154.769 159.361 154.932 159.289C155.631 158.983 156.334 158.672 157.047 158.351C157.129 158.313 157.21 158.279 157.296 158.241C158.067 157.896 158.842 157.547 159.622 157.188C159.809 157.102 160.001 157.016 160.187 156.93C160.977 156.566 161.772 156.202 162.576 155.829C162.576 155.829 162.585 155.829 162.585 155.824C163.169 155.551 163.748 155.278 164.327 155.005C164.428 154.958 164.524 154.915 164.619 154.867C165.098 154.642 165.572 154.417 166.041 154.192C166.175 154.125 166.309 154.063 166.448 153.996C166.874 153.79 167.3 153.589 167.721 153.383C167.951 153.273 168.176 153.163 168.401 153.053C168.726 152.895 169.056 152.737 169.377 152.574C169.593 152.469 169.803 152.363 170.019 152.258C170.344 152.095 170.674 151.937 170.995 151.775C171.253 151.645 171.502 151.521 171.756 151.396C172.029 151.258 172.306 151.124 172.574 150.985C172.862 150.841 173.144 150.698 173.426 150.554C173.656 150.439 173.891 150.32 174.121 150.205C174.432 150.047 174.733 149.889 175.04 149.731C175.236 149.63 175.432 149.53 175.623 149.429C175.92 149.276 176.207 149.128 176.495 148.975C176.696 148.869 176.897 148.764 177.093 148.663C177.39 148.505 177.682 148.352 177.978 148.194C178.155 148.099 178.337 148.008 178.51 147.912C178.83 147.74 179.141 147.572 179.453 147.405C179.596 147.328 179.74 147.251 179.883 147.175C180.199 147.003 180.51 146.835 180.817 146.667C180.946 146.596 181.085 146.524 181.214 146.452C181.516 146.289 181.808 146.127 182.1 145.964C182.234 145.892 182.368 145.815 182.497 145.744C182.784 145.581 183.066 145.423 183.344 145.265C183.468 145.193 183.598 145.121 183.722 145.05C184.005 144.887 184.282 144.729 184.555 144.571C184.67 144.504 184.785 144.442 184.895 144.375C185.163 144.222 185.417 144.068 185.675 143.915C185.775 143.853 185.886 143.791 185.986 143.733C191.888 140.239 195.31 137.616 194.836 136.697L191.811 130.791C190.873 128.962 174.915 134.558 156.162 143.293C154.86 143.901 153.577 144.504 152.318 145.107C153.175 143.24 153.927 141.369 154.568 139.517C154.759 138.961 154.941 138.406 155.114 137.851C155.458 136.745 154.333 119.452 154.295 119.289L83.0251 149.324C75.3141 152.574 75.3716 160.055 79.1624 164.736L131.856 229.794C136.6 234.489 140.998 236.719 143.985 235.389L148.671 233.302C152.869 231.43 153.209 223.03 150.212 212.17C160.651 220.455 169.42 224.883 171.837 222.585L175.729 218.885C178.854 215.918 170.239 202.817 156.353 189.214C157.918 189.942 159.522 190.669 161.164 191.397C180.099 199.763 196.406 204.574 197.588 202.142L197.598 202.147Z" fill="#00C797"/>
<path d="M164.246 238.176L169.64 235.902C173.335 234.347 177.83 235.96 180.735 239.545C182.329 241.517 182.98 243.565 182.396 245.245C181.975 246.423 180.984 247.409 179.247 248.141L174.082 250.314L164.246 238.171V238.176ZM177.332 246.102C179.965 244.997 179.845 243.154 177.892 240.741C175.939 238.329 173.378 237.156 171 238.157L168.755 239.1L175.164 247.012L177.327 246.102H177.332Z" fill="#00C797"/>
<path d="M182.846 240.775C180.754 238.195 181.123 235.352 184.023 234.131C187.216 232.786 190.648 234.213 193.165 237.319L185.971 240.349C187.249 241.608 188.776 242.082 190.265 241.455C191.289 241.024 191.562 240.363 191.313 239.578L193.903 238.487C194.788 240.186 194.281 242.153 191.725 243.23C188.436 244.614 184.942 243.374 182.836 240.775H182.846ZM184.722 238.736L189.13 236.879C188.159 235.807 186.709 235.395 185.507 235.898C184.114 236.482 184.028 237.496 184.717 238.736H184.722Z" fill="#00C797"/>
<path d="M199.082 238.338L199.043 238.353L199.924 239.439L197.392 240.507L187.556 228.363L190.184 227.258L193.817 231.743L193.874 231.719C193.826 230.761 194.223 229.842 195.597 229.263C198.091 228.215 201.398 229.349 203.6 232.068C205.883 234.887 205.625 237.386 203.131 238.434C201.738 239.018 200.326 238.908 199.086 238.338H199.082ZM200.929 233.188C199.623 231.575 197.981 230.761 196.511 231.384C194.846 232.083 195.176 233.514 196.487 235.132C197.78 236.73 199.512 237.362 200.987 236.745C202.341 236.175 202.298 234.873 200.934 233.193L200.929 233.188Z" fill="#00C797"/>
<path d="M198.503 223.758L201.135 222.652L202.815 224.725L200.183 225.831L198.503 223.758ZM201.279 227.19L203.911 226.084L210.967 234.796L208.334 235.901L201.279 227.19Z" fill="#00C797"/>
<path d="M205.036 225.61L206.41 225.031L204.208 222.312L206.783 221.23L208.985 223.949L210.689 223.231L211.929 224.758L210.225 225.476L213.968 230.095C214.489 230.741 215.073 230.789 215.657 230.545C215.987 230.406 216.418 230.2 216.418 230.2L217.792 231.899C217.792 231.899 217.222 232.187 216.174 232.627C214.896 233.163 213.13 233.316 211.794 231.67L207.654 226.558L206.281 227.137L205.041 225.61H205.036Z" fill="#00C797"/>
<path d="M177.404 265.845C170.703 268.669 161.475 266.357 156.894 260.705L79.1719 164.741C74.5961 159.089 76.3335 152.153 83.0346 149.329L278.996 66.7439C285.697 63.9199 294.925 66.2318 299.506 71.8846L377.228 167.848C381.804 173.501 380.066 180.436 373.365 183.26L177.404 265.845Z" stroke="black" stroke-miterlimit="10"/>
<path d="M293.777 149.503C291.561 150.436 288.507 149.67 286.994 147.803L277.632 136.244C276.12 134.373 276.694 132.08 278.91 131.147L300.588 122.009C302.804 121.076 305.858 121.842 307.37 123.708L316.732 135.268C318.245 137.139 317.671 139.432 315.454 140.365L293.777 149.503Z" fill="#EBE9E9"/>
<path d="M310.543 127.629L303.34 145.473L315.45 140.37C317.666 139.437 318.24 137.144 316.727 135.273L310.539 127.634L310.543 127.629Z" fill="#00C797"/>
<path d="M278.91 131.147C276.694 132.08 276.12 134.373 277.632 136.244L285.295 145.707L290.077 143.692C291.393 143.137 292.374 141.993 292.724 140.605C293.073 139.216 292.748 137.747 291.848 136.637L285.238 128.48L278.905 131.147H278.91Z" stroke="black" stroke-miterlimit="10"/>
<path d="M292.494 137.705L301.808 133.775" stroke="black" stroke-miterlimit="10"/>
<path d="M308.959 125.676L304.178 127.691C302.861 128.246 301.88 129.39 301.531 130.778C301.181 132.166 301.507 133.636 302.407 134.746L309.122 143.036" stroke="black" stroke-miterlimit="10"/>
<path d="M305.92 139.084L309.122 143.038" stroke="#EBE9E9" stroke-miterlimit="10"/>
<path d="M293.777 149.503C291.561 150.436 288.507 149.67 286.994 147.803L277.632 136.244C276.12 134.373 276.694 132.08 278.91 131.147L300.588 122.009C302.804 121.076 305.858 121.842 307.37 123.708L316.732 135.268C318.245 137.139 317.671 139.432 315.454 140.365L293.777 149.503Z" stroke="black" stroke-miterlimit="10"/>
<path d="M151.313 160.851C151.505 160.769 151.691 160.688 151.883 160.606C151.993 160.559 152.103 160.516 152.213 160.468C152.95 160.152 153.692 159.831 154.448 159.501C154.611 159.429 154.774 159.357 154.936 159.285C155.635 158.979 156.339 158.668 157.052 158.347C157.133 158.309 157.215 158.275 157.301 158.237C158.072 157.893 158.847 157.543 159.627 157.184C159.814 157.098 160.005 157.012 160.192 156.926C160.982 156.562 161.776 156.198 162.58 155.825C162.58 155.825 162.59 155.825 162.59 155.82C163.174 155.547 163.753 155.274 164.332 155.002C164.433 154.954 164.529 154.911 164.624 154.863C165.103 154.638 165.577 154.413 166.046 154.188C166.18 154.121 166.314 154.059 166.453 153.992C166.879 153.786 167.305 153.585 167.726 153.379C167.956 153.269 168.181 153.159 168.406 153.049C168.731 152.891 169.061 152.733 169.382 152.57C169.597 152.465 169.808 152.359 170.023 152.254C170.349 152.091 170.679 151.933 171 151.771C171.258 151.641 171.507 151.517 171.761 151.393C172.034 151.254 172.311 151.12 172.579 150.981C172.866 150.837 173.149 150.694 173.431 150.55C173.661 150.435 173.896 150.316 174.125 150.201C174.436 150.043 174.738 149.885 175.044 149.727C175.241 149.626 175.437 149.526 175.628 149.425C175.925 149.272 176.212 149.124 176.499 148.971C176.7 148.865 176.901 148.76 177.098 148.66C177.394 148.502 177.686 148.348 177.983 148.19C178.16 148.095 178.342 148.004 178.514 147.908C178.835 147.736 179.146 147.568 179.457 147.401C179.601 147.324 179.745 147.248 179.888 147.171C180.204 146.999 180.515 146.831 180.822 146.664C180.951 146.592 181.09 146.52 181.219 146.448C181.52 146.285 181.812 146.123 182.104 145.96C182.238 145.888 182.372 145.812 182.502 145.74C182.789 145.577 183.071 145.419 183.349 145.261C183.473 145.189 183.602 145.118 183.727 145.046C184.009 144.883 184.287 144.725 184.56 144.567C184.675 144.5 184.789 144.438 184.9 144.371C185.168 144.218 185.421 144.065 185.68 143.911C185.785 143.849 185.89 143.787 185.991 143.729C191.893 140.235 195.315 137.612 194.841 136.693L191.816 130.787C190.878 128.959 174.92 134.554 156.167 143.289C154.865 143.897 153.582 144.5 152.323 145.103C153.18 143.236 153.931 141.365 154.573 139.513C154.764 138.957 154.946 138.402 155.118 137.847C155.463 136.741 154.338 119.448 154.3 119.285L145.153 123.138C131.866 196.782 137.074 227.162 161.982 195.007C160.226 193.102 158.344 191.163 156.353 189.21C157.918 189.938 159.522 190.665 161.164 191.393C162.059 191.79 162.949 192.173 163.83 192.556C166.563 188.842 169.511 184.424 172.685 179.278C171.182 178.58 169.64 177.885 168.07 177.187C162.169 174.578 156.521 172.314 151.505 170.51H151.5C151.447 170.49 151.399 170.471 151.347 170.457C150.954 170.313 150.562 170.175 150.174 170.041C150.121 170.021 150.069 170.002 150.011 169.983C156.669 170.017 165.385 169.854 174.925 169.49C176.155 169.442 177.371 169.394 178.567 169.342C180.372 166.187 182.234 162.823 184.162 159.261C181.08 159.338 177.844 159.443 174.508 159.568C165.749 159.903 157.698 160.353 151.299 160.846L151.313 160.851Z" fill="#B5DF77"/>
<path d="M201.284 70.3252L198.809 64.9883L134.12 94.9705L136.595 100.307C137.71 102.715 153.094 97.9525 170.957 89.6719C188.82 81.3914 202.394 72.7279 201.279 70.3204L201.284 70.3252Z" fill="#B5DF77" stroke="black" stroke-miterlimit="10"/>
<path d="M136.595 100.306C137.361 101.962 144.89 100.225 155.329 96.2806L151.088 88.8281L148.255 90.6661L146.623 89.168L134.116 94.9643L136.59 100.301L136.595 100.306Z" fill="black" stroke="black" stroke-miterlimit="10"/>
<path d="M168.483 84.3326C186.346 76.0523 199.921 67.3879 198.805 64.9799C197.689 62.572 182.304 67.3325 164.441 75.6127C146.578 83.893 133.002 92.5575 134.118 94.9654C135.235 97.3733 150.62 92.6129 168.483 84.3326Z" fill="#00C797" stroke="black" stroke-miterlimit="10"/>
<path d="M178.184 48.4194L174.513 44.7578L165.845 53.45C160.585 57.0446 154.305 62.324 147.992 68.6565C141.678 74.9889 136.418 81.2879 132.843 86.5578L124.174 95.2499L127.846 98.9115C130.894 101.951 144.632 93.1104 158.531 79.1675C172.431 65.2246 181.229 51.4588 178.18 48.4194H178.184Z" fill="#B5DF77" stroke="black" stroke-miterlimit="10"/>
<path d="M147.068 89.5824L142.176 85.0879L139.922 87.6343L133.843 85.1262C133.498 85.6096 133.163 86.0931 132.843 86.5621L132.22 87.1844L124.174 95.2543L127.846 98.9159C130.038 101.099 137.744 97.1497 147.068 89.5824Z" fill="#00C797" stroke="black" stroke-miterlimit="10"/>
<path d="M154.864 75.5091C168.764 61.5653 177.561 47.7986 174.513 44.7603C171.466 41.722 157.727 50.5626 143.826 64.5064C129.926 78.4502 121.129 92.2169 124.177 95.2552C127.225 98.2936 140.964 89.4529 154.864 75.5091Z" fill="#00C797" stroke="black" stroke-miterlimit="10"/>
<path d="M152.658 34.1576L148.236 32.0898L146.848 35.0622C140.841 38.4989 133.101 48.5312 127.032 61.5264C120.958 74.5264 118.23 86.8993 119.45 93.7104L118.062 96.6828L122.48 98.7457C128.3 101.464 139.773 89.2112 148.106 71.3721C156.44 53.5331 158.479 36.8715 152.658 34.148V34.1576Z" fill="#B5DF77" stroke="black" stroke-miterlimit="10"/>
<path d="M138.902 87.2147L133.47 84.9746L132.22 87.1859L126.491 88.2772L122.949 93.4849L124.031 99.1233C127.903 99.3052 133.431 94.7294 138.902 87.2147Z" fill="black" stroke="black" stroke-miterlimit="10"/>
<path d="M143.684 69.3125C152.017 51.4744 154.055 34.8097 148.235 32.0909C142.415 29.3721 130.941 41.6287 122.608 59.4669C114.275 77.305 112.237 93.9697 118.057 96.6885C123.877 99.4073 135.351 87.1507 143.684 69.3125Z" fill="#00C797" stroke="black" stroke-miterlimit="10"/>
<path d="M138.203 62.4069C138.17 42.7203 129.592 26.7719 119.053 26.791L114.185 26.8006V27.4898C105.445 30.7542 98.8779 45.1853 98.9066 62.4787C98.9401 79.7721 105.56 94.1793 114.309 97.4149V98.1041L119.172 98.0946H118.052C128.592 98.0754 138.232 82.0983 138.198 62.4069H138.203Z" fill="#B5DF77" stroke="black" stroke-miterlimit="10"/>
<path d="M132.22 87.1845L126.49 88.2758L114.027 97.2886C114.122 97.3269 114.213 97.37 114.309 97.4035V98.0928L118.229 98.0832C118.229 98.0832 118.229 98.0832 118.234 98.0832C123.595 98.0736 128.759 93.8376 132.215 87.1797L132.22 87.1845Z" fill="#00C797" stroke="black" stroke-miterlimit="10"/>
<path d="M114.308 98.1071C124.848 98.0887 133.364 82.1131 133.329 62.4245C133.295 42.7359 124.723 26.7901 114.184 26.8085C103.644 26.8269 95.128 42.8025 95.1623 62.4911C95.1967 82.1797 103.769 98.1255 114.308 98.1071Z" fill="#00C797" stroke="black" stroke-miterlimit="10"/>
<path d="M126.041 56.1251C119.273 37.6351 104.277 26.1285 92.555 30.4219L88.7306 31.8435L88.8311 32.1211C79.2199 38.0898 76.3289 55.0625 82.5513 72.0543C88.8311 89.2041 102.185 100.342 113.443 98.442L113.534 98.6861L116.827 97.4655L117.358 97.2645C128.86 92.7748 132.756 74.4619 126.041 56.1251Z" fill="#B5DF77" stroke="black" stroke-miterlimit="10"/>
<path d="M113.246 98.8024C124.97 94.5097 128.987 76.0421 122.217 57.5538C115.448 39.0656 100.456 27.5578 88.732 31.8505C77.0081 36.1431 72.9916 54.6108 79.761 73.099C86.5304 91.5873 101.522 103.095 113.246 98.8024Z" fill="#00C797" stroke="black" stroke-miterlimit="10"/>
<path d="M120.862 84.6961L121.216 84.8014L122.197 81.2259C126.419 65.8471 114.501 48.9223 95.5798 43.4274C76.6591 37.9326 57.8962 45.9451 53.6746 61.3239L52.6934 64.8994L53.0476 65.0047C51.7409 79.1773 63.1661 93.6802 80.4116 98.6868C97.6571 103.693 114.769 97.4807 120.862 84.7009V84.6961Z" fill="#B5DF77" stroke="black" stroke-miterlimit="10"/>
<path d="M120.935 85.7533C125.809 70.5711 114.548 53.3792 95.7816 47.354C77.0154 41.3289 57.8508 48.752 52.9764 63.9342C48.1019 79.1163 59.3634 96.3082 78.1297 102.333C96.8959 108.359 116.06 100.935 120.935 85.7533Z" fill="#B5DF77" stroke="black" stroke-miterlimit="10"/>
<path d="M117.947 91.8658C113.874 82.3073 101.879 60.5816 77.9708 63.7359L52.1958 67.1343C49.6447 81.886 61.3044 97.4659 79.3158 102.693C95.0727 107.269 110.72 102.477 117.952 91.861L117.947 91.8658Z" fill="#00C797"/>
<path d="M88.6492 59.5581H88.6301C85.9928 59.1992 83.4368 59.4624 80.9622 60.3288C79.5933 60.8122 78.3105 61.5062 77.1091 62.4061L74.9409 61.1089L71.5521 62.7698L74.6681 64.6318C74.558 64.7514 74.4479 64.8663 74.3426 64.986C74.1703 65.1822 74.0171 65.3784 73.8592 65.5795L70.2358 63.4112L66.8518 65.0769L72.1456 68.2407C71.5856 69.3847 71.241 70.5239 71.1309 71.663C70.9107 73.8839 71.4181 75.9804 72.6578 77.9476C73.8974 79.9148 75.745 81.6332 78.1957 83.0978C80.0576 84.2131 81.8908 84.9837 83.6953 85.4192C84.3606 85.5772 85.0163 85.7016 85.6577 85.7878C86.7538 85.9362 87.8164 85.9745 88.8407 85.9123C90.4633 85.8069 91.9375 85.4815 93.2681 84.9502C94.5988 84.4189 95.7092 83.7392 96.6091 82.9112L90.0182 78.9288C88.9412 79.7665 87.7063 80.1829 86.2991 80.1781C85.9976 80.1781 85.6912 80.1542 85.3897 80.1159C84.284 79.9675 83.164 79.5559 82.0344 78.881C80.1007 77.7227 79.0189 76.2915 78.7748 74.578C78.6743 73.86 78.7557 73.1181 79.0046 72.3475L83.3124 74.9226L86.6724 73.2426L80.5458 69.5809C80.699 69.3847 80.8569 69.1837 81.0292 68.9874C81.1345 68.863 81.2446 68.7529 81.3547 68.6332L87.9743 72.5916L91.3296 70.9068L83.9537 66.4985C84.8009 66.0055 85.6864 65.6608 86.6102 65.479C87.4813 65.3066 88.3477 65.2779 89.2045 65.3976C90.3628 65.5555 91.5115 65.972 92.6459 66.6516C94.1345 67.5419 95.087 68.5662 95.4891 69.715C95.8959 70.8685 95.7379 72.0029 95.0296 73.1229L101.644 77.0813C102.817 75.3294 103.358 73.5632 103.262 71.7779C103.162 69.9926 102.506 68.2886 101.29 66.6564C100.074 65.0242 98.3801 63.5548 96.1879 62.2481C93.7851 60.8122 91.2674 59.9123 88.6397 59.5581" fill="black"/>
<path d="M120.935 85.7533C125.809 70.5711 114.548 53.3792 95.7816 47.354C77.0154 41.3289 57.8508 48.752 52.9764 63.9342C48.1019 79.1163 59.3634 96.3082 78.1297 102.333C96.8959 108.359 116.06 100.935 120.935 85.7533Z" stroke="black" stroke-miterlimit="10"/>
<path d="M112.428 76.5935L112.692 76.335L109.968 73.578C99.5145 63.0048 79.6939 65.6612 65.6936 79.5036C51.6932 93.346 48.8166 113.138 59.2702 123.711L61.9936 126.468L62.2569 126.21C73.1891 133.72 90.784 130.403 103.54 117.786C116.301 105.168 119.819 87.6118 112.428 76.5982V76.5935Z" fill="#B5DF77" stroke="black" stroke-miterlimit="10"/>
<path d="M59.2651 123.707L62.8023 127.234L71.2647 118.71L53.6506 100.895C51.8653 109.591 53.6219 117.992 59.2699 123.702L59.2651 123.707Z" fill="black" stroke="black" stroke-miterlimit="10"/>
<path d="M106.272 120.531C120.271 106.687 123.146 86.8945 112.692 76.3235C102.238 65.7525 82.4152 68.4057 68.4157 82.2497C54.4162 96.0936 51.5417 115.886 61.9953 126.457C72.4489 137.028 92.2721 134.375 106.272 120.531Z" fill="#B5DF77"/>
<path d="M114.663 109.244L110.327 106.641L101.73 124.48C103.291 123.288 104.808 121.972 106.263 120.536C109.772 117.065 112.581 113.222 114.659 109.244H114.663Z" fill="white"/>
<path d="M99.6772 125.968L100.299 127.466L101.735 124.484C101.056 125.001 100.371 125.499 99.6772 125.968Z" fill="white"/>
<path d="M106.268 120.536C114.123 112.773 118.474 103.138 118.938 94.3067C112.821 90.3483 103.655 87.2467 95.3933 89.257C83.6187 92.1241 73.1508 101.807 65.6456 120.249L62.8025 127.233C73.4427 136.887 92.622 134.029 106.268 120.536Z" fill="#00C797"/>
<path d="M86.5338 108.019L85.3084 104.257L92.5264 100.892C94.0533 100.179 95.1829 100.423 95.5801 101.653C95.987 102.907 95.2786 103.946 93.7517 104.654L86.5338 108.019ZM84.1262 100.629L82.9439 97.0006L89.8125 93.7985C91.2532 93.1284 92.3397 93.3582 92.7226 94.5308C93.1055 95.7035 92.4354 96.7565 90.9947 97.4266L84.1262 100.629ZM86.4668 86.5566L83.0779 88.1362L84.3081 91.9127L81.6899 93.1332L80.4598 89.3567L77.071 90.9362L78.3011 94.7127L75.3479 96.0912L71.49 97.8909L72.7488 101.758L76.6067 99.9587L80.1678 110.896L76.3099 112.695L77.5688 116.568L81.4266 114.768L84.3799 113.389L85.5908 117.104L88.9796 115.524L87.7687 111.81L90.3868 110.589L91.5978 114.304L94.9866 112.724L93.7756 109.01L96.1306 107.914C100.946 105.669 103.076 102.342 102.051 99.1928C101.357 97.0581 99.6055 96.1534 97.0543 96.5124C98.7535 94.7702 99.3375 92.8364 98.7392 90.9937C97.7388 87.9256 94.3644 87.2267 89.5827 89.4572L87.6969 90.3379L86.4668 86.5614" fill="black"/>
<path d="M106.272 120.531C120.271 106.687 123.146 86.8945 112.692 76.3235C102.238 65.7525 82.4152 68.4057 68.4157 82.2497C54.4162 96.0936 51.5417 115.886 61.9953 126.457C72.4489 137.028 92.2721 134.375 106.272 120.531Z" stroke="black" stroke-miterlimit="10"/>
<path d="M133.766 118.461C130.799 101.038 118.761 88.206 105.727 87.5694L105.646 87.0859L101.247 87.8326C86.5911 90.3264 77.3916 108.084 80.6943 127.493C84.0017 146.902 98.5572 160.615 113.213 158.117L117.612 157.37L117.531 156.887C129.621 151.971 136.734 135.884 133.766 118.456V118.461Z" fill="#B5DF77" stroke="black" stroke-miterlimit="10"/>
<path d="M128.678 147.29L128.755 132.361L86.615 143.49C92.9666 153.814 103.066 159.855 113.213 158.127L117.612 157.38L117.531 156.897C122.02 155.073 125.825 151.699 128.683 147.295L128.678 147.29Z" fill="black" stroke="black" stroke-miterlimit="10"/>
<path d="M84.9446 140.501C86.347 143.272 88.0079 145.795 89.865 148.015L104.071 145.598L102.688 137.48L84.9446 140.501Z" fill="#00C797" stroke="black" stroke-miterlimit="10"/>
<path d="M84.7195 140.054L89.8936 139.221L92.7607 143.284L87.0457 144.17L84.7195 140.054Z" fill="black"/>
<path d="M117.6 157.386C132.256 154.891 141.459 137.135 138.156 117.725C134.852 98.3156 120.292 84.6035 105.636 87.0982C90.9803 89.5929 81.7774 107.35 85.0811 126.759C88.3849 146.169 102.944 159.881 117.6 157.386Z" fill="#B5DF77"/>
<path d="M138.16 117.714C136.964 110.692 134.298 104.417 130.684 99.3864C122.207 94.9686 96.9299 99.9895 96.8724 138.109L96.8533 150.046C102.779 155.742 110.184 158.643 117.612 157.379C132.268 154.885 141.468 137.128 138.165 117.719L138.16 117.714Z" fill="#00C797"/>
<path d="M125.658 115.003L119.761 111.787L112.189 120.173L111.997 120.072L110.332 106.641L104.43 103.43L106.933 119.905L104.205 118.411L103.353 121.441L107.508 123.705L107.728 125.146L107.718 125.174L103.061 122.633L102.209 125.658L106.9 128.214L105.373 133.852L110.619 136.71L112.146 131.076L116.827 133.627L117.65 130.588L112.969 128.037L112.974 128.003L113.816 127.146L117.971 129.41L118.789 126.371L116.037 124.868L125.658 115.003Z" fill="black"/>
<path d="M117.6 157.386C132.256 154.891 141.459 137.135 138.156 117.725C134.852 98.3156 120.292 84.6035 105.636 87.0982C90.9803 89.5929 81.7774 107.35 85.0811 126.759C88.3849 146.169 102.944 159.881 117.6 157.386Z" stroke="black" stroke-miterlimit="10"/>
<path d="M150.921 122.459C144.095 107.611 132.761 97.6841 123.456 97.4735L122.944 96.3535L118.258 98.5074C108.384 103.045 107 121.123 115.166 138.891C123.332 156.658 137.954 167.379 147.829 162.842L152.515 160.688L152.003 159.568C157.899 152.369 157.746 137.301 150.926 122.454L150.921 122.459Z" fill="#B5DF77" stroke="black" stroke-miterlimit="10"/>
<path d="M147.833 162.849L152.519 160.695L152.007 159.575C155.956 154.755 157.191 146.407 155.525 136.959L121.144 149.179C129.339 160.523 140.06 166.419 147.838 162.849H147.833Z" fill="black" stroke="black" stroke-miterlimit="10"/>
<path d="M126.381 155.367L131.239 153.414L133.584 155.587L128.626 157.497L126.381 155.367Z" fill="#00C797" stroke="black" stroke-miterlimit="10"/>
<path d="M129.032 140.529L118.292 144.842C120.072 147.833 122.035 150.547 124.102 152.926L132.632 149.499L129.027 140.529H129.032Z" fill="black" stroke="black" stroke-miterlimit="10"/>
<path d="M152.508 160.71C162.38 156.174 163.764 138.093 155.599 120.325C147.435 102.557 132.813 91.8313 122.941 96.3679C113.068 100.904 111.684 118.986 119.849 136.753C128.014 154.521 142.635 165.247 152.508 160.71Z" fill="#B5DF77"/>
<path d="M140.228 111.57L136.437 109.488L136.542 113.418C135.8 113.174 135.111 113.054 134.47 113.054C133.264 113.054 132.33 113.475 131.67 114.303C131.009 115.136 130.703 116.362 130.751 117.984C130.799 119.956 131.354 121.809 132.416 123.536C133.479 125.26 134.915 126.877 136.71 128.371L138.892 130.194C140.036 131.147 140.884 131.994 141.429 132.726C141.975 133.459 142.257 134.186 142.286 134.919C142.3 135.708 142.028 136.201 141.477 136.393C140.922 136.58 140.146 136.402 139.141 135.852C138.036 135.244 137.136 134.435 136.437 133.416C135.738 132.401 135.346 131.252 135.259 129.965L130.468 127.332C130.583 130.395 131.435 133.09 133.039 135.431C134.183 137.101 135.58 138.532 137.236 139.739L137.342 143.63L141.132 145.712L141.032 141.897C142.808 142.63 144.244 142.778 145.33 142.318C146.742 141.725 147.417 140.188 147.36 137.714C147.302 135.632 146.709 133.645 145.584 131.764C144.464 129.879 142.875 128.088 140.817 126.399L139.022 124.91C138.079 124.144 137.327 123.393 136.762 122.651C136.198 121.909 135.915 121.158 135.915 120.397C135.906 119.693 136.135 119.233 136.609 119.042C137.083 118.846 137.806 119.018 138.773 119.549C139.749 120.085 140.51 120.76 141.056 121.574C141.597 122.388 141.917 123.278 142.008 124.25L146.8 126.882C146.742 125.245 146.369 123.637 145.684 122.048C145 120.464 144.057 119.009 142.856 117.668C142.095 116.826 141.257 116.074 140.333 115.414L140.233 111.575" fill="black"/>
<path d="M152.508 160.71C162.38 156.174 163.764 138.093 155.599 120.325C147.435 102.557 132.813 91.8313 122.941 96.3679C113.068 100.904 111.684 118.986 119.849 136.753C128.014 154.521 142.635 165.247 152.508 160.71Z" stroke="black" stroke-miterlimit="10"/>
<path d="M193.357 135.594L196.215 129.75L132.153 98.4512L129.296 104.295C128.41 106.105 142.037 114.581 159.723 123.221C177.414 131.865 192.472 137.403 193.357 135.594Z" fill="#B5DF77" stroke="black" stroke-miterlimit="10"/>
<path d="M147.958 106.172L132.153 98.4512L129.296 104.295C128.712 105.492 134.465 109.599 143.54 114.744L147.953 106.172H147.958Z" fill="#00C797" stroke="black" stroke-miterlimit="10"/>
<path d="M147.958 106.172L143.392 103.941L139.151 112.179C140.505 112.997 141.975 113.854 143.545 114.744L147.958 106.172Z" fill="black" stroke="black" stroke-miterlimit="10"/>
<path d="M135.384 109.821C136.083 110.276 136.829 110.754 137.624 111.247L141.63 103.087L139.405 102L135.379 109.821H135.384Z" fill="black"/>
<path d="M196.222 129.759C197.106 127.95 183.483 119.476 165.793 110.832C148.103 102.189 133.045 96.6495 132.161 98.4593C131.277 100.269 144.9 108.743 162.59 117.386C180.28 126.03 195.338 131.569 196.222 129.759Z" fill="#B5DF77" stroke="black" stroke-miterlimit="10"/>
<path d="M165.783 110.824C158.938 107.483 152.491 104.602 147.106 102.434L142.478 104.339C154.793 110.642 174.025 119.454 187.863 122.786C182.363 119.373 174.575 115.118 165.783 110.824Z" fill="#00C797"/>
<path d="M196.222 129.759C197.106 127.95 183.483 119.476 165.793 110.832C148.103 102.189 133.045 96.6495 132.161 98.4593C131.277 100.269 144.9 108.743 162.59 117.386C180.28 126.03 195.338 131.569 196.222 129.759Z" stroke="black" stroke-miterlimit="10"/>
<path d="M141.735 97.6966L141.487 103.871L212.728 106.719L212.977 100.545C213.015 99.5394 197.1 98.0843 177.428 97.2946C157.756 96.5096 141.774 96.6867 141.735 97.6918V97.6966Z" fill="#B5DF77" stroke="black" stroke-miterlimit="10"/>
<path d="M212.73 106.722C212.77 105.716 196.855 104.262 177.182 103.475C157.509 102.689 141.528 102.867 141.488 103.873C141.448 104.879 157.363 106.333 177.036 107.12C196.709 107.906 212.689 107.728 212.73 106.722Z" fill="#00C797" stroke="black" stroke-miterlimit="10"/>
<path d="M29.4266 238.226C45.1262 238.226 57.8533 225.499 57.8533 209.8C57.8533 194.1 45.1262 181.373 29.4266 181.373C13.727 181.373 1 194.1 1 209.8C1 225.499 13.727 238.226 29.4266 238.226Z" fill="black" stroke="#00C797" stroke-linecap="round" stroke-linejoin="round"/>
<path d="M20.6149 190.492C20.6101 192.101 21.9551 193.379 23.5586 193.297C29.2688 193.005 42.8575 193.67 50.5636 205.431C51.2672 206.508 52.8133 206.599 53.6413 205.617C55.3118 203.636 54.8379 202.071 54.5699 201.511C54.4646 201.286 54.3641 201.051 54.2779 200.817C51.8033 193.982 46.5478 188.19 39.2724 185.27C34.4621 183.337 29.4172 182.925 24.669 183.796C23.0129 184.102 21.6488 185.299 21.1366 186.902C20.7441 188.137 20.6149 189.401 20.6101 190.492H20.6149Z" fill="#302247"/>
<path d="M28.4024 218.707C23.9175 218.391 22.8597 218.277 19.4709 217.812C19.4454 215.745 19.6448 210.325 20.0692 201.553C23.6112 204.578 24.31 205.076 32.8538 211.159C30.7861 214.826 30.4079 215.453 28.4072 218.707" fill="#00C797"/>
<path d="M34.1221 227.888C28.6129 225.035 24.6115 222.776 20.4473 219.674C23.2617 220.019 24.4248 220.158 29.3835 220.44C31.5709 216.946 32.0735 216.113 33.8493 213.012C33.9977 217.97 33.8828 222.934 34.1221 227.893" fill="#00C797"/>
<path d="M330.967 158.373C327.794 164.414 325.496 170.736 324.204 177.126C322.323 186.407 322.677 195.454 325.08 203.61L362.831 187.7C363.06 184.588 364.113 180.855 366.148 176.949L330.967 158.373Z" fill="#B5DF77"/>
<path d="M331.68 183.251C334.859 170.524 329.627 164.532 327.349 172.362C325.985 177.058 324.888 182.73 324.888 188.904C324.888 194.03 325.544 198.692 326.731 202.914L331.087 201.081C330.034 195.414 330.144 189.402 331.68 183.256V183.251Z" fill="#00C797"/>
<path d="M354.105 170.592C349.223 178.566 346.423 186.976 345.896 194.835L356.618 190.317C357.173 185.176 358.93 179.815 361.811 174.66L354.105 170.592Z" fill="#00C797"/>
<path d="M330.967 158.373C327.794 164.414 325.496 170.736 324.204 177.126C322.323 186.407 322.677 195.454 325.08 203.61L362.831 187.7C363.06 184.588 364.113 180.855 366.148 176.949L330.967 158.373Z" stroke="black" stroke-miterlimit="10"/>
<path d="M351.443 162.196C341.727 157.065 332.561 155.356 330.967 158.372C329.373 161.392 335.954 167.997 345.671 173.128C355.387 178.259 364.553 179.968 366.147 176.953C367.741 173.932 361.16 167.327 351.443 162.196Z" fill="#00C797" stroke="black" stroke-miterlimit="10"/>
<path d="M386.246 123.617C382.938 113.14 376.917 105.701 372.791 107.003C361.84 110.464 351.276 116.677 342.201 125.106C335.146 131.658 329.354 139.211 325.128 147.257C323.534 150.278 330.115 156.883 339.832 162.014C349.548 167.145 358.714 168.854 360.308 165.838C362.309 162 365.253 157.993 369.273 154.26C374.423 149.478 379.885 146.491 384.772 144.95C388.893 143.648 389.553 134.099 386.246 123.622V123.617Z" fill="#B5DF77"/>
<path d="M380.272 111.463C379.09 110.018 377.376 108.276 376.218 107.605C367.856 110.329 357.656 115.383 359.035 116.762C360.887 118.614 366.856 113.785 380.272 111.459V111.463Z" fill="#00C797"/>
<path d="M354.157 167.145C356.756 161.383 360.734 155.754 365.994 150.838C372.781 144.496 380.607 140.361 388.218 138.566C388.51 135.904 388.318 132.607 387.624 129.021C378.281 131.621 368.718 136.929 360.327 144.774C353.87 150.805 348.864 157.63 345.427 164.623C348.677 165.939 351.688 166.801 354.157 167.145Z" fill="#00C797"/>
<path d="M346.576 124.157C343.551 126.885 345.657 128.7 348.433 126.201C350.304 124.516 352.296 123.008 354.344 121.659C358.125 119.16 356.517 116.92 352.678 119.462C350.663 120.797 348.596 122.338 346.576 124.157Z" fill="#00C797"/>
<path d="M386.246 123.617C382.938 113.14 376.917 105.701 372.791 107.003C361.84 110.464 351.276 116.677 342.201 125.106C335.146 131.658 329.354 139.211 325.128 147.257C323.534 150.278 330.115 156.883 339.832 162.014C349.548 167.145 358.714 168.854 360.308 165.838C362.309 162 365.253 157.993 369.273 154.26C374.423 149.478 379.885 146.491 384.772 144.95C388.893 143.648 389.553 134.099 386.246 123.622V123.617Z" stroke="black" stroke-miterlimit="10"/>
</svg>
