<svg width="425" height="332" viewBox="0 0 425 332" fill="none" xmlns="http://www.w3.org/2000/svg">
<path d="M182.397 142.244C180.729 145.868 177.837 145.949 175.971 142.424L147.159 87.9505C145.292 84.4257 145.132 78.5715 146.799 74.9475L179.562 3.77146C181.23 0.14745 184.122 0.0671238 185.988 3.59191L214.8 58.0654C216.667 61.5902 216.827 67.4444 215.159 71.0684L182.397 142.244Z" fill="#00C797" stroke="#00C797" stroke-linecap="round" stroke-linejoin="round"/>
<path d="M186.706 39.0619L177.09 59.9129L174.326 54.6872L183.261 35.3103C183.634 34.4976 184.353 34.611 184.854 35.5607L186.706 39.0619Z" fill="black"/>
<path d="M192.234 49.5187L185.024 65.1582L182.26 59.9324L189.47 44.293L192.234 49.5187Z" fill="black"/>
<path d="M187.788 70.388L186.063 74.1254C185.685 74.9429 184.971 74.8295 184.471 73.875L177.09 59.9176L179.495 54.7061L187.792 70.388H187.788Z" fill="black"/>
<path d="M197.767 59.9738L191.237 74.1391C190.859 74.9565 190.145 74.8431 189.645 73.8887L187.792 70.3875L195.003 54.748L197.767 59.9738Z" fill="black"/>
<path d="M193.906 45.9037L192.238 49.523L197.766 59.9792L199.434 56.36C199.841 55.4811 199.789 54.0447 199.326 53.1659L195.484 45.9085C195.021 45.0296 194.308 45.0249 193.901 45.9085L193.906 45.9037Z" fill="black"/>
<path d="M189.957 35.4524C189.494 34.5736 188.78 34.5688 188.374 35.4524L186.706 39.0717L189.47 44.2974L191.138 40.6782C191.544 39.7993 191.492 38.3629 191.029 37.4841L189.957 35.4524Z" fill="black"/>
<path d="M172.295 47.864C171.888 48.7428 171.94 50.1792 172.403 51.058L174.322 54.6868L176.727 49.4752L174.808 45.8464C174.345 44.9676 173.632 44.9629 173.226 45.8464L172.29 47.8687L172.295 47.864Z" fill="black"/>
<path d="M173.84 63.5325C174.303 64.4114 175.016 64.4161 175.423 63.5325L177.09 59.9133L174.326 54.6875L172.658 58.3068C172.252 59.1856 172.304 60.622 172.767 61.5008L173.84 63.5325Z" fill="black"/>
<path d="M177.105 37.4411C176.698 38.32 176.75 39.7563 177.213 40.6352L179.132 44.2639L181.537 39.0523L179.618 35.4236C179.155 34.5448 178.442 34.54 178.036 35.4236L177.1 37.4459L177.105 37.4411Z" fill="black"/>
<path d="M197.393 72.0132C197.8 71.1344 197.748 69.698 197.285 68.8192L195.366 65.1904L192.961 70.402L194.88 74.0307C195.343 74.9096 196.056 74.9143 196.463 74.0307L197.398 72.0085L197.393 72.0132Z" fill="black"/>
<path d="M159.448 74.6077C159.642 74.1871 159.741 73.6107 159.722 73.0106C159.703 72.4106 159.561 71.8389 159.339 71.4136L158.267 69.3819C157.799 68.4983 157.09 68.4983 156.684 69.3819L155.748 71.4042C155.342 72.283 155.394 73.7147 155.857 74.5982L157.775 78.2269L159.443 74.6077H159.448Z" fill="black"/>
<path d="M156.107 81.8463C155.913 82.2669 155.814 82.8433 155.833 83.4434C155.852 84.0434 155.994 84.6151 156.216 85.0404L157.288 87.0721C157.756 87.9556 158.465 87.9556 158.871 87.0721L159.793 85.0734C160.265 84.0529 160.232 82.8716 159.708 81.8794L157.775 78.2271L156.107 81.8463Z" fill="black"/>
<path d="M121.412 99.1303C119.47 97.5096 116.914 94.3534 115.733 92.1185L85.6776 35.2967C83.8113 31.772 84.7941 30.9782 87.8558 33.5344L131.609 70.0485C134.67 72.6046 138.705 77.58 140.567 81.1095L169.379 135.583C171.246 139.108 170.263 139.902 167.201 137.345L121.407 99.1303H121.412Z" fill="#00C797" stroke="#00C797" stroke-linecap="round" stroke-linejoin="round"/>
<path d="M131.613 70.0473L103.074 46.229L97.6738 57.9657L115.737 92.1173C116.564 93.6766 118.052 95.6799 119.541 97.3006L131.953 70.3355C131.84 70.2363 131.726 70.1371 131.618 70.0426L131.613 70.0473Z" fill="#B5DF77" stroke="#00C797" stroke-linecap="round" stroke-linejoin="round"/>
<path d="M181.574 156.755C177.889 158.286 173.348 156.651 171.482 153.121L142.669 98.6479C140.803 95.1231 142.291 90.9841 145.977 89.4579L241.675 49.7592C245.361 48.2283 249.901 49.8632 251.768 53.3927L280.58 107.866C282.446 111.391 280.958 115.53 277.273 117.056L181.574 156.755Z" fill="black" stroke="#00C797" stroke-linecap="round" stroke-linejoin="round"/>
<path d="M219.421 70.1517L223.555 68.4365" stroke="#00C797" stroke-width="2" stroke-linecap="round" stroke-linejoin="round"/>
<path d="M221.817 74.6785L225.951 72.9634" stroke="#00C797" stroke-width="2" stroke-linecap="round" stroke-linejoin="round"/>
<path d="M224.212 79.2098L228.346 77.4946" stroke="#00C797" stroke-width="2" stroke-linecap="round" stroke-linejoin="round"/>
<path d="M219.01 71.2725L220.579 74.2444" stroke="#00C797" stroke-width="2" stroke-linecap="round" stroke-linejoin="round"/>
<path d="M227.188 73.4023L228.757 76.3696" stroke="#00C797" stroke-width="2" stroke-linecap="round" stroke-linejoin="round"/>
<path d="M228.757 66.2782L232.712 64.6387" stroke="#00C797" stroke-width="2" stroke-linecap="round" stroke-linejoin="round"/>
<path d="M231.153 70.8085L235.103 69.1689" stroke="#00C797" stroke-width="2" stroke-linecap="round" stroke-linejoin="round"/>
<path d="M233.549 75.3349L237.499 73.6953" stroke="#00C797" stroke-width="2" stroke-linecap="round" stroke-linejoin="round"/>
<path d="M228.346 67.397L229.92 70.3689" stroke="#00C797" stroke-width="2" stroke-linecap="round" stroke-linejoin="round"/>
<path d="M233.945 65.0776L235.518 68.0496" stroke="#00C797" stroke-width="2" stroke-linecap="round" stroke-linejoin="round"/>
<path d="M230.742 71.9287L232.315 74.896" stroke="#00C797" stroke-width="2" stroke-linecap="round" stroke-linejoin="round"/>
<path d="M236.341 69.604L237.914 72.576" stroke="#00C797" stroke-width="2" stroke-linecap="round" stroke-linejoin="round"/>
<path d="M237.139 62.7996L241.174 61.127" stroke="#00C797" stroke-width="2" stroke-linecap="round" stroke-linejoin="round"/>
<path d="M242.407 61.5669L243.981 64.5389" stroke="#00C797" stroke-width="2" stroke-linecap="round" stroke-linejoin="round"/>
<path d="M244.803 66.0928L246.376 69.0647" stroke="#00C797" stroke-width="2" stroke-linecap="round" stroke-linejoin="round"/>
<path d="M219.694 81.6387C219.884 81.3087 219.702 80.8466 219.286 80.6066C218.87 80.3665 218.379 80.4393 218.188 80.7693C217.998 81.0992 218.18 81.5613 218.596 81.8014C219.012 82.0415 219.504 81.9686 219.694 81.6387Z" fill="#00C797"/>
<path d="M216.145 83.1128C216.335 82.7828 216.153 82.3207 215.737 82.0807C215.321 81.8406 214.83 81.9135 214.639 82.2434C214.449 82.5733 214.631 83.0354 215.047 83.2755C215.463 83.5156 215.954 83.4427 216.145 83.1128Z" fill="#00C797"/>
<path d="M212.602 84.5801C212.793 84.2501 212.61 83.788 212.194 83.5479C211.778 83.3079 211.287 83.3807 211.096 83.7107C210.906 84.0406 211.089 84.5027 211.504 84.7428C211.92 84.9829 212.412 84.91 212.602 84.5801Z" fill="#00C797"/>
<path d="M270.407 125.168L236.903 127.989C227.826 128.754 223.404 124.743 221.788 120.368C220.748 117.552 222.27 114.622 225.204 113.989L264.959 105.409" fill="#EBE9E9"/>
<path d="M270.407 125.168L236.903 127.989C227.826 128.754 223.404 124.743 221.788 120.368C220.748 117.552 222.27 114.622 225.204 113.989L264.959 105.409" stroke="#00C797" stroke-linecap="round" stroke-linejoin="round"/>
<path d="M169.908 168.141C165.92 168.302 161.134 165.552 159.268 162.022L130.455 107.549C128.589 104.024 130.323 101.005 134.311 100.839L221.868 97.2674C225.856 97.1068 230.642 99.8567 232.509 103.386L261.321 157.86C263.187 161.384 261.453 164.404 257.466 164.569L169.908 168.141Z" fill="#00C797"/>
<path d="M206.9 97.8867C209.064 98.586 211.54 99.7247 214.332 101.308C217.304 102.99 219.685 104.672 221.49 106.354L206.536 112.501C203.224 109.897 200.682 107.53 198.91 105.38C196.892 102.923 196.42 100.849 197.502 99.1435C197.705 98.7986 197.965 98.5057 198.258 98.2458L206.9 97.8914V97.8867Z" fill="black"/>
<path d="M179.519 123.595L191.317 118.748L190.462 118.086C182.77 112.171 177.242 106.534 173.896 101.166C173.627 100.732 173.197 99.9379 172.852 99.2764L134.316 100.85C130.328 101.01 128.594 104.03 130.46 107.559L146.189 137.298L161.952 130.82C161.361 130.097 160.799 129.369 160.274 128.637C154.874 121.134 154.052 113.886 157.817 106.883L180.242 119.584C179.646 120.898 179.41 122.235 179.528 123.6L179.519 123.595Z" fill="black"/>
<path d="M215.702 119.517L208.034 113.644C203.98 110.587 200.942 107.833 198.915 105.376C196.897 102.919 196.424 100.845 197.507 99.139C197.71 98.794 197.97 98.5011 198.262 98.2412L172.838 99.276C173.154 99.8997 173.504 100.528 173.901 101.166C177.246 106.533 182.774 112.175 190.466 118.086L199.774 125.263C204.674 129.029 208.095 132.119 210.023 134.524C211.955 136.929 212.466 138.961 211.558 140.638C210.5 142.429 208.322 143.142 205.033 142.774C201.745 142.414 197.743 140.902 193.037 138.238C187.863 135.308 184.102 132.213 181.739 128.953C179.372 125.698 178.881 122.575 180.237 119.574L157.813 106.874C154.047 113.871 154.869 121.124 160.269 128.627C164.059 133.9 169.54 139.017 176.684 143.988L170.674 154.595L189.176 165.075L195.092 154.633C203.606 158.692 211.105 160.983 217.606 161.503C226.173 162.183 232.079 159.722 235.282 154.113C237.933 149.379 237.527 144.106 234.091 138.29C230.666 132.478 224.533 126.217 215.697 119.513L215.702 119.517Z" fill="#B5DF77"/>
<path d="M232.509 103.392C230.642 99.8668 225.856 97.1122 221.868 97.2728L206.9 97.8823C209.064 98.5816 211.54 99.7203 214.332 101.303C218.906 103.892 222.1 106.482 223.909 109.071C225.71 111.655 226.173 114.103 225.284 116.399L245.427 127.81L232.509 103.392Z" fill="#B5DF77"/>
<path d="M155.072 154.085L148.562 141.772L250.61 137.614L257.121 149.923L155.072 154.085Z" fill="black"/>
<path d="M180.237 119.579L157.813 106.878C154.047 113.876 154.869 121.129 160.269 128.632C160.794 129.364 161.356 130.092 161.947 130.815L179.519 123.595C179.401 122.234 179.642 120.897 180.232 119.579H180.237Z" fill="#00C797"/>
<path d="M198.91 105.371C196.892 102.914 196.42 100.84 197.502 99.1341C197.705 98.7891 197.965 98.4962 198.258 98.2363L172.833 99.2711C173.15 99.8948 173.499 100.523 173.896 101.161C177.241 106.529 182.769 112.17 190.462 118.081L191.317 118.742L206.536 112.491C203.224 109.888 200.682 107.521 198.91 105.371Z" fill="#00C797"/>
<path d="M221.873 97.2728L206.905 97.8824C209.069 98.5817 211.544 99.7203 214.337 101.303C217.309 102.985 219.69 104.667 221.495 106.349L231.715 102.149C229.504 99.2431 225.379 97.1311 221.878 97.2728H221.873Z" fill="#00C797"/>
<path d="M169.908 168.141C165.92 168.302 161.134 165.552 159.268 162.022L130.455 107.549C128.589 104.024 130.323 101.005 134.311 100.839L221.868 97.2674C225.856 97.1068 230.642 99.8567 232.509 103.386L261.321 157.86C263.187 161.384 261.453 164.404 257.466 164.569L169.908 168.141Z" stroke="#00C797" stroke-linecap="round" stroke-linejoin="round"/>
<path d="M40.7106 195.764C37.0251 197.294 32.4845 195.66 30.6182 192.13L1.80564 137.657C-0.0606987 134.132 1.42765 129.993 5.11308 128.467L100.811 88.768C104.497 87.2371 109.038 88.872 110.904 92.4015L139.716 146.875C141.583 150.4 140.094 154.539 136.409 156.065L40.7106 195.764Z" fill="black"/>
<path d="M7.23462 147.928C11.4398 144.026 17.4593 141.578 24.1498 141.578C25.3735 141.578 26.5737 141.663 27.7502 141.819C25.8791 144.663 24.8113 147.947 24.8113 151.444C24.8113 161.267 33.2216 169.408 44.2118 170.887C40.3515 176.76 33.0799 180.767 24.6932 180.932L7.23462 147.928Z" fill="#00C797"/>
<path d="M47.1555 161.262C47.1555 164.759 46.0829 168.042 44.2118 170.887C45.3836 171.043 46.5885 171.128 47.8122 171.128C60.5175 171.128 70.8131 162.316 70.8131 151.444C70.8131 140.572 60.5128 131.76 47.8122 131.76C39.194 131.76 31.6908 135.814 27.7502 141.814C38.7451 143.293 47.1555 151.434 47.1555 161.257V161.262Z" fill="black" stroke="#00C797" stroke-miterlimit="10"/>
<path d="M44.2118 170.887C46.0828 168.043 47.1554 164.759 47.1554 161.262C47.1554 151.439 38.745 143.298 27.7502 141.819C25.8791 144.664 24.8113 147.948 24.8113 151.444C24.8113 161.267 33.2216 169.408 44.2118 170.887Z" fill="#B5DF77"/>
<path d="M40.7106 195.764C37.0251 197.294 32.4845 195.66 30.6182 192.13L1.80564 137.657C-0.0606987 134.132 1.42765 129.993 5.11308 128.467L100.811 88.768C104.497 87.2371 109.038 88.872 110.904 92.4015L139.716 146.875C141.583 150.4 140.094 154.539 136.409 156.065L40.7106 195.764Z" stroke="#00C797" stroke-linecap="round" stroke-linejoin="round"/>
<path d="M153.518 176.231C150.456 173.674 146.421 168.699 144.56 165.17L115.747 110.696C113.881 107.171 114.864 106.378 117.925 108.934L161.678 145.448C164.74 148.004 168.775 152.979 170.637 156.509L199.449 210.982C201.315 214.507 200.333 215.301 197.271 212.745L153.518 176.231Z" fill="black" stroke="#00C797" stroke-linecap="round" stroke-linejoin="round"/>
<path d="M136.026 204.826L90.3787 118.521C89.2258 116.347 87.7658 115.261 86.3294 115.261C83.8678 115.261 82.4692 117.023 80.9997 119.546L45.1802 197.507L91.9001 287.838L136.031 204.821L136.026 204.826Z" fill="#00C797" stroke="#00C797" stroke-linecap="round" stroke-linejoin="round"/>
<path d="M135.346 170.868C137.014 167.244 136.853 161.394 134.987 157.865L106.174 103.391C104.308 99.8663 101.416 99.9419 99.7484 103.566L73.0195 161.635L76.5065 168.189L73.4826 174.761L76.9601 181.333L79.9841 174.761L83.4616 181.333L80.4376 187.906L76.9601 181.333L73.9362 187.906L77.4137 194.478L74.3803 201.036L96.1621 242.218C98.0285 245.743 100.92 245.668 102.588 242.044L135.351 170.868H135.346Z" fill="#B5DF77"/>
<path d="M76.9601 181.333L73.4826 174.761L76.5065 168.189L73.0195 161.635L99.7484 103.566C101.416 99.9419 104.308 99.8663 106.174 103.391L134.987 157.865C136.853 161.394 137.014 167.244 135.346 170.868H135.351L102.588 242.044C100.92 245.668 98.0285 245.743 96.1621 242.218L74.3803 201.036L77.4137 194.478L73.9362 187.906L76.9601 181.333ZM76.9601 181.333L79.9841 174.761L83.4616 181.333L80.4376 187.906L76.9601 181.333Z" stroke="#00C797" stroke-linecap="round" stroke-linejoin="round"/>
<path d="M67.4296 187.906L63.9568 181.334L66.9807 174.761L70.4583 181.334L67.4296 187.906Z" fill="#B5DF77" stroke="#00C797" stroke-linecap="round" stroke-linejoin="round"/>
<path d="M111.481 166.011C110.824 167.437 109.685 167.471 108.948 166.081L104.398 157.477C103.661 156.088 103.6 153.782 104.256 152.356L108.948 142.159C109.605 140.732 110.744 140.699 111.481 142.088L116.031 150.692C116.768 152.082 116.829 154.387 116.173 155.814L111.481 166.011Z" fill="#EBE9E9" stroke="#00C797" stroke-linecap="round" stroke-linejoin="round"/>
<path d="M114.585 147.952L113.035 151.321C112.525 152.432 111.637 152.455 111.065 151.373L107.663 144.947" stroke="#00C797" stroke-linecap="round" stroke-linejoin="round"/>
<path d="M105.848 160.213L107.375 156.891C107.885 155.781 108.773 155.757 109.345 156.839L112.747 163.265" stroke="#00C797" stroke-linecap="round" stroke-linejoin="round"/>
<path d="M202.326 284.492L160.941 206.243C158.597 201.811 152.578 198.187 147.569 198.187H81.9118C79.6438 198.187 77.4184 197.592 75.4576 196.458L70.9453 193.849C68.9844 192.715 66.759 192.12 64.491 192.12H55.8633L49.1587 197.988L97.9103 290.077C98.8695 291.58 100.722 292.51 103.226 292.51L196.373 292.539L200.417 295.014L202.865 289.808H202.855C203.522 288.381 203.413 286.524 202.336 284.487L202.326 284.492Z" fill="black" stroke="#00C797" stroke-linecap="round" stroke-linejoin="round"/>
<path d="M141.469 203.394L143.921 198.187" stroke="#00C797" stroke-miterlimit="10"/>
<path d="M158.493 211.455C156.15 207.023 150.13 203.399 145.122 203.399L49.9524 203.37C47.264 203.37 45.3315 202.298 44.4385 200.602L94.5414 295.298C95.5006 296.801 97.3528 297.732 99.857 297.732L195.026 297.76C200.039 297.76 202.222 294.136 199.879 289.709L158.493 211.459V211.455Z" fill="black" stroke="#00C797" stroke-linecap="round" stroke-linejoin="round"/>
<path d="M164.026 232.457L153.669 212.868C152.199 210.085 148.831 207.562 145.736 207.562L51.4927 207.448" stroke="#00C797" stroke-linecap="round" stroke-linejoin="round"/>
<path d="M96.8853 293.65L191.332 293.659C194.474 293.659 195.329 291.665 194.1 289.336L184.943 272.019" stroke="#00C797" stroke-linecap="round" stroke-linejoin="round"/>
<path d="M58.221 193.198C58.9533 194.582 57.517 196.784 55.0128 198.107C52.5086 199.43 49.8862 199.382 49.1492 197.993C48.4168 196.609 49.8532 194.407 52.3574 193.084C53.5717 192.442 54.8143 192.125 55.8585 192.125C56.9642 192.125 57.843 192.484 58.221 193.198Z" fill="#EBE9E9" stroke="#00C797" stroke-linecap="round" stroke-linejoin="round"/>
<path d="M55.7927 194.483C56.1329 195.126 55.4667 196.146 54.3043 196.76C53.142 197.375 51.923 197.351 51.5828 196.708C51.2426 196.066 51.9088 195.045 53.0711 194.431C53.6334 194.133 54.2098 193.987 54.6965 193.987C55.2115 193.987 55.6179 194.152 55.7927 194.488V194.483Z" fill="black"/>
<path d="M79.7857 118.748L44.6513 195.088C43.678 197.2 43.6733 199.133 44.4434 200.597C44.4434 200.597 45.6199 203.366 49.9574 203.366C54.2948 203.366 59.7521 203.399 59.7521 203.399L61.1223 200.975L51.3607 200.942C47.5855 200.942 45.5396 198.646 47.1177 195.216L82.3136 118.743C83.3814 116.428 84.8461 115.261 86.3345 115.261C86.3345 115.261 81.5765 114.854 79.7857 118.743V118.748Z" fill="black" stroke="#00C797" stroke-linecap="round" stroke-linejoin="round"/>
<path d="M182.401 264.279L186.11 263.665L195.938 272.416L187.202 255.897L179.174 257.466L182.401 264.279Z" fill="black"/>
<path d="M183.8 269.859C181.31 265.149 181.593 262.219 187.15 260.443C190.136 259.488 192.843 257.934 195.163 255.826L200.271 251.186C204.698 247.166 206.031 239.549 203.238 234.262C200.441 228.975 194.53 227.94 190.108 231.961L183.904 237.598C181.801 239.511 179.127 240.683 176.297 240.952C170.532 241.496 168.118 240.196 165.477 235.202L164.097 239.866L179.878 269.864H183.805L183.8 269.859Z" fill="black"/>
<path d="M183.8 269.859C181.31 265.149 181.593 262.219 187.15 260.443C190.136 259.488 192.843 257.934 195.163 255.826L200.271 251.186C204.698 247.166 206.03 239.549 203.238 234.262C200.441 228.975 194.53 227.94 190.108 231.961L183.904 237.598C181.801 239.511 179.127 240.683 176.297 240.952C170.532 241.496 168.118 240.196 165.477 235.202" stroke="#00C797" stroke-miterlimit="10"/>
<path d="M198.858 233.823C196.179 232.968 192.966 235.538 191.676 239.568C190.386 243.599 191.511 247.558 194.19 248.413L195.442 248.815L200.11 234.225L198.858 233.823Z" fill="black" stroke="#00C797" stroke-linecap="round" stroke-linejoin="round"/>
<path d="M202.634 243.088C203.923 239.06 202.797 235.099 200.121 234.243C197.444 233.387 194.229 235.959 192.94 239.987C191.651 244.016 192.776 247.976 195.453 248.833C198.13 249.689 201.345 247.117 202.634 243.088Z" fill="#00C797" stroke="#00C797" stroke-linecap="round" stroke-linejoin="round"/>
<path d="M121.672 258.042C119.635 258.042 117.197 256.573 116.243 254.773L97.2677 218.897C96.318 217.096 97.2016 215.627 99.238 215.627L139.834 215.613C141.871 215.613 144.309 217.082 145.263 218.882L164.239 254.759C165.188 256.559 164.305 258.028 162.268 258.028L121.672 258.042Z" fill="#00C797" stroke="#00C797" stroke-linecap="round" stroke-linejoin="round"/>
<path d="M122.754 256.166C120.717 256.166 118.279 254.697 117.325 252.897L98.3497 217.021C98.1371 216.614 98.019 216.227 97.9812 215.868C96.885 216.354 96.5448 217.531 97.2677 218.896L116.243 254.773C117.193 256.573 119.635 258.042 121.672 258.042L162.268 258.028C163.842 258.028 164.725 257.145 164.602 255.911C164.258 256.067 163.837 256.152 163.346 256.152L122.749 256.166H122.754Z" fill="black" stroke="#00C797" stroke-linecap="round" stroke-linejoin="round"/>
<path d="M140.123 236.799L142.197 240.72H137.273H132.355H127.431H123.94C123.155 240.72 122.782 241.236 123.113 241.859L123.982 243.499C124.313 244.127 125.23 244.642 126.019 244.642H129.51H134.434L135.903 247.42C136.234 248.049 137.151 248.559 137.94 248.559H140C140.784 248.559 141.157 248.044 140.827 247.416L139.357 244.637H144.28H147.772C148.556 244.637 148.93 244.118 148.599 243.494L147.13 240.716L145.66 237.938C145.329 237.309 144.413 236.799 143.624 236.799H140.132H140.123Z" fill="black"/>
<path d="M123.278 232.883L124.748 235.661C125.083 236.289 125.995 236.804 126.789 236.804H130.281H135.199H140.123L138.653 234.021C138.318 233.393 137.406 232.878 136.612 232.878H133.12H128.202H123.278V232.883Z" fill="black"/>
<path d="M123.411 221.112C122.626 221.112 122.253 221.627 122.584 222.251L124.053 225.029H119.13H115.638C114.854 225.029 114.481 225.544 114.811 226.173L116.281 228.951L117.75 231.729C118.081 232.357 118.998 232.868 119.787 232.868H123.278L121.204 228.946H126.127H131.046H135.969H139.461C140.246 228.946 140.619 228.431 140.288 227.803L139.423 226.168C139.088 225.539 138.176 225.024 137.387 225.024H133.895H128.972L127.502 222.246C127.172 221.618 126.255 221.107 125.466 221.107H123.406L123.411 221.112Z" fill="black"/>
<path d="M122.518 277.788L120.836 274.613C120.184 273.375 118.502 272.369 117.108 272.369H111.192L108.754 267.757C108.102 266.519 106.425 265.513 105.026 265.513H100.018C99.2618 265.513 98.742 265.81 98.52 266.278L97.3151 268.839L99.7295 269.765L101.109 272.373H95.1936C94.4376 272.373 93.9179 272.671 93.6958 273.139L92.491 275.7L94.844 276.512L95.5244 277.797C96.1764 279.035 97.8585 280.042 99.2523 280.042H105.168L107.606 284.653C108.258 285.891 109.935 286.898 111.334 286.898H113.389L116.635 288.698L117.84 286.137C118.024 285.74 117.996 285.22 117.694 284.653L115.256 280.042H118.587L121.469 281.837L122.674 279.276C122.863 278.879 122.83 278.36 122.527 277.793L122.518 277.788Z" fill="#00C797" stroke="#00C797" stroke-linecap="round" stroke-linejoin="round"/>
<path d="M121.313 280.349L119.631 277.174C118.979 275.936 117.297 274.93 115.903 274.93H109.987L107.549 270.318C106.897 269.085 105.22 268.074 103.821 268.074H98.8128C97.4143 268.074 96.8094 269.085 97.4615 270.323L99.8996 274.934H93.984C92.5854 274.934 91.9759 275.95 92.6326 277.183L94.3147 280.359C94.9667 281.596 96.6488 282.603 98.0427 282.603H103.958L106.396 287.214C107.048 288.452 108.726 289.459 110.124 289.459H115.133C116.531 289.459 117.136 288.448 116.484 287.21L114.046 282.598H119.962C121.36 282.598 121.97 281.582 121.313 280.349Z" fill="#00C797" stroke="black" stroke-linecap="round" stroke-linejoin="round"/>
<path d="M355.31 61.4624C354.993 58.7031 352.82 57.6636 350.476 59.1614L350.122 59.3882C347.495 61.0655 345.345 64.9872 345.345 68.1056V74.2055L348.288 128.622L363.706 139.816V101.525C363.706 99.2523 363.233 95.5999 362.661 93.4028L356.094 68.323L355.31 61.4672V61.4624Z" fill="#EBE9E9" stroke="#00C797" stroke-linecap="round" stroke-linejoin="round"/>
<path d="M363.71 139.812V101.521" stroke="#00C797" stroke-linecap="round" stroke-linejoin="round"/>
<path d="M315.691 62.3129C314.269 59.0244 314.935 54.0396 317.175 51.2424L317.945 50.2786C319.514 48.3177 321.857 48.4737 323.157 50.6188L344.674 86.1737C345.85 88.1157 347.296 91.4987 347.892 93.6911L356.883 126.926L337.766 136.541L329.393 94.0029L315.691 62.3129Z" fill="#EBE9E9" stroke="#00C797" stroke-linecap="round" stroke-linejoin="round"/>
<path d="M362.864 135.436L362.501 133.622C360.856 125.396 355.385 123.563 352.772 117.236L341.489 89.8929C340.478 87.4407 338.238 83.7789 336.518 81.7614L298.086 36.7046C296.281 34.5878 293.616 34.8005 292.166 37.1677C290.644 39.653 288.39 44.3684 292.458 51.9614L301.162 68.215C303.033 71.7115 305.551 73.9936 307.304 75.2788C308.575 76.2096 309.397 77.6412 309.553 79.2099C309.794 81.596 310.418 85.1917 312.005 88.1306L317.959 99.1538L329.1 142.155L362.855 135.446L362.864 135.436Z" fill="#EBE9E9" stroke="#00C797" stroke-linecap="round" stroke-linejoin="round"/>
<path d="M303.335 42.9787C302.409 43.6544 300.921 43.6213 300.028 42.9031L294.41 38.405L296.092 35.6787" stroke="#00C797" stroke-linecap="round" stroke-linejoin="round"/>
<path d="M360.389 128.013C358.036 124.03 354.657 121.804 352.772 117.235L341.489 89.8922C340.478 87.4399 338.238 83.7781 336.518 81.7606L315.058 56.5957" stroke="#00C797" stroke-linecap="round" stroke-linejoin="round"/>
<path d="M270.407 125.169L275.34 124.753L282.149 128.693C287.729 131.921 295.591 132.719 295.591 132.719L306.293 143.643C311.183 148.633 314.897 150.064 314.897 150.064L311.798 156.405C311.004 158.03 309.071 160.1 307.507 161.002L294.348 168.6C292.038 169.933 288.584 169.507 286.67 167.65L260.372 142.141C258.137 139.972 254.012 137.08 251.21 135.715L243.395 131.911C238.509 129.535 232.655 130.451 228.734 134.207C227.155 135.719 226.683 138.054 227.548 140.062L228.97 143.355C230.208 146.213 233.029 150.352 235.235 152.55L244.817 162.07C247.028 164.267 249.878 168.392 251.153 171.237L261.765 194.927C264.322 200.63 267.969 205.78 272.5 210.09L301.403 237.541C306.94 242.8 313.22 247.218 320.042 250.653L364.395 272.973L398.523 217.635L374.629 209.471C363.422 205.639 355.437 194.176 357.346 182.487L363.668 143.823C364.721 137.392 360.629 130.149 354.577 127.734L292.274 102.839C288.99 101.525 283.533 101.402 279.399 102.295L264.95 105.414" fill="#EBE9E9"/>
<path d="M270.407 125.169L275.34 124.753L282.149 128.693C287.729 131.921 295.591 132.719 295.591 132.719L306.293 143.643C311.183 148.633 314.897 150.064 314.897 150.064L311.798 156.405C311.004 158.03 309.071 160.1 307.507 161.002L294.348 168.6C292.038 169.933 288.584 169.507 286.67 167.65L260.372 142.141C258.137 139.972 254.012 137.08 251.21 135.715L243.395 131.911C238.509 129.535 232.655 130.451 228.734 134.207C227.155 135.719 226.683 138.054 227.548 140.062L228.97 143.355C230.208 146.213 233.029 150.352 235.235 152.55L244.817 162.07C247.028 164.267 249.878 168.392 251.153 171.237L261.765 194.927C264.322 200.63 267.969 205.78 272.5 210.09L301.403 237.541C306.94 242.8 313.22 247.218 320.042 250.653L364.395 272.973L398.523 217.635L374.629 209.471C363.422 205.639 355.437 194.176 357.346 182.487L363.668 143.823C364.721 137.392 360.629 130.149 354.577 127.734L292.274 102.839C288.99 101.525 283.533 101.402 279.399 102.295L264.95 105.414" stroke="#00C797" stroke-linecap="round" stroke-linejoin="round"/>
<path d="M374.644 209.466C363.436 205.634 355.451 194.171 357.36 182.482L363.682 143.818C364.736 137.387 360.644 130.144 354.591 127.729" stroke="#00C797" stroke-linecap="round" stroke-linejoin="round"/>
<path d="M280.193 217.38L301.417 237.541C306.955 242.8 313.234 247.218 320.057 250.653L364.41 272.973" stroke="#00C797" stroke-linecap="round" stroke-linejoin="round"/>
<path d="M228.554 140.039C230.945 133.462 237.011 132.706 237.011 132.706L242.469 140.034C243.499 141.418 243.352 143.351 242.124 144.56C240.64 146.02 239.582 147.367 238.859 148.425C238.018 149.649 236.392 150.046 235.084 149.342L233.562 148.52" stroke="#00C797" stroke-linecap="round" stroke-linejoin="round"/>
<path d="M350.967 126.279L322.424 114.873" stroke="#00C797" stroke-linecap="round" stroke-linejoin="round"/>
<path d="M362.865 136.537C362.68 136.05 362.472 135.568 362.241 135.1C360.625 131.817 357.903 129.048 354.591 127.729" stroke="#00C797" stroke-linecap="round" stroke-linejoin="round"/>
<path d="M359.94 137.463C359.803 137.104 359.652 136.75 359.481 136.4C358.905 135.228 358.135 134.142 357.218 133.225" stroke="#00C797" stroke-linecap="round" stroke-linejoin="round"/>
<path d="M317.448 144.857L314.906 150.064" stroke="#00C797" stroke-linecap="round" stroke-linejoin="round"/>
<path d="M297.292 169.569L303.742 169.781" stroke="#00C797" stroke-linecap="round" stroke-linejoin="round"/>
<path d="M273.219 121.762L271.485 118.709" stroke="#00C797" stroke-linecap="round" stroke-linejoin="round"/>
<path d="M295.601 132.719C294.566 131.675 293.956 129.638 294.249 128.197L294.66 126.18" stroke="#00C797" stroke-linecap="round" stroke-linejoin="round"/>
<path d="M423.877 223.248L383.068 209.891C377.493 208.067 366.361 213.179 356.585 236.79C348.784 255.623 344.489 279.711 343.072 288.693C342.746 290.753 343.979 292.728 345.968 293.342L374.658 302.244C374.658 302.244 383.881 316.589 404.741 324.068L423.925 330.943L423.882 223.248H423.877Z" fill="black" stroke="#00C797" stroke-miterlimit="10"/>
<path d="M360.001 288.544C362.916 287.89 364.671 284.651 363.921 281.31C363.17 277.97 360.199 275.793 357.284 276.448C354.368 277.102 352.613 280.341 353.364 283.682C354.114 287.022 357.086 289.199 360.001 288.544Z" fill="#746C80" stroke="#00C797" stroke-miterlimit="10"/>
</svg>
