<svg width="25" height="25" viewBox="0 0 25 25" fill="none" xmlns="http://www.w3.org/2000/svg">
<circle cx="12.5" cy="12.5" r="12.5" fill="white"/>
<path fill-rule="evenodd" clip-rule="evenodd" d="M14.8198 7H12.6503C11.6672 7 10.8884 7 10.2791 7.08184C9.65226 7.16635 9.14465 7.34393 8.74402 7.74402C8.34393 8.14465 8.16635 8.65226 8.08184 9.27914C8 9.88891 8 10.6672 8 11.6503V14.8895C8.00001 15.3674 8.17059 15.8296 8.48104 16.1929C8.79149 16.5562 9.22141 16.7968 9.69344 16.8713C9.76672 17.2799 9.90847 17.6287 10.192 17.9127C10.514 18.2347 10.9194 18.3727 11.4008 18.438C11.8645 18.5 12.4545 18.5 13.1857 18.5H14.8492C15.5804 18.5 16.1703 18.5 16.6341 18.438C17.1155 18.3727 17.5209 18.2347 17.8429 17.9127C18.1649 17.5907 18.3029 17.1853 18.3682 16.7039C18.4302 16.2401 18.4302 15.6501 18.4302 14.919V12.1857C18.4302 11.4545 18.4302 10.8645 18.3682 10.4008C18.3029 9.9194 18.1649 9.51395 17.8429 9.19195C17.5589 8.90847 17.2102 8.76672 16.8015 8.69344C16.727 8.22141 16.4864 7.79149 16.1231 7.48104C15.7598 7.17059 15.2976 7.00001 14.8198 7ZM15.9591 8.61588C15.8777 8.37839 15.7242 8.17228 15.5199 8.0264C15.3156 7.88052 15.0708 7.80217 14.8198 7.80233H12.6802C11.6602 7.80233 10.936 7.8034 10.3856 7.87721C9.84802 7.94942 9.53779 8.08528 9.31154 8.31153C9.08528 8.53779 8.94942 8.84802 8.87721 9.38612C8.8034 9.93598 8.80233 10.6602 8.80233 11.6802V14.8895C8.80217 15.1406 8.88052 15.3854 9.0264 15.5897C9.17228 15.7939 9.37839 15.9475 9.61588 16.0288C9.60465 15.7026 9.60465 15.3335 9.60465 14.919V12.1857C9.60465 11.4545 9.60465 10.8645 9.66723 10.4008C9.73142 9.9194 9.87049 9.51395 10.192 9.19195C10.514 8.86995 10.9194 8.73195 11.4008 8.66723C11.8645 8.60465 12.4545 8.60465 13.1857 8.60465H14.8492C15.2637 8.60465 15.6328 8.60465 15.9591 8.61588ZM10.7589 9.76C10.9071 9.61184 11.1146 9.51556 11.5078 9.4626C11.9111 9.40858 12.447 9.40751 13.2146 9.40751H14.8192C15.5868 9.40751 16.1222 9.40858 16.5266 9.4626C16.9192 9.51556 17.1267 9.61237 17.2749 9.76C17.423 9.90816 17.5193 10.1157 17.5723 10.5088C17.6263 10.9121 17.6274 11.4481 17.6274 12.2157V14.8901C17.6274 15.6576 17.6263 16.193 17.5723 16.5974C17.5193 16.99 17.4225 17.1976 17.2749 17.3457C17.1267 17.4939 16.9192 17.5902 16.526 17.6431C16.1222 17.6971 15.5868 17.6982 14.8192 17.6982H13.2146C12.447 17.6982 11.9111 17.6971 11.5072 17.6431C11.1146 17.5902 10.9071 17.4933 10.7589 17.3457C10.6108 17.1976 10.5145 16.99 10.4615 16.5969C10.4075 16.193 10.4064 15.6576 10.4064 14.8901V12.2157C10.4064 11.4481 10.4075 10.9121 10.4615 10.5083C10.5145 10.1157 10.6113 9.90816 10.7589 9.76Z" fill="black"/>
</svg>
