<svg width="387" height="332" viewBox="0 0 387 332" fill="none" xmlns="http://www.w3.org/2000/svg">
<path d="M257.281 229.091C280.99 194.164 252.226 133.277 193.035 93.0963C133.843 52.9152 66.639 48.6555 42.9296 83.5821C19.2202 118.509 47.9841 179.396 107.176 219.577C166.367 259.758 233.571 264.018 257.281 229.091Z" fill="black" stroke="#00C797" stroke-linecap="round" stroke-linejoin="round"/>
<path d="M54.63 120.842L55.3114 120.258L54.7276 119.576L54.0462 120.16L54.63 120.842Z" fill="white"/>
<path d="M42.726 115.725L43.6029 114.974L42.8516 114.097L41.9747 114.848L42.726 115.725Z" fill="white"/>
<path d="M78.3996 131.945L79.2765 131.194L78.5252 130.317L77.6483 131.068L78.3996 131.945Z" fill="white"/>
<path d="M81.6379 134.304L82.5148 133.553L81.7635 132.676L80.8866 133.427L81.6379 134.304Z" fill="white"/>
<path d="M55.1603 143.696L55.7225 143.827L55.8539 143.265L55.2917 143.134L55.1603 143.696Z" fill="white"/>
<path d="M88.8291 128.747L89.2356 128.842L89.3306 128.436L88.9241 128.341L88.8291 128.747Z" fill="white"/>
<path d="M38.2168 121.473L38.9736 121.471L38.9717 120.714L38.2148 120.716L38.2168 121.473Z" fill="white"/>
<path d="M63.1603 154.951L63.8417 154.367L63.2579 153.686L62.5765 154.27L63.1603 154.951Z" fill="white"/>
<path d="M100.739 143.138L101.616 142.387L100.865 141.51L99.9879 142.261L100.739 143.138Z" fill="white"/>
<path d="M71.5789 127.588L72.3357 127.586L72.3337 126.829L71.5769 126.831L71.5789 127.588Z" fill="white"/>
<path d="M89.8595 135.103L90.6163 135.101L90.6144 134.344L89.8575 134.346L89.8595 135.103Z" fill="white"/>
<path d="M62.4367 138.647L63.1935 138.646L63.1915 137.889L62.4347 137.891L62.4367 138.647Z" fill="white"/>
<path d="M57.2034 134.966L57.9602 134.964L57.9582 134.208L57.2014 134.21L57.2034 134.966Z" fill="white"/>
<path d="M58.1759 131.498L58.9327 131.496L58.9308 130.739L58.1739 130.741L58.1759 131.498Z" fill="white"/>
<path d="M208.025 147.061L208.706 146.478L208.123 145.796L207.441 146.38L208.025 147.061Z" fill="white"/>
<path d="M210.668 150.338L211.545 149.587L210.793 148.71L209.916 149.461L210.668 150.338Z" fill="white"/>
<path d="M231.685 159.869L232.562 159.118L231.811 158.241L230.934 158.993L231.685 159.869Z" fill="white"/>
<path d="M241.229 153.054L241.791 153.186L241.922 152.623L241.36 152.492L241.229 153.054Z" fill="white"/>
<path d="M225.261 142.062L226.018 142.06L226.016 141.303L225.259 141.305L225.261 142.062Z" fill="white"/>
<path d="M248.616 161.913L249.373 161.911L249.371 161.154L248.614 161.156L248.616 161.913Z" fill="white"/>
<path d="M219.386 146.787L220.142 146.785L220.14 146.028L219.384 146.03L219.386 146.787Z" fill="white"/>
<path d="M217.468 148.985L218.225 148.983L218.223 148.227L217.466 148.229L217.468 148.985Z" fill="white"/>
<path d="M63.4743 108.904L64.2311 108.902L64.2291 108.145L63.4723 108.147L63.4743 108.904Z" fill="white"/>
<path d="M44.9043 136.449C42.8055 136.383 40.8784 137.167 39.4506 138.489C41.2373 144.119 45.0643 151.788 45.0643 151.788C49.0122 151.586 52.2111 148.387 52.336 144.365C52.4686 140.128 49.141 136.582 44.9043 136.453V136.449Z" fill="black" stroke="#00C797" stroke-linecap="round" stroke-linejoin="round"/>
<path d="M251.418 178.519L259.275 170.073C258.979 169.316 258.671 168.559 258.351 167.799L219.889 169.937C217.529 170.069 215.313 168.79 214.245 166.679L201.636 141.532L198.293 145.785L204.184 138.295C206.275 135.638 207.597 132.458 208.011 129.103L211.873 97.7969C212.325 94.1455 211.736 90.4394 210.176 87.1078L204.909 75.8609L205.947 63.5372L192.976 36.5532L161.72 27.2139L110.857 54.4554V108.552L116.369 153.353L125.295 159.716L135.173 194.717C137.79 203.993 135.001 213.957 127.948 220.526L120.177 227.763C127.327 231.922 134.537 235.569 141.723 238.698L251.414 198.583V178.519H251.418Z" fill="#00C797"/>
<path d="M196.011 61.9687C193.834 61.1729 191.392 61.8556 189.941 63.6618L187.534 66.6656C186.426 68.0466 186.242 69.9543 187.073 71.5225L188.7 74.6005L194.84 70.9062C196.885 69.6773 199.397 69.5135 201.585 70.4692L203.743 71.4133L200.138 63.4823L196.011 61.9765V61.9687Z" fill="black"/>
<path d="M218.641 186.228L213.64 206.884L226.44 201.364C229.561 200.018 233.068 199.847 236.306 200.888L240.991 202.394L251.415 198.587V184.063L226.838 180.653C223.077 180.13 219.535 182.545 218.641 186.236V186.228Z" fill="black"/>
<path d="M219.066 53.4175L217.416 52.4188C216.659 51.9585 216.39 50.991 216.804 50.2069L218.356 47.2733C220.209 43.77 219.757 39.4944 217.209 36.4593L210.215 28.1187C209.758 27.5726 209.009 27.3775 208.342 27.6272L205.775 28.5908C205.287 28.7741 204.745 28.7195 204.304 28.4464C203.864 28.1733 203.575 27.7091 203.52 27.1942L202.99 22.0642C202.892 21.1201 202.44 20.2463 201.73 19.6182L189.035 8.44145C186.726 6.40896 183.757 5.28934 180.683 5.28934H179.485C178.6 2.63267 176.064 0.884968 173.267 1.0059L162.445 1.46233C159.551 1.58327 156.902 3.12422 155.361 5.58192L152.497 10.1501C152.018 10.9148 151.163 11.3556 150.266 11.3049L140.821 10.7704C139.132 10.6729 137.583 11.7067 137.026 13.3023C136.554 14.6442 135.539 15.7248 134.228 16.2749L122.408 21.2527C120.364 22.1149 119.034 24.1162 119.034 26.3359V29.6792C119.034 29.6792 111.434 28.8326 106.753 33.0536L90.6256 47.5892C88.0431 49.9143 86.467 53.1562 86.2212 56.6203L86.0652 58.8362L78.419 65.2262C76.5894 66.7555 76.0237 69.3263 77.0419 71.4836L80.8923 79.6292L77.8611 103.126C77.6622 104.655 78.3058 106.172 79.5386 107.093L80.6894 107.955C81.6452 108.673 82.2616 109.758 82.3825 110.944L82.679 113.873C82.8585 115.64 83.9742 117.174 85.601 117.888L89.4592 119.585C89.4592 121.27 90.3603 122.826 91.8194 123.673L97.6788 127.055L100.878 141.509L99.4538 147.458C98.9662 149.498 99.5124 151.648 100.921 153.204L103.137 155.658C105.442 158.213 108.723 159.669 112.164 159.669L124.975 174.278C126.063 175.519 128.287 176.311 129.914 176.042L124.249 155.97L120.079 152.838L122.24 142.285L116.186 133.898L114.025 114.178L120.516 115.106C122.119 115.336 123.727 114.7 124.741 113.44C125.716 112.231 126.009 110.608 125.525 109.13L118.69 88.317L122.837 80.0193C124.144 77.4055 124.78 74.507 124.686 71.5851L124.483 65.1404L133.561 63.0065C136.803 62.2458 139.343 59.7334 140.143 56.5033L143.252 43.9534L146.252 44.9677C148.074 45.5841 150.079 45.3461 151.706 44.3201L165.305 35.7376L196.018 42.8767L205.955 63.5409L204.917 75.8646L207.507 81.4003L214.447 73.9335L213.48 71.4095L217.482 70.6683L218.778 69.2756C220.478 67.4421 221.426 65.0351 221.426 62.5345V57.5995C221.426 55.8908 220.533 54.307 219.074 53.4214L219.066 53.4175Z" fill="#00C797"/>
<path d="M204.909 75.8608L207.082 80.5032L210.355 74.5968L205.225 72.1235L204.909 75.8608Z" fill="black"/>
<path d="M215.146 54.6186L212.949 53.2922C212.224 52.8514 211.962 51.9229 212.36 51.17L213.921 48.2051C214.931 46.2819 214.877 43.9724 213.773 42.1038L211.529 38.308C209.942 35.6201 206.688 34.4108 203.731 35.4134L191.899 39.412C190.943 39.7358 190.194 40.4848 189.874 41.4445L192.156 41.9751C194.599 42.5407 196.647 44.187 197.735 46.4457L205.955 63.5405L205.397 70.1763L208.81 67.621L213.48 71.409L217.241 66.3922V58.3247C217.241 56.811 216.449 55.4066 215.154 54.6225L215.146 54.6186Z" fill="black"/>
<path d="M198.691 41.386L197.06 37.8633C195.987 35.5499 196.974 32.8035 199.276 31.6995L205.775 28.5864" stroke="#00C797" stroke-linecap="round" stroke-linejoin="round"/>
<path d="M189.761 27.7089L187.456 28.337C186.332 28.6413 185.369 29.363 184.76 30.3539L181.99 34.8636L180.793 32.4644C179.977 30.8337 180.399 28.852 181.811 27.6972L182.895 26.8078C184.553 25.4502 185.591 23.4762 185.774 21.3384C185.958 19.2006 185.267 17.0823 183.863 15.4633L178.971 9.82226C175.768 6.13179 170.638 4.7664 166.027 6.38147L154.799 10.3099C152.919 10.9692 151.569 12.635 151.323 14.6167L151.3 14.804C151.035 16.9496 149.506 18.7285 147.422 19.3137L129.036 24.4827C127.421 24.9352 125.986 25.8715 124.913 27.1589L118.948 34.3447L106.816 38.0859C104.397 38.831 102.165 40.0716 100.254 41.7296L96.1187 45.3186C94.9366 46.3446 94.2578 47.8309 94.2578 49.3953V53.745C94.2578 56.2457 93.1265 58.6136 91.1759 60.1819L77.0734 71.5381L80.8965 79.6251L77.9121 102.739C77.6858 104.503 78.4232 106.254 79.8471 107.319L80.44 107.764C81.5558 108.599 82.2658 109.867 82.3945 111.252L82.6637 114.134C82.8821 116.46 84.1695 118.551 86.1435 119.795L97.6713 127.051L100.87 141.505L99.4463 147.458C98.9587 149.498 99.5048 151.648 100.913 153.204L103.129 155.658C105.435 158.213 108.715 159.668 112.156 159.668L124.967 174.278C126.196 175.683 128.065 176.346 129.906 176.041L124.242 155.97L120.072 152.838L122.233 142.285L116.178 133.898L114.017 114.177L123.099 115.476L126.298 111.497L118.687 88.3207L124.827 76.04L124.48 65.1441L138.836 61.7696L143.248 43.9532L149.131 45.9428L165.305 35.7374L184.686 40.2432L186.149 38.6789L192.379 31.926C193.171 31.0678 193.276 29.7765 192.636 28.8012C192.016 27.8572 190.861 27.4202 189.773 27.7167L189.761 27.7089Z" fill="black"/>
<path d="M112.788 150.173C111.719 151.882 111.848 154.078 113.116 155.647L114.087 156.852L119.58 163.113C121.476 165.275 124.437 166.172 127.214 165.427L132.274 164.069L132.446 160.484L122.131 135.251L112.788 150.169V150.173Z" stroke="#00C797" stroke-linecap="round" stroke-linejoin="round"/>
<path d="M141.399 225.727L143.935 211.554L150.68 223.92C152.357 226.994 155.068 229.37 158.334 230.626C158.334 230.626 157.909 217.967 151.093 207.048L136.472 183.622C131.084 174.992 134.607 165.794 134.607 165.794L162.851 205.577C164.915 208.487 168.176 210.321 171.734 210.571C172.331 210.614 172.904 210.333 173.236 209.837C173.572 209.342 173.614 208.706 173.349 208.168L148.819 158.198C148.413 157.375 148.53 156.388 149.119 155.682C149.708 154.976 150.656 154.683 151.538 154.929L169.444 159.961C174.808 161.471 180.562 159.778 184.261 155.608L195.184 143.28C196.573 141.712 197.201 139.613 196.904 137.538L196.456 134.409C196.214 132.712 194.774 131.444 193.062 131.413L188.267 131.331C186.863 131.308 185.482 131.717 184.319 132.501L180.898 134.815C178.858 136.196 176.189 136.227 174.114 134.897L165.773 129.552C162.11 127.204 159.321 123.712 157.842 119.62L151.834 102.989C150.212 98.4952 147.691 94.3795 144.426 90.8958L137.759 83.7724C136.019 81.9154 135.672 79.1495 136.893 76.9142L140.346 70.6178L148.206 64.2433L155.244 62.1172C158.326 61.1849 160.304 61.7622 160.304 61.7622L158.146 65.0626L162.543 65.3513L168.157 74.3629C168.812 75.4123 169.811 76.2003 170.989 76.5865L174.083 77.6086L175.514 90.7047C175.569 91.2157 175.858 91.6721 176.295 91.9452C176.731 92.2183 177.27 92.2729 177.75 92.0935L178.932 91.6605C180.281 91.165 181.795 91.4459 182.88 92.3939L185.341 94.5434L178.436 96.9777C175.389 98.0505 173.493 104.027 179.829 105.896L186.679 107.916C189.843 108.736 191.404 106.742 190.893 105.158L190.588 104.214C190.062 102.588 191.482 101.292 192.878 101.386L196.034 101.593L196.881 100.45C197.505 99.607 197.63 98.4913 197.208 97.5277L196.491 95.901C196.998 95.0583 197.294 94.1221 197.349 93.1195L192.866 93.0024C191.38 92.9634 189.991 92.2612 189.078 91.087L187.6 89.1832L179.794 68.9559L179.041 64.8597C178.506 61.9534 176.17 59.718 173.24 59.3162L164.825 58.1654C162.578 57.8572 160.296 57.8611 158.049 58.1771L152.108 59.008C149.533 59.3669 146.97 58.2746 145.448 56.168L144.645 55.0523C144.005 54.1667 143.822 53.0354 144.149 51.9938C144.477 50.9522 145.277 50.1291 146.303 49.7702L180.328 37.8912L180.164 32.7301L161.7 27.21L110.838 54.4515V108.548L115.437 137.83L120.376 153.166C120.836 154.593 121.749 155.834 122.978 156.696L124.784 157.964L135.157 194.713C137.775 203.989 134.985 213.953 127.932 220.522L120.161 227.759C125.096 230.63 130.058 233.26 135.021 235.639C138.364 233.318 140.662 229.756 141.383 225.723L141.399 225.727Z" fill="black"/>
<path d="M145.164 158.927C143.986 156.692 144.321 153.259 145.913 151.297L148.647 147.922C141.056 148.246 132.856 144.337 128.904 138.021L127.125 135.181C126.372 137.007 126.532 139.913 127.484 141.641L140.884 166.012C141.614 167.334 143.416 168.68 144.891 169L147.926 169.655C149.724 170.046 150.493 169.031 149.634 167.404L145.16 158.927H145.164Z" fill="black"/>
<path d="M201.636 141.528L204.18 138.29C206.271 135.634 207.593 132.454 208.007 129.096L211.869 97.789C212.321 94.1375 211.732 90.4315 210.172 87.0999L204.905 75.8529L205.943 63.5293" stroke="#00C797" stroke-linecap="round" stroke-linejoin="round"/>
<path d="M198.293 145.784L201.636 141.528" stroke="black" stroke-linecap="round" stroke-linejoin="round"/>
<path d="M204.909 75.8603L207.082 80.5027L210.355 74.5964L205.225 72.123L204.909 75.8603Z" fill="black"/>
<path d="M194.193 109.243C193.155 108.927 192.032 109.044 191.084 109.571C188.088 111.233 187.175 107.835 182.525 110.168L173.123 114.888C173.837 116.554 174.995 116.538 176.813 116.043L182.782 114.416C183.675 114.201 184.612 114.217 185.497 114.47L187.506 115.04C188.833 115.415 190.249 115.266 191.466 114.623C192.461 114.1 193.647 114.096 194.645 114.615C195.508 115.063 196.565 114.806 197.127 114.014L197.38 113.659L196.674 111.638C196.276 110.491 195.352 109.602 194.189 109.247L194.193 109.243Z" fill="black"/>
<path d="M110.794 83.6547C110.131 81.7393 108.329 80.4519 106.3 80.4519H101.861C99.1574 80.4519 96.6958 79.2426 95.0418 77.2959L86.4398 89.405C85.4255 90.8367 85.5542 92.7834 86.748 94.0668L88.3474 95.7833C89.2135 96.7118 89.5412 98.0226 89.2174 99.2514L85.7532 112.324C85.2967 114.045 85.9482 115.87 87.3916 116.916L94.1094 121.777C94.7687 122.252 95.6386 122.311 96.3525 121.921C97.0664 121.535 97.1367 120.708 97.4565 119.963L103.733 105.283L111.114 97.0122L112.827 95.5883C113.802 94.7807 114.173 93.4505 113.759 92.2528L110.794 83.6586V83.6547Z" stroke="#00C797" stroke-linecap="round" stroke-linejoin="round"/>
<path d="M111.114 97.005L112.827 95.5811C113.802 94.7697 114.173 93.4433 113.759 92.2457L110.795 83.6515C110.131 81.736 108.329 80.4487 106.3 80.4487H101.861C99.1575 80.4487 96.6959 79.2393 95.0418 77.2926C94.0509 76.1223 93.3487 74.6906 93.06 73.095L92.5568 70.294C91.4996 64.4189 94.917 58.6609 100.578 56.7727L106.648 54.748" stroke="#00C797" stroke-linecap="round" stroke-linejoin="round"/>
<path d="M161.412 144.703L153.231 147.165C151.757 147.61 150.216 147.856 148.647 147.922C141.056 148.246 132.856 144.337 128.904 138.021L127.125 135.181L123.001 128.596" stroke="#00C797" stroke-linecap="round" stroke-linejoin="round"/>
<path d="M165.469 143.483L168.211 142.656" stroke="#00C797" stroke-linecap="round" stroke-linejoin="round"/>
<path d="M104.514 121.091L104.014 123.248C103.683 124.692 104.276 126.186 105.505 127.009L114.68 133.145C116.74 134.522 118.261 136.567 118.991 138.935L122.732 151.079" stroke="#00C797" stroke-linecap="round" stroke-linejoin="round"/>
<path d="M196.042 101.588L196.888 100.445C197.513 99.6027 197.637 98.487 197.216 97.5234L196.498 95.8966C197.626 94.0163 197.723 91.6756 196.397 89.1633L191.361 79.6328L187.073 71.5185C186.246 69.9541 186.426 68.0465 187.534 66.6616L189.941 63.6577" stroke="#00C797" stroke-linecap="round" stroke-linejoin="round"/>
<path d="M197.368 92.7718C197.368 91.6366 197.06 90.4233 196.397 89.1672L191.361 79.6367" stroke="black" stroke-linecap="round" stroke-linejoin="round"/>
<path d="M174.527 100.251L174.157 97.7421C173.891 95.9437 174.484 94.1257 175.76 92.8267" stroke="black" stroke-linecap="round" stroke-linejoin="round"/>
<path d="M184.686 96.7981L179.63 97.668C177.894 97.9684 176.396 100.18 178.768 101.308L187.51 97.9996C186.886 97.0789 185.782 96.6108 184.686 96.7981Z" fill="black"/>
<path d="M187.51 97.9996C186.886 97.0789 185.782 96.6108 184.686 96.7981L179.63 97.668C177.894 97.9684 176.396 100.18 178.768 101.308" stroke="#00C797" stroke-linecap="round" stroke-linejoin="round"/>
<path d="M164.821 75.9891C164.821 75.9891 163.924 71.4092 159.157 71.4053C154.659 71.4014 149.708 75.1699 146.853 77.7485C146.424 78.1347 146.275 78.7394 146.47 79.2816C146.665 79.8239 147.173 80.1906 147.75 80.2101L154.608 80.4403C158.993 80.5885 163.351 79.7108 167.337 77.8851L167.357 77.8772" stroke="#00C797" stroke-linecap="round" stroke-linejoin="round"/>
<path d="M190.432 77.8779L189.207 75.5568C189.207 75.5568 195.02 70.4814 199.233 73.2044C203.45 75.9274 201.952 80.6087 201.952 80.6087L196.974 80.2069" stroke="#00C797" stroke-linecap="round" stroke-linejoin="round"/>
<path d="M164.821 75.9893C164.942 76.7188 164.868 77.4249 164.583 78.0256" stroke="#00C797" stroke-linecap="round" stroke-linejoin="round"/>
<path d="M162.25 79.5826C161.591 79.6997 160.858 79.6334 160.132 79.3876C159.406 79.1418 158.681 78.7166 158.041 78.1236C156.262 76.4734 155.743 74.0938 156.777 72.6191" stroke="#00C797" stroke-linecap="round" stroke-linejoin="round"/>
<path d="M200.048 80.4519C199.077 80.0657 198.043 79.2035 197.236 77.9981C196.054 76.2387 195.722 74.2998 196.319 73.1997" stroke="#00C797" stroke-linecap="round" stroke-linejoin="round"/>
<path d="M184.151 118.952L176.969 118.906C176.486 118.906 176.021 119.105 175.698 119.467C175.374 119.826 175.214 120.306 175.265 120.79L175.538 123.357C175.729 125.144 177.633 126.138 180.196 125.397L188.181 123.084C189.441 122.717 190.787 122.764 192.016 123.216L194.688 124.192L196.974 118.024L191.786 117.856C188.813 117.763 186.824 118.968 184.151 118.952Z" fill="black"/>
<path d="M124.909 27.1593C124.909 27.1593 136.499 21.5807 139.784 37.4075" stroke="#00C797" stroke-linecap="round" stroke-linejoin="round"/>
<path d="M181.116 198.937L180.601 213.27C180.551 214.659 181.44 215.903 182.766 216.313L193.319 192.009L186.266 193.125C183.379 193.581 181.222 196.015 181.12 198.937H181.116Z" fill="black"/>
<path d="M195.047 97.644L193.721 99.2435L195.777 100.445L195.933 100.141C196.272 99.4854 196.136 98.6817 195.601 98.1746L195.051 97.6479L195.047 97.644Z" fill="black"/>
<path d="M219.066 53.4175L217.416 52.4188C216.659 51.9585 216.39 50.991 216.804 50.2069L218.356 47.2732C220.209 43.77 219.757 39.4944 217.209 36.4593L211.139 29.2227C210.129 28.0173 208.467 27.5804 206.992 28.1343L205.775 28.5908C205.287 28.7741 204.745 28.7195 204.304 28.4464C203.864 28.1733 203.575 27.7091 203.52 27.1942L202.99 22.0642C202.892 21.1201 202.44 20.2463 201.73 19.6182L189.035 8.44145C186.726 6.40896 183.757 5.28934 180.683 5.28934H179.485C178.6 2.63267 176.064 0.884968 173.267 1.0059L162.445 1.46233C159.551 1.58327 156.902 3.12422 155.361 5.58192L152.497 10.1501C152.018 10.9148 151.163 11.3556 150.266 11.3049L140.821 10.7704C139.132 10.6729 137.583 11.7067 137.026 13.3023C136.554 14.6442 135.539 15.7248 134.228 16.2749L122.408 21.2527C120.364 22.1149 119.034 24.1162 119.034 26.3359V29.6792C119.034 29.6792 111.434 28.8326 106.753 33.0536L90.6256 47.5892C88.0431 49.9143 86.467 53.1561 86.2212 56.6203L86.0652 58.8362L78.419 65.2262C76.5894 66.7555 76.0237 69.3263 77.0419 71.4836L80.8923 79.6292L77.8611 103.126C77.6622 104.655 78.3058 106.172 79.5386 107.093L80.6894 107.955C81.6452 108.673 82.2616 109.758 82.3825 110.944L82.6751 114.127C82.8897 116.46 84.177 118.555 86.1588 119.803L97.6788 127.055L100.878 141.509L99.4538 147.458C98.9662 149.498 99.5124 151.648 100.921 153.204L103.137 155.658C105.442 158.213 108.723 159.669 112.164 159.669L124.975 174.278C126.204 175.683 128.073 176.35 129.914 176.042L124.249 155.97L117.875 135.283L114.025 114.181L120.516 115.11C122.119 115.34 123.727 114.704 124.741 113.444C125.716 112.235 126.009 110.612 125.525 109.133L118.69 88.3209L122.837 80.0232C124.144 77.4094 123.77 71.4134 121.109 68.7333L125.65 64.1924L133.557 63.0104C136.85 62.5188 139.339 59.7373 140.139 56.5072L142.706 46.138C142.846 45.5763 143.213 45.1003 143.72 44.8233C144.227 44.5464 144.828 44.4917 145.374 44.679L146.244 44.9716C148.066 45.588 150.071 45.35 151.698 44.324L162.379 37.5829C164.248 36.4047 166.51 36.0224 168.66 36.5217L192.152 41.9833C194.595 42.549 196.643 44.1953 197.731 46.454L205.947 63.5487L204.909 75.8724L207.499 81.4081L214.44 73.9413L213.472 71.4173L217.475 70.6761L218.77 69.2834C220.471 67.4499 221.419 65.0429 221.419 62.5423V57.6073C221.419 55.8986 220.525 54.3148 219.066 53.4292V53.4175Z" stroke="#00C797" stroke-linecap="round" stroke-linejoin="round"/>
<path d="M179.482 5.28955L180.433 9.05024" stroke="#00C797" stroke-linecap="round" stroke-linejoin="round"/>
<path d="M91.7455 54.0889L86.0615 58.8326" stroke="#00C797" stroke-linecap="round" stroke-linejoin="round"/>
<path d="M129.122 63.6659L126.91 63.9975C124.417 64.3681 121.878 63.701 119.888 62.1522L114.528 57.9702" stroke="#00C797" stroke-linecap="round" stroke-linejoin="round"/>
<path d="M115.394 64.0132L121.105 68.7257" stroke="#00C797" stroke-linecap="round" stroke-linejoin="round"/>
<path d="M110.833 93.4119C108.777 90.7435 105.321 89.5615 102.06 90.4197C98.3147 91.4028 95.6463 94.711 95.4747 98.5809L95.1431 106.102C94.9285 110.924 96.6996 115.625 100.043 119.109L102.426 121.59C103.445 122.651 104.853 123.252 106.328 123.252H108.567C109.585 123.252 110.58 123.536 111.438 124.079L116.03 126.962C117.352 127.792 119.061 127.668 120.247 126.653L123.009 124.293L113.236 96.5328L110.833 93.4158V93.4119Z" fill="black"/>
<path d="M114.668 98.3936L110.833 93.4119C108.777 90.7435 105.321 89.5615 102.06 90.4197C98.3147 91.4028 95.6463 94.711 95.4747 98.5809L95.1431 106.102C94.9285 110.924 96.6996 115.625 100.043 119.109L102.426 121.59C103.445 122.651 104.853 123.252 106.328 123.252H108.567C109.585 123.252 110.58 123.536 111.438 124.079L116.03 126.962C117.352 127.792 119.061 127.668 120.247 126.653L123.009 124.293" stroke="#00C797" stroke-linecap="round" stroke-linejoin="round"/>
<path d="M112.086 104.139L105.684 96.3918C104.237 94.6402 101.701 94.2696 99.8128 95.5336C97.8272 96.8638 96.731 99.1811 96.9689 101.565L97.6477 108.396C97.9247 111.173 99.255 113.736 101.365 115.562L103.979 117.821" stroke="#00C797" stroke-linecap="round" stroke-linejoin="round"/>
<path d="M105.684 96.3918C104.237 94.6402 101.701 94.2696 99.8128 95.5336C98.818 96.2006 98.0495 97.1096 97.558 98.1551L100.644 97.5192C102.169 97.2071 103.737 97.8079 104.654 99.0641L109.948 106.297L112.09 104.136L107.443 98.514L105.688 96.3879L105.684 96.3918Z" fill="#00C797" stroke="#00C797" stroke-linecap="round" stroke-linejoin="round"/>
<path d="M109.819 101.377L103.733 105.279C102.255 106.227 101.545 108.017 101.974 109.722L102.247 110.806C102.629 112.324 103.85 113.49 105.384 113.81C106.671 114.076 108.009 113.752 109.031 112.929L109.948 112.191L112.292 112.808C114.918 113.498 116.369 111.801 116.369 111.801L112.09 104.147L109.823 101.381L109.819 101.377Z" fill="black" stroke="#00C797" stroke-linecap="round" stroke-linejoin="round"/>
<path d="M162.052 73.5942C162.98 74.3354 163.273 75.5135 162.703 76.2313C162.134 76.9491 160.916 76.9296 159.984 76.1923C159.056 75.4511 158.763 74.273 159.333 73.5552C159.465 73.3874 159.633 73.2626 159.824 73.1729" stroke="#00C797" stroke-linecap="round" stroke-linejoin="round"/>
<path d="M200.883 75.9266C201.398 76.7732 201.468 77.6548 201.008 78.0098C200.485 78.4155 199.467 77.9864 198.741 77.0462C198.016 76.1061 197.848 75.0176 198.371 74.608C198.691 74.3584 199.194 74.4247 199.701 74.7251" stroke="#00C797" stroke-linecap="round" stroke-linejoin="round"/>
<path d="M123.005 60.467L122.291 60.0223C120.973 59.2031 120.485 57.5178 121.164 56.1173L121.827 54.748L123.953 50.3709C124.628 48.9821 124.199 47.3124 122.943 46.4191L117.532 42.5726C115.675 41.2501 113.256 41.0121 111.173 41.9445C109.09 42.8768 107.697 44.7845 107.412 47.012L107.007 50.1993" stroke="#00C797" stroke-linecap="round" stroke-linejoin="round"/>
<path d="M126.423 30.3892L119.03 29.6753" stroke="#00C797" stroke-linecap="round" stroke-linejoin="round"/>
<path d="M93.5165 124.422L101.053 129.189C102.017 129.798 102.579 130.878 102.524 132.017L102.407 134.522C102.278 137.221 103.851 139.714 106.339 140.764L109.577 142.129C110.986 142.722 112.585 142.675 113.958 142L115.886 141.052" stroke="#00C797" stroke-linecap="round" stroke-linejoin="round"/>
<path d="M251.418 198.582L260.602 215.103L265.033 208.557C266.684 196.76 264.608 183.602 259.275 170.073L251.418 178.519V198.582Z" fill="#00C797" stroke="#00C797" stroke-linecap="round" stroke-linejoin="round"/>
<path d="M251.418 198.582L141.727 238.697C150.247 242.407 158.732 245.392 167.033 247.639L260.602 215.103L251.418 198.582Z" fill="#00C797"/>
<path d="M167.029 247.639L200.119 236.135L182.049 223.952L141.723 238.698C150.243 242.408 158.728 245.392 167.029 247.639Z" fill="black"/>
<path d="M120.177 227.763C127.328 231.921 134.537 235.569 141.723 238.698" stroke="#00C797" stroke-linecap="round" stroke-linejoin="round"/>
<path d="M258.351 167.798L259.275 170.073" stroke="#00C797" stroke-linecap="round" stroke-linejoin="round"/>
<path d="M251.418 198.582L141.727 238.697C150.247 242.407 158.732 245.392 167.033 247.639L260.602 215.103L251.418 198.582Z" stroke="#00C797" stroke-linecap="round" stroke-linejoin="round"/>
<path d="M196.498 95.897L193.022 100.083" stroke="#00C797" stroke-linecap="round" stroke-linejoin="round"/>
<path d="M154.874 56.1826H162.153V66.0213H152.314V58.7418C152.314 57.3296 153.461 56.1826 154.874 56.1826Z" fill="#B5DF77"/>
<path d="M171.992 56.1826H162.153V66.0213H171.992V56.1826Z" fill="#B5DF77"/>
<path d="M191.665 56.1826H181.827V66.0213H191.665V56.1826Z" fill="#B5DF77"/>
<path d="M181.826 56.1826H171.988V66.0213H181.826V56.1826Z" fill="#B5DF77"/>
<path d="M201.504 56.1826H191.665V66.0213H201.504V56.1826Z" fill="#B5DF77"/>
<path d="M201.504 56.1826H208.783C210.195 56.1826 211.342 57.3296 211.342 58.7418V66.0213H201.504V56.1826Z" fill="#B5DF77"/>
<path d="M152.314 66.022H142.476V75.8606H152.314V66.022Z" fill="#B5DF77"/>
<path d="M135.196 56.1826H139.913C141.325 56.1826 142.472 57.3296 142.472 58.7418V66.0213H135.192C133.78 66.0213 132.633 64.8743 132.633 63.4621V58.7457C132.633 57.3335 133.78 56.1865 135.192 56.1865L135.196 56.1826Z" fill="#B5DF77"/>
<path d="M162.153 66.022H152.314V75.8606H162.153V66.022Z" fill="#B5DF77"/>
<path d="M171.992 66.022H162.153V75.8606H171.992V66.022Z" fill="#B5DF77"/>
<path d="M181.826 66.022H171.988V75.8606H181.826V66.022Z" fill="#B5DF77"/>
<path d="M191.665 66.022H181.827V75.8606H191.665V66.022Z" fill="#B5DF77"/>
<path d="M201.504 66.022H191.665V75.8606H201.504V66.022Z" fill="#B5DF77"/>
<path d="M211.342 66.022H201.504V75.8606H211.342V66.022Z" fill="#B5DF77"/>
<path d="M142.476 75.8599H152.314V85.6985H145.035C143.623 85.6985 142.476 84.5516 142.476 83.1394V75.8599Z" fill="#B5DF77"/>
<path d="M162.153 75.8599H152.314V85.6985H162.153V75.8599Z" fill="#B5DF77"/>
<path d="M171.992 75.8599H162.153V85.6985H171.992V75.8599Z" fill="#B5DF77"/>
<path d="M171.988 75.8599H181.826V83.1394C181.826 84.5516 180.679 85.6985 179.267 85.6985H171.988V75.8599Z" fill="#B5DF77"/>
<path d="M211.342 75.8599H201.504V85.6985H211.342V75.8599Z" fill="#B5DF77"/>
<path d="M191.665 75.8599H201.504V85.6985H194.224C192.812 85.6985 191.665 84.5516 191.665 83.1394V75.8599Z" fill="#B5DF77"/>
<path d="M211.342 75.8599H221.181V83.1394C221.181 84.5516 220.034 85.6985 218.622 85.6985H211.342V75.8599Z" fill="#B5DF77"/>
<path d="M223.74 66.022H228.457C229.869 66.022 231.016 67.1689 231.016 68.5811V73.2976C231.016 74.7098 229.869 75.8567 228.457 75.8567H221.177V68.5772C221.177 67.165 222.324 66.0181 223.736 66.0181L223.74 66.022Z" fill="#B5DF77"/>
<path d="M188.95 66.0212C190.448 66.0212 191.665 67.2384 191.665 68.7364C191.665 67.2384 192.882 66.0212 194.38 66.0212C192.882 66.0212 191.665 64.8041 191.665 63.306C191.665 64.8041 190.448 66.0212 188.95 66.0212Z" fill="#B5DF77"/>
<path d="M185.201 66.0212H188.95M188.95 66.0212C190.448 66.0212 191.665 67.2384 191.665 68.7364M188.95 66.0212C190.448 66.0212 191.665 64.8041 191.665 63.306M191.665 68.7364V75.8599M191.665 68.7364C191.665 67.2384 192.882 66.0212 194.38 66.0212M194.38 66.0212H208.998M194.38 66.0212C192.882 66.0212 191.665 64.8041 191.665 63.306M191.665 63.306V60.6182" stroke="#00C797" stroke-linecap="round" stroke-linejoin="round"/>
<path d="M160.089 66.0213C161.228 66.0213 162.149 66.9419 162.149 68.081C162.149 66.9419 163.07 66.0213 164.209 66.0213C163.07 66.0213 162.149 65.1006 162.149 63.9615C162.149 65.1006 161.228 66.0213 160.089 66.0213Z" fill="#B5DF77"/>
<path d="M159.563 66.0213H160.089M160.089 66.0213C161.228 66.0213 162.149 66.9419 162.149 68.081M160.089 66.0213C161.228 66.0213 162.149 65.1006 162.149 63.9615M162.149 68.081V69.977M162.149 68.081C162.149 66.9419 163.07 66.0213 164.209 66.0213M164.209 66.0213H171.988M164.209 66.0213C163.07 66.0213 162.149 65.1006 162.149 63.9615M162.149 63.9615V56.1826" stroke="#00C797" stroke-linecap="round" stroke-linejoin="round"/>
<path d="M199.424 75.8602C200.571 75.8602 201.504 76.7926 201.504 77.9395C201.504 76.7926 202.436 75.8602 203.583 75.8602C202.436 75.8602 201.504 74.9279 201.504 73.7809C201.504 74.9279 200.571 75.8602 199.424 75.8602Z" fill="#B5DF77"/>
<path d="M194.076 75.8602H199.424M199.424 75.8602C200.571 75.8602 201.504 76.7926 201.504 77.9395M199.424 75.8602C200.571 75.8602 201.504 74.9279 201.504 73.7809M201.504 77.9395V85.6989M201.504 77.9395C201.504 76.7926 202.436 75.8602 203.583 75.8602M203.583 75.8602H204.909M203.583 75.8602C202.436 75.8602 201.504 74.9279 201.504 73.7809M201.504 73.7809V70.9409" stroke="#00C797" stroke-linecap="round" stroke-linejoin="round"/>
<path d="M150.083 75.8604C151.316 75.8604 152.314 76.8591 152.314 78.0918C152.314 76.8591 153.313 75.8604 154.546 75.8604C153.313 75.8604 152.314 74.8617 152.314 73.6289C152.314 74.8617 151.316 75.8604 150.083 75.8604Z" fill="#B5DF77"/>
<path d="M142.476 75.8604H150.083M150.083 75.8604C151.316 75.8604 152.314 76.8591 152.314 78.0918M150.083 75.8604C151.316 75.8604 152.314 74.8617 152.314 73.6289M152.314 78.0918V85.699M152.314 78.0918C152.314 76.8591 153.313 75.8604 154.546 75.8604M154.546 75.8604H157.737M154.546 75.8604C153.313 75.8604 152.314 74.8617 152.314 73.6289M152.314 73.6289V71.4209" stroke="#00C797" stroke-linecap="round" stroke-linejoin="round"/>
<path d="M251.418 149.51C264.029 149.51 274.252 139.288 274.252 126.677C274.252 114.067 264.029 103.844 251.418 103.844C238.808 103.844 228.585 114.067 228.585 126.677C228.585 139.288 238.808 149.51 251.418 149.51Z" fill="#00C797"/>
<path d="M269.075 138.833C262.287 148.532 256.743 141.018 247.045 134.23C237.347 127.442 227.165 123.951 233.953 114.252C240.741 104.554 254.106 102.194 263.804 108.982C273.502 115.77 275.863 129.135 269.075 138.833Z" fill="black"/>
<path d="M251.964 119.043C250.205 118.84 248.484 118.727 246.834 118.696C245.504 123.244 240.542 123.681 239.254 121.072C237.542 117.592 241.068 112.235 245.207 113.776C246.893 114.401 247.037 116.023 247.092 116.632C248.738 116.663 250.454 116.776 252.214 116.979C252.155 115.875 251.976 112.509 247.404 111.167C247.63 110.359 247.872 109.63 248.129 108.974C247.384 108.974 246.655 108.994 245.949 109.029C245.668 109.591 245.406 110.207 245.161 110.882C245.005 110.882 244.712 110.882 244.306 110.913C243.975 110.94 243.764 110.964 243.436 111.014C243.717 110.34 244.022 109.715 244.345 109.15C243.67 109.216 243.019 109.306 242.399 109.407C241.958 110.074 241.552 110.815 241.189 111.631C234.152 114.724 233.293 123.619 238.369 125.69C238.661 125.811 239.067 125.921 239.371 126.003C239.485 127.134 239.644 128.261 239.855 129.369C240.487 129.264 241.142 129.174 241.825 129.108C241.696 128.148 241.599 127.181 241.533 126.205C242.289 126.194 242.886 126.12 243.269 126.069C243.304 127.048 243.366 128.019 243.448 128.983C244.162 128.944 244.899 128.924 245.652 128.924C245.621 127.793 245.613 126.65 245.633 125.499C250.15 123.822 251.414 121.001 251.972 119.027L251.964 119.043Z" fill="#EBE9E9"/>
<path d="M251.418 149.51C264.029 149.51 274.252 139.288 274.252 126.677C274.252 114.067 264.029 103.844 251.418 103.844C238.808 103.844 228.585 114.067 228.585 126.677C228.585 139.288 238.808 149.51 251.418 149.51Z" stroke="#00C797" stroke-linecap="round" stroke-linejoin="round"/>
<path d="M357.349 83.7297L355.89 79.415L344.331 89.203L345.79 93.5176C346.009 94.1613 345.895 94.7191 345.544 95.0156L357.103 85.2277C357.454 84.9312 357.568 84.3734 357.349 83.7297Z" fill="#00C797" stroke="#00C797" stroke-linecap="round" stroke-linejoin="round"/>
<path d="M307.048 88.1107L318.607 78.3228L355.89 79.4151L344.331 89.203L307.048 88.1107Z" fill="#00C797" stroke="#00C797" stroke-linecap="round" stroke-linejoin="round"/>
<path d="M305.589 83.7952L317.148 74.0073L318.607 78.322L307.048 88.1099L305.589 83.7952Z" fill="#00C797" stroke="#00C797" stroke-linecap="round" stroke-linejoin="round"/>
<path d="M314.994 72.1898L311.218 72.0806L299.659 81.8685L303.435 81.9777C304.29 82.0011 305.257 82.8204 305.589 83.7995L317.148 74.0116C316.816 73.0324 315.849 72.2171 314.994 72.1898Z" fill="#00C797" stroke="#00C797" stroke-linecap="round" stroke-linejoin="round"/>
<path d="M289.368 51.432L300.927 41.644L311.218 72.0767L299.659 81.8646L289.368 51.432Z" fill="#00C797" stroke="#00C797" stroke-linecap="round" stroke-linejoin="round"/>
<path d="M297.155 41.5352C296.87 41.5274 296.628 41.6093 296.452 41.7614L284.893 51.5494C285.073 51.3972 285.311 51.3153 285.596 51.3231L289.372 51.4323L300.931 41.6444L297.155 41.5352Z" fill="black" stroke="#00C797" stroke-linecap="round" stroke-linejoin="round"/>
<path d="M305.659 40.0334L304.2 35.7188L292.641 45.5067L294.1 49.8213C294.318 50.465 294.205 51.0229 293.854 51.3194L305.413 41.5314C305.764 41.2349 305.878 40.6771 305.659 40.0334Z" fill="#00C797" stroke="#00C797" stroke-linecap="round" stroke-linejoin="round"/>
<path d="M300.424 35.605C300.135 35.5972 299.893 35.6791 299.714 35.8313L288.155 45.6192C288.334 45.4671 288.572 45.3851 288.865 45.3929L292.641 45.5022L304.2 35.7142L300.424 35.605Z" fill="black" stroke="#00C797" stroke-linecap="round" stroke-linejoin="round"/>
<path d="M302.082 57.8338L313.641 48.0459L319.816 66.3071L308.257 76.0911L302.082 57.8338Z" fill="#00C797" stroke="#00C797" stroke-linecap="round" stroke-linejoin="round"/>
<path d="M309.865 47.937C309.576 47.9292 309.338 48.0112 309.162 48.1633L297.603 57.9512C297.783 57.7991 298.021 57.7172 298.306 57.725L302.082 57.8342L313.641 48.0463L309.865 47.937Z" fill="black" stroke="#00C797" stroke-linecap="round" stroke-linejoin="round"/>
<path d="M308.257 76.0912L319.816 66.3071L335.791 66.7714L324.232 76.5593L308.257 76.0912Z" fill="black" stroke="#00C797" stroke-linecap="round" stroke-linejoin="round"/>
<path d="M337.25 71.09L335.791 66.7754L324.232 76.5633L325.691 80.878C325.91 81.5216 325.797 82.0795 325.446 82.376L337.005 72.5881C337.356 72.2916 337.469 71.7337 337.25 71.09Z" fill="black" stroke="#00C797" stroke-linecap="round" stroke-linejoin="round"/>
<path d="M321.927 54.1434L333.486 44.3555L341.12 66.9274L329.561 76.7153L321.927 54.1434Z" fill="#00C797" stroke="#00C797" stroke-linecap="round" stroke-linejoin="round"/>
<path d="M331.34 42.5374L313.138 42.003C312.849 41.9951 312.607 42.0771 312.432 42.2292L300.873 52.0171C301.052 51.865 301.29 51.7831 301.579 51.7909L319.781 52.3253C320.632 52.3487 321.599 53.168 321.931 54.1472L333.49 44.3592C333.158 43.38 332.374 42.5686 331.34 42.5374Z" fill="#00C797" stroke="#00C797" stroke-linecap="round" stroke-linejoin="round"/>
<path d="M323.136 42.1243L334.695 32.3364L336.154 36.6511L324.595 46.439L323.136 42.1243Z" fill="#00C797" stroke="#00C797" stroke-linecap="round" stroke-linejoin="round"/>
<path d="M332.546 30.5223L303.689 29.6758C303.401 29.668 303.163 29.7499 302.987 29.9021L291.428 39.69C291.607 39.5378 291.845 39.4559 292.13 39.4637L320.987 40.3103C321.837 40.3337 322.805 41.1529 323.132 42.1243L334.691 32.3364C334.364 31.365 333.396 30.5458 332.546 30.5223Z" fill="black" stroke="#00C797" stroke-linecap="round" stroke-linejoin="round"/>
<path d="M330.521 48.366L342.08 38.5781L343.539 42.8928L331.98 52.6807L330.521 48.366Z" fill="#00C797" stroke="#00C797" stroke-linecap="round" stroke-linejoin="round"/>
<path d="M339.931 36.7635L336.154 36.6543L324.595 46.4422L328.372 46.5515C329.226 46.5749 330.193 47.3941 330.525 48.3655L342.084 38.5776C341.756 37.6062 340.789 36.7869 339.931 36.7635Z" fill="black" stroke="#00C797" stroke-linecap="round" stroke-linejoin="round"/>
<path d="M347.904 71.3977L346.445 67.083L334.886 76.8709L336.345 81.1856C336.564 81.8293 336.451 82.3871 336.1 82.6836L347.659 72.8957C348.01 72.5992 348.123 72.0413 347.904 71.3977Z" fill="#00C797" stroke="#00C797" stroke-linecap="round" stroke-linejoin="round"/>
<path d="M329.561 76.7157L341.12 66.9277L346.445 67.0838L334.886 76.8717L329.561 76.7157Z" fill="black" stroke="#00C797" stroke-linecap="round" stroke-linejoin="round"/>
<path d="M351.174 65.4724L349.715 61.1577L338.156 70.9456L339.615 75.2603C339.833 75.904 339.72 76.4618 339.369 76.7583L350.928 66.9704C351.279 66.6739 351.392 66.116 351.174 65.4724Z" fill="#00C797" stroke="#00C797" stroke-linecap="round" stroke-linejoin="round"/>
<path d="M345.942 61.0445C345.654 61.0367 345.412 61.1186 345.232 61.2707L333.673 71.0586C333.853 70.9065 334.091 70.8246 334.383 70.8324L338.16 70.9416L349.719 61.1537L345.942 61.0445Z" fill="black" stroke="#00C797" stroke-linecap="round" stroke-linejoin="round"/>
<path d="M354.439 59.5388L349.465 44.8237L337.906 54.6117L342.88 69.3267C343.098 69.9743 342.985 70.536 342.634 70.8325L354.193 61.0446C354.544 60.7481 354.657 60.1903 354.439 59.5388Z" fill="#00C797" stroke="#00C797" stroke-linecap="round" stroke-linejoin="round"/>
<path d="M347.315 43.0018L343.539 42.8926L331.98 52.6805L335.756 52.7897C336.607 52.8131 337.574 53.6324 337.906 54.6116L349.465 44.8236C349.133 43.8445 348.166 43.0291 347.315 43.0018Z" fill="black" stroke="#00C797" stroke-linecap="round" stroke-linejoin="round"/>
<path d="M360.614 77.7999L359.752 75.2563L348.193 85.0443L349.055 87.5878C349.274 88.2315 349.161 88.7894 348.809 89.0858L360.369 79.2979C360.72 79.0014 360.833 78.4436 360.614 77.7999Z" fill="#00C797" stroke="#00C797" stroke-linecap="round" stroke-linejoin="round"/>
<path d="M344.331 89.2032L345.79 93.5178C346.118 94.4892 345.692 95.2655 344.834 95.2421L310.653 94.2395C309.802 94.2161 308.835 93.3969 308.507 92.4255L307.048 88.1108L344.331 89.2032Z" fill="black" stroke="#00C797" stroke-linecap="round" stroke-linejoin="round"/>
<path d="M303.435 81.975C304.29 81.9984 305.257 82.8176 305.589 83.7968L307.048 88.1114L303.271 88.0022C302.417 87.9788 301.45 87.1596 301.122 86.1882L299.663 81.8696L303.439 81.9789L303.435 81.975Z" fill="black" stroke="#00C797" stroke-linecap="round" stroke-linejoin="round"/>
<path d="M289.368 51.4332L299.659 81.8659L295.883 81.7566C295.032 81.7332 294.065 80.914 293.737 79.9426L284.644 53.056C284.312 52.0769 284.741 51.3005 285.592 51.3278L289.368 51.4371V51.4332Z" fill="black" stroke="#00C797" stroke-linecap="round" stroke-linejoin="round"/>
<path d="M292.641 45.5028L294.1 49.8175C294.428 50.7888 294.003 51.5652 293.144 51.5418L289.368 51.4325L287.909 47.1179C287.581 46.1465 288.007 45.3702 288.865 45.3936L292.641 45.5028Z" fill="black" stroke="#00C797" stroke-linecap="round" stroke-linejoin="round"/>
<path d="M302.082 57.8348L308.257 76.0921L304.481 75.9829C303.63 75.9595 302.663 75.1402 302.335 74.1689L297.357 59.4499C297.03 58.4785 297.455 57.7022 298.309 57.7256L302.085 57.8348H302.082Z" fill="black" stroke="#00C797" stroke-linecap="round" stroke-linejoin="round"/>
<path d="M324.232 76.5594L325.691 80.8741C326.019 81.8455 325.594 82.6218 324.739 82.5984L311.865 82.22C311.011 82.1966 310.044 81.3773 309.716 80.406L308.257 76.0913L324.232 76.5594Z" fill="black" stroke="#00C797" stroke-linecap="round" stroke-linejoin="round"/>
<path d="M319.777 52.3223C320.628 52.3457 321.595 53.1649 321.927 54.1441L329.561 76.716L324.232 76.56L318.057 58.3027L302.082 57.8346L300.623 53.5199C300.291 52.5407 300.72 51.7644 301.575 51.7917L319.777 52.3262V52.3223Z" fill="black" stroke="#00C797" stroke-linecap="round" stroke-linejoin="round"/>
<path d="M320.986 40.3109C321.837 40.3343 322.804 41.1536 323.132 42.125L324.591 46.4396L292.637 45.5033L291.178 41.1887C290.85 40.2173 291.275 39.441 292.13 39.4644L320.986 40.3109Z" fill="black" stroke="#00C797" stroke-linecap="round" stroke-linejoin="round"/>
<path d="M328.371 46.5526C329.226 46.576 330.193 47.3952 330.525 48.3666L331.984 52.6813L328.207 52.572C327.353 52.5486 326.386 51.7294 326.058 50.758L324.599 46.4434L328.375 46.5526H328.371Z" fill="black" stroke="#00C797" stroke-linecap="round" stroke-linejoin="round"/>
<path d="M334.886 76.8724L336.345 81.187C336.673 82.1584 336.248 82.9347 335.393 82.9113L333.166 82.845C332.315 82.8216 331.348 82.0023 331.02 81.031L329.561 76.7163L334.886 76.8724Z" fill="black" stroke="#00C797" stroke-linecap="round" stroke-linejoin="round"/>
<path d="M338.155 70.9423L339.614 75.2569C339.942 76.2283 339.517 77.0046 338.659 76.9812L334.882 76.872L333.423 72.5573C333.096 71.586 333.521 70.8096 334.379 70.833L338.155 70.9423Z" fill="black" stroke="#00C797" stroke-linecap="round" stroke-linejoin="round"/>
<path d="M335.756 52.7904C336.606 52.8138 337.574 53.633 337.906 54.6122L342.879 69.3273C343.211 70.3064 342.782 71.0828 341.932 71.0555L338.155 70.9462L331.98 52.6812L335.756 52.7904Z" fill="black" stroke="#00C797" stroke-linecap="round" stroke-linejoin="round"/>
<path d="M346.047 83.2233C346.898 83.2467 347.865 84.0659 348.197 85.0451L349.059 87.5886C349.387 88.56 348.961 89.3363 348.107 89.3129L344.331 89.2037L342.872 84.8891C342.54 83.9099 342.969 83.1335 343.82 83.1609L346.047 83.2272V83.2233Z" fill="black" stroke="#00C797" stroke-linecap="round" stroke-linejoin="round"/>
<path d="M357.607 73.4345L355.379 73.3682C355.094 73.3604 354.852 73.4423 354.677 73.5945L343.118 83.3824C343.297 83.2302 343.535 83.1483 343.82 83.1561L346.048 83.2224C346.898 83.2458 347.865 84.0651 348.197 85.0443L359.756 75.2563C359.425 74.2771 358.457 73.4618 357.607 73.4345Z" fill="black" stroke="#00C797" stroke-linecap="round" stroke-linejoin="round"/>
<path d="M50.2178 96.9927C61.096 96.9927 69.9146 88.1741 69.9146 77.2959C69.9146 66.4177 61.096 57.5991 50.2178 57.5991C39.3395 57.5991 30.521 66.4177 30.521 77.2959C30.521 88.1741 39.3395 96.9927 50.2178 96.9927Z" fill="black" stroke="#00C797" stroke-linecap="round" stroke-linejoin="round"/>
<path d="M64.9212 77.3974C63.9147 76.9254 62.7171 77.3974 62.2996 78.4273C60.8172 82.1022 56.4323 90.4467 46.7927 91.855C45.911 91.9837 45.4 92.9278 45.7784 93.7353C46.5352 95.3621 47.6587 95.5221 48.0878 95.5182C48.2595 95.5182 48.4389 95.5221 48.6106 95.5377C53.6274 95.9785 58.8003 94.3673 62.76 90.6457C65.3776 88.1879 67.1097 85.1373 67.9485 81.8993C68.241 80.768 67.886 79.5626 67.0278 78.7745C66.3646 78.166 65.6078 77.7173 64.9251 77.3974H64.9212Z" fill="#00C797"/>
<path d="M45.3532 81.1589C43.309 78.8065 42.8487 78.233 41.417 76.3449C42.4183 75.3202 45.1712 72.7624 49.6757 68.6714C49.9292 71.8898 50.0268 72.475 51.2322 79.6414C48.4234 80.4255 47.9319 80.5464 45.3532 81.1589Z" fill="#EBE9E9"/>
<path d="M43.6562 88.4581C42.3571 84.3619 41.5027 81.2956 40.98 77.7339C42.1893 79.2787 42.6887 79.9185 44.9825 82.4855C47.7679 81.8457 48.4194 81.6818 50.8108 81.0342C48.4545 83.5349 45.9656 85.9106 43.6562 88.4581Z" fill="#EBE9E9"/>
<path d="M366.139 128.222L368.803 124.114C373.742 116.503 383.421 123.744 381.88 136.223C381.127 142.333 377.198 148.492 381.685 154.375C388.071 162.759 374.791 168.162 374.791 168.162" stroke="#00C797" stroke-width="7" stroke-linecap="round" stroke-linejoin="round"/>
<path d="M368.721 128.948C369.142 128.301 368.526 127.15 367.344 126.385C366.162 125.617 364.863 125.523 364.441 126.174L360.193 132.721L364.473 135.498L368.721 128.952V128.948Z" fill="#EBE9E9" stroke="#00C797" stroke-linecap="round" stroke-linejoin="round"/>
<path d="M364.476 135.505C364.897 134.856 364.281 133.708 363.099 132.941C361.917 132.174 360.617 132.078 360.196 132.727C359.775 133.375 360.392 134.523 361.574 135.291C362.755 136.058 364.055 136.154 364.476 135.505Z" fill="#00C797" stroke="#00C797" stroke-linecap="round" stroke-linejoin="round"/>
<path d="M346.286 205.121L273.179 184.559V240.661L346.286 257.958V205.121Z" fill="black"/>
<path d="M289.415 189.614C284.777 188.35 278.644 196.019 275.718 206.748C272.792 217.476 274.181 227.197 278.82 228.461L335.686 243.972L346.282 205.125L289.415 189.614Z" fill="#B5DF77" stroke="#00C797" stroke-linecap="round" stroke-linejoin="round"/>
<path d="M349.407 226.864C352.334 216.137 350.947 206.415 346.31 205.15C341.673 203.884 335.541 211.555 332.614 222.283C329.687 233.01 331.074 242.732 335.711 243.997C340.349 245.262 346.481 237.592 349.407 226.864Z" fill="#00C797" stroke="#00C797" stroke-linecap="round" stroke-linejoin="round"/>
<path d="M344.932 225.642C346.299 220.631 345.652 216.089 343.486 215.499C341.32 214.908 338.456 218.491 337.089 223.503C335.722 228.514 336.369 233.056 338.535 233.647C340.701 234.237 343.565 230.654 344.932 225.642Z" stroke="#00C797" stroke-linecap="round" stroke-linejoin="round"/>
<path d="M254.118 265.429L321.915 280.983L340.988 250.175V200.877L332.983 179.862L376.902 152.507L384.93 173.553C385.515 175.087 385.332 176.807 384.439 178.184L365.167 207.872C364.387 209.077 362.647 210.481 361.305 210.992L354.868 213.446V252.372C354.868 257.194 352.719 264.45 350.093 268.495L332.994 294.832C330.369 298.877 324.412 301.147 319.758 299.88L269.621 286.206C264.967 284.938 259.755 280.21 258.034 275.704L254.488 266.412L254.11 265.421L254.118 265.429Z" fill="black" stroke="#00C797" stroke-linecap="round" stroke-linejoin="round"/>
<path d="M325.029 297.32L319.692 283.327" stroke="#00C797" stroke-linecap="round" stroke-linejoin="round"/>
<path d="M271.252 173.249V226.336C271.252 230.174 269.543 235.948 267.452 239.166L254.703 258.805C252.078 262.85 253.736 267.2 258.39 268.468L313.45 283.483C318.104 284.751 324.057 282.481 326.687 278.435L340.181 257.646C341.858 255.06 343.231 250.425 343.231 247.343V192.883L271.252 173.253V173.249ZM339.424 244.616C339.424 246.461 337.965 247.577 336.186 247.09L278.079 231.243C276.296 230.756 274.841 228.848 274.841 227.003V194.073C274.841 192.228 276.3 191.112 278.079 191.6L336.186 207.446C337.969 207.934 339.424 209.842 339.424 211.687V244.616Z" fill="black" stroke="#00C797" stroke-linecap="round" stroke-linejoin="round"/>
<path d="M314.566 250.444C314.148 251.088 314.414 251.778 315.151 251.981L330.155 256.073C330.896 256.276 331.84 255.914 332.257 255.27L334.329 252.075C334.746 251.431 334.481 250.741 333.744 250.538L318.74 246.445C317.999 246.243 317.055 246.605 316.637 247.249L314.566 250.444Z" fill="black" stroke="#00C797" stroke-linecap="round" stroke-linejoin="round"/>
<path d="M309.959 257.541C309.541 258.185 309.806 258.875 310.544 259.078L325.547 263.17C326.289 263.373 327.233 263.01 327.65 262.367L329.722 259.171C330.139 258.528 329.874 257.837 329.136 257.634L314.133 253.542C313.392 253.339 312.447 253.702 312.03 254.346L309.959 257.541Z" fill="black" stroke="#00C797" stroke-linecap="round" stroke-linejoin="round"/>
<path d="M305.355 264.637C304.938 265.281 305.203 265.971 305.94 266.174L320.944 270.266C321.685 270.469 322.629 270.106 323.047 269.463L325.118 266.268C325.536 265.624 325.27 264.933 324.533 264.731L309.529 260.638C308.788 260.435 307.844 260.798 307.427 261.442L305.355 264.637Z" fill="black" stroke="#00C797" stroke-linecap="round" stroke-linejoin="round"/>
<path d="M300.748 271.733C300.331 272.376 300.596 273.067 301.333 273.27L316.337 277.362C317.078 277.565 318.022 277.202 318.44 276.558L320.511 273.363C320.929 272.72 320.663 272.029 319.926 271.826L304.922 267.734C304.181 267.531 303.237 267.894 302.82 268.538L300.748 271.733Z" fill="black" stroke="#00C797" stroke-linecap="round" stroke-linejoin="round"/>
<path d="M286.684 163.644L278.902 164.343L279.327 165.392L348.31 184.207L356.948 183.431C358.032 183.333 359.015 182.744 359.608 181.827L376.566 155.702C377.183 154.75 377.307 153.564 376.906 152.507L375.681 149.296C375.279 148.239 374.393 147.435 373.301 147.139L314.577 131.125L305.566 134.561L286.684 163.648V163.644Z" fill="black" stroke="#00C797" stroke-linecap="round" stroke-linejoin="round"/>
<path d="M288.561 163.984L281.211 164.643L281.613 165.634L346.754 183.4L355.099 182.651C356.004 182.569 356.823 182.077 357.318 181.313L374.565 154.746C374.811 154.368 374.866 153.896 374.713 153.47L373.422 149.835C373.262 149.386 372.895 149.047 372.435 148.922L314.921 133.235L306.412 136.481L288.561 163.984Z" fill="#00C797" stroke="#00C797" stroke-linecap="round" stroke-linejoin="round"/>
<path d="M357.459 177.045L336.978 171.462L347.218 155.686L367.695 161.272L357.459 177.045Z" fill="black" stroke="#00C797" stroke-linecap="round" stroke-linejoin="round"/>
<path d="M346.391 153.517L336.151 169.293L336.978 171.462L357.458 177.044L367.695 161.272L366.868 159.103L346.391 153.517Z" fill="black" stroke="#00C797" stroke-linecap="round" stroke-linejoin="round"/>
<path d="M323.008 166.329L320.039 170.905L320.394 171.837L322.871 172.512L325.84 167.936L325.485 167.004L323.008 166.329Z" fill="black" stroke="#00C797" stroke-linecap="round" stroke-linejoin="round"/>
<path d="M364.687 153.306L363.236 155.542L363.591 156.474L366.068 157.149L367.52 154.913L367.165 153.981L364.687 153.306Z" fill="black" stroke="#00C797" stroke-linecap="round" stroke-linejoin="round"/>
<path d="M366.868 159.104L356.631 174.88L336.151 169.293" stroke="#00C797" stroke-linecap="round" stroke-linejoin="round"/>
<path d="M357.459 177.045L356.632 174.88" stroke="#00C797" stroke-linecap="round" stroke-linejoin="round"/>
<path d="M362.432 160.729C362.6 160.729 362.737 160.593 362.737 160.425C362.737 160.257 362.6 160.121 362.432 160.121C362.264 160.121 362.128 160.257 362.128 160.425C362.128 160.593 362.264 160.729 362.432 160.729Z" fill="#00C797"/>
<path d="M359.659 159.973C359.827 159.973 359.963 159.837 359.963 159.669C359.963 159.5 359.827 159.364 359.659 159.364C359.491 159.364 359.354 159.5 359.354 159.669C359.354 159.837 359.491 159.973 359.659 159.973Z" fill="#00C797"/>
<path d="M356.881 159.216C357.049 159.216 357.185 159.08 357.185 158.912C357.185 158.744 357.049 158.608 356.881 158.608C356.713 158.608 356.577 158.744 356.577 158.912C356.577 159.08 356.713 159.216 356.881 159.216Z" fill="#00C797"/>
<path d="M354.107 158.46C354.275 158.46 354.412 158.323 354.412 158.155C354.412 157.987 354.275 157.851 354.107 157.851C353.939 157.851 353.803 157.987 353.803 158.155C353.803 158.323 353.939 158.46 354.107 158.46Z" fill="#00C797"/>
<path d="M351.33 157.702C351.498 157.702 351.634 157.566 351.634 157.398C351.634 157.23 351.498 157.094 351.33 157.094C351.162 157.094 351.025 157.23 351.025 157.398C351.025 157.566 351.162 157.702 351.33 157.702Z" fill="#00C797"/>
<path d="M348.556 156.945C348.724 156.945 348.86 156.809 348.86 156.641C348.86 156.473 348.724 156.337 348.556 156.337C348.388 156.337 348.252 156.473 348.252 156.641C348.252 156.809 348.388 156.945 348.556 156.945Z" fill="#00C797"/>
<path d="M361.005 162.93C361.173 162.93 361.309 162.794 361.309 162.626C361.309 162.458 361.173 162.322 361.005 162.322C360.837 162.322 360.7 162.458 360.7 162.626C360.7 162.794 360.837 162.93 361.005 162.93Z" fill="#00C797"/>
<path d="M358.231 162.174C358.399 162.174 358.535 162.038 358.535 161.87C358.535 161.702 358.399 161.565 358.231 161.565C358.063 161.565 357.927 161.702 357.927 161.87C357.927 162.038 358.063 162.174 358.231 162.174Z" fill="#00C797"/>
<path d="M355.453 161.417C355.621 161.417 355.758 161.28 355.758 161.112C355.758 160.944 355.621 160.808 355.453 160.808C355.285 160.808 355.149 160.944 355.149 161.112C355.149 161.28 355.285 161.417 355.453 161.417Z" fill="#00C797"/>
<path d="M352.68 160.66C352.848 160.66 352.984 160.524 352.984 160.356C352.984 160.188 352.848 160.052 352.68 160.052C352.512 160.052 352.375 160.188 352.375 160.356C352.375 160.524 352.512 160.66 352.68 160.66Z" fill="#00C797"/>
<path d="M349.902 159.903C350.07 159.903 350.206 159.767 350.206 159.599C350.206 159.431 350.07 159.294 349.902 159.294C349.734 159.294 349.598 159.431 349.598 159.599C349.598 159.767 349.734 159.903 349.902 159.903Z" fill="#00C797"/>
<path d="M347.129 159.147C347.297 159.147 347.433 159.01 347.433 158.842C347.433 158.674 347.297 158.538 347.129 158.538C346.96 158.538 346.824 158.674 346.824 158.842C346.824 159.01 346.96 159.147 347.129 159.147Z" fill="#00C797"/>
<path d="M359.577 165.131C359.745 165.131 359.881 164.994 359.881 164.826C359.881 164.658 359.745 164.522 359.577 164.522C359.409 164.522 359.273 164.658 359.273 164.826C359.273 164.994 359.409 165.131 359.577 165.131Z" fill="#00C797"/>
<path d="M356.799 164.374C356.967 164.374 357.104 164.238 357.104 164.07C357.104 163.902 356.967 163.766 356.799 163.766C356.631 163.766 356.495 163.902 356.495 164.07C356.495 164.238 356.631 164.374 356.799 164.374Z" fill="#00C797"/>
<path d="M354.026 163.617C354.194 163.617 354.33 163.481 354.33 163.313C354.33 163.145 354.194 163.009 354.026 163.009C353.858 163.009 353.721 163.145 353.721 163.313C353.721 163.481 353.858 163.617 354.026 163.617Z" fill="#00C797"/>
<path d="M351.252 162.861C351.42 162.861 351.556 162.725 351.556 162.557C351.556 162.389 351.42 162.252 351.252 162.252C351.084 162.252 350.948 162.389 350.948 162.557C350.948 162.725 351.084 162.861 351.252 162.861Z" fill="#00C797"/>
<path d="M348.474 162.104C348.642 162.104 348.779 161.967 348.779 161.799C348.779 161.631 348.642 161.495 348.474 161.495C348.306 161.495 348.17 161.631 348.17 161.799C348.17 161.967 348.306 162.104 348.474 162.104Z" fill="#00C797"/>
<path d="M345.701 161.347C345.869 161.347 346.005 161.211 346.005 161.043C346.005 160.875 345.869 160.738 345.701 160.738C345.532 160.738 345.396 160.875 345.396 161.043C345.396 161.211 345.532 161.347 345.701 161.347Z" fill="#00C797"/>
<path d="M358.149 167.33C358.317 167.33 358.453 167.194 358.453 167.025C358.453 166.857 358.317 166.721 358.149 166.721C357.981 166.721 357.844 166.857 357.844 167.025C357.844 167.194 357.981 167.33 358.149 167.33Z" fill="#00C797"/>
<path d="M355.371 166.573C355.539 166.573 355.676 166.437 355.676 166.269C355.676 166.101 355.539 165.965 355.371 165.965C355.203 165.965 355.067 166.101 355.067 166.269C355.067 166.437 355.203 166.573 355.371 166.573Z" fill="#00C797"/>
<path d="M352.597 165.817C352.765 165.817 352.902 165.68 352.902 165.512C352.902 165.344 352.765 165.208 352.597 165.208C352.429 165.208 352.293 165.344 352.293 165.512C352.293 165.68 352.429 165.817 352.597 165.817Z" fill="#00C797"/>
<path d="M349.824 165.06C349.992 165.06 350.128 164.924 350.128 164.756C350.128 164.588 349.992 164.452 349.824 164.452C349.656 164.452 349.52 164.588 349.52 164.756C349.52 164.924 349.656 165.06 349.824 165.06Z" fill="#00C797"/>
<path d="M347.046 164.302C347.214 164.302 347.351 164.166 347.351 163.998C347.351 163.83 347.214 163.694 347.046 163.694C346.878 163.694 346.742 163.83 346.742 163.998C346.742 164.166 346.878 164.302 347.046 164.302Z" fill="#00C797"/>
<path d="M344.273 163.546C344.441 163.546 344.577 163.41 344.577 163.242C344.577 163.074 344.441 162.938 344.273 162.938C344.105 162.938 343.968 163.074 343.968 163.242C343.968 163.41 344.105 163.546 344.273 163.546Z" fill="#00C797"/>
<path d="M356.722 169.53C356.89 169.53 357.026 169.394 357.026 169.226C357.026 169.058 356.89 168.922 356.722 168.922C356.553 168.922 356.417 169.058 356.417 169.226C356.417 169.394 356.553 169.53 356.722 169.53Z" fill="#00C797"/>
<path d="M353.944 168.774C354.112 168.774 354.248 168.638 354.248 168.47C354.248 168.302 354.112 168.166 353.944 168.166C353.776 168.166 353.64 168.302 353.64 168.47C353.64 168.638 353.776 168.774 353.944 168.774Z" fill="#00C797"/>
<path d="M351.17 168.017C351.338 168.017 351.474 167.881 351.474 167.713C351.474 167.545 351.338 167.409 351.17 167.409C351.002 167.409 350.866 167.545 350.866 167.713C350.866 167.881 351.002 168.017 351.17 168.017Z" fill="#00C797"/>
<path d="M348.396 167.261C348.565 167.261 348.701 167.125 348.701 166.957C348.701 166.789 348.565 166.652 348.396 166.652C348.228 166.652 348.092 166.789 348.092 166.957C348.092 167.125 348.228 167.261 348.396 167.261Z" fill="#00C797"/>
<path d="M345.619 166.503C345.787 166.503 345.923 166.367 345.923 166.199C345.923 166.031 345.787 165.895 345.619 165.895C345.451 165.895 345.315 166.031 345.315 166.199C345.315 166.367 345.451 166.503 345.619 166.503Z" fill="#00C797"/>
<path d="M342.845 165.747C343.013 165.747 343.149 165.611 343.149 165.442C343.149 165.274 343.013 165.138 342.845 165.138C342.677 165.138 342.541 165.274 342.541 165.442C342.541 165.611 342.677 165.747 342.845 165.747Z" fill="#00C797"/>
<path d="M355.293 171.732C355.461 171.732 355.597 171.595 355.597 171.427C355.597 171.259 355.461 171.123 355.293 171.123C355.125 171.123 354.989 171.259 354.989 171.427C354.989 171.595 355.125 171.732 355.293 171.732Z" fill="#00C797"/>
<path d="M352.516 170.975C352.684 170.975 352.82 170.839 352.82 170.67C352.82 170.502 352.684 170.366 352.516 170.366C352.348 170.366 352.212 170.502 352.212 170.67C352.212 170.839 352.348 170.975 352.516 170.975Z" fill="#00C797"/>
<path d="M349.742 170.218C349.91 170.218 350.046 170.082 350.046 169.914C350.046 169.746 349.91 169.61 349.742 169.61C349.574 169.61 349.438 169.746 349.438 169.914C349.438 170.082 349.574 170.218 349.742 170.218Z" fill="#00C797"/>
<path d="M346.965 169.462C347.133 169.462 347.269 169.325 347.269 169.157C347.269 168.989 347.133 168.853 346.965 168.853C346.797 168.853 346.66 168.989 346.66 169.157C346.66 169.325 346.797 169.462 346.965 169.462Z" fill="#00C797"/>
<path d="M344.191 168.704C344.359 168.704 344.495 168.568 344.495 168.4C344.495 168.232 344.359 168.096 344.191 168.096C344.023 168.096 343.886 168.232 343.886 168.4C343.886 168.568 344.023 168.704 344.191 168.704Z" fill="#00C797"/>
<path d="M341.417 167.947C341.585 167.947 341.721 167.811 341.721 167.643C341.721 167.475 341.585 167.339 341.417 167.339C341.249 167.339 341.113 167.475 341.113 167.643C341.113 167.811 341.249 167.947 341.417 167.947Z" fill="#00C797"/>
<path d="M349.582 181.352L353.14 175.871" stroke="black" stroke-linecap="round" stroke-linejoin="round"/>
<path d="M346.891 180.614L350.448 175.133" stroke="black" stroke-linecap="round" stroke-linejoin="round"/>
<path d="M344.195 179.881L347.753 174.4" stroke="black" stroke-linecap="round" stroke-linejoin="round"/>
<path d="M341.499 179.147L345.057 173.662" stroke="black" stroke-linecap="round" stroke-linejoin="round"/>
<path d="M338.803 178.41L342.361 172.929" stroke="black" stroke-linecap="round" stroke-linejoin="round"/>
<path d="M316.704 138.256L374.218 153.943C374.421 153.997 374.604 154.102 374.76 154.231C374.811 153.978 374.799 153.716 374.709 153.47L373.418 149.835C373.258 149.386 372.892 149.047 372.431 148.922L314.917 133.235L306.409 136.481L288.557 163.984L281.207 164.643L281.609 165.634L290.886 168.166L308.191 141.502L316.7 138.256H316.704Z" fill="black" stroke="#00C797" stroke-miterlimit="10"/>
<path d="M276.467 164.183C277.513 162.572 279.881 161.67 281.734 162.174L349.247 180.587C351.1 181.09 351.759 182.822 350.713 184.43L345.989 191.709C344.944 193.32 342.576 194.221 340.723 193.718L273.21 175.305C271.357 174.802 270.697 173.07 271.743 171.462L276.467 164.183Z" fill="black" stroke="#00C797" stroke-linecap="round" stroke-linejoin="round"/>
<path d="M280.876 169.52C281.316 168.837 282.323 168.455 283.107 168.67L341.386 184.563C342.17 184.777 342.451 185.511 342.006 186.19C341.562 186.868 340.559 187.255 339.775 187.04L281.496 171.147C280.712 170.932 280.431 170.199 280.876 169.52Z" fill="black" stroke="#00C797" stroke-linecap="round" stroke-linejoin="round"/>
<path d="M362.959 207.997L359.042 197.725C358.684 196.785 357.599 196.243 356.632 196.52C355.664 196.797 354.872 197.85 354.872 198.856V219.977" stroke="#00C797" stroke-linecap="round" stroke-linejoin="round"/>
<path d="M300.214 278.911L323.203 243.548L321.549 240.115C318.799 219.915 326.148 210.24 332.074 206.323V191.362L336.997 185.83L315.432 179.749L258.924 267.653L300.214 278.915V278.911Z" fill="black"/>
<path d="M369.08 135.237L366.97 129.706L312.662 114.897L305.086 117.788L283.65 150.815L285.76 156.346L287.523 160.969L341.827 175.782L349.403 172.891L370.844 139.864L369.08 135.237Z" fill="black" stroke="#00C797" stroke-linecap="round" stroke-linejoin="round"/>
<path d="M349.403 172.891L347.64 168.268L340.064 171.155L285.76 156.346L287.524 160.969L341.827 175.782L349.403 172.891Z" fill="black" stroke="#00C797" stroke-miterlimit="10"/>
<path d="M285.76 156.346L283.65 150.815L305.086 117.788L312.662 114.897L366.97 129.706L369.08 135.237L347.64 168.268L340.064 171.155L285.76 156.346Z" fill="#00C797" stroke="#00C797" stroke-linecap="round" stroke-linejoin="round"/>
<path d="M365.222 138.712L362.277 139.301L360.712 138.872L362.936 144.7L365.815 140.265L365.222 138.712Z" fill="#B5DF77" stroke="black" stroke-linecap="round" stroke-linejoin="round"/>
<path d="M359.031 138.416C358.376 138.237 357.541 138.557 357.17 139.126L356.281 140.495L354.915 140.769L355.508 142.321C355.602 142.567 355.824 142.766 356.152 142.852L362.936 144.701L360.712 138.873L359.027 138.412L359.031 138.416Z" fill="#00C797" stroke="black" stroke-linecap="round" stroke-linejoin="round"/>
<path d="M362.343 143.148L355.559 141.299C354.904 141.12 354.673 140.511 355.04 139.941L356.577 137.573C356.948 137.004 357.783 136.688 358.438 136.863L365.222 138.713L362.343 143.148Z" fill="#B5DF77" stroke="black" stroke-linecap="round" stroke-linejoin="round"/>
<path d="M360.997 145.224L358.048 145.813L356.487 145.387L358.707 151.216L361.59 146.78L360.997 145.224Z" fill="#00C797" stroke="black" stroke-linecap="round" stroke-linejoin="round"/>
<path d="M354.802 144.928C354.147 144.748 353.312 145.068 352.941 145.638L352.052 147.007L350.687 147.28L351.279 148.833C351.373 149.079 351.595 149.278 351.923 149.363L358.707 151.213L356.484 145.384L354.798 144.924L354.802 144.928Z" fill="black" stroke="black" stroke-linecap="round" stroke-linejoin="round"/>
<path d="M358.118 149.663L351.334 147.814C350.679 147.635 350.449 147.026 350.815 146.457L352.352 144.089C352.723 143.519 353.558 143.203 354.213 143.379L360.997 145.228L358.118 149.663Z" fill="#00C797" stroke="black" stroke-linecap="round" stroke-linejoin="round"/>
<path d="M356.768 151.739L353.819 152.324L352.259 151.899L354.482 157.727L357.361 153.291L356.768 151.739Z" fill="#00C797" stroke="black" stroke-linecap="round" stroke-linejoin="round"/>
<path d="M350.573 151.442C349.918 151.263 349.083 151.582 348.713 152.152L347.823 153.521L346.458 153.794L347.051 155.347C347.144 155.593 347.367 155.792 347.694 155.878L354.478 157.727L352.255 151.898L350.57 151.438L350.573 151.442Z" fill="black" stroke="black" stroke-linecap="round" stroke-linejoin="round"/>
<path d="M353.889 156.174L347.105 154.325C346.45 154.145 346.22 153.537 346.587 152.967L348.124 150.599C348.494 150.03 349.329 149.714 349.984 149.889L356.768 151.738L353.889 156.174Z" fill="#00C797" stroke="black" stroke-linecap="round" stroke-linejoin="round"/>
<path d="M352.539 158.251L349.594 158.84L348.03 158.415L350.253 164.239L353.132 159.804L352.539 158.251Z" fill="#00C797" stroke="black" stroke-linecap="round" stroke-linejoin="round"/>
<path d="M346.348 157.954C345.693 157.775 344.858 158.095 344.488 158.664L343.598 160.034L342.233 160.307L342.826 161.859C342.919 162.105 343.142 162.304 343.469 162.39L350.253 164.239L348.03 158.411L346.344 157.95L346.348 157.954Z" fill="black" stroke="black" stroke-linecap="round" stroke-linejoin="round"/>
<path d="M349.66 162.686L342.876 160.837C342.221 160.658 341.991 160.049 342.357 159.479L343.894 157.112C344.265 156.542 345.1 156.226 345.755 156.402L352.539 158.251L349.66 162.686Z" fill="#00C797" stroke="black" stroke-linecap="round" stroke-linejoin="round"/>
<path d="M312.662 114.897L305.086 117.788L283.65 150.815L285.76 156.346L292.665 158.231L344.413 123.554L312.662 114.897Z" fill="black" stroke="#00C797" stroke-linecap="round" stroke-linejoin="round"/>
<path d="M347.64 168.268L340.064 171.155L285.76 156.346" stroke="#00C797" stroke-linecap="round" stroke-linejoin="round"/>
<path d="M340.064 171.155L341.324 174.456" stroke="#00C797" stroke-linecap="round" stroke-linejoin="round"/>
<path d="M290.188 153.654C288.557 153.209 287.972 151.684 288.897 150.264L308.227 120.483C309.148 119.063 311.239 118.267 312.869 118.712L354.03 129.935C355.661 130.38 356.246 131.905 355.321 133.325L335.991 163.107C335.07 164.527 332.98 165.322 331.349 164.878L290.188 153.654Z" fill="#B5DF77" stroke="#00C797" stroke-linecap="round" stroke-linejoin="round"/>
<path d="M317.484 142.071L342.092 148.781" stroke="#00C797" stroke-linecap="round" stroke-linejoin="round"/>
<path d="M314.059 147.345L338.667 154.055" stroke="#00C797" stroke-linecap="round" stroke-linejoin="round"/>
<path d="M310.634 152.619L335.242 159.333" stroke="#00C797" stroke-linecap="round" stroke-linejoin="round"/>
<path d="M307.075 128.448L305.917 128.132C305.636 128.054 305.542 127.785 305.71 127.527L307.083 125.413C307.251 125.156 307.614 125.011 307.895 125.085L309.053 125.401L307.079 128.444L307.075 128.448Z" fill="black"/>
<path d="M314.351 126.302C314.183 126.56 313.821 126.704 313.54 126.63L309.05 125.405L309.736 124.348C309.904 124.09 310.267 123.946 310.548 124.02L314.531 125.104C314.812 125.182 314.905 125.452 314.737 125.709L314.355 126.298L314.351 126.302Z" fill="black"/>
<path d="M311.39 130.866C311.222 131.124 310.859 131.268 310.579 131.194L306.595 130.11C306.315 130.032 306.221 129.762 306.389 129.505L307.075 128.448L311.565 129.673C311.846 129.751 311.94 130.02 311.772 130.277L311.39 130.866Z" fill="black"/>
<path d="M308.733 131.931C308.566 132.189 308.203 132.333 307.922 132.259L307.274 132.083C306.994 132.005 306.9 131.736 307.068 131.479L307.754 130.421L309.42 130.878L308.733 131.935V131.931Z" fill="black"/>
<path d="M313.372 124.788L311.706 124.332L312.393 123.275C312.56 123.017 312.923 122.873 313.204 122.947L313.852 123.123C314.132 123.201 314.226 123.47 314.058 123.727L313.372 124.785V124.788Z" fill="black"/>
<path d="M345.303 140.662L339.143 138.98C338.862 138.902 338.495 139.051 338.331 139.308L337.949 139.897C337.781 140.155 337.875 140.424 338.156 140.502L343.805 142.043C344.085 142.121 344.452 141.972 344.616 141.715L345.303 140.658V140.662Z" fill="black"/>
<path d="M349.633 137.018C349.8 136.761 349.707 136.492 349.426 136.414L348.267 136.098L345.302 140.662L346.461 140.978C346.742 141.056 347.109 140.908 347.272 140.65L349.633 137.014V137.018Z" fill="black"/>
<path d="M348.954 135.041C349.122 134.783 349.028 134.514 348.747 134.436L344.257 133.211L343.571 134.268C343.403 134.526 343.496 134.795 343.777 134.873L348.268 136.098L348.954 135.041Z" fill="black"/>
<path d="M345.24 131.689L343.574 131.233L342.888 132.29C342.72 132.548 342.814 132.817 343.095 132.895L344.253 133.211L345.24 131.689Z" fill="black"/>
<path d="M352.594 132.454C352.762 132.197 352.668 131.928 352.387 131.85L345.073 129.856C344.792 129.778 344.425 129.926 344.261 130.184L343.574 131.241L351.4 133.375C351.681 133.453 352.048 133.305 352.212 133.047L352.594 132.458V132.454Z" fill="black"/>
<path d="M326.905 126.688L321.904 125.323L322.59 124.266C322.758 124.008 323.121 123.864 323.402 123.938L327.385 125.022C327.666 125.1 327.759 125.37 327.591 125.627L326.905 126.684V126.688Z" fill="black"/>
<path d="M323.932 134.288C323.764 134.545 323.402 134.69 323.121 134.616L321.962 134.3L326.901 126.692L328.059 127.008C328.34 127.086 328.434 127.356 328.266 127.613L323.932 134.292V134.288Z" fill="black"/>
<path d="M316.965 132.934L315.806 132.618C315.525 132.54 315.432 132.271 315.599 132.013L319.934 125.334C320.101 125.077 320.464 124.933 320.745 125.007L321.904 125.323L316.965 132.93V132.934Z" fill="black"/>
<path d="M321.279 135.353C321.111 135.61 320.749 135.755 320.468 135.68L316.485 134.596C316.204 134.518 316.11 134.249 316.278 133.991L316.965 132.934L321.966 134.299L321.279 135.357V135.353Z" fill="black"/>
<path d="M339.42 133.687L338.261 133.371L335.296 137.935L336.455 138.251C336.736 138.329 337.102 138.181 337.266 137.923L339.627 134.287C339.794 134.03 339.701 133.761 339.42 133.683V133.687Z" fill="black"/>
<path d="M329.144 136.254L330.303 136.57L333.268 132.005L332.109 131.689C331.828 131.611 331.461 131.759 331.297 132.017L328.937 135.653C328.77 135.91 328.863 136.179 329.144 136.257V136.254Z" fill="black"/>
<path d="M338.265 133.371L333.264 132.005L334.251 130.484L339.252 131.849L338.265 133.371Z" fill="black"/>
<path d="M334.251 130.484L333.092 130.168C332.811 130.09 332.718 129.821 332.885 129.563L333.268 128.974C333.435 128.717 333.798 128.572 334.079 128.646L335.238 128.962L334.251 130.484Z" fill="black"/>
<path d="M340.239 130.328L341.398 130.644C341.678 130.722 341.772 130.991 341.604 131.249L341.222 131.838C341.054 132.095 340.691 132.24 340.411 132.166L339.252 131.85L340.239 130.328Z" fill="black"/>
<path d="M334.613 138.992C334.446 139.25 334.083 139.394 333.802 139.32L329.819 138.236C329.538 138.158 329.444 137.888 329.612 137.631L330.299 136.574L335.3 137.939L334.613 138.996V138.992Z" fill="black"/>
<path d="M335.924 127.905C336.092 127.648 336.455 127.503 336.736 127.578L340.719 128.662C341 128.74 341.093 129.009 340.926 129.267L340.239 130.324L335.238 128.959L335.924 127.901V127.905Z" fill="black"/>
<path d="M326.281 136.718C326.113 136.975 325.75 137.12 325.469 137.046L324.822 136.87C324.541 136.792 324.447 136.523 324.615 136.265L324.997 135.676C325.165 135.419 325.528 135.274 325.808 135.349L326.456 135.524C326.737 135.602 326.831 135.871 326.663 136.129L326.281 136.718Z" fill="black"/>
<path d="M307.559 139.394L300.21 140.533L304.091 144.735L311.437 143.596L307.559 139.394Z" fill="#B5DF77" stroke="#00C797" stroke-linecap="round" stroke-linejoin="round"/>
<path d="M304.091 144.735L300.21 140.533L296.745 145.874L300.623 150.075L304.091 144.735Z" fill="#B5DF77" stroke="#00C797" stroke-linecap="round" stroke-linejoin="round"/>
<path d="M307.973 148.936L311.437 143.595L304.091 144.734L300.623 150.075L307.973 148.936Z" fill="#B5DF77" stroke="#00C797" stroke-linecap="round" stroke-linejoin="round"/>
<path d="M326.281 136.718C326.113 136.976 325.75 137.12 325.469 137.046L324.822 136.87C324.541 136.792 324.447 136.523 324.615 136.266L324.997 135.677C325.165 135.419 325.528 135.275 325.809 135.349L326.456 135.525C326.737 135.603 326.831 135.872 326.663 136.129L326.281 136.718Z" fill="black"/>
<path d="M323.098 141.81C322.93 142.067 322.567 142.211 322.286 142.137L318.682 141.154C318.401 141.076 318.307 140.807 318.475 140.549L318.857 139.96C319.025 139.703 319.388 139.559 319.669 139.633L323.273 140.616C323.554 140.694 323.648 140.963 323.48 141.22L323.098 141.81Z" fill="black"/>
<path d="M323.546 147.993C323.379 148.251 323.016 148.395 322.735 148.321L315.338 146.304C315.057 146.226 314.964 145.957 315.132 145.699L315.514 145.11C315.682 144.853 316.044 144.708 316.325 144.783L323.722 146.799C324.003 146.878 324.096 147.147 323.929 147.404L323.546 147.993Z" fill="black"/>
<path d="M315.069 151.839C314.902 152.097 314.539 152.241 314.258 152.167L311.82 151.5C311.539 151.422 311.445 151.153 311.613 150.895L311.995 150.306C312.163 150.049 312.526 149.904 312.807 149.978L315.245 150.645C315.526 150.724 315.619 150.993 315.452 151.25L315.069 151.839Z" fill="black"/>
<path d="M339.939 185.475C324.108 181.157 314.48 203.249 314.48 221.802V244.117C314.48 259.858 307.856 268.167 300.252 267.726C299.617 267.691 299.016 267.594 298.458 267.442L241.568 251.927C242.134 252.083 242.742 252.181 243.386 252.22C250.989 252.66 257.613 244.347 257.613 228.61V206.295C257.613 187.746 267.245 165.654 283.072 169.968L339.939 185.479V185.475Z" fill="#B5DF77" stroke="#00C797" stroke-linecap="round" stroke-linejoin="round"/>
<path d="M275.231 174.303L283.649 176.601" stroke="black" stroke-linecap="round" stroke-linejoin="round"/>
<path d="M289.173 183.041L301.025 186.275" stroke="black" stroke-linecap="round" stroke-linejoin="round"/>
<path d="M271.014 178.091L287.086 182.476" stroke="black" stroke-linecap="round" stroke-linejoin="round"/>
<path d="M269.364 199.25L299.375 207.435" stroke="black" stroke-linecap="round" stroke-linejoin="round"/>
<path d="M241.58 251.931C234.366 249.964 233.711 238.854 243.397 229.39C250.618 222.337 249.444 209.935 243.394 200.338L230.122 179.292C228.218 176.272 226.01 174.497 223.669 173.85L280.509 189.353C282.861 189.992 285.077 191.771 286.989 194.803L300.26 215.849C306.311 225.446 307.485 237.844 300.264 244.901C290.566 254.373 291.572 265.569 298.47 267.449L241.58 251.935V251.931Z" fill="#00C797" stroke="#00C797" stroke-linecap="round" stroke-linejoin="round"/>
<path d="M267.709 250.566L238.248 231.974L211.151 224.3C209.633 223.871 208.166 224.788 207.89 226.34C207.624 227.819 208.291 229.883 209.368 230.924L211.58 233.062C212.992 234.427 215.696 235.964 217.592 236.475L233.497 240.774L236.898 244.906L253.888 258.532L267.705 250.57L267.709 250.566Z" fill="black"/>
<path d="M253.891 258.528L245.274 254.421L240.979 251.229L224.504 250.878C222.542 250.835 219.546 249.997 217.849 249.01L215.188 247.465C213.889 246.712 212.75 244.867 212.653 243.369C212.551 241.797 213.757 240.552 215.329 240.607L243.475 241.547L263.297 248.128L253.891 258.532V258.528Z" fill="black"/>
<path d="M251.812 244.633L254.055 241.317C254.707 240.357 254.617 238.851 253.853 237.977L247.919 231.154L244.806 225.736L229.884 218.866C226.393 217.259 221.672 213.408 219.39 210.311L218.93 209.686C217.892 208.274 217.525 205.77 218.118 204.12C218.742 202.387 220.611 201.615 222.273 202.407L251.988 216.525L282.296 243.681L273.085 254.194L251.808 244.633H251.812Z" fill="black"/>
<path d="M284.765 236.136L275.375 217.844L271.298 209.901C270.46 208.267 268.649 205.922 267.28 204.693L244.634 184.399C243.577 183.452 241.973 183.576 241.072 184.673C239.824 186.198 239.254 188.991 239.808 190.883C240.487 193.189 242.469 196.427 244.221 198.077L248.695 202.298L255.916 211.856C255.916 211.856 255.304 216.424 256.423 219.716L259.653 229.223" fill="black"/>
<path d="M284.765 236.136L275.375 217.844L271.298 209.901C270.46 208.267 268.649 205.922 267.28 204.693L244.634 184.399C243.577 183.452 241.973 183.576 241.072 184.673C239.824 186.198 239.254 188.991 239.808 190.883C240.487 193.189 242.469 196.427 244.221 198.077L248.695 202.298L255.916 211.856C255.916 211.856 255.304 216.424 256.423 219.716L259.653 229.223" stroke="#00C797" stroke-linecap="round" stroke-linejoin="round"/>
<path d="M256.646 207.865L256.213 209.909" stroke="#00C797" stroke-linecap="round" stroke-linejoin="round"/>
<path d="M180.051 270.64L203.863 195.087C208.623 179.982 216.729 171.934 223.673 173.849L280.513 189.352C273.577 187.468 265.486 195.512 260.73 210.598L236.918 286.151L180.051 270.64Z" fill="#B5DF77" stroke="#00C797" stroke-linecap="round" stroke-linejoin="round"/>
<path d="M238.252 231.968L211.155 224.295C209.637 223.866 208.17 224.782 207.893 226.335C207.628 227.813 208.295 229.877 209.372 230.919L211.584 233.057C212.996 234.422 215.699 235.959 217.595 236.47L233.5 240.769L233.875 241.222L215.329 240.601C213.753 240.547 212.551 241.791 212.653 243.363C212.75 244.861 213.893 246.703 215.188 247.46L217.849 249.004C219.546 249.991 222.542 250.83 224.504 250.873L240.979 251.224L245.274 254.415L246.705 255.098L248.754 248.599L251.383 240.254L238.252 231.964V231.968Z" fill="#00C797"/>
<path d="M251.992 216.523L222.277 202.405C220.615 201.617 218.746 202.386 218.122 204.118C217.529 205.768 217.892 208.273 218.933 209.685L219.394 210.309C221.672 213.406 226.392 217.253 229.888 218.864L244.81 225.734L247.923 231.153L252.569 236.493L257.352 221.322L251.995 216.523H251.992Z" fill="#00C797"/>
<path d="M241.076 184.671C239.828 186.196 239.258 188.989 239.812 190.881C240.491 193.187 242.473 196.425 244.224 198.075L248.699 202.296L255.92 211.854C255.92 211.854 255.308 216.422 256.427 219.714L257.168 221.891L260.726 210.597C261.74 207.375 262.911 204.473 264.19 201.921L244.638 184.398C243.581 183.45 241.977 183.574 241.08 184.671H241.076Z" fill="#00C797"/>
<path d="M253.759 241.756L252.234 244.011" stroke="#00C797" stroke-linecap="round" stroke-linejoin="round"/>
<path d="M259.661 229.218L260.637 232.09L259.732 233.666C258.507 235.792 257.508 239.533 257.508 241.987V245.533L255.893 246.465C254.438 247.304 252.312 246.988 251.165 245.759L242.996 237.017L235.724 216.532C234.913 214.242 232.275 212.631 229.865 212.951C227.458 213.271 224.898 215.436 224.184 217.757L223.732 219.231C222.983 221.662 222.975 225.645 223.712 228.079L227.657 241.07C228.386 243.477 228.577 247.464 228.074 249.929L224.672 266.681C223.67 271.627 223.908 279.664 225.207 284.54L227.348 292.588C228.246 295.959 228.484 301.526 227.875 304.963L223.272 330.94H258.686V317.957C258.686 313.537 260.36 306.718 262.404 302.801L287.266 255.176C288.456 252.894 288.03 249.453 286.322 247.53L284.968 246.009L285.401 244.729C286.224 242.291 285.939 238.421 284.765 236.131L275.375 217.839L259.657 229.218H259.661Z" fill="black"/>
<path d="M259.661 229.218L260.637 232.09L259.732 233.666C258.507 235.792 257.508 239.533 257.508 241.987V245.533L255.893 246.465C254.438 247.304 252.312 246.988 251.165 245.759L242.996 237.017L235.724 216.532C234.913 214.242 232.275 212.631 229.865 212.951C227.458 213.271 224.898 215.436 224.184 217.757L223.732 219.231C222.983 221.662 222.975 225.645 223.712 228.079L227.657 241.07C228.386 243.477 228.577 247.464 228.074 249.929L224.672 266.681C223.67 271.627 223.908 279.664 225.207 284.54L227.348 292.588C228.246 295.959 228.484 301.526 227.875 304.963L223.272 330.94H258.686V317.957C258.686 313.537 260.36 306.718 262.404 302.801L287.266 255.176C288.456 252.894 288.03 249.453 286.322 247.53L284.968 246.009L285.401 244.729C286.224 242.291 285.939 238.421 284.765 236.131L275.375 217.839" stroke="#00C797" stroke-miterlimit="10"/>
<path d="M257.504 222.875L260.637 232.093L259.732 233.669C258.507 235.795 257.508 239.536 257.508 241.99V245.536" stroke="#00C797" stroke-linecap="round" stroke-linejoin="round"/>
<path d="M266.637 240.262L255.889 246.469C254.434 247.308 252.308 246.992 251.161 245.763L250.033 244.557" stroke="#00C797" stroke-linecap="round" stroke-linejoin="round"/>
<path d="M283.77 249.563L284.972 246.013" stroke="#00C797" stroke-linecap="round" stroke-linejoin="round"/>
<path d="M282.569 253.116L282.943 252" stroke="#00C797" stroke-linecap="round" stroke-linejoin="round"/>
<path d="M262.673 228.547L260.637 232.09" stroke="#00C797" stroke-linecap="round" stroke-linejoin="round"/>
<path d="M234.659 217.628L235.49 221.767C235.658 222.594 235.123 223.432 234.3 223.627L230.278 224.595C229.459 224.794 228.406 224.38 227.941 223.674L224.961 219.18C224.961 219.18 226.03 216.165 229.892 215.353C231.476 215.022 233.032 215.205 234.148 215.443L234.659 217.62V217.628Z" stroke="#00C797" stroke-linecap="round" stroke-linejoin="round"/>
<path d="M188.29 263.128L187.537 265.516C187.307 266.245 187.639 266.986 188.274 267.162L190.354 267.728C190.99 267.899 191.7 267.447 191.93 266.713L193.1 262.996L189.862 262.114C189.226 261.942 188.516 262.395 188.286 263.128H188.29Z" fill="black" stroke="#00C797" stroke-linecap="round" stroke-linejoin="round"/>
<path d="M197.93 258.832L195.85 258.267C195.214 258.095 194.504 258.548 194.274 259.281L193.104 262.999L196.342 263.881C196.978 264.052 197.688 263.6 197.918 262.866L198.671 260.479C198.901 259.749 198.569 259.008 197.933 258.832H197.93Z" fill="black" stroke="#00C797" stroke-linecap="round" stroke-linejoin="round"/>
<path d="M205.506 249.938L202.268 249.057L197.875 247.859L194.637 246.977C194.001 246.806 193.291 247.258 193.061 247.992L192.308 250.379C192.078 251.109 192.41 251.85 193.045 252.025L196.283 252.907L200.676 254.105L205.069 255.302L206.239 251.584C206.469 250.855 206.138 250.114 205.502 249.938H205.506Z" fill="black" stroke="#00C797" stroke-linecap="round" stroke-linejoin="round"/>
<path d="M208.307 256.18L205.069 255.299L203.477 260.347L201.885 265.395L200.715 269.113C200.485 269.842 200.816 270.583 201.452 270.759L203.532 271.325C204.167 271.496 204.877 271.044 205.108 270.31L206.278 266.593L207.87 261.545L209.04 257.827C209.27 257.097 208.939 256.356 208.303 256.18H208.307Z" fill="black" stroke="#00C797" stroke-linecap="round" stroke-linejoin="round"/>
<path d="M236.356 184.137L249.246 187.652" stroke="black" stroke-linecap="round" stroke-linejoin="round"/>
<path d="M219.597 179.568L234.472 183.626" stroke="black" stroke-linecap="round" stroke-linejoin="round"/>
<path d="M219.503 200.705L238.861 205.983" stroke="black" stroke-linecap="round" stroke-linejoin="round"/>
<path d="M209.212 197.896L217.654 200.198" stroke="black" stroke-linecap="round" stroke-linejoin="round"/>
<path d="M225.386 208.569L237.597 211.897" stroke="black" stroke-linecap="round" stroke-linejoin="round"/>
<path d="M207.394 203.662L223.405 208.027" stroke="black" stroke-linecap="round" stroke-linejoin="round"/>
<path d="M205.576 209.424L214.806 211.94" stroke="black" stroke-linecap="round" stroke-linejoin="round"/>
<path d="M209.638 237.028L215.041 238.502" stroke="black" stroke-linecap="round" stroke-linejoin="round"/>
<path d="M197.954 233.841L207.948 236.568" stroke="black" stroke-linecap="round" stroke-linejoin="round"/>
<path d="M215.384 183.353L224.481 185.838" stroke="black" stroke-linecap="round" stroke-linejoin="round"/>
</svg>
