<svg width="53" height="55" viewBox="0 0 53 55" fill="none" xmlns="http://www.w3.org/2000/svg">
<path d="M38.9687 24.3215C38.7757 24.2357 38.5397 24.2571 38.3038 24.4072L36.3306 25.6941L48.6204 31.2278L50.5936 29.9409C50.8295 29.7907 51.0655 29.7693 51.2585 29.8551L38.9687 24.3215Z" fill="#EBE9E9" stroke="#00C797" stroke-linecap="round" stroke-linejoin="round"/>
<path d="M18.5938 53.2765L18.2935 51.9681L6.00372 46.4345L6.304 47.7429C6.34689 47.9788 6.49703 48.1504 6.66862 48.2147L18.9584 53.7484C18.7868 53.6626 18.6581 53.5124 18.5938 53.2765Z" fill="#00C797" stroke="#00C797" stroke-linecap="round" stroke-linejoin="round"/>
<path d="M20.6479 48.3434L20.3476 47.035L8.05785 41.5014L8.35812 42.8098C8.46536 43.3031 8.20798 43.968 7.75757 44.2468L20.0474 49.7804C20.4978 49.4801 20.7552 48.8367 20.6479 48.3434Z" fill="#00C797" stroke="#00C797" stroke-linecap="round" stroke-linejoin="round"/>
<path d="M7.76131 44.2467L6.60311 44.9974C6.1527 45.2977 5.89532 45.9411 6.00256 46.4345L18.2924 51.9681C18.1851 51.4748 18.4425 50.8099 18.8929 50.5311L20.0511 49.7804L7.76131 44.2467Z" fill="#EBE9E9" stroke="#00C797" stroke-linecap="round" stroke-linejoin="round"/>
<path d="M35.4725 22.9915C35.2795 22.9058 35.0436 22.9272 34.8076 23.0774L33.6494 23.8281L9.84194 39.2922L8.68374 40.0428C8.23333 40.3431 7.97595 40.9866 8.08319 41.4799L20.373 47.0135C20.2658 46.5202 20.5231 45.8553 20.9736 45.5765L22.1317 44.8258L47.1189 28.611C47.3548 28.4609 47.5907 28.4394 47.7838 28.5252L35.4725 22.9915Z" fill="#EBE9E9" stroke="#00C797" stroke-linecap="round" stroke-linejoin="round"/>
<path d="M50.5914 29.9408C51.0419 29.6405 51.4923 29.8336 51.621 30.3269L51.9212 31.6352C52.0285 32.1285 51.7711 32.7934 51.3207 33.0722L19.6203 53.641C19.1699 53.9413 18.7195 53.7482 18.6122 53.2549L18.312 51.9466C18.2047 51.4533 18.4621 50.7884 18.9125 50.5096L20.0707 49.7589C20.5211 49.4586 20.7785 48.8152 20.6713 48.3219L20.371 47.0135C20.2637 46.5202 20.5211 45.8553 20.9715 45.5765L22.1297 44.8258L45.9372 29.3617L47.0954 28.611C47.5458 28.3322 47.9962 28.5037 48.1035 28.997L48.4252 30.4126C48.5324 30.863 48.9185 31.0132 49.3046 30.7558L50.5914 29.9408Z" fill="#EBE9E9" stroke="#00C797" stroke-linecap="round" stroke-linejoin="round"/>
<path d="M8.66122 40.0429C8.21081 40.3432 7.95343 40.9867 8.06067 41.48L8.36095 42.7883C8.46819 43.2816 8.21081 43.9465 7.7604 44.2253L6.6022 44.976C6.15178 45.2763 5.89441 45.9197 6.00165 46.4131L6.30192 47.7214C6.34482 47.9573 6.49496 48.1289 6.66654 48.1932L8.40384 48.9868L9.09018 47.2924L13.1439 46.6275L15.782 44.2468L20.8223 43.2601L13.2082 37.0831L9.84087 39.2708L8.66122 40.0429Z" fill="#00C797" stroke="#00C797" stroke-linecap="round" stroke-linejoin="round"/>
<path d="M39.3897 13.2112L42.993 28.8898L37.4379 32.4931L33.8561 16.8145L39.3897 13.2112Z" fill="#EBE9E9" stroke="#00C797" stroke-linecap="round" stroke-linejoin="round"/>
<path d="M37.438 32.4931L27.3359 27.9246L23.7326 12.246L33.8561 16.8145L37.438 32.4931Z" fill="#00C797" stroke="#00C797" stroke-linecap="round" stroke-linejoin="round"/>
<path d="M33.8561 16.8145L23.7326 12.246L29.2877 8.6427L39.3898 13.2112L33.8561 16.8145Z" fill="#EBE9E9" stroke="#00C797" stroke-linecap="round" stroke-linejoin="round"/>
<path d="M31.072 18.6163L34.6753 34.2949L29.1203 37.8981L25.517 22.2196L31.072 18.6163Z" fill="#EBE9E9" stroke="#00C797" stroke-linecap="round" stroke-linejoin="round"/>
<path d="M29.1207 37.8981L18.9971 33.3297L15.4153 17.6511L25.5174 22.2195L29.1207 37.8981Z" fill="#00C797" stroke="#00C797" stroke-linecap="round" stroke-linejoin="round"/>
<path d="M25.5174 22.2195L15.4153 17.6511L20.9489 14.0478L31.0725 18.6162L25.5174 22.2195Z" fill="#EBE9E9" stroke="#00C797" stroke-linecap="round" stroke-linejoin="round"/>
<path d="M22.7527 24.0211L26.356 39.6997L20.8009 43.303L17.1976 27.6244L22.7527 24.0211Z" fill="#EBE9E9" stroke="#00C797" stroke-linecap="round" stroke-linejoin="round"/>
<path d="M20.7973 43.303L10.6738 38.7345L7.0705 23.0559L17.194 27.6244L20.7973 43.303Z" fill="#00C797" stroke="#00C797" stroke-linecap="round" stroke-linejoin="round"/>
<path d="M17.194 27.6243L7.07043 23.0559L12.6255 19.4526L22.749 24.021L17.194 27.6243Z" fill="#EBE9E9" stroke="#00C797" stroke-linecap="round" stroke-linejoin="round"/>
<path d="M33.9266 2.37999C33.7335 2.2942 33.4976 2.31562 33.2617 2.46576L32.1035 3.21645C31.8676 3.36658 31.6316 3.38806 31.4386 3.30227L43.7284 8.83586C43.9214 8.92165 44.1574 8.90022 44.3933 8.75009L45.5515 7.9994C45.7874 7.84926 46.0233 7.82784 46.2164 7.91363L33.9266 2.37999Z" fill="#EBE9E9" stroke="#00C797" stroke-linecap="round" stroke-linejoin="round"/>
<path d="M30.4294 1.05019C30.2364 0.964394 30.0005 0.985821 29.7646 1.13596L27.7913 2.42285L25.8181 3.70974C25.5822 3.85988 25.3462 3.8813 25.1532 3.79551L37.443 9.32915C37.636 9.41494 37.872 9.39351 38.1079 9.24338L40.0811 7.95649L42.0544 6.6696C42.2903 6.51946 42.5262 6.49798 42.7192 6.58377L30.4294 1.05019Z" fill="#EBE9E9" stroke="#00C797" stroke-linecap="round" stroke-linejoin="round"/>
<path d="M24.1477 1.5005C23.9547 1.41471 23.7187 1.43619 23.4828 1.58633L21.5096 2.87322L19.5364 4.16011C19.3004 4.31024 19.0645 4.33167 18.8715 4.24588L31.1613 9.77952C31.3543 9.86531 31.5902 9.84383 31.8262 9.69369L33.7994 8.4068L35.7726 7.11991C36.0086 6.96977 36.2445 6.94835 36.4375 7.03414L24.1477 1.5005Z" fill="#EBE9E9" stroke="#00C797" stroke-linecap="round" stroke-linejoin="round"/>
<path d="M25.2839 12.911L24.9836 11.6027L12.6938 6.06903L12.9941 7.37739C13.1013 7.8707 12.844 8.53558 12.3936 8.81441L24.6834 14.348C25.1123 14.0478 25.3911 13.4043 25.2839 12.911Z" fill="#00C797" stroke="#00C797" stroke-linecap="round" stroke-linejoin="round"/>
<path d="M17.8839 1.97247C17.6909 1.88668 17.4549 1.90816 17.219 2.0583L15.2458 3.34519L13.2725 4.63208C12.8221 4.93235 12.5648 5.57578 12.672 6.06909L24.9618 11.6027C24.8546 11.1094 25.1119 10.4445 25.5623 10.1657L27.5356 8.87882L29.5088 7.59193C29.7447 7.4418 29.9807 7.42032 30.1737 7.50611L17.8839 1.97247Z" fill="#EBE9E9" stroke="#00C797" stroke-linecap="round" stroke-linejoin="round"/>
<path d="M20.4364 19.6457L20.1362 18.3373L7.84636 12.8037L8.14663 14.112C8.25388 14.6053 7.99649 15.2702 7.54608 15.5491L19.8359 21.0827C20.2863 20.7824 20.5651 20.139 20.4364 19.6457Z" fill="#00C797" stroke="#00C797" stroke-linecap="round" stroke-linejoin="round"/>
<path d="M12.3897 8.81438L10.4164 10.1013L8.4432 11.3882C7.99279 11.6884 7.73541 12.3319 7.84265 12.8252L20.1325 18.3588C20.0252 17.8655 20.2826 17.2006 20.733 16.9218L22.7062 15.6349L24.6795 14.348L12.3897 8.81438Z" fill="#EBE9E9" stroke="#00C797" stroke-linecap="round" stroke-linejoin="round"/>
<path d="M13.553 31.3134L13.2527 30.0051L0.962891 24.4715L1.26316 25.7798C1.32751 26.0157 1.4562 26.1874 1.62779 26.2517L13.9176 31.7853C13.746 31.7209 13.6173 31.5494 13.553 31.3134Z" fill="#00C797" stroke="#00C797" stroke-linecap="round" stroke-linejoin="round"/>
<path d="M15.6071 26.3804L15.3068 25.0721L3.01702 19.5385L3.31729 20.8468C3.42453 21.3401 3.16715 22.005 2.71674 22.2839L15.0065 27.8175C15.4569 27.5386 15.7143 26.8952 15.6071 26.3804Z" fill="#00C797" stroke="#00C797" stroke-linecap="round" stroke-linejoin="round"/>
<path d="M2.72048 22.2839L1.56228 23.0345C1.11187 23.3348 0.854492 23.9783 0.961732 24.4716L13.2515 30.0052C13.1443 29.5119 13.4017 28.847 13.8521 28.5681L15.0103 27.8174L2.72048 22.2839Z" fill="#EBE9E9" stroke="#00C797" stroke-linecap="round" stroke-linejoin="round"/>
<path d="M17.8842 22.3482L19.8574 21.0613L7.56758 15.5277L5.59435 16.8146L3.62112 18.1015C3.1707 18.4017 2.91333 19.0452 3.02057 19.5385L15.3104 25.0721C15.2031 24.5788 15.5034 23.9139 15.9109 23.6351L17.8842 22.3482Z" fill="#EBE9E9" stroke="#00C797" stroke-linecap="round" stroke-linejoin="round"/>
<path d="M45.5506 7.99938C46.001 7.69911 46.4514 7.89215 46.5801 8.38546L46.8804 9.69377C46.9876 10.2085 46.7303 10.852 46.2799 11.1308L14.5795 31.6996C14.129 31.9999 13.6786 31.8068 13.5714 31.3135L13.2711 30.0052C13.1639 29.5119 13.4213 28.847 13.8717 28.5682L15.0299 27.8175C15.4803 27.5172 15.7377 26.8738 15.6304 26.3805L15.3301 25.0721C15.2229 24.5788 15.4803 23.9139 15.9307 23.6351L17.9039 22.3482L19.8772 21.0613C20.3276 20.761 20.5849 20.1176 20.4777 19.6243L20.1774 18.316C20.0702 17.8227 20.3276 17.1577 20.778 16.8789L22.7512 15.592L24.7244 14.3051C25.1749 14.0263 25.4322 13.3614 25.325 12.8681L25.0247 11.5598C24.9175 11.0665 25.1748 10.4016 25.6253 10.1227L27.5985 8.83584L29.5717 7.54895C30.0221 7.24867 30.4726 7.44172 30.6012 7.93503L30.9015 9.24339C31.0088 9.73669 31.4806 9.92974 31.9096 9.62946L33.8828 8.34257L35.856 7.05568C36.3065 6.75541 36.7569 6.9484 36.8641 7.44171L37.1644 8.75007C37.2716 9.24338 37.7435 9.43642 38.1724 9.13614L40.1457 7.84925L42.1189 6.56236C42.5693 6.28354 43.0197 6.45513 43.127 6.94844L43.4272 8.25675C43.5345 8.75006 44.0063 8.92165 44.4353 8.64283L45.5506 7.99938Z" fill="#EBE9E9" stroke="#00C797" stroke-linecap="round" stroke-linejoin="round"/>
<path d="M32.8537 41.6515C33.0038 42.3164 33.6043 42.5738 34.1834 42.1877L37.8511 39.807C38.4302 39.421 38.7734 38.5845 38.6232 37.8981C38.4731 37.2332 37.8725 36.9758 37.2934 37.3619L33.6258 39.7427C33.0467 40.1287 32.7035 40.9866 32.8537 41.6515Z" fill="#EBE9E9" stroke="#00C797" stroke-linecap="round" stroke-linejoin="round"/>
</svg>
