<svg width="433" height="434" viewBox="0 0 433 434" fill="none" xmlns="http://www.w3.org/2000/svg">
<path d="M35.7247 256.64C23.6172 238.858 14.0059 218.136 7.92272 195.263C-5.72274 143.929 1.46114 93.1946 23.6909 56.4644L62.9566 83.0772C48.7068 108.575 44.7414 145.236 54.7359 182.821C59.463 200.609 66.8041 216.662 75.8749 230.239L35.7247 256.645V256.64Z" fill="#00C797" stroke="#00C797" stroke-miterlimit="10"/>
<path d="M44.6337 83.3919C44.6337 83.3919 41.199 93.4258 39.661 110.029C38.4424 123.188 45.2086 124.608 49.7342 110.373C54.2646 96.1382 61.989 81.0923 61.989 81.0923L44.6337 83.3919Z" fill="black"/>
<path d="M42.7071 249.791C31.4792 233.295 22.5657 214.083 16.9247 192.87C8.05052 159.486 5.53959 132.102 13.1117 97.1503C14.1878 92.1727 12.5761 86.684 10.2912 94.7377C1.76093 124.795 1.10739 159.545 10.4238 194.6C16.3793 217.011 25.7989 237.31 37.6607 254.739C37.759 254.881 37.8622 255.024 37.9605 255.171L43.7783 251.344C43.4196 250.828 43.0609 250.317 42.7071 249.796V249.791Z" fill="black"/>
<path d="M58.4536 247.448C69.5463 240.164 77.3639 232.47 75.9146 230.263C74.4653 228.056 64.2979 232.171 53.2051 239.455C42.1124 246.739 34.2948 254.433 35.7441 256.64C37.1934 258.847 47.3608 254.732 58.4536 247.448Z" fill="black" stroke="#00C797" stroke-miterlimit="10"/>
<path d="M62.8997 83.1801C66.4033 78.0441 60.4747 67.8987 49.6577 60.5199C38.8408 53.1411 27.2317 51.323 23.7281 56.4591C20.2245 61.5952 26.1531 71.7405 36.9701 79.1193C47.787 86.4981 59.3961 88.3162 62.8997 83.1801Z" fill="black" stroke="#00C797" stroke-miterlimit="10"/>
<path d="M62.2638 204.855C59.3156 197.872 56.7801 190.507 54.7359 182.817C50.4954 166.872 48.7805 151.093 49.2866 136.264C46.019 128.431 40.8497 121.346 33.2973 124.717C19.2342 130.991 8.74824 151.31 2.47339 167.063C3.60846 176.389 5.4118 185.814 7.92273 195.263C11.8242 209.94 17.1851 223.724 23.7204 236.421C23.7597 236.121 25.2486 224.868 27.3517 218.589C33.2973 200.84 52.5002 191.686 62.2638 204.86V204.855Z" fill="black"/>
<path d="M409.047 325.227L391.048 315.979C388.041 314.436 383.638 311.208 381.265 308.8L330.712 257.643C328.339 255.24 324.304 252.469 320.786 251.005L284.985 236.116C282.184 234.952 277.698 233.315 274.666 233.178L247.399 231.939L252.657 252.965L281.638 265.073L290.739 270.537C291.943 271.259 292.537 272.93 292.065 274.247L291.584 275.588L272.912 272.134L226.659 264.287L174.745 263.702C168.401 263.628 163.345 265.78 163.242 270.915L163.193 273.465C163.08 279.401 168.598 284.099 177.506 285.224L237.282 292.772L285.555 299.965V303.67L235.98 296.619L182.902 294.604C177.718 294.408 173.462 296.585 173.457 300.884V303.434C173.452 309.012 177.664 312.657 186.218 314.279L237.282 323.949L291.893 336.037C293.137 336.312 294.227 337.575 294.316 338.848L294.493 341.383L255.05 339.747L215.18 340.563L205.122 344.444C202.812 345.334 201.648 347.958 202.532 350.267L203.618 353.093C204.773 356.1 208.016 357.692 211.573 358.562C214.536 359.289 220.153 360.134 231.675 360.159L261.32 361.53L292.547 366.768L327.744 387.592C331.842 390.015 339.08 392.285 343.827 392.634L365.482 394.226L382.827 402.918" fill="#EBE9E9"/>
<path d="M409.047 325.227L391.048 315.979C388.041 314.436 383.638 311.208 381.265 308.8L330.712 257.643C328.339 255.24 324.304 252.469 320.786 251.005L284.985 236.116C282.184 234.952 277.698 233.315 274.666 233.178L247.399 231.939L252.657 252.965L281.638 265.073L290.739 270.537C291.943 271.259 292.537 272.93 292.065 274.247L291.584 275.588L272.912 272.134L226.659 264.287L174.745 263.702C168.401 263.628 163.345 265.78 163.242 270.915L163.193 273.465C163.08 279.401 168.598 284.099 177.506 285.224L237.282 292.772L285.555 299.965V303.67L235.98 296.619L182.902 294.604C177.718 294.408 173.462 296.585 173.457 300.884V303.434C173.452 309.012 177.664 312.657 186.218 314.279L237.282 323.949L291.893 336.037C293.137 336.312 294.227 337.575 294.316 338.848L294.493 341.383L255.05 339.747L215.18 340.563L205.122 344.444C202.812 345.334 201.648 347.958 202.532 350.267L203.618 353.093C204.773 356.1 208.016 357.692 211.573 358.562C214.536 359.289 220.153 360.134 231.675 360.159L261.32 361.53L292.547 366.768L327.744 387.592C331.842 390.015 339.08 392.285 343.827 392.634L365.482 394.226L382.827 402.918" stroke="black" stroke-miterlimit="10"/>
<path d="M290.36 280.757C290.36 280.757 288.832 285.936 288.562 290.02L290.36 280.757Z" fill="#00C797"/>
<path d="M290.36 280.757C290.36 280.757 288.832 285.936 288.562 290.02" stroke="black" stroke-miterlimit="10"/>
<path d="M293.795 270.566C293.795 270.566 296.955 264.891 300.173 260.945L293.795 270.566Z" fill="#00C797"/>
<path d="M293.795 270.566C293.795 270.566 296.955 264.891 300.173 260.945" stroke="black" stroke-miterlimit="10"/>
<path d="M297.265 354.125C297.265 354.125 294.493 347.752 294.493 341.374L297.265 354.125Z" fill="#00C797"/>
<path d="M297.265 354.125C297.265 354.125 294.493 347.752 294.493 341.374" stroke="black" stroke-miterlimit="10"/>
<path d="M261.418 356.124V350.567" stroke="black" stroke-miterlimit="10"/>
<path d="M208.207 350.228C211.328 358.783 218.467 364.104 225.818 361.426L287.957 338.784C295.495 336.037 297.348 327.428 294.232 318.873L232.471 149.413C229.351 140.858 222.094 135.576 214.861 138.21L152.726 160.857C145.754 163.397 143.331 172.208 146.451 180.763L208.212 350.223L208.207 350.228Z" fill="#00C797"/>
<path d="M146.446 180.768C145.842 179.107 145.444 177.431 145.252 175.8L152.343 173.289L220.546 356.267L213.558 358.557C211.303 356.478 209.441 353.609 208.212 350.228L146.451 180.768H146.446Z" fill="black"/>
<path d="M145.41 169.608C145.41 169.608 146.545 165.692 148.004 164.213L154.53 161.766L153.852 166.606L145.405 169.608H145.41Z" fill="black"/>
<path d="M208.207 350.228C211.328 358.783 218.467 364.104 225.818 361.426L287.957 338.784C295.495 336.037 297.348 327.428 294.232 318.873L232.471 149.413C229.351 140.858 222.094 135.576 214.861 138.21L152.726 160.857C145.754 163.397 143.331 172.208 146.451 180.763L208.212 350.223L208.207 350.228Z" stroke="#00C797" stroke-width="0.95" stroke-miterlimit="10" stroke-linecap="round"/>
<path d="M198.802 288.679C201.534 296.177 207.799 300.845 214.241 298.496L268.715 278.65C274.523 276.532 276.95 268.694 274.213 261.196L248.534 190.733C245.802 183.235 239.439 178.601 233.095 180.91L178.626 200.762C172.514 202.988 170.391 210.712 173.123 218.211L198.802 288.674V288.679Z" fill="#B5DF77"/>
<path d="M223.346 291.248L219.263 294.31C214.536 297.853 206.684 296.713 199.239 290.708C189.441 282.807 184.061 269.471 187.22 260.926C187.982 258.872 189.166 257.28 190.66 256.159L194.743 253.098C193.245 254.218 192.065 255.811 191.304 257.864C188.144 266.409 193.525 279.745 203.323 287.647C210.767 293.651 218.619 294.791 223.346 291.248Z" fill="#B5DF77" stroke="#00C797" stroke-linecap="round" stroke-linejoin="round"/>
<path d="M214.767 256.695C224.57 264.601 229.946 277.932 226.786 286.482C223.626 295.027 213.126 295.553 203.323 287.647C193.525 279.745 188.144 266.409 191.304 257.864C194.463 249.315 204.974 248.794 214.772 256.695H214.767Z" fill="#B5DF77" stroke="#00C797" stroke-linecap="round" stroke-linejoin="round"/>
<path d="M190.886 267.864C190.144 264.243 190.228 260.773 191.304 257.864C192.065 255.811 193.25 254.218 194.743 253.098L190.66 256.159C189.161 257.28 187.977 258.872 187.221 260.926C186.203 263.677 186.076 266.92 186.69 270.321L190.886 267.864Z" fill="black"/>
<path d="M240.048 270.483L237.159 274.694C233.817 279.568 226.014 281.003 217.037 277.701C205.224 273.357 195.854 262.449 196.109 253.344C196.168 251.152 196.783 249.27 197.839 247.727L200.728 243.516C199.672 245.059 199.058 246.946 198.999 249.133C198.743 258.238 208.114 269.146 219.926 273.49C228.904 276.792 236.707 275.357 240.048 270.483Z" fill="#B5DF77" stroke="#00C797" stroke-linecap="round" stroke-linejoin="round"/>
<path d="M220.85 240.504C232.668 244.853 242.033 255.756 241.778 264.866C241.522 273.971 231.744 277.834 219.926 273.49C208.114 269.146 198.743 258.238 198.999 249.132C199.254 240.022 209.038 236.16 220.85 240.504Z" fill="#B5DF77" stroke="#00C797" stroke-linecap="round" stroke-linejoin="round"/>
<path d="M201.805 258.739C199.942 255.55 198.905 252.238 198.994 249.133C199.053 246.941 199.667 245.059 200.724 243.516L197.834 247.727C196.778 249.27 196.164 251.157 196.105 253.344C196.021 256.272 196.94 259.392 198.616 262.414L201.805 258.739Z" fill="black"/>
<path d="M298.089 317.473L236.329 148.013C233.764 140.971 227.789 136.623 221.833 138.795L216.914 140.588C215.755 141.011 214.836 142.372 214.875 143.605L214.973 146.598C215.042 148.666 213.499 150.941 211.554 151.654L176.961 164.263C175.015 164.97 172.273 164.307 170.868 162.788L168.652 160.39C167.811 159.481 166.175 159.083 165.011 159.511L160.146 161.285C154.407 163.378 152.417 170.626 154.982 177.667L216.742 347.127C219.307 354.169 225.189 358.547 231.238 356.346L292.925 333.865C298.379 331.875 300.654 324.519 298.089 317.478V317.473ZM266.248 276.512L214.762 295.273C208.669 297.494 202.753 293.081 200.168 285.991L175.894 219.39C173.31 212.299 175.315 205.002 181.093 202.894L232.579 184.129C238.574 181.942 244.589 186.32 247.173 193.411L271.447 260.012C274.032 267.102 271.742 274.507 266.248 276.507V276.512Z" fill="#00C797"/>
<path d="M300.423 316.618L238.663 147.158C235.542 138.603 228.285 133.32 221.052 135.954L158.918 158.602C151.945 161.142 149.522 169.952 152.643 178.507L214.403 347.968C217.524 356.522 224.663 361.844 232.014 359.166L294.154 336.523C300.782 334.111 303.544 325.168 300.428 316.613L300.423 316.618ZM292.92 333.855L231.233 356.336C225.184 358.542 219.302 354.159 216.738 347.117L154.977 177.657C152.412 170.616 154.402 163.363 160.141 161.275L165.006 159.501C166.165 159.078 167.806 159.476 168.647 160.38L170.863 162.778C172.268 164.302 175.01 164.965 176.956 164.253L211.549 151.644C213.494 150.936 215.032 148.661 214.969 146.588L214.87 143.595C214.831 142.357 215.75 141.001 216.91 140.578L221.828 138.785C227.784 136.613 233.759 140.961 236.324 148.003L298.085 317.463C300.649 324.504 298.374 331.86 292.92 333.85V333.855Z" fill="black" stroke="#00C797" stroke-width="0.95" stroke-miterlimit="10" stroke-linecap="round"/>
<path d="M163.77 221.781L164.495 221.517C165.099 221.297 165.411 220.628 165.191 220.024L158.497 201.654C158.277 201.049 157.609 200.738 157.004 200.958L156.279 201.222C155.675 201.442 155.364 202.111 155.584 202.715L162.277 221.085C162.498 221.69 163.166 222.001 163.77 221.781Z" fill="#B5DF77" stroke="#00C797" stroke-width="0.95" stroke-miterlimit="10" stroke-linecap="round"/>
<path d="M233.105 335.501C233.999 337.963 236.053 339.491 238.166 338.72L276.277 324.834C278.184 324.141 278.975 321.571 278.08 319.109L275.83 312.933C274.936 310.471 272.847 308.953 270.769 309.714L232.658 323.605C230.653 324.337 229.955 326.868 230.854 329.33L233.105 335.506V335.501Z" fill="black" stroke="#00C797" stroke-miterlimit="10"/>
<path d="M240.058 329.025C239.601 327.777 239.935 326.607 240.991 326.219C242.048 325.836 243.055 326.519 243.507 327.767C243.964 329.015 243.63 330.18 242.574 330.563C241.517 330.946 240.51 330.273 240.053 329.025H240.058ZM242.77 328.037C242.466 327.202 241.91 326.671 241.252 326.912C240.593 327.153 240.495 327.919 240.8 328.755C241.1 329.585 241.674 330.106 242.328 329.87C242.986 329.629 243.07 328.868 242.77 328.037Z" fill="#EBE9E9"/>
<path d="M243.561 326.711L244.254 326.46L245.232 327.86C245.413 328.121 245.522 328.298 245.522 328.298H245.531C245.531 328.298 245.497 328.087 245.468 327.777L245.325 326.072L246.008 325.821L246.2 329.138L245.546 329.374L243.566 326.711H243.561Z" fill="#EBE9E9"/>
<path d="M246.829 327.212C246.505 326.327 246.77 325.448 247.522 325.178C248.347 324.878 249.06 325.448 249.448 326.514L247.581 327.192C247.797 327.635 248.126 327.841 248.51 327.698C248.775 327.6 248.878 327.404 248.873 327.148L249.546 326.902C249.645 327.467 249.404 328.067 248.741 328.308C247.89 328.617 247.153 328.101 246.829 327.207V327.212ZM247.394 326.642L248.539 326.224C248.382 325.851 248.072 325.669 247.758 325.782C247.399 325.915 247.311 326.229 247.394 326.642Z" fill="#EBE9E9"/>
<path d="M250.219 324.829H250.234C250.264 324.426 250.377 324.19 250.676 324.082C250.75 324.053 250.799 324.043 250.843 324.048L251.094 324.74H251.079C250.613 324.858 250.391 325.247 250.622 325.876L251.153 327.335L250.47 327.585L249.379 324.593L250.038 324.352L250.214 324.829H250.219Z" fill="#EBE9E9"/>
<path d="M251.236 323.915L251.929 323.664L252.907 325.065C253.089 325.325 253.197 325.502 253.197 325.502H253.207C253.207 325.502 253.172 325.291 253.143 324.981L253 323.276L253.683 323.025L253.875 326.342L253.221 326.578L251.241 323.915H251.236Z" fill="#EBE9E9"/>
<path d="M253.733 321.674L254.416 321.424L254.676 322.136L253.993 322.387L253.733 321.674ZM254.16 322.854L254.843 322.603L255.934 325.596L255.251 325.846L254.16 322.854Z" fill="#EBE9E9"/>
<path d="M255.954 323.885C255.629 323.001 255.895 322.121 256.646 321.851C257.472 321.551 258.184 322.121 258.573 323.188L256.705 323.866C256.922 324.308 257.251 324.514 257.634 324.372C257.899 324.273 258.003 324.077 257.998 323.821L258.671 323.576C258.769 324.141 258.528 324.74 257.865 324.981C257.015 325.291 256.278 324.775 255.954 323.88V323.885ZM256.519 323.315L257.664 322.898C257.506 322.524 257.197 322.342 256.882 322.455C256.524 322.588 256.435 322.903 256.519 323.315Z" fill="#EBE9E9"/>
<path d="M258.263 321.355L258.941 321.109L259.757 322.382C259.899 322.608 260.076 322.898 260.076 322.898H260.086C260.086 322.898 260.022 322.554 259.988 322.288L259.806 320.79L260.386 320.578L261.226 321.836C261.374 322.067 261.55 322.357 261.55 322.357H261.56C261.56 322.357 261.506 322.018 261.472 321.753L261.29 320.244L261.953 320.003L262.278 323.276L261.659 323.502L260.784 322.156C260.641 321.935 260.479 321.679 260.479 321.679H260.469C260.469 321.679 260.504 321.989 260.538 322.244L260.725 323.841L260.111 324.067L258.268 321.35L258.263 321.355Z" fill="#EBE9E9"/>
<path d="M187.948 154.356C188.213 155.083 188.96 155.481 189.805 155.177L198.07 152.165C198.837 151.885 199.23 151.069 198.964 150.342L198.94 150.273C198.674 149.546 197.918 149.153 197.082 149.452L188.817 152.464C188.012 152.759 187.658 153.56 187.923 154.287L187.948 154.356Z" stroke="#00C797" stroke-width="0.95" stroke-miterlimit="10" stroke-linecap="round"/>
<path d="M184.702 157.509C185.498 157.213 185.853 156.193 185.496 155.232C185.138 154.27 184.203 153.731 183.407 154.027C182.611 154.323 182.255 155.342 182.613 156.304C182.97 157.265 183.906 157.805 184.702 157.509Z" stroke="#00C797" stroke-width="0.95" stroke-miterlimit="10" stroke-linecap="round"/>
<path d="M162.573 170.532L161.389 174.773L164.814 177.058" stroke="black" stroke-width="0.95" stroke-miterlimit="10" stroke-linecap="round"/>
<path d="M256.784 224.21L256.524 230.062C256.298 235.138 247.984 239.28 236.407 239.683C223.415 240.135 211.224 235.713 209.185 229.807C208.964 229.163 208.87 228.529 208.895 227.91L209.155 222.058C209.126 222.677 209.219 223.311 209.445 223.954C211.489 229.861 223.675 234.283 236.667 233.831C248.244 233.428 256.558 229.286 256.784 224.21Z" fill="#B5DF77" stroke="#00C797" stroke-linecap="round" stroke-linejoin="round"/>
<path d="M229.272 212.432C242.264 211.98 254.455 216.402 256.499 222.308C258.543 228.215 249.664 233.374 236.672 233.826C223.68 234.278 211.489 229.856 209.45 223.95C207.406 218.038 216.285 212.879 229.277 212.427L229.272 212.432Z" fill="#B5DF77" stroke="#00C797" stroke-linecap="round" stroke-linejoin="round"/>
<path d="M215.706 229.88C212.487 228.249 210.227 226.21 209.446 223.954C209.224 223.311 209.131 222.677 209.156 222.058L208.895 227.91C208.866 228.529 208.959 229.163 209.185 229.807C209.952 232.023 212.143 234.028 215.268 235.644L215.706 229.88Z" fill="black"/>
<path d="M261.015 210.005L259.758 214.953C258.303 220.682 251.473 224.721 241.911 224.721C229.322 224.721 216.762 217.719 213.858 209.086C213.161 207.007 213.082 205.027 213.544 203.214L214.802 198.266C214.34 200.079 214.418 202.059 215.116 204.138C218.02 212.771 230.58 219.773 243.169 219.773C252.736 219.773 259.561 215.734 261.015 210.005Z" fill="#B5DF77" stroke="#00C797" stroke-linecap="round" stroke-linejoin="round"/>
<path d="M232.648 188.497C245.242 188.497 257.797 195.499 260.701 204.138C263.605 212.771 255.758 219.773 243.169 219.773C230.58 219.773 218.02 212.771 215.116 204.138C212.212 195.499 220.059 188.497 232.648 188.497Z" fill="black" stroke="#00C797" stroke-linecap="round" stroke-linejoin="round"/>
<path d="M221.067 212.181C218.217 209.833 216.104 207.081 215.111 204.138C214.414 202.059 214.335 200.079 214.797 198.266L213.539 203.214C213.077 205.027 213.156 207.007 213.853 209.086C214.787 211.862 216.728 214.471 219.337 216.731L221.062 212.181H221.067Z" fill="black"/>
<path d="M237.424 175.628C250.043 172.247 260.411 174.483 260.573 180.63C260.74 186.772 250.642 194.492 238.024 197.872C225.4 201.253 215.032 199.017 214.865 192.875C214.698 186.733 224.796 179.009 237.419 175.628H237.424Z" fill="#B5DF77" stroke="#00C797" stroke-linecap="round" stroke-linejoin="round"/>
<path d="M260.322 179.151L262.184 184.698C262.342 185.16 262.425 185.652 262.44 186.173C262.607 192.315 252.509 200.034 239.891 203.415C228.334 206.511 218.668 204.899 216.993 199.892L215.13 194.344C216.811 199.351 226.476 200.963 238.028 197.867C250.647 194.487 260.745 186.762 260.578 180.625C260.563 180.104 260.474 179.613 260.322 179.151Z" fill="#00C797" stroke="#00C797" stroke-linecap="round" stroke-linejoin="round"/>
<path d="M237.424 175.628C250.043 172.247 260.411 174.483 260.573 180.63C260.74 186.772 250.642 194.492 238.024 197.872C225.4 201.253 215.032 199.017 214.865 192.875C214.698 186.733 224.796 179.009 237.419 175.628H237.424Z" stroke="#00C797" stroke-miterlimit="10"/>
<path d="M222.85 199.145C218.791 198.501 215.966 196.845 215.125 194.349L216.988 199.897C217.803 202.329 220.506 203.955 224.393 204.638L222.85 199.145Z" fill="black"/>
<path d="M262.602 156.897L262.342 162.749C262.116 167.825 253.802 171.967 242.225 172.37C229.228 172.822 217.037 168.4 214.993 162.494C214.772 161.85 214.679 161.216 214.708 160.597L214.969 154.745C214.939 155.364 215.032 155.998 215.254 156.641C217.298 162.548 229.484 166.97 242.486 166.518C254.062 166.115 262.376 161.973 262.602 156.897Z" fill="#B5DF77" stroke="#00C797" stroke-linecap="round" stroke-linejoin="round"/>
<path d="M235.09 145.124C248.082 144.672 260.273 149.094 262.313 155C264.357 160.907 255.478 166.066 242.486 166.518C229.489 166.97 217.298 162.548 215.254 156.641C213.21 150.735 222.089 145.576 235.09 145.124Z" fill="black" stroke="#00C797" stroke-linecap="round" stroke-linejoin="round"/>
<path d="M235.09 145.123C222.094 145.575 213.214 150.735 215.254 156.641C215.976 158.739 217.986 160.646 220.845 162.213L256.396 149.251C251.188 146.499 243.296 144.834 235.085 145.123H235.09Z" fill="black"/>
<path d="M235.09 145.124C248.082 144.672 260.273 149.094 262.313 155C264.357 160.907 255.478 166.066 242.486 166.518C229.489 166.97 217.298 162.548 215.254 156.641C213.21 150.735 222.089 145.576 235.09 145.124Z" stroke="#00C797" stroke-miterlimit="10"/>
<path d="M222.845 163.196C218.924 161.472 216.143 159.196 215.258 156.641C215.037 155.998 214.944 155.364 214.974 154.745L214.713 160.597C214.684 161.216 214.777 161.85 214.998 162.494C215.843 164.946 218.443 167.137 222.113 168.837L222.845 163.196Z" fill="black"/>
<path d="M235.09 145.124C248.082 144.672 260.273 149.094 262.313 155C264.357 160.907 255.478 166.066 242.486 166.518C229.489 166.97 217.298 162.548 215.254 156.641C213.21 150.735 222.089 145.576 235.09 145.124Z" stroke="#00C797" stroke-miterlimit="10"/>
<path d="M239.021 123.459C251.163 121.1 258.072 122.569 254.45 126.746C250.834 130.918 238.053 136.22 225.911 138.578C213.765 140.937 206.856 139.468 210.472 135.296C214.094 131.119 226.87 125.822 239.016 123.464L239.021 123.459Z" fill="black" stroke="#00C797" stroke-linecap="round" stroke-linejoin="round"/>
<path d="M255.359 124.348L257.138 130.451C257.33 131.105 257.045 131.905 256.234 132.844C252.617 137.016 239.837 142.318 227.695 144.676C218.275 146.509 212.005 146.032 211.352 143.782L209.573 137.679C210.227 139.93 216.496 140.401 225.916 138.573C238.058 136.215 250.834 130.918 254.455 126.741C255.271 125.803 255.551 125.002 255.359 124.348Z" fill="#00C797" stroke="#00C797" stroke-linecap="round" stroke-linejoin="round"/>
<path d="M217.238 139.669C212.782 139.841 210 139.139 209.578 137.684L211.357 143.787C211.774 145.222 214.477 145.929 218.821 145.782L217.243 139.669H217.238Z" fill="black"/>
<path d="M248.553 108.639C247.31 114.486 236.947 123.351 225.41 128.446C213.867 133.542 205.514 132.932 206.757 127.085C208 121.243 218.363 112.373 229.911 107.278C241.448 102.187 249.801 102.796 248.558 108.639H248.553Z" fill="black" stroke="#00C797" stroke-miterlimit="10"/>
<path d="M245.153 100.546L248.244 105.843C246.45 102.772 239.217 103.165 229.906 107.278C218.363 112.373 207.995 121.243 206.752 127.085C206.511 128.215 206.629 129.149 207.057 129.881L203.966 124.584C203.538 123.847 203.42 122.913 203.661 121.788C204.904 115.946 215.267 107.076 226.815 101.981C236.126 97.8729 243.364 97.4749 245.153 100.546Z" fill="#00C797" stroke="#00C797" stroke-linecap="round" stroke-linejoin="round"/>
<path d="M210.363 120.914L206.992 115.946C205.219 118.039 204.034 120.049 203.666 121.788C203.425 122.918 203.543 123.852 203.971 124.584L207.061 129.881C206.634 129.144 206.516 128.211 206.757 127.085C207.145 125.257 208.427 123.13 210.363 120.914Z" fill="black"/>
<path d="M235.857 79.0237C235.985 80.8516 227.135 88.0945 216.089 95.2047C205.048 102.31 195.987 106.59 195.86 104.767C195.732 102.939 204.581 95.696 215.623 88.5908C226.664 81.4855 235.73 77.2007 235.857 79.0286V79.0237Z" fill="black" stroke="#00C797" stroke-miterlimit="10"/>
<path d="M232.226 73.3827L235.793 78.8222C234.963 77.5594 226.207 81.7704 215.622 88.5809C204.581 95.6862 195.732 102.929 195.859 104.757C195.864 104.836 195.884 104.899 195.923 104.953L192.356 99.514C192.321 99.4599 192.297 99.3911 192.292 99.3174C192.164 97.4895 201.014 90.2467 212.055 83.1414C222.639 76.3309 231.395 72.1149 232.226 73.3827Z" fill="#00C797" stroke="#00C797" stroke-linecap="round" stroke-linejoin="round"/>
<path d="M200.09 99.8824L196.439 94.5117C193.796 96.8015 192.238 98.5459 192.292 99.3174C192.297 99.396 192.317 99.4599 192.356 99.5139L195.923 104.953C195.889 104.899 195.864 104.831 195.86 104.757C195.805 103.976 197.393 102.202 200.09 99.8775V99.8824Z" fill="black"/>
<path d="M175.791 76.4293C175.791 71.7121 185.127 63.059 196.635 57.0986C208.153 51.1383 217.484 50.131 217.484 54.8482C217.484 59.5653 208.148 68.2184 196.635 74.1788C185.122 80.1343 175.791 81.1416 175.791 76.4244V76.4293Z" fill="black" stroke="#00C797" stroke-linecap="round" stroke-linejoin="round"/>
<path d="M217.135 53.4624L220.314 58.8135C220.545 59.2017 220.668 59.6685 220.668 60.2041C220.668 64.9213 211.332 73.5744 199.819 79.5347C189.618 84.8121 181.127 86.2027 179.324 83.1709L176.145 77.8198C177.948 80.8516 186.439 79.461 196.64 74.1837C208.158 68.2233 217.489 59.5702 217.489 54.853C217.489 54.3174 217.366 53.8555 217.135 53.4624Z" fill="#00C797" stroke="#00C797" stroke-linecap="round" stroke-linejoin="round"/>
<path d="M186.193 78.439C181.034 79.8836 177.27 79.7214 176.145 77.8198L179.324 83.1709C180.395 84.9742 183.83 85.215 188.581 84.0013L186.198 78.434L186.193 78.439Z" fill="black"/>
<path d="M68.2588 75.5993L65.0059 80.3066C63.3549 82.6947 59.8809 83.8298 54.9327 83.1517C44.7908 81.766 32.2951 73.3045 27.0276 64.2485C24.3299 59.6149 24.0499 55.7183 25.7844 53.2122L29.0373 48.5049C27.3027 51.0109 27.5828 54.9075 30.2805 59.5412C35.548 68.5972 48.0437 77.0586 58.1856 78.4443C63.1338 79.1224 66.6078 77.9873 68.2588 75.5993Z" fill="#00C797" stroke="#00C797" stroke-linecap="round" stroke-linejoin="round"/>
<path d="M58.1853 78.444C52.2151 77.6284 45.4292 74.3558 39.7784 69.958L36.4224 74.5868C42.0879 79.0239 48.9229 82.3308 54.9275 83.1514C59.8757 83.8295 63.3497 82.6944 65.0007 80.3063L68.2536 75.599C66.6026 77.9871 63.1286 79.1221 58.1804 78.444H58.1853Z" fill="black"/>
<path d="M39.1054 45.6546C49.2522 47.0403 61.743 55.5018 67.0105 64.5529C72.278 73.6089 68.3323 79.8248 58.1854 78.4391C48.0435 77.0535 35.5478 68.592 30.2803 59.536C25.0128 50.4849 28.9683 44.269 39.1103 45.6546H39.1054Z" fill="black" stroke="#00C797" stroke-linecap="round" stroke-linejoin="round"/>
<path d="M74.2834 68.0073L70.716 72.4837C68.9078 74.7539 65.365 75.6482 60.4758 74.636C50.4468 72.5624 38.5605 63.2656 33.9219 53.8705C31.5486 49.0599 31.5339 45.1584 33.4355 42.7752L37.0028 38.2988C35.1061 40.682 35.116 44.5835 37.4893 49.3941C42.1279 58.7891 54.0191 68.0859 64.0432 70.1595C68.9323 71.1718 72.4751 70.2775 74.2834 68.0073Z" fill="#00C797" stroke="#00C797" stroke-linecap="round" stroke-linejoin="round"/>
<path d="M47.2429 36.1516C57.2669 38.2252 69.1533 47.522 73.7918 56.9122C78.4304 66.3024 74.0621 72.2382 64.0381 70.1646C54.0091 68.091 42.1228 58.7942 37.4842 49.3991C32.8456 40.0089 37.2139 34.078 47.2429 36.1516Z" fill="black" stroke="#00C797" stroke-linecap="round" stroke-linejoin="round"/>
<path d="M47.2429 36.1516C57.2669 38.2252 69.1533 47.522 73.7918 56.9122C78.4304 66.3024 74.0621 72.2382 64.0381 70.1646C54.0091 68.091 42.1228 58.7942 37.4842 49.3991C32.8456 40.0089 37.2139 34.078 47.2429 36.1516Z" stroke="#00C797" stroke-miterlimit="10"/>
<path d="M64.043 70.1596C58.4806 69.0098 52.3483 65.634 47.1987 61.2559L43.759 65.8355C48.8841 70.1645 54.9624 73.4911 60.4805 74.6311C65.3697 75.6433 68.9125 74.749 70.7207 72.4789L74.2881 68.0024C72.4799 70.2726 68.9371 71.1669 64.0479 70.1546L64.043 70.1596Z" fill="black"/>
<path d="M51.5226 24.8201L56.1513 22.2896C51.4636 24.8545 49.4343 31.7976 51.5128 40.5834L46.884 43.114C44.8055 34.3282 46.8349 27.3802 51.5226 24.8201Z" fill="#00C797" stroke="#00C797" stroke-linecap="round" stroke-linejoin="round"/>
<path d="M51.5129 40.5835C48.663 28.5252 53.5472 19.9262 62.4264 21.3806C71.3006 22.8351 80.8038 33.7829 83.6537 45.8412C86.5037 57.8946 81.6194 66.4937 72.7452 65.0392C63.8661 63.5847 54.3629 52.6369 51.5129 40.5786V40.5835Z" fill="black" stroke="#00C797" stroke-linecap="round" stroke-linejoin="round"/>
<path d="M51.5129 40.5835C48.663 28.5252 53.5472 19.9262 62.4264 21.3806C71.3006 22.8351 80.8038 33.7829 83.6537 45.8412C86.5037 57.8946 81.6194 66.4937 72.7452 65.0392C63.8661 63.5847 54.3629 52.6369 51.5129 40.5786V40.5835Z" stroke="#00C797" stroke-miterlimit="10"/>
<path d="M79.0147 64.1351L74.386 66.6657C72.6416 67.6189 70.5238 67.9678 68.1161 67.5698C59.2369 66.1153 49.7338 55.1675 46.8838 43.1092L51.5125 40.5786C54.3625 52.632 63.8657 63.5848 72.7448 65.0392C75.1526 65.4323 77.2655 65.0884 79.0147 64.1351Z" fill="#00C797" stroke="#00C797" stroke-linecap="round" stroke-linejoin="round"/>
<path d="M72.7452 65.0443C67.2271 64.1402 61.4731 59.5704 57.2178 53.3447L52.3335 55.4969C56.6085 61.9143 62.4902 66.6561 68.1164 67.5749C70.5242 67.968 72.6371 67.6241 74.3864 66.6659L79.0151 64.1353C77.2707 65.0886 75.1529 65.4374 72.7452 65.0443Z" fill="black"/>
<path d="M71.453 14.8011L74.9516 11.1108C73.2268 12.9338 72.1999 15.4595 72.1065 18.5994L68.6079 22.2896C68.6964 19.1497 69.7233 16.6191 71.453 14.8011Z" fill="#00C797" stroke="#00C797" stroke-miterlimit="10"/>
<path d="M109.574 43.8906L106.075 47.5809C102.464 51.3939 95.7907 52.0966 88.253 48.7651C77.1234 43.8513 68.3229 31.9945 68.6029 22.2898L72.1015 18.5996C71.8214 28.3043 80.622 40.1611 91.7516 45.0749C99.2893 48.4015 105.962 47.6988 109.574 43.8906Z" fill="#00C797" stroke="#00C797" stroke-linecap="round" stroke-linejoin="round"/>
<path d="M91.7515 45.0799C88.3561 43.5812 85.1818 41.4339 82.4105 38.8984L78.8677 42.5494C81.6489 45.0996 84.8379 47.2616 88.2529 48.7702C95.7906 52.0968 102.459 51.3941 106.075 47.5859L109.574 43.8957C105.962 47.7088 99.2892 48.4114 91.7515 45.0799Z" fill="black"/>
<path d="M72.1064 18.5997C72.3864 8.89014 81.6341 5.00829 92.7637 9.92203C103.898 14.8407 112.699 26.6975 112.419 36.4071C112.139 46.1117 102.891 49.9985 91.7564 45.0799C80.6268 40.1661 71.8263 28.3093 72.1064 18.6046V18.5997Z" fill="black" stroke="#00C797" stroke-linecap="round" stroke-linejoin="round"/>
<path d="M72.1064 18.5997C72.3864 8.89014 81.6341 5.00829 92.7637 9.92203C103.898 14.8407 112.699 26.6975 112.419 36.4071C112.139 46.1117 102.891 49.9985 91.7564 45.0799C80.6268 40.1661 71.8263 28.3093 72.1064 18.6046V18.5997Z" stroke="#00C797" stroke-miterlimit="10"/>
<path d="M109.446 1.53392L114.723 1.03271C107.765 1.69116 102.576 11.0862 102.852 23.1937L97.5742 23.6949C97.299 11.5825 102.488 2.19236 109.446 1.53392Z" fill="#00C797" stroke="#00C797" stroke-linecap="round" stroke-linejoin="round"/>
<path d="M102.847 23.1988C102.552 10.1036 108.64 0.187714 116.448 1.05253C124.256 1.91735 130.826 13.2337 131.121 26.3288C131.415 39.4289 125.327 49.3448 117.519 48.4849C109.711 47.6201 103.142 36.2988 102.842 23.1988H102.847Z" fill="black" stroke="#00C797" stroke-linecap="round" stroke-linejoin="round"/>
<path d="M102.847 23.1988C102.552 10.1036 108.64 0.187714 116.448 1.05253C124.256 1.91735 130.826 13.2337 131.121 26.3288C131.415 39.4289 125.327 49.3448 117.519 48.4849C109.711 47.6201 103.142 36.2988 102.842 23.1988H102.847Z" stroke="#00C797" stroke-miterlimit="10"/>
<path d="M119.249 48.4996L113.971 49.0008C113.406 49.0548 112.831 49.0499 112.242 48.9861C104.434 48.1212 97.8639 36.8 97.5642 23.6999L102.842 23.1987C103.136 36.2988 109.706 47.62 117.519 48.4849C118.104 48.5487 118.683 48.5536 119.249 48.4996Z" fill="#00C797" stroke="#00C797" stroke-linecap="round" stroke-linejoin="round"/>
<path d="M100.149 36.8736C102.817 43.6497 107.279 48.4357 112.247 48.986C112.831 49.0499 113.411 49.0548 113.976 49.0007L119.254 48.4996C118.688 48.5536 118.114 48.5487 117.524 48.4848C112.561 47.9345 108.099 43.1583 105.431 36.3921L100.149 36.8736Z" fill="black"/>
<path d="M147.975 7.00317L152.677 10.8555C151.862 10.1873 150.712 9.89737 149.233 10.0595C142.703 10.772 132.197 19.9656 125.76 30.5941C120.782 38.8147 119.696 45.4827 122.478 47.7578L117.775 43.9054C114.994 41.6303 116.085 34.9624 121.058 26.7417C127.495 16.1132 138 6.91964 144.53 6.20714C146.009 6.04499 147.159 6.3349 147.975 7.00317Z" fill="#00C797" stroke="#00C797" stroke-linecap="round" stroke-linejoin="round"/>
<path d="M125.927 48.5538C119.396 49.2663 119.327 41.2274 125.764 30.5941C132.201 19.9657 142.707 10.772 149.237 10.0596C155.763 9.34706 155.837 17.3859 149.405 28.0144C142.968 38.6477 132.457 47.8413 125.932 48.5538H125.927Z" fill="black" stroke="#00C797" stroke-miterlimit="10"/>
<path d="M122.477 47.7575C120.895 46.4652 120.571 43.743 121.5 40.1265L116.674 36.7852C115.908 40.1462 116.267 42.6767 117.775 43.9101L122.477 47.7625V47.7575Z" fill="black"/>
<path d="M172.739 69.8059C166.051 72.8622 166.189 68.0271 173.039 59.0153C179.893 49.9986 190.871 40.2153 197.553 37.1639C204.236 34.1124 204.099 38.9427 197.244 47.9594C190.394 56.9712 179.417 66.7544 172.734 69.8059H172.739Z" fill="black" stroke="#00C797" stroke-miterlimit="10"/>
<path d="M197.558 32.1517L202.059 36.6822C201.376 35.9992 199.883 36.1073 197.558 37.1637C190.871 40.2201 179.898 49.9984 173.044 59.0151C168.572 64.8969 166.961 68.9999 168.243 70.2873L163.742 65.7568C162.46 64.4694 164.071 60.3664 168.543 54.4847C175.397 45.468 186.375 35.6847 193.057 32.6333C195.377 31.5719 196.875 31.4638 197.558 32.1517Z" fill="#00C797" stroke="#00C797" stroke-linecap="round" stroke-linejoin="round"/>
<path d="M165.162 59.4966C163.339 62.6807 162.863 64.882 163.737 65.7616L168.238 70.2921C167.354 69.3978 167.855 67.1571 169.732 63.9091L165.167 59.4966H165.162Z" fill="black"/>
<path d="M149.635 59.0443L144.953 56.381C144.211 55.9584 143.528 55.4081 142.918 54.7251L147.601 57.3883C148.21 58.0714 148.893 58.6217 149.635 59.0443Z" fill="#B5DF77" stroke="#00C797" stroke-linecap="round" stroke-linejoin="round"/>
<path d="M168.494 14.9142L173.177 17.5774C167.63 14.4228 158.76 18.5012 152.033 27.798C144.407 38.338 142.427 51.5854 147.601 57.3885L142.918 54.7253C137.744 48.9222 139.724 35.6698 147.351 25.1347C154.073 15.8379 162.942 11.7595 168.494 14.9142Z" fill="#00C797" stroke="#00C797" stroke-linecap="round" stroke-linejoin="round"/>
<path d="M147.601 57.3884C142.427 51.5853 144.407 38.3329 152.033 27.7979C159.654 17.2628 170.032 13.4301 175.206 19.2332C180.386 25.0413 178.405 38.2887 170.784 48.8238C163.158 59.3638 152.785 63.1965 147.606 57.3933L147.601 57.3884Z" fill="black" stroke="#00C797" stroke-linecap="round" stroke-linejoin="round"/>
<path d="M140.044 45.8022C140.088 49.4482 141.017 52.593 142.923 54.7256L147.606 57.3889C145.626 55.1678 144.697 51.856 144.727 48.0233L140.044 45.8022Z" fill="black"/>
<path d="M147.601 57.3884C142.427 51.5853 144.407 38.3329 152.033 27.7979C159.654 17.2628 170.032 13.4301 175.206 19.2332C180.386 25.0413 178.405 38.2887 170.784 48.8238C163.158 59.3638 152.785 63.1965 147.606 57.3933L147.601 57.3884Z" stroke="#00C797" stroke-linecap="round" stroke-linejoin="round"/>
<path d="M345.497 302.634L329.596 297.71C327.37 297.022 322.957 296.614 320.638 296.821L288.964 299.656C285.215 299.99 281.25 301.032 277.81 302.56L268.626 306.648L256.283 310.476C253.639 311.297 251.561 316.559 252.342 319.218L253.099 321.797C253.821 324.264 257.177 327.669 263.329 327.949C270.307 328.269 279.097 328.765 292.718 325.478L316.692 330.377C316.692 330.377 327.562 356.906 361.275 369.058" fill="#EBE9E9"/>
<path d="M345.497 302.634L329.596 297.71C327.37 297.022 322.958 296.614 320.639 296.821L293.977 299.204" stroke="black" stroke-miterlimit="10"/>
<path d="M292.723 325.477C292.723 325.477 294.173 323.556 293.082 320.559L292.723 325.477Z" fill="#00C797"/>
<path d="M292.723 325.477C292.723 325.477 294.173 323.556 293.082 320.559" stroke="black" stroke-miterlimit="10"/>
<path d="M301.367 327.247L312.575 329.536C315.057 330.043 317.189 331.61 318.418 333.826C322.619 341.408 335.016 359.594 361.275 369.063" stroke="black" stroke-miterlimit="10"/>
<path d="M338.112 284.605L333.262 291.622C331.601 294.03 327.852 296.201 324.938 296.452L320.638 296.821" stroke="black" stroke-miterlimit="10"/>
<path d="M269.107 308.058L271.83 316.672C272.188 317.812 271.672 319.286 270.685 319.954L262.292 325.61C262.292 325.61 256.695 325.124 254.769 320.043C253.398 316.426 254.617 314.485 255.614 312.883" stroke="black" stroke-miterlimit="10"/>
<path d="M292.542 323.807L291.78 320.755" stroke="black" stroke-miterlimit="10"/>
<path d="M319.719 331.227C325.876 332.809 331.763 330.381 331.763 330.381" stroke="black" stroke-miterlimit="10"/>
<path d="M431.93 330.381L407.175 319.507C394.674 316.353 369.187 357.579 364.921 383.592C362.091 400.864 361.629 409.149 373.653 412.367L385.77 415.605C389.412 416.578 394.728 419.384 397.583 421.836L399.062 423.104" fill="black"/>
<path d="M431.93 330.381L407.175 319.507C394.674 316.353 369.187 357.579 364.921 383.592C362.091 400.864 361.629 409.149 373.653 412.367L385.77 415.605C389.412 416.578 394.728 419.384 397.583 421.836L399.062 423.104" stroke="#00C797" stroke-miterlimit="10"/>
<path d="M410.163 410.181C410.163 410.181 390.11 396.884 367.84 394.688C367.84 394.688 365.29 412.112 373.103 416.274L404.492 433" fill="black"/>
<path d="M410.163 410.181C410.163 410.181 390.11 396.884 367.84 394.688C367.84 394.688 365.29 412.112 373.103 416.274L404.492 433" stroke="#00C797" stroke-miterlimit="10"/>
<path d="M67.6154 257.142C65.8367 254.744 55.7831 259.231 45.1695 267.122C34.5656 275.004 27.4112 283.328 29.1654 285.735C29.1654 285.735 29.1654 285.735 29.1654 285.74C49.3265 310.206 74.5684 327.522 101.334 335.005L115.426 289.824C98.1986 285.445 81.482 273.888 67.6105 257.137L67.6154 257.142Z" fill="black" stroke="#00C797" stroke-miterlimit="10"/>
<path d="M118.451 315.575C122.361 303.104 121.007 291.576 115.427 289.826C109.847 288.076 102.153 296.767 98.2425 309.238C94.332 321.709 95.6856 333.237 101.266 334.987C106.846 336.737 114.54 328.045 118.451 315.575Z" fill="black" stroke="#00C797" stroke-miterlimit="10"/>
<path d="M273.359 111.125C272.985 111.017 272.558 111.086 272.16 111.366L269.993 112.875C269.595 113.15 269.167 113.219 268.794 113.11L281.658 116.786C282.032 116.894 282.459 116.82 282.857 116.55L285.024 115.042C285.422 114.766 285.85 114.698 286.223 114.801L273.359 111.125Z" fill="#00C797" stroke="#00C797" stroke-miterlimit="10"/>
<path d="M307.043 44.6818L306.138 42.1512C305.957 41.6451 305.608 41.3159 305.195 41.1979L292.331 37.5225C292.744 37.6404 293.092 37.9696 293.274 38.4757L294.178 41.0063C294.36 41.5075 294.704 41.8367 295.117 41.9547L307.981 45.6301C307.573 45.5122 307.224 45.183 307.043 44.6818Z" fill="black" stroke="#00C797" stroke-miterlimit="10"/>
<path d="M282.886 119.616C282.513 119.508 282.085 119.577 281.687 119.857L279.521 121.365C279.123 121.64 278.695 121.714 278.317 121.606L291.181 125.282C291.559 125.39 291.987 125.316 292.385 125.041L294.552 123.532C294.95 123.257 295.377 123.188 295.751 123.291L282.886 119.616Z" fill="#00C797" stroke="#00C797" stroke-miterlimit="10"/>
<path d="M319.587 43.5172L318.683 40.9866C318.502 40.4805 318.153 40.1562 317.745 40.0383L304.881 36.3628C305.288 36.4807 305.637 36.8099 305.819 37.3111L306.723 39.8417C306.905 40.3429 307.249 40.6721 307.662 40.7901L320.526 44.4655C320.118 44.3476 319.769 44.0184 319.587 43.5172Z" fill="black" stroke="#00C797" stroke-miterlimit="10"/>
<path d="M295.431 118.452C295.053 118.343 294.625 118.417 294.227 118.692L286.872 123.803C286.474 124.078 286.046 124.147 285.673 124.043L298.537 127.719C298.91 127.827 299.338 127.758 299.736 127.478L307.092 122.368C307.49 122.093 307.922 122.019 308.295 122.127L295.431 118.452Z" fill="#00C797" stroke="#00C797" stroke-miterlimit="10"/>
<path d="M326.039 43.4334C325.857 42.9273 325.508 42.5981 325.1 42.4802L312.236 38.8047C312.644 38.9226 312.993 39.2518 313.175 39.758L316.246 48.3324C316.427 48.8385 316.776 49.1629 317.184 49.2808L330.048 52.9563C329.641 52.8383 329.292 52.5091 329.11 52.0079L326.039 43.4334Z" fill="black" stroke="#00C797" stroke-miterlimit="10"/>
<path d="M320.555 47.5316C321.386 46.9566 322.349 47.276 322.693 48.244L330.103 68.9112C330.452 69.8842 330.054 71.147 329.228 71.7219L327.061 73.2304C326.231 73.8053 325.838 75.0682 326.182 76.0362L329.253 84.6107C329.602 85.5836 329.204 86.8464 328.373 87.4262L326.206 88.9298C325.371 89.5097 324.978 90.7725 325.322 91.7405L326.226 94.2711C326.57 95.2391 326.177 96.5019 325.346 97.0768L317.99 102.187C317.155 102.767 316.762 104.03 317.106 104.998L318.01 107.528C318.354 108.496 317.961 109.759 317.13 110.334L299.402 122.653C298.571 123.228 297.608 122.908 297.264 121.94L296.36 119.41C296.016 118.442 295.053 118.122 294.218 118.702L286.862 123.812C286.031 124.387 285.068 124.068 284.724 123.1L283.82 120.569C283.476 119.601 282.513 119.282 281.683 119.857L279.516 121.365C278.68 121.945 277.717 121.626 277.373 120.653L274.302 112.078C273.958 111.11 272.99 110.791 272.165 111.366L269.998 112.875C269.167 113.449 268.204 113.13 267.855 112.157L260.446 91.4899C260.102 90.5219 260.495 89.2591 261.325 88.6842L263.492 87.1756C264.322 86.6007 264.716 85.3379 264.372 84.3699L261.301 75.7954C260.952 74.8225 261.35 73.5596 262.18 72.9798L264.347 71.4713C265.177 70.8964 265.571 69.6336 265.227 68.6656L264.322 66.135C263.979 65.167 264.372 63.9041 265.202 63.3292L272.558 58.2189C273.393 57.6391 273.786 56.3763 273.442 55.4083L272.538 52.8777C272.189 51.9048 272.587 50.642 273.413 50.067L291.142 37.7483C291.972 37.1734 292.935 37.4928 293.284 38.4657L294.188 40.9963C294.532 41.9643 295.495 42.2837 296.331 41.7039L303.686 36.5936C304.517 36.0186 305.48 36.338 305.824 37.3061L306.728 39.8366C307.072 40.8046 308.035 41.124 308.87 40.5442L311.037 39.0406C311.873 38.4608 312.836 38.7802 313.18 39.7531L316.251 48.3276C316.595 49.2956 317.563 49.615 318.388 49.0401L320.555 47.5316Z" fill="black" stroke="#00C797" stroke-miterlimit="10"/>
<path d="M317.14 110.324L299.411 122.643C299.013 122.918 298.586 122.987 298.212 122.884L311.076 126.559C311.455 126.667 311.877 126.599 312.275 126.318L330.004 114L317.14 110.324Z" fill="#00C797" stroke="#00C797" stroke-miterlimit="10"/>
<path d="M317.115 104.988L318.02 107.518C318.364 108.486 317.97 109.749 317.14 110.324L330.004 114C330.835 113.425 331.228 112.162 330.884 111.194L329.98 108.663L317.115 104.988Z" fill="black" stroke="#00C797" stroke-miterlimit="10"/>
<path d="M329.223 71.7222L327.056 73.2307C326.226 73.8056 325.833 75.0684 326.176 76.0364L339.041 79.7119C338.697 78.7439 339.09 77.4811 339.92 76.9062L342.087 75.3976L329.223 71.7222Z" fill="#00C797" stroke="#00C797" stroke-miterlimit="10"/>
<path d="M335.557 51.9197C335.375 51.4136 335.026 51.0893 334.618 50.9714L321.754 47.2959C322.162 47.4138 322.511 47.743 322.692 48.2442L330.102 68.9114C330.451 69.8844 330.053 71.1472 329.228 71.7221L342.092 75.3976C342.922 74.8227 343.315 73.5598 342.967 72.5869L335.557 51.9197Z" fill="black" stroke="#00C797" stroke-miterlimit="10"/>
<path d="M325.351 97.0718L317.995 102.182C317.16 102.762 316.767 104.025 317.111 104.993L329.975 108.668C329.631 107.7 330.024 106.437 330.859 105.858L338.215 100.747L325.351 97.0718Z" fill="#00C797" stroke="#00C797" stroke-miterlimit="10"/>
<path d="M328.368 87.4214L326.201 88.925C325.365 89.5048 324.972 90.7676 325.316 91.7357L338.18 95.4111C337.837 94.4431 338.23 93.1803 339.065 92.6005L341.232 91.0969L328.368 87.4214Z" fill="#00C797" stroke="#00C797" stroke-miterlimit="10"/>
<path d="M325.321 91.7354L326.225 94.2659C326.569 95.2339 326.176 96.4968 325.346 97.0717L338.21 100.747C339.04 100.172 339.434 98.9094 339.09 97.9414L338.185 95.4108L325.321 91.7354Z" fill="black" stroke="#00C797" stroke-miterlimit="10"/>
<path d="M326.177 76.0361L329.248 84.6106C329.596 85.5835 329.198 86.8464 328.368 87.4262L341.232 91.1017C342.068 90.5218 342.461 89.259 342.112 88.2861L339.041 79.7116L326.177 76.0361Z" fill="black" stroke="#00C797" stroke-miterlimit="10"/>
<path d="M304.138 77.8201L306.305 83.864L301.116 87.4707L295.932 91.0724L290.743 94.6791L287.068 97.2343C286.237 97.8092 285.844 99.072 286.188 100.04L287.092 102.571C287.436 103.539 288.404 103.863 289.235 103.288L292.91 100.733L298.099 97.1262L299.637 101.411C299.981 102.379 300.944 102.698 301.775 102.123L303.942 100.615C304.772 100.04 305.165 98.7772 304.821 97.8092L303.283 93.5244L308.472 89.9177L312.147 87.3625C312.978 86.7876 313.371 85.5199 313.022 84.5519L311.484 80.2671L309.946 75.9823C309.602 75.0143 308.639 74.6949 307.809 75.2698L304.133 77.825L304.138 77.8201Z" fill="#00C797"/>
<path d="M286.405 82.5812L287.943 86.866C288.291 87.8389 289.255 88.1583 290.085 87.5784L293.76 85.0233L298.944 81.4215L304.133 77.8148L302.595 73.5301C302.246 72.5571 301.283 72.2377 300.453 72.8176L296.777 75.3727L291.593 78.9745L286.405 82.5812Z" fill="#00C797"/>
<path d="M286.601 59.7914C285.771 60.3663 285.378 61.6291 285.722 62.5971L287.26 66.8819L282.071 70.4886L278.395 73.0437C277.565 73.6187 277.172 74.8815 277.521 75.8544L279.059 80.1392L280.597 84.424C280.941 85.392 281.904 85.7114 282.734 85.1365L286.41 82.5813L284.243 76.5374L289.432 72.9307L294.616 69.329L299.804 65.7223L303.48 63.1671C304.31 62.5922 304.703 61.3294 304.355 60.3565L303.45 57.8308C303.102 56.8579 302.138 56.5385 301.308 57.1134L297.633 59.6685L292.444 63.2752L290.906 58.9904C290.562 58.0224 289.599 57.703 288.768 58.2779L286.601 59.7865V59.7914Z" fill="#00C797"/>
</svg>
