<svg width="24" height="24" viewBox="0 0 24 24" fill="none" xmlns="http://www.w3.org/2000/svg">
<circle cx="12" cy="12" r="12" fill="#F8F8F8"/>
<path d="M16.3074 8.66485C15.6107 8.35493 14.8564 8.12999 14.0707 8.00002C14.0638 7.99981 14.0569 8.00105 14.0506 8.00364C14.0442 8.00623 14.0386 8.01011 14.034 8.01502C13.9397 8.17998 13.8297 8.39492 13.7564 8.55988C12.923 8.43991 12.0754 8.43991 11.242 8.55988C11.1687 8.38992 11.0587 8.17998 10.9591 8.01502C10.9539 8.00502 10.9382 8.00002 10.9225 8.00002C10.1367 8.12999 9.38768 8.35493 8.68575 8.66485C8.68051 8.66485 8.67527 8.66985 8.67004 8.67485C7.24524 10.7093 6.85237 12.6888 7.04618 14.6483C7.04618 14.6583 7.05142 14.6683 7.0619 14.6733C8.00478 15.3331 8.911 15.733 9.80673 15.9979C9.82245 16.0029 9.83816 15.9979 9.8434 15.9879C10.0529 15.713 10.2415 15.4231 10.4039 15.1182C10.4144 15.0982 10.4039 15.0782 10.3829 15.0732C10.0844 14.9632 9.8015 14.8332 9.52387 14.6833C9.50292 14.6733 9.50292 14.6433 9.51863 14.6283C9.57625 14.5883 9.63387 14.5433 9.69149 14.5033C9.70197 14.4933 9.71768 14.4933 9.72816 14.4983C11.5301 15.2831 13.4735 15.2831 15.2545 14.4983C15.265 14.4933 15.2807 14.4933 15.2912 14.5033C15.3488 14.5483 15.4064 14.5883 15.464 14.6333C15.485 14.6483 15.485 14.6783 15.4588 14.6883C15.1864 14.8432 14.8983 14.9682 14.5997 15.0782C14.5788 15.0832 14.5735 15.1082 14.5788 15.1232C14.7464 15.4281 14.935 15.718 15.1393 15.9929C15.155 15.9979 15.1707 16.0029 15.1864 15.9979C16.0874 15.733 16.9936 15.3331 17.9365 14.6733C17.947 14.6683 17.9522 14.6583 17.9522 14.6483C18.1827 12.3839 17.5698 10.4194 16.3283 8.67485C16.3231 8.66985 16.3179 8.66485 16.3074 8.66485ZM10.6763 13.4536C10.1367 13.4536 9.68626 12.9787 9.68626 12.3939C9.68626 11.809 10.1263 11.3342 10.6763 11.3342C11.2315 11.3342 11.6715 11.814 11.6663 12.3939C11.6663 12.9787 11.2263 13.4536 10.6763 13.4536ZM14.3273 13.4536C13.7878 13.4536 13.3373 12.9787 13.3373 12.3939C13.3373 11.809 13.7773 11.3342 14.3273 11.3342C14.8826 11.3342 15.3226 11.814 15.3174 12.3939C15.3174 12.9787 14.8826 13.4536 14.3273 13.4536Z" fill="black"/>
</svg>
