<svg width="116" height="23" viewBox="0 0 116 23" fill="none" xmlns="http://www.w3.org/2000/svg">
<path d="M24.4358 19.479H18.5749V1.17894H24.4358C30.1659 1.17894 33.6459 4.83894 33.6459 10.3289C33.6459 15.7928 30.1659 19.479 24.4358 19.479ZM20.8512 3.27037V17.3875H24.4358C28.8839 17.3875 31.3172 14.5902 31.3172 10.3289C31.3172 6.04151 28.8839 3.27037 24.4358 3.27037H20.8512Z" fill="white"/>
<path d="M44.9954 19.6904C39.7408 19.6904 36.0731 15.9553 36.0731 10.4937C36.0731 5.03199 39.7408 1.29692 44.9954 1.29692C50.2501 1.29692 53.9178 5.03199 53.9178 10.4937C53.9178 15.9553 50.2501 19.6904 44.9954 19.6904ZM44.9954 17.1181C48.5573 17.1181 50.9554 14.3344 50.9554 10.4937C50.9554 6.65287 48.5573 3.86918 44.9954 3.86918C41.4335 3.86918 39.0354 6.65287 39.0354 10.4937C39.0354 14.3344 41.4335 17.1181 44.9954 17.1181Z" fill="white"/>
<path d="M69.8239 10.4937V1.50834H72.7158V19.479H70.2119L69.8239 17.0829C68.7659 18.4219 67.0379 19.6904 64.0755 19.6904C60.1257 19.6904 56.987 17.4705 56.987 11.5155V1.50834H59.8789V11.3393C59.8789 15.0744 61.5716 17.0476 64.5693 17.0476C67.849 17.0476 69.8239 14.5459 69.8239 10.4937Z" fill="white"/>
<path d="M84.3901 19.6358C79.3141 19.6358 75.7819 15.8713 75.7819 10.329C75.7819 4.78672 79.2095 1.02216 84.5209 1.02216C88.5765 1.02216 91.6377 3.37501 92.2657 7.13957H89.8324C89.2044 4.60372 87.2421 3.11358 84.4686 3.11358C80.6224 3.11358 78.1105 6.09386 78.1105 10.329C78.1105 14.5641 80.6224 17.5444 84.4163 17.5444C87.7915 17.5444 90.2248 15.5314 90.2248 12.2897V11.6623H84.7302V9.57085H92.4489V19.479H90.4865L90.3295 16.8124C89.4922 18.1457 87.5299 19.6358 84.3901 19.6358Z" fill="white"/>
<path d="M96.0091 19.479V1.17894H98.2855V9.12638H107.757V1.17894H110.034V19.479H107.757V11.2178H98.2855V19.479H96.0091Z" fill="white"/>
<path d="M113.013 18.1718C113.013 17.283 113.641 16.7078 114.504 16.7078C115.368 16.7078 115.996 17.283 115.996 18.1718C115.996 19.0607 115.368 19.6358 114.504 19.6358C113.641 19.6358 113.013 19.0607 113.013 18.1718Z" fill="white"/>
<path d="M3.49514 4.25524L3.49514 17.6923L14.2184 6.96602L7.53285 0.280425L3.49514 4.25524Z" fill="#00C797"/>
<path d="M3.49551 18.6209L10.3668 11.7466L16.1149 11.7466L16.1149 21.1669L5.40354 21.1669C5.40354 21.1669 3.49551 20.9183 3.49551 18.6209Z" fill="#00C797"/>
<path d="M3.49858 16.0029C1.56638 16.0029 2.38398e-05 17.5692 2.36709e-05 19.5014C2.3502e-05 21.4336 1.56638 23 3.49858 23C5.43078 23 6.99713 21.4336 6.99713 19.5014C6.99713 17.5692 5.43078 16.0029 3.49858 16.0029Z" fill="white"/>
</svg>
