<svg width="76" height="52" viewBox="0 0 76 52" fill="none" xmlns="http://www.w3.org/2000/svg">
<path d="M27.0709 16.4053L11.6019 20.6663L12.0131 15.9872C12.113 14.915 13.2006 13.7718 14.4289 13.4427L25.3918 10.4277C26.6201 10.0986 27.5459 10.6637 27.4821 11.7262L27.0709 16.4053Z" fill="#EBE9E9" stroke="#00C797" stroke-miterlimit="10"/>
<path d="M27.0708 16.4053L34.6164 26.5027L19.1474 30.7638L11.6019 20.6664L27.0708 16.4053Z" fill="#00C797" stroke="#00C797" stroke-miterlimit="10"/>
<path d="M35.0541 21.7778C35.0754 21.4236 34.9882 21.0985 34.8121 20.8746L27.2401 10.823C27.4162 11.0469 27.5033 11.372 27.4821 11.7262L27.0709 16.4053L34.6429 26.4569L35.0541 21.7778Z" fill="#EBE9E9" stroke="#00C797" stroke-miterlimit="10"/>
<path d="M31.3875 28.1808L38.9595 38.2324L33.478 39.7399L25.906 29.6883L31.3875 28.1808Z" fill="#00C797" stroke="#00C797" stroke-miterlimit="10"/>
<path d="M33.8033 25.6362C33.7034 26.7084 32.6158 27.8517 31.3875 28.1808L25.9061 29.6882L27.0803 16.4413L32.5617 14.9338C33.79 14.6046 34.7158 15.1697 34.6521 16.2322L33.8033 25.6362Z" fill="#EBE9E9" stroke="#00C797" stroke-miterlimit="10"/>
<path d="M41.3753 35.6879L42.1879 26.2935C42.2092 25.9394 42.1221 25.6142 41.9459 25.3904L34.374 15.3388C34.5501 15.5626 34.6372 15.8877 34.616 16.2419L33.8032 25.6362C33.7033 26.7084 32.6158 27.8517 31.3875 28.1808L38.9595 38.2324C40.1878 37.9033 41.2754 36.7601 41.3753 35.6879Z" fill="#EBE9E9" stroke="#00C797" stroke-miterlimit="10"/>
<path d="M10.4375 33.9489L4.95595 35.4564C3.72766 35.7855 2.80187 35.2205 2.86565 34.158L3.67837 24.7636C3.77827 23.6914 4.86584 22.5482 6.09412 22.219L11.5756 20.7116L10.4375 33.9489Z" fill="#EBE9E9" stroke="#00C797" stroke-miterlimit="10"/>
<path d="M18.0094 44.0005L10.4375 33.9489L4.95595 35.4564C4.12505 35.679 3.45993 35.5088 3.10765 35.0611L10.6797 45.1127C11.032 45.5604 11.7068 45.7668 12.528 45.508L18.0094 44.0005Z" fill="#00C797" stroke="#00C797" stroke-miterlimit="10"/>
<path d="M11.6021 20.6658L19.1476 30.7632L18.0094 44.0005L10.4375 33.9489L11.6021 20.6658Z" fill="#00C797" stroke="#00C797" stroke-miterlimit="10"/>
<path d="M30.6252 47.0094L23.0532 36.9577L12.0902 39.9727C11.2594 40.1953 10.5942 40.0251 10.2419 39.5774L17.814 49.629C18.1663 50.0767 18.8411 50.2831 19.6623 50.0243L30.6252 47.0094Z" fill="#00C797" stroke="#00C797" stroke-miterlimit="10"/>
<path d="M25.4954 34.3674C25.3955 35.4396 24.3079 36.5828 23.0796 36.912L12.1167 39.9269C10.8885 40.256 9.96266 39.691 10.0264 38.6284L10.4376 33.9493L25.9066 29.6883L25.4954 34.3674Z" fill="#EBE9E9" stroke="#00C797" stroke-miterlimit="10"/>
<path d="M33.0771 44.4551L33.4883 39.776L25.9163 29.7244L25.5051 34.4035C25.4052 35.4757 24.3176 36.619 23.0893 36.9481L30.6613 46.9997C31.8896 46.6705 32.9772 45.5273 33.0771 44.4551Z" fill="#EBE9E9" stroke="#00C797" stroke-miterlimit="10"/>
<path d="M57.5667 8.62344L42.0977 12.8845L42.5089 8.20542C42.6088 7.13322 43.6963 5.98996 44.9246 5.66085L55.8876 2.64591C57.1159 2.31679 58.0417 2.88181 57.9779 3.94433L57.5667 8.62344Z" fill="#EBE9E9" stroke="#00C797" stroke-miterlimit="10"/>
<path d="M57.5666 8.62344L65.1387 18.675L49.6336 22.9458L42.0977 12.8845L57.5666 8.62344Z" fill="#00C797" stroke="#00C797" stroke-miterlimit="10"/>
<path d="M65.5498 13.996C65.5711 13.6418 65.484 13.3167 65.3078 13.0928L57.7359 3.04116C57.912 3.265 57.9991 3.59014 57.9779 3.94431L57.5667 8.62343L65.1387 18.675L65.5498 13.996Z" fill="#EBE9E9" stroke="#00C797" stroke-miterlimit="10"/>
<path d="M40.9234 26.1317L35.442 27.6391C34.2137 27.9682 33.2879 27.4032 33.3517 26.3407L34.1644 16.9463C34.2643 15.8741 35.3519 14.7309 36.5802 14.4018L42.0616 12.8943L40.9234 26.1317Z" fill="#EBE9E9" stroke="#00C797" stroke-miterlimit="10"/>
<path d="M48.4955 36.1833L40.9234 26.1317L35.442 27.6391C34.6111 27.8618 33.946 27.6915 33.5937 27.2439L41.1657 37.2955C41.518 37.7431 42.1928 37.9495 43.014 37.6908L48.4955 36.1833Z" fill="#00C797" stroke="#00C797" stroke-miterlimit="10"/>
<path d="M42.0978 12.8847L49.6337 22.946L48.4955 36.1833L40.9234 26.1317L42.0978 12.8847Z" fill="#EBE9E9" stroke="#00C797" stroke-miterlimit="10"/>
<path d="M61.8834 20.3991L69.4554 30.4507L63.9739 31.9582L56.3922 21.8704L61.8834 20.3991Z" fill="#00C797" stroke="#00C797" stroke-miterlimit="10"/>
<path d="M64.2895 17.8184C64.1896 18.8906 63.102 20.0338 61.8737 20.3629L56.3923 21.8704L57.5665 8.6234L63.048 7.11594C64.2762 6.78682 65.202 7.35184 65.1383 8.41436L64.2895 17.8184Z" fill="#EBE9E9" stroke="#00C797" stroke-miterlimit="10"/>
<path d="M71.8712 27.9061L72.6838 18.5118C72.7051 18.1576 72.618 17.8325 72.4418 17.6087L64.8699 7.557C65.046 7.78084 65.1331 8.10598 65.1119 8.46015L64.2992 17.8545C64.1993 18.9267 63.1117 20.07 61.8834 20.3991L69.4554 30.4507C70.6837 30.1215 71.7713 28.9783 71.8712 27.9061Z" fill="#EBE9E9" stroke="#00C797" stroke-miterlimit="10"/>
<path d="M61.1467 39.1818L53.5747 29.1301L42.6118 32.1451C41.7809 32.3677 41.1158 32.1975 40.7635 31.7498L48.3355 41.8014C48.6877 42.2491 49.3625 42.4555 50.1838 42.1967L61.1467 39.1818Z" fill="#00C797" stroke="#00C797" stroke-miterlimit="10"/>
<path d="M55.9904 26.5856C55.8905 27.6578 54.803 28.801 53.5747 29.1301L42.6118 32.1451C41.3835 32.4742 40.4577 31.9091 40.5215 30.8466L40.9326 26.1675L56.4017 21.9065L55.9904 26.5856Z" fill="#EBE9E9" stroke="#00C797" stroke-miterlimit="10"/>
<path d="M63.5625 36.6372L63.9736 31.9581L56.4017 21.9065L55.9905 26.5855C55.8906 27.6577 54.803 28.801 53.5747 29.1301L61.1467 39.1817C62.375 38.8526 63.4626 37.7094 63.5625 36.6372Z" fill="#EBE9E9" stroke="#00C797" stroke-miterlimit="10"/>
</svg>
