<svg width="425" height="476" viewBox="0 0 425 476" fill="none" xmlns="http://www.w3.org/2000/svg">
<path d="M91.0679 325.822L90.5179 327.92C89.7036 331.02 91.3159 334.844 94.1091 336.413L118.369 350.082L116.374 333.7L91.0733 325.822H91.0679Z" fill="#EBE9E9" stroke="black" stroke-linecap="round" stroke-linejoin="round"/>
<path d="M321.983 445.764L302.981 428.099C299.276 424.653 292.104 421.892 287.041 421.968L270.627 422.205C264.603 422.291 255.043 420.69 249.376 418.646L192.702 398.182L185.401 369.312L150.443 363.429L122.548 352.046L124.306 338.263L136.272 336.483L253.414 327.349L228.329 315.507C222.446 312.73 217.604 305.138 217.566 298.635L217.55 296.009C217.545 294.79 218.068 293.625 218.984 292.827C219.901 292.029 221.125 291.662 222.333 291.835L235 293.641C241.195 294.526 247.93 290.535 256.089 292.088L294.968 299.476C298.451 300.139 303.401 302.603 305.936 305.084L340.058 338.446C342.42 340.759 345.289 345.186 346.432 348.292L349.602 356.92C351.269 361.45 355.944 367.3 359.993 369.926L379.012 382.242C366.54 383.585 340.037 404.405 329.721 417.287C317.82 432.148 321.972 445.775 321.972 445.775L321.983 445.764Z" fill="#EBE9E9"/>
<path d="M424 404.162L387.812 384.184C385.553 382.938 381.6 382.059 379.028 382.232C366.556 383.574 340.053 404.394 329.737 417.276C317.836 432.137 320.408 449.096 327.289 455.874L346.496 474.796" fill="black"/>
<path d="M424 404.162L387.812 384.184C385.553 382.938 381.6 382.059 379.028 382.232C366.556 383.574 340.053 404.394 329.737 417.276C317.836 432.137 320.408 449.096 327.289 455.874L346.496 474.796" stroke="#00C797" stroke-linecap="round" stroke-linejoin="round"/>
<path d="M72.1085 304.943L123.168 286.355C128.496 284.414 137.21 284.414 142.538 286.355L284.544 338.041H305.666V347.105C305.666 348.383 304.334 349.661 301.67 350.632L233.484 375.453C228.157 377.394 219.443 377.394 214.115 375.453L54.9825 317.534C52.3187 316.563 50.9868 315.285 50.9868 314.007V304.943H72.1085Z" fill="black" stroke="#00C797" stroke-linecap="round" stroke-linejoin="round"/>
<path d="M89.5689 327.785C90.5503 328.141 91.3537 327.58 91.3537 326.534C91.3537 325.488 90.5503 324.339 89.5689 323.983L79.6254 320.365C78.644 320.009 77.8406 320.57 77.8406 321.616C77.8406 322.662 78.644 323.811 79.6254 324.166L89.5689 327.785Z" stroke="#00C797" stroke-linecap="round" stroke-linejoin="round"/>
<path d="M104.57 333.242C105.552 333.598 106.355 333.037 106.355 331.991C106.355 330.945 105.552 329.796 104.57 329.44L94.6269 325.822C93.6455 325.466 92.842 326.027 92.842 327.073C92.842 328.119 93.6455 329.268 94.6269 329.623L104.57 333.242Z" stroke="#00C797" stroke-linecap="round" stroke-linejoin="round"/>
<path d="M303.854 338.047V349.587C303.266 349.964 302.549 350.314 301.67 350.633L233.484 375.453C231.678 376.111 229.483 376.537 227.165 376.753V327.349H255.145L284.544 338.047H303.854Z" fill="#00C797"/>
<path d="M224.409 376.898V367.839" stroke="#00C797" stroke-miterlimit="10"/>
<path d="M301.676 341.568C307.003 339.627 307.003 336.456 301.676 334.52L142.543 276.601C137.216 274.66 128.502 274.66 123.174 276.601L54.9881 301.422C49.6605 303.363 49.6605 306.534 54.9881 308.47L214.121 366.389C219.448 368.33 228.162 368.33 233.49 366.389L301.676 341.568Z" fill="black" stroke="#00C797" stroke-linecap="round" stroke-linejoin="round"/>
<path d="M184.161 303.201C197.917 303.201 211.273 304.269 224.042 306.264L301.676 334.52C302.199 334.708 302.657 334.919 303.083 335.129C303.649 335.501 304.205 335.884 304.765 336.261C306.626 338.041 305.607 340.139 301.681 341.567L233.495 366.388C228.168 368.33 219.454 368.33 214.126 366.388L90.7283 321.476C117.253 309.958 149.445 303.201 184.166 303.201H184.161Z" fill="#00C797" stroke="#00C797" stroke-linecap="round" stroke-linejoin="round"/>
<path d="M238.591 336.564C233.102 335.901 235.755 342.458 244.523 351.209C247.337 354.019 250.438 356.704 253.538 359.093L265.515 354.736C265.159 354.364 264.792 353.986 264.409 353.609C255.642 344.857 244.086 337.232 238.591 336.575V336.564Z" fill="black" stroke="#00C797" stroke-linecap="round" stroke-linejoin="round"/>
<path d="M236.1 337.157L232.034 342.053C230.535 343.86 233.657 349.322 240.457 356.106C242.382 358.025 244.442 359.886 246.545 361.638L253.538 359.093C250.443 356.71 247.337 354.019 244.522 351.21C237.723 344.426 234.601 338.964 236.1 337.157Z" fill="#00C797"/>
<path d="M239.087 345.079C236.191 341.255 235.091 338.37 236.1 337.157L232.034 342.053C231.058 343.229 232.05 345.952 234.725 349.576L239.087 345.079Z" fill="black"/>
<path d="M235.808 350.988L239.874 346.092C238.224 344.043 237.038 342.226 236.375 340.737L232.309 345.634C232.977 347.116 234.158 348.934 235.808 350.983V350.988Z" fill="#B5DF77"/>
<path d="M236.1 337.157L232.034 342.053C230.535 343.86 233.657 349.322 240.457 356.106C242.382 358.025 244.442 359.886 246.545 361.638L253.538 359.093C250.443 356.71 247.337 354.019 244.522 351.21C237.723 344.426 234.601 338.964 236.1 337.157Z" stroke="#00C797" stroke-linecap="round" stroke-linejoin="round"/>
<path d="M301.675 341.567L233.49 366.388C228.162 368.329 219.448 368.329 214.12 366.388L90.7227 321.476" stroke="black" stroke-linecap="round" stroke-linejoin="round"/>
<path d="M113.193 334.99C108.679 336.171 107.482 340.026 110.529 343.558L133.435 370.072C136.358 373.459 142.414 376.09 146.884 375.917L188.642 374.337L152.734 353.879L143.972 351.9L129.364 337.481C126.026 334.186 121.195 332.892 116.655 334.084L113.198 334.99H113.193Z" fill="#EBE9E9" stroke="#EBE9E9" stroke-linecap="round" stroke-linejoin="round"/>
<path d="M109.941 341.547C109.941 341.547 111.688 343.1 115.9 342.733L121.88 350.789C121.88 350.789 121.421 352.385 119.448 353.076" stroke="black" stroke-linecap="round" stroke-linejoin="round"/>
<path d="M118.472 283.256L119.489 282.809L119.042 281.792L118.025 282.239L118.472 283.256Z" fill="white"/>
<path d="M81.9958 307.351L83.304 306.776L82.7289 305.468L81.4208 306.043L81.9958 307.351Z" fill="white"/>
<path d="M115.879 296.289L116.5 296.647L116.859 296.026L116.238 295.668L115.879 296.289Z" fill="white"/>
<path d="M121.044 295.731L121.493 295.99L121.752 295.542L121.303 295.283L121.044 295.731Z" fill="white"/>
<path d="M120.653 306.951L121.101 307.21L121.36 306.762L120.912 306.503L120.653 306.951Z" fill="white"/>
<path d="M144.909 289.488L145.357 289.747L145.616 289.299L145.167 289.04L144.909 289.488Z" fill="white"/>
<path d="M165.099 292.785L165.547 293.044L165.806 292.596L165.357 292.337L165.099 292.785Z" fill="white"/>
<path d="M85.2559 309.723L86.1545 309.992L86.4242 309.094L85.5255 308.824L85.2559 309.723Z" fill="white"/>
<path d="M150.204 296.477L151.103 296.747L151.372 295.848L150.474 295.579L150.204 296.477Z" fill="white"/>
<path d="M118.409 294.75L119.308 295.02L119.578 294.121L118.679 293.851L118.409 294.75Z" fill="white"/>
<path d="M116.709 310.983L117.608 311.253L117.877 310.354L116.979 310.085L116.709 310.983Z" fill="white"/>
<path d="M112.191 290.913L113.089 291.183L113.359 290.284L112.46 290.014L112.191 290.913Z" fill="white"/>
<path d="M95.2202 295.336L96.1189 295.605L96.3885 294.707L95.4898 294.437L95.2202 295.336Z" fill="white"/>
<path d="M175.938 330.498C190.539 330.498 202.376 326.191 202.376 320.878C202.376 315.565 190.539 311.258 175.938 311.258C161.336 311.258 149.499 315.565 149.499 320.878C149.499 326.191 161.336 330.498 175.938 330.498Z" stroke="#B5DF77" stroke-miterlimit="10"/>
<path d="M149.504 320.878L118.741 229.289" stroke="white" stroke-miterlimit="10"/>
<path d="M240.958 205.995L242.284 202.042" stroke="#B5DF77" stroke-miterlimit="10"/>
<path d="M202.376 320.878L239.658 209.861" stroke="#B5DF77" stroke-miterlimit="10"/>
<path d="M246.092 306.076C246.092 311.474 248.567 314.073 248.567 314.073" stroke="black" stroke-linecap="round" stroke-linejoin="round"/>
<path d="M274.207 316.947C273.447 319.32 273.538 321.132 273.657 322" stroke="black" stroke-linecap="round" stroke-linejoin="round"/>
<path d="M224.409 389.851C224.409 389.851 221.357 383.45 220.721 377.298" stroke="black" stroke-linecap="round" stroke-linejoin="round"/>
<path d="M212.875 388.46L168.965 391.943C162.5 392.455 157.771 390.239 154.282 385.267L143.487 369.867L141.184 348.422C140.828 345.078 143.238 342.835 146.544 343.439L150.75 344.205C155.263 345.024 159.744 349.365 160.715 353.846L162.489 362.064L171.316 369.845L193.538 372.304" fill="#EBE9E9"/>
<path d="M147.811 376.036L143.487 369.867L141.184 348.422" stroke="black" stroke-linecap="round" stroke-linejoin="round"/>
<path d="M143.967 358.467L149.93 359.885C151.273 360.204 152.697 359.384 153.096 358.068L155.042 351.63C155.042 351.63 152.858 348.389 148.426 347.543L144.5 346.917" stroke="black" stroke-linecap="round" stroke-linejoin="round"/>
<path d="M161.907 359.33L162.813 363.531C163.837 368.26 162.133 370.967 162.133 370.967" stroke="black" stroke-linecap="round" stroke-linejoin="round"/>
<path d="M167.569 367.839C167.569 367.839 169.99 370.071 170.092 372.304" stroke="black" stroke-linecap="round" stroke-linejoin="round"/>
<path d="M217.83 383.385L202.894 382.819L194.369 380.355L195.134 363.542C194.525 359.238 190.513 355.183 186.215 354.536L182.851 354.029C181.082 353.76 179.389 354.838 178.882 356.553L173.964 373.14C172.999 376.397 173.409 381.568 174.87 384.636L178.92 393.108C180.721 396.877 185.541 400.678 189.634 401.552L219.998 408.044" fill="#EBE9E9"/>
<path d="M177.237 362.075L173.958 373.135C172.993 376.392 173.403 381.563 174.864 384.631L178.914 393.103C179.14 393.572 179.41 394.046 179.723 394.51" stroke="black" stroke-linecap="round" stroke-linejoin="round"/>
<path d="M217.83 383.385L202.894 382.819L195.129 380.797" stroke="black" stroke-linecap="round" stroke-linejoin="round"/>
<path d="M195.129 368.541L194.692 376.748C194.584 380.059 192.886 382.518 190.712 383.451" stroke="black" stroke-linecap="round" stroke-linejoin="round"/>
<path d="M202.516 385.785L202.894 388.783" stroke="black" stroke-linecap="round" stroke-linejoin="round"/>
<path d="M178.348 367.419L183.023 368.33C184.366 368.589 185.929 367.786 186.496 366.54L189.801 359.244C189.801 359.244 188.189 357.05 184.236 356.537L180.807 356.09" stroke="black" stroke-linecap="round" stroke-linejoin="round"/>
<path d="M296.24 93.9105L294.029 90.0712C292.109 86.7387 295.728 80.7155 302.953 75.7546C311.063 70.1789 320.64 68.0436 324.345 70.9824C324.749 71.3005 325.067 71.6672 325.299 72.077L327.51 75.9163C327.278 75.5119 326.96 75.1452 326.556 74.8217C322.851 71.8829 313.274 74.0183 305.164 79.5939C297.944 84.5602 294.32 90.5781 296.24 93.9105Z" fill="#00C797" stroke="#00C797" stroke-linecap="round" stroke-linejoin="round"/>
<path d="M318.58 90.232C310.476 95.8023 300.899 97.9376 297.194 94.9988C293.49 92.06 297.06 85.1578 305.164 79.5876C313.274 74.0119 322.851 71.8766 326.556 74.8154C330.26 77.7542 326.69 84.6564 318.586 90.232H318.58Z" fill="black" stroke="#00C797" stroke-linecap="round" stroke-linejoin="round"/>
<path d="M318.58 90.232C310.476 95.8023 300.899 97.9376 297.194 94.9988C293.49 92.06 297.06 85.1578 305.164 79.5876C313.274 74.0119 322.851 71.8766 326.556 74.8154C330.26 77.7542 326.69 84.6564 318.586 90.232H318.58Z" stroke="#00C797" stroke-linecap="round" stroke-linejoin="round"/>
<path d="M319.044 73.7204C322.247 73.2243 324.949 73.5479 326.55 74.8151C326.955 75.1332 327.273 75.4999 327.505 75.9097L325.294 72.0704C325.062 71.666 324.744 71.2993 324.339 70.9757C322.802 69.7571 320.252 69.412 317.221 69.8218L319.049 73.7204H319.044Z" fill="black"/>
<path d="M318.58 90.232C310.476 95.8023 300.899 97.9376 297.194 94.9988C293.49 92.06 297.06 85.1578 305.164 79.5876C313.274 74.0119 322.851 71.8766 326.556 74.8154C330.26 77.7542 326.69 84.6564 318.586 90.232H318.58Z" stroke="#00C797" stroke-linecap="round" stroke-linejoin="round"/>
<path d="M291.392 224.57C312.57 224.57 329.737 207.403 329.737 186.226C329.737 165.048 312.57 147.881 291.392 147.881C270.215 147.881 253.048 165.048 253.048 186.226C253.048 207.403 270.215 224.57 291.392 224.57Z" fill="black" stroke="#00C797" stroke-linecap="round" stroke-linejoin="round"/>
<path d="M281.643 179.852C296.903 162.375 317.292 158.277 303.126 151.963C300.522 150.804 296.785 149.779 293.183 149.666C272.816 149.03 255.787 165.023 255.151 185.39C254.946 191.974 256.488 198.207 259.34 203.648C262.36 208.286 266.372 213.025 270.179 215.862C270.179 215.862 266.518 197.172 281.643 179.847V179.852Z" fill="#00C797"/>
<path d="M320.3 193.516C319.939 193.344 319.551 193.274 319.265 193.22C323.072 189.159 321.649 181.713 315.819 181.896C315.383 181.912 314.628 181.982 313.479 182.252C312.875 182.403 312.255 182.548 311.619 182.689C311.279 181.039 310.88 179.415 310.427 177.819C309.354 178.057 308.238 178.272 307.079 178.477C307.456 180.09 307.785 181.729 308.071 183.384C307.116 183.546 306.14 183.702 305.132 183.837C304.895 182.171 304.614 180.521 304.301 178.903C303.072 179.07 301.805 179.221 300.505 179.345C300.732 180.974 300.931 182.635 301.109 184.306C299.907 184.425 298.677 184.522 297.426 184.603C296.941 184.635 296.45 184.662 295.96 184.689C294.789 184.748 293.619 184.792 292.465 184.813C292.503 186.539 292.535 188.28 292.568 190.028C293.77 190.001 294.984 189.957 296.202 189.898C296.715 189.871 297.221 189.844 297.728 189.812C297.852 192.438 297.928 195.08 297.955 197.695C297.976 199.993 297.96 202.171 297.912 204.22C297.405 204.252 296.892 204.279 296.375 204.306C295.151 204.371 293.932 204.414 292.719 204.436C292.719 205.983 292.719 207.455 292.719 208.852C293.889 208.825 295.064 208.787 296.245 208.728C296.741 208.701 297.238 208.674 297.728 208.642C298.995 208.561 300.236 208.464 301.444 208.345C301.314 209.693 301.158 210.966 300.969 212.163C302.29 212.034 303.574 211.883 304.819 211.71C305.083 210.502 305.31 209.219 305.499 207.865C306.512 207.725 307.499 207.574 308.459 207.407C308.227 208.766 307.947 210.06 307.629 211.273C308.804 211.068 309.936 210.847 311.02 210.61C311.414 209.381 311.754 208.081 312.034 206.706C312.832 206.528 313.603 206.345 314.353 206.151C322.937 203.6 323.223 194.897 320.284 193.506L320.3 193.516ZM313.377 187.623C316.531 186.997 316.24 190.47 315.539 191.44C315.021 192.163 314.256 192.373 313.846 192.481C311.462 193.042 308.858 193.522 306.07 193.905C306 192.271 305.892 190.642 305.741 189.014C308.475 188.636 311.031 188.167 313.371 187.617L313.377 187.623ZM316.138 200.607C315.496 201.621 314.477 201.896 313.986 202.031C311.538 202.619 308.853 203.12 305.962 203.519C306.07 202.004 306.135 200.424 306.151 198.779C309.084 198.375 311.818 197.863 314.304 197.264C317.599 196.579 316.542 199.966 316.138 200.602V200.607Z" fill="#EBE9E9"/>
<path d="M105.697 40.768C94.3627 35.7639 85.4006 23.6851 85.6864 13.801C85.7781 10.6034 86.8242 8.02585 88.5821 6.1709L85.0232 9.92934C83.2653 11.7843 82.2192 14.3618 82.1275 17.5595C81.8417 27.4436 90.8037 39.517 102.138 44.5264C109.812 47.9182 116.606 47.201 120.289 43.3185L123.848 39.5601C120.17 43.4426 113.376 44.1597 105.697 40.768Z" fill="#00C797"/>
<path d="M105.697 40.7684C102.241 39.2424 99.0055 37.0531 96.1853 34.4756L92.5779 38.1909C95.4088 40.79 98.6604 42.99 102.133 44.5269C109.806 47.9186 116.601 47.2014 120.284 43.319L123.843 39.5605C120.165 43.443 113.371 44.1602 105.692 40.7684H105.697Z" fill="black"/>
<path d="M85.6866 13.8066C85.9723 3.91708 95.3927 -0.0354877 106.727 4.96858C118.067 9.97804 127.029 22.0514 126.744 31.9409C126.458 41.825 117.037 45.783 105.703 40.7735C94.3682 35.7695 85.4062 23.6907 85.692 13.8066H85.6866Z" fill="black" stroke="#00C797" stroke-linecap="round" stroke-linejoin="round"/>
<path d="M85.6866 13.8066C85.9723 3.91708 95.3927 -0.0354876 106.727 4.96858C118.067 9.97804 127.029 22.0514 126.744 31.9409C126.458 41.825 117.037 45.783 105.703 40.7735C94.3682 35.7695 85.4062 23.6907 85.692 13.8066H85.6866Z" stroke="#00C797" stroke-linecap="round" stroke-linejoin="round"/>
<path d="M90.1028 35.7046L93.7048 31.9947C91.7636 29.8593 90.0974 27.5406 88.7925 25.1572L85.2012 28.8564C86.5007 31.2452 88.1615 33.5638 90.1028 35.7046Z" fill="#B5DF77"/>
<path d="M105.697 40.768C94.3627 35.7639 85.4006 23.6851 85.6864 13.801C85.7781 10.6034 86.8242 8.02585 88.5821 6.1709L85.0232 9.92934C83.2653 11.7843 82.2192 14.3618 82.1275 17.5595C81.8417 27.4436 90.8037 39.517 102.138 44.5264C109.812 47.9182 116.606 47.201 120.289 43.3185L123.848 39.5601C120.17 43.4426 113.376 44.1597 105.697 40.768V40.768Z" stroke="#00C797" stroke-miterlimit="10"/>
<path d="M372.126 159.334L368.901 164.354C366.103 168.711 356.666 168.102 346.265 162.531C334.59 156.276 326.119 146.144 327.343 139.9C327.478 139.221 327.72 138.617 328.06 138.083L331.285 133.062C330.945 133.596 330.702 134.2 330.568 134.88C329.343 141.124 337.809 151.262 349.489 157.511C359.891 163.082 369.327 163.691 372.126 159.334Z" fill="#00C797"/>
<path d="M335.135 146.123L331.581 150.744C332.719 152.157 334.056 153.575 335.555 154.961L339.152 150.281C337.648 148.922 336.294 147.525 335.129 146.128L335.135 146.123Z" fill="#B5DF77"/>
<path d="M353.927 134.886C365.596 141.135 374.067 151.267 372.843 157.517C371.619 163.761 361.158 163.761 349.489 157.512C337.815 151.257 329.343 141.124 330.568 134.88C331.792 128.636 342.253 128.636 353.927 134.891V134.886Z" fill="black" stroke="#00C797" stroke-linecap="round" stroke-linejoin="round"/>
<path d="M353.927 134.886C365.596 141.135 374.067 151.267 372.843 157.517C371.619 163.761 361.158 163.761 349.489 157.512C337.815 151.257 329.343 141.124 330.568 134.88C331.792 128.636 342.253 128.636 353.927 134.891V134.886Z" stroke="#00C797" stroke-linecap="round" stroke-linejoin="round"/>
<path d="M333.895 144.532C331.323 141.005 330.039 137.581 330.568 134.88C330.702 134.2 330.945 133.596 331.285 133.062L328.06 138.083C327.72 138.617 327.478 139.221 327.343 139.9C326.836 142.494 328.001 145.751 330.363 149.126L333.895 144.532Z" fill="black"/>
<path d="M353.927 134.886C365.596 141.135 374.067 151.267 372.843 157.517C371.619 163.761 361.158 163.761 349.489 157.512C337.815 151.257 329.343 141.124 330.568 134.88C331.792 128.636 342.253 128.636 353.927 134.891V134.886Z" stroke="#00C797" stroke-linecap="round" stroke-linejoin="round"/>
<path d="M372.126 159.334L368.901 164.354C366.103 168.711 356.666 168.102 346.265 162.531C334.59 156.276 326.119 146.144 327.343 139.9C327.478 139.221 327.72 138.617 328.06 138.083L331.285 133.062C330.945 133.596 330.702 134.2 330.568 134.88C329.343 141.124 337.809 151.262 349.489 157.511C359.891 163.082 369.327 163.691 372.126 159.334V159.334Z" stroke="#00C797" stroke-miterlimit="10"/>
<path d="M29.4552 100.709C45.1706 100.709 57.9105 87.9695 57.9105 72.2541C57.9105 56.5387 45.1706 43.7988 29.4552 43.7988C13.7398 43.7988 1 56.5387 1 72.2541C1 87.9695 13.7398 100.709 29.4552 100.709Z" fill="black" stroke="#00C797" stroke-linecap="round" stroke-linejoin="round"/>
<path d="M44.5808 57.3389C43.0655 57.8835 42.3268 59.5875 42.9523 61.0704C45.1901 66.3387 49.2343 79.3449 40.8277 90.6311C40.0566 91.661 40.4988 93.1493 41.7121 93.586C44.1494 94.4758 45.4597 93.489 45.8965 93.0468C46.069 92.8689 46.2578 92.6963 46.4519 92.5345C52.0276 87.8594 55.6674 80.9249 55.91 73.0845C56.0718 67.8971 54.7291 63.0116 52.2756 58.8488C51.4182 57.3928 49.8275 56.5247 48.1397 56.5948C46.8402 56.6487 45.6107 56.9668 44.5862 57.3335L44.5808 57.3389Z" fill="#00C797"/>
<path d="M28.4306 81.1735C23.9388 80.8608 22.8819 80.7422 19.4902 80.2784C19.465 78.2114 19.6645 72.7849 20.0887 63.999C23.6368 67.0295 24.3324 67.5256 32.8847 73.6189C30.814 77.2857 30.4366 77.9166 28.4306 81.1735Z" fill="#EBE9E9"/>
<path d="M34.1571 90.3623C28.6462 87.5044 24.6397 85.245 20.4714 82.139C23.2862 82.4842 24.451 82.6244 29.4173 82.9048C31.6066 79.4051 32.108 78.5747 33.8875 75.4688C34.0385 80.4297 33.9199 85.4014 34.1571 90.3623Z" fill="#EBE9E9"/>
<path d="M89.8597 226.458C78.4927 204.997 111.877 154.816 111.877 154.816L73.2191 110.842C73.2191 110.842 39.8406 161.028 51.2022 182.484L89.8597 226.458Z" fill="#00C797" stroke="#00C797" stroke-miterlimit="10"/>
<path d="M110.771 156.525C111.116 155.98 111.391 155.554 111.58 155.269C111.58 155.258 111.591 155.252 111.596 155.247C111.655 155.161 111.704 155.08 111.742 155.02C111.779 154.967 111.806 154.923 111.828 154.891C111.855 154.848 111.877 154.821 111.877 154.821L98.6654 139.793L76.1686 114.206C76.1686 114.206 65.5997 130.097 58.3794 147.822C57.8563 149.105 58.1044 150.583 59.0211 151.623L74.0387 168.701C73.6019 173.619 73.9793 178.844 75.3058 184.112C77.6299 193.338 82.4345 201.082 88.4793 206.393C89.4822 201.243 91.197 195.846 93.2515 190.556C99.1075 175.484 107.741 161.319 110.776 156.536L110.771 156.525Z" fill="#302247" stroke="#00C797" stroke-miterlimit="10"/>
<path d="M105.179 187.003C120.386 147.763 172.432 98.0622 172.432 98.0622L133.775 54.0879C133.775 54.0879 81.7281 103.789 66.5217 143.029L105.179 187.003Z" fill="#00C797" stroke="#00C797" stroke-miterlimit="10"/>
<path d="M105.179 187.002C110.323 173.732 119.679 159.27 129.806 145.929C123.319 136.773 113.753 131.602 104.176 133.284C92.3779 135.355 84.1384 147.185 83.0222 161.804L105.174 187.002H105.179Z" fill="#302247" stroke="#00C797" stroke-miterlimit="10"/>
<path d="M172.432 98.0622L133.775 54.0879C133.775 54.0879 101.631 84.7863 80.488 116.978L129.531 146.296C149.423 120.036 172.432 98.0568 172.432 98.0568V98.0622Z" fill="black" stroke="#00C797" stroke-miterlimit="10"/>
<path d="M237.561 57.8571C237.561 57.8571 180.79 93.7591 143.087 140.268L104.43 96.2935C142.127 49.7848 198.903 13.8828 198.903 13.8828L237.561 57.8571Z" fill="#302247" stroke="#00C797" stroke-linecap="round" stroke-linejoin="round"/>
<path d="M154.783 54.7991C204.878 13.4886 251.165 1 251.165 1L289.823 44.9743C289.823 44.9743 243.541 57.4575 193.441 98.7734L154.783 54.7991Z" fill="#302247" stroke="#00C797" stroke-linecap="round" stroke-linejoin="round"/>
<path d="M276.547 18.8867C276.547 18.8867 253.15 4.60785 204.08 29.6605L242.737 73.6349C291.807 48.5876 315.205 62.861 315.205 62.861L276.547 18.8867Z" fill="#302247" stroke="#00C797" stroke-linecap="round" stroke-linejoin="round"/>
<path d="M140.219 190.378C161.47 190.378 178.698 173.15 178.698 151.898C178.698 130.647 161.47 113.419 140.219 113.419C118.967 113.419 101.739 130.647 101.739 151.898C101.739 173.15 118.967 190.378 140.219 190.378Z" fill="#B5DF77"/>
<path d="M172.95 131.655L136.271 146.306L102.526 144.192C100.116 156.018 103.281 168.787 112.173 178.25C126.722 193.742 151.079 194.503 166.565 179.949C180.143 167.191 182.403 146.905 172.95 131.655Z" fill="#00C797"/>
<path d="M113.694 176.428C100.035 161.885 100.747 139.021 115.29 125.363C129.833 111.704 152.696 112.416 166.355 126.959C180.014 141.502 165.708 148.059 151.165 161.718C136.622 175.376 127.352 190.971 113.694 176.428Z" fill="black"/>
<path d="M137.56 138.445C134.422 138.925 131.402 139.534 128.539 140.262C128.382 148.75 120.014 151.845 116.562 147.941C111.963 142.737 115.533 131.823 123.411 132.53C126.614 132.816 127.627 135.549 128.01 136.579C130.874 135.857 133.888 135.242 137.021 134.762C136.401 132.88 134.508 127.148 125.972 126.986C125.983 125.487 126.058 124.107 126.193 122.861C124.904 123.212 123.653 123.584 122.451 123.988C122.23 125.088 122.068 126.285 121.96 127.563C121.691 127.639 121.189 127.774 120.499 128.022C119.938 128.227 119.582 128.367 119.048 128.604C119.21 127.305 119.442 126.086 119.739 124.959C118.606 125.396 117.522 125.849 116.492 126.323C116.045 127.682 115.694 129.154 115.452 130.734C104.748 139.394 107.455 155.167 117.199 156.358C117.76 156.428 118.514 156.428 119.075 156.428C119.803 158.332 120.612 160.203 121.496 162.02C122.537 161.54 123.632 161.082 124.775 160.64C124.101 159.044 123.475 157.415 122.898 155.765C124.203 155.388 125.196 154.983 125.832 154.708C126.355 156.38 126.916 158.035 127.52 159.658C128.738 159.254 130 158.877 131.3 158.521C130.712 156.585 130.162 154.606 129.65 152.616C136.66 147.59 137.517 142.123 137.555 138.445H137.56Z" fill="#EBE9E9"/>
<path d="M140.219 190.378C161.47 190.378 178.698 173.15 178.698 151.898C178.698 130.647 161.47 113.419 140.219 113.419C118.967 113.419 101.739 130.647 101.739 151.898C101.739 173.15 118.967 190.378 140.219 190.378Z" stroke="black" stroke-miterlimit="10"/>
<path d="M78.6007 240.348C69.4769 229.968 72.1191 212.907 72.1191 212.907L33.4616 168.933C33.4616 168.933 30.8194 185.999 39.9432 196.374L78.6007 240.348Z" fill="#00C797" stroke="#00C797" stroke-miterlimit="10"/>
<path d="M101.243 248.054C89.9784 248.722 82.9522 245.293 78.6006 240.342L39.9431 196.368C44.2947 201.318 51.3209 204.742 62.5855 204.079L101.243 248.054Z" fill="#302247" stroke="#00C797" stroke-linecap="round" stroke-linejoin="round"/>
<path d="M63.815 256.773C63.815 256.773 87.2014 271.057 136.271 246.015L97.614 202.041C48.5493 227.083 25.1575 212.799 25.1575 212.799L63.815 256.773Z" fill="#302247" stroke="#00C797" stroke-linecap="round" stroke-linejoin="round"/>
<path d="M42.0462 223.982L44.5698 224.284C45.1683 224.354 45.3355 224.042 44.9364 223.589L43.3511 221.788C42.9521 221.335 42.1324 220.903 41.5339 220.828L40.0995 220.655C39.501 220.585 39.3338 220.898 39.7328 221.351L42.0462 223.982Z" fill="black"/>
<path d="M40.7413 226.172C41.1403 226.624 41.9599 227.056 42.5585 227.131L43.9928 227.304C44.5914 227.374 44.7586 227.061 44.3595 226.608L42.0462 223.977L39.5226 223.675C38.9241 223.605 38.7569 223.918 39.1559 224.37L40.7413 226.172Z" fill="black"/>
<path d="M69.213 254.88C69.612 255.333 70.4316 255.764 71.0302 255.84L72.4645 256.012C73.0631 256.082 73.2302 255.77 72.8312 255.317L71.2459 253.516C70.8468 253.063 70.0272 252.631 69.4286 252.556L66.905 252.254L69.2183 254.885L69.213 254.88Z" fill="black"/>
<path d="M62.5533 250.986C62.9524 251.439 63.772 251.871 64.3705 251.946L66.8941 252.248L64.5808 249.617C64.1818 249.164 63.3622 248.732 62.7636 248.657L61.3293 248.484C60.7307 248.414 60.5636 248.727 60.9626 249.18L62.5479 250.981L62.5533 250.986Z" fill="black"/>
<path d="M79.0794 256.608C84.1718 254.832 85.2379 244.614 81.4606 233.785C77.6833 222.956 70.4929 215.618 65.4005 217.394C60.3081 219.17 59.2421 229.389 63.0194 240.218C66.7967 251.046 73.987 258.385 79.0794 256.608Z" fill="#B5DF77"/>
<path d="M89.1912 274.665C89.1912 274.665 135.468 262.187 185.568 220.877L146.911 176.902C96.8159 218.213 50.5337 230.691 50.5337 230.691L89.1912 274.665Z" fill="#302247" stroke="#00C797" stroke-linecap="round" stroke-linejoin="round"/>
<path d="M102.467 207.622C72.4588 224.78 50.5337 230.69 50.5337 230.69L76.6433 260.391" stroke="#00C797" stroke-linecap="round" stroke-linejoin="round"/>
<path d="M119.475 255.792C128.209 255.792 135.29 244.501 135.29 230.572C135.29 216.644 128.209 205.353 119.475 205.353C110.74 205.353 103.659 216.644 103.659 230.572C103.659 244.501 110.74 255.792 119.475 255.792Z" fill="#B5DF77"/>
<path d="M64.9959 238.916C65.395 239.368 66.1876 239.579 66.7646 239.385L69.5956 238.409L66.5597 234.952L63.7287 235.928C63.1571 236.128 63.0169 236.662 63.416 237.114L65.0013 238.916H64.9959Z" fill="black"/>
<path d="M66.5489 234.946L69.3798 233.97C69.9514 233.771 70.0916 233.237 69.6926 232.784L68.1072 230.983C67.7082 230.53 66.9155 230.32 66.3386 230.514L64.5483 231.134C63.9767 231.333 63.8365 231.867 64.2356 232.32L66.5489 234.952V234.946Z" fill="black"/>
<path d="M86.8133 263.731C87.2124 264.183 88.005 264.394 88.582 264.2L91.413 263.224L89.0997 260.592C88.7006 260.139 87.908 259.929 87.331 260.123L85.5407 260.743C84.9692 260.943 84.829 261.477 85.228 261.929L86.8133 263.731Z" fill="black"/>
<path d="M93.7154 265.85C94.1144 266.303 94.9071 266.513 95.4841 266.319L97.2743 265.699C97.8459 265.499 97.9861 264.965 97.5871 264.512L96.0017 262.711C95.6027 262.258 94.81 262.048 94.2331 262.242L91.4021 263.218L93.7154 265.85Z" fill="black"/>
<path d="M141.443 261.788C141.443 261.788 198.213 225.891 235.916 179.383L197.258 135.408C159.555 181.917 102.785 217.814 102.785 217.814L141.443 261.788Z" fill="#00C797" stroke="black" stroke-linecap="round" stroke-linejoin="round"/>
<path d="M171.127 231.095C179.725 231.095 186.695 218.466 186.695 202.888C186.695 187.309 179.725 174.681 171.127 174.681C162.53 174.681 155.56 187.309 155.56 202.888C155.56 218.466 162.53 231.095 171.127 231.095Z" fill="#B5DF77"/>
<path d="M189.542 225.821C205.023 212.712 221.804 196.789 235.921 179.382L200.817 139.452C188.205 155.009 171.823 170.938 156.994 183.712C155.592 184.92 155.447 187.034 156.665 188.425L189.548 225.826L189.542 225.821Z" fill="black"/>
<path d="M118.984 219.836L122.111 217.792C122.618 217.463 122.704 216.816 122.305 216.363L120.72 214.562C120.321 214.109 119.577 214.006 119.075 214.335L116.87 215.775C116.363 216.104 116.277 216.751 116.676 217.204L118.989 219.836H118.984Z" fill="black"/>
<path d="M117.248 225.109C117.647 225.562 118.391 225.664 118.892 225.335L121.098 223.895C121.604 223.566 121.691 222.919 121.292 222.466L118.978 219.835L115.851 221.879C115.344 222.208 115.258 222.855 115.657 223.308L117.242 225.109H117.248Z" fill="black"/>
<path d="M139.065 249.925C139.464 250.378 140.208 250.48 140.71 250.151L143.837 248.107L141.524 245.476C141.125 245.023 140.381 244.921 139.879 245.249L137.674 246.689C137.167 247.018 137.08 247.665 137.48 248.118L139.065 249.919V249.925Z" fill="black"/>
<path d="M146.15 250.733C146.549 251.186 147.293 251.288 147.795 250.959L150 249.519C150.507 249.19 150.593 248.543 150.194 248.09L148.609 246.289C148.21 245.836 147.466 245.734 146.964 246.063L143.837 248.107L146.15 250.738V250.733Z" fill="black"/>
<path d="M273.835 132.648C258.623 171.893 206.571 221.594 206.571 221.594L167.914 177.62C167.914 177.62 219.966 127.919 235.177 88.6738L273.835 132.648Z" fill="#00C797" stroke="black" stroke-linecap="round" stroke-linejoin="round"/>
<path d="M229.266 185.019C237.098 184.154 242.053 170.824 240.333 155.245C238.614 139.666 230.87 127.738 223.037 128.602C215.205 129.467 210.25 142.797 211.97 158.376C213.69 173.955 221.433 185.884 229.266 185.019Z" fill="#B5DF77"/>
<path d="M182.397 177.836L185.05 175.269C185.487 174.849 185.514 174.132 185.115 173.679L183.529 171.878C183.13 171.425 182.446 171.398 182.014 171.818L180.148 173.619C179.712 174.04 179.685 174.757 180.084 175.21L182.397 177.841V177.836Z" fill="black"/>
<path d="M181.265 183.794C181.664 184.247 182.349 184.274 182.78 183.853L184.646 182.052C185.083 181.632 185.11 180.914 184.711 180.462L182.397 177.83L179.744 180.397C179.307 180.817 179.28 181.535 179.679 181.988L181.265 183.789V183.794Z" fill="black"/>
<path d="M203.082 208.61C203.481 209.063 204.166 209.09 204.597 208.67L207.25 206.103L204.937 203.471C204.538 203.018 203.853 202.991 203.422 203.412L201.556 205.213C201.119 205.634 201.092 206.351 201.491 206.804L203.077 208.605L203.082 208.61Z" fill="black"/>
<path d="M209.564 208.74C209.963 209.193 210.648 209.219 211.079 208.799L212.945 206.998C213.382 206.577 213.408 205.86 213.009 205.407L211.424 203.606C211.025 203.153 210.34 203.126 209.909 203.547L207.256 206.114L209.569 208.745L209.564 208.74Z" fill="black"/>
<path d="M253.182 168.361C261.74 156.568 269.375 144.155 273.835 132.643L238.386 92.3242C234.218 103.071 227.288 114.605 219.421 125.686C218.44 127.072 218.531 128.949 219.653 130.227L253.177 168.361H253.182Z" fill="black"/>
<path d="M289.16 93.1931C300.516 114.66 267.132 164.846 267.132 164.846L228.475 120.872C228.475 120.872 261.858 70.6856 250.502 49.2188L289.16 93.1931Z" fill="#00C797" stroke="#00C797" stroke-linecap="round" stroke-linejoin="round"/>
<path d="M280.151 127.294C284.191 125.3 282.141 112.893 275.572 99.5836C269.002 86.2738 260.401 77.1008 256.361 79.0951C252.32 81.0894 254.37 93.4958 260.94 106.806C267.509 120.115 276.11 129.288 280.151 127.294Z" fill="#B5DF77"/>
<path d="M290.756 112.125C292.029 104.905 291.84 98.2507 289.16 93.1927L255.49 54.8965C257.566 60.8065 256.989 66.3498 256.817 70.0219C256.709 72.2867 256.703 73.3921 258.197 75.0961L290.751 112.125H290.756Z" fill="black"/>
<path d="M240.505 119.449L242.106 116.623C242.403 116.095 242.322 115.297 241.923 114.838L240.338 113.037C239.939 112.584 239.367 112.643 239.07 113.167L238.013 115.032C237.717 115.561 237.798 116.359 238.197 116.817L240.51 119.449H240.505Z" fill="black"/>
<path d="M240.672 125.855C241.071 126.308 241.643 126.248 241.939 125.725L242.996 123.86C243.293 123.331 243.212 122.533 242.813 122.075L240.499 119.443L238.968 122.145C238.628 122.738 238.725 123.644 239.173 124.162L240.661 125.855H240.672Z" fill="black"/>
<path d="M267.671 150.346C268.07 150.799 268.642 150.74 268.938 150.217L269.995 148.351C270.292 147.822 270.211 147.024 269.812 146.566L268.324 144.873C267.871 144.361 267.229 144.425 266.889 145.018L265.358 147.72L267.671 150.351V150.346Z" fill="black"/>
<path d="M262.392 150.567C262.845 151.079 263.487 151.014 263.827 150.421L265.358 147.72L263.142 145.196C262.689 144.684 262.047 144.749 261.707 145.342L260.721 147.083C260.424 147.612 260.505 148.41 260.904 148.868L262.392 150.561V150.567Z" fill="black"/>
<path d="M300.429 79.2911C296.078 74.3409 289.046 70.9114 277.776 71.5801L239.119 27.6057C250.389 26.9371 257.42 30.3666 261.772 35.3167C270.89 45.6916 309.553 89.6659 300.429 79.2911Z" fill="#302247" stroke="#00C797" stroke-linecap="round" stroke-linejoin="round"/>
<path d="M260.57 52.0113L239.114 27.6057C250.383 26.9371 257.415 30.3666 261.767 35.3167" stroke="#00C797" stroke-linecap="round" stroke-linejoin="round"/>
<path d="M300.43 79.2909C309.548 89.6657 306.911 106.722 306.911 106.722L268.254 62.7473C268.254 62.7473 270.896 45.6914 261.772 35.3166C257.421 30.3664 296.078 74.3408 300.43 79.2909Z" fill="#00C797" stroke="#00C797" stroke-linecap="round" stroke-linejoin="round"/>
<path d="M278.45 69.1435C278.849 69.5965 279.157 69.4725 279.135 68.8685L279.114 68.2808C279.097 67.7901 278.817 67.0837 278.488 66.717L276.04 63.9346L276.105 65.6224C276.121 66.1131 276.401 66.8195 276.73 67.1861L278.45 69.1435Z" fill="black"/>
<path d="M276.04 63.934L275.975 62.2462C275.959 61.7555 275.679 61.0491 275.35 60.6824L273.63 58.725C273.231 58.2721 272.923 58.3961 272.945 59L272.966 59.5878C272.983 60.0785 273.263 60.7849 273.592 61.1516L276.04 63.934Z" fill="black"/>
<path d="M298.963 92.4807C299.286 92.8474 299.54 92.7503 299.518 92.2596L299.454 90.5718L297.005 87.7894C296.682 87.4227 296.428 87.5198 296.45 88.0105L296.472 88.5982C296.493 89.2022 296.838 90.0703 297.237 90.5233L298.957 92.4807H298.963Z" fill="black"/>
<path d="M301.907 93.3547C302.231 93.7214 302.484 93.6243 302.463 93.1336L302.441 92.5458C302.419 91.9419 302.074 91.0737 301.675 90.6208L300.09 88.8198C299.691 88.3668 299.384 88.4908 299.405 89.0948L299.459 90.5776L301.907 93.3601V93.3547Z" fill="black"/>
</svg>
