<svg width="89" height="84" viewBox="0 0 89 84" fill="none" xmlns="http://www.w3.org/2000/svg">
<path d="M1.41343 27.694L2.85639 24.6729C2.18 26.0933 2.31529 27.8518 3.3975 29.385L1.95454 32.4061C0.872328 30.873 0.737045 29.1144 1.41343 27.694Z" fill="#00C797" stroke="black" stroke-linecap="round" stroke-linejoin="round"/>
<path d="M80.6407 42.1689L79.2203 45.1902L28.717 70.9153L30.1599 67.8941L80.6407 42.1689Z" fill="black" stroke="black" stroke-linecap="round" stroke-linejoin="round"/>
<path d="M30.1598 67.8935L28.7169 70.9147L1.93207 32.4059L3.375 29.3848L30.1598 67.8935Z" fill="#00C797" stroke="black" stroke-linecap="round" stroke-linejoin="round"/>
<path d="M46.2804 1.56353C48.783 0.300949 52.1875 1.22532 53.8785 3.68285L80.6633 42.1916L30.1599 67.8942L3.3751 29.3854C1.68414 26.9505 2.33799 23.9518 4.81806 22.6666L46.2804 1.56353Z" fill="black" stroke="black" stroke-linecap="round" stroke-linejoin="round"/>
<path d="M73.8766 32.4517L67.8794 23.7939L54.8702 55.3135L67.0001 49.1359L73.8766 32.4517Z" fill="#00C797" stroke="black" stroke-linecap="round" stroke-linejoin="round"/>
<path d="M68.6686 48.279L74.6208 33.8721" stroke="#00C797" stroke-linecap="round" stroke-linejoin="round"/>
<path d="M87.7201 56.2822C87.3143 57.1164 86.6604 57.8153 85.736 58.2888L44.2962 79.4146L42.8533 82.4357L84.2931 61.3101C85.2174 60.8366 85.8938 60.1376 86.2771 59.3034L87.7201 56.2822Z" fill="#00C797" stroke="black" stroke-linecap="round" stroke-linejoin="round"/>
<path d="M36.6983 77.2953L35.2554 80.3165L28.717 70.9147L30.1599 67.8936L36.6983 77.2953Z" fill="#00C797" stroke="black" stroke-linecap="round" stroke-linejoin="round"/>
<path d="M80.6407 42.1689L87.179 51.5707C88.87 54.0057 88.2162 57.0043 85.7361 58.2894L44.2963 79.4152C41.7936 80.6778 38.3892 79.7534 36.6982 77.2959L30.1599 67.8941L80.6407 42.1689Z" fill="#EBE9E9" stroke="black" stroke-linecap="round" stroke-linejoin="round"/>
<path d="M44.2962 79.4152L42.8533 82.4364C40.3507 83.699 36.9462 82.7746 35.2552 80.3171L36.6982 77.2959C38.3892 79.7309 41.7936 80.6778 44.2962 79.4152Z" fill="#00C797" stroke="black" stroke-linecap="round" stroke-linejoin="round"/>
<path d="M76.4018 48.4823C78.3183 47.5129 80.9336 48.2344 82.2413 50.1057C83.549 51.977 83.053 54.2993 81.114 55.2688L74.1472 58.8311C72.2308 59.8006 69.6155 59.0791 68.3078 57.2077C67.0001 55.3364 67.4961 53.0142 69.4125 52.0447L76.4018 48.4823ZM80.5053 54.3895C81.9257 53.668 82.2864 51.9545 81.3395 50.5566C80.37 49.1813 78.4536 48.6403 77.0106 49.3617C75.5677 50.0832 75.2295 51.7967 76.1764 53.1946C77.1459 54.5699 79.0849 55.1109 80.5053 54.3895ZM73.516 57.9293C74.9364 57.2078 75.2971 55.4943 74.3502 54.0964C73.3807 52.7211 71.4643 52.1799 70.0213 52.9014C68.5784 53.6229 68.2401 55.3364 69.1871 56.7342C70.1791 58.1321 72.0956 58.6507 73.516 57.9293Z" stroke="black" stroke-linecap="round" stroke-linejoin="round"/>
<path d="M70.0439 52.9235C71.4643 52.2021 73.4032 52.7431 74.3727 54.1184C75.3422 55.4937 74.9589 57.2072 73.5385 57.9513C72.1181 58.6953 70.1791 58.1317 69.2096 56.7564C68.2402 55.3585 68.6235 53.645 70.0439 52.9235Z" fill="#00C797" stroke="black" stroke-linecap="round" stroke-linejoin="round"/>
<path d="M77.0107 49.361C78.4311 48.6396 80.3701 49.1806 81.3396 50.5559C82.309 51.9312 81.9258 53.6447 80.5054 54.3888C79.085 55.1102 77.146 54.5692 76.1765 53.1939C75.2295 51.796 75.5903 50.105 77.0107 49.361Z" fill="black" stroke="black" stroke-linecap="round" stroke-linejoin="round"/>
<path d="M70.3369 52.2243C71.7573 51.5028 73.6963 52.044 74.6658 53.4193C75.6353 54.7946 75.252 56.5081 73.8316 57.2521C72.4112 57.9962 70.4722 57.4324 69.5027 56.0571C68.5558 54.6593 68.9165 52.9458 70.3369 52.2243Z" fill="#EBE9E9" stroke="black" stroke-linecap="round" stroke-linejoin="round"/>
<path d="M77.3262 48.6618C78.7466 47.9403 80.6856 48.4814 81.6551 49.8567C82.6246 51.232 82.2413 52.9455 80.8209 53.6896C79.4004 54.4336 77.4615 53.87 76.492 52.4947C75.5225 51.0968 75.9058 49.3833 77.3262 48.6618Z" fill="#00C797" stroke="black" stroke-linecap="round" stroke-linejoin="round"/>
<path d="M48.3994 6.47876C48.918 6.23075 49.5944 6.4111 49.9551 6.90711L72.3885 39.1481C72.7267 39.6441 72.5914 40.2529 72.0954 40.5234L32.5946 60.6571C32.076 60.9051 31.3996 60.7247 31.0389 60.2287L8.6055 27.9878C8.2673 27.4917 8.40256 26.883 8.89858 26.6124L48.3994 6.47876Z" fill="#B5DF77"/>
<path d="M68.7364 37.6588C68.06 36.554 66.6622 36.1032 65.5799 36.6217C64.4977 37.1403 64.2046 38.4704 64.881 39.5752C65.5574 40.68 66.9778 41.1309 68.0375 40.6123C69.0971 40.0938 69.4128 38.741 68.7364 37.6588ZM68.5335 37.749C68.6688 37.952 68.759 38.1774 68.8041 38.4029L68.1277 38.7411C68.0375 38.5381 67.9248 38.3352 67.812 38.1097C67.6993 37.8842 67.5415 37.704 67.4062 37.5236L68.0826 37.1854C68.2629 37.3432 68.4208 37.5236 68.5335 37.749ZM67.9248 38.8312L66.4142 39.5752C66.2563 39.3948 66.1211 39.2145 65.9858 38.9891C65.8505 38.7862 65.7378 38.5606 65.6701 38.3577L67.1807 37.6137C67.3385 37.7941 67.4738 37.9745 67.6091 38.2C67.7444 38.4254 67.8571 38.6283 67.9248 38.8312ZM67.8571 37.0275L67.2258 37.3432C66.9102 37.005 66.572 36.7569 66.2789 36.6442C66.82 36.554 67.3836 36.7119 67.8571 37.0275ZM65.7152 36.8246C66.0309 36.6668 66.5494 36.9373 67.0454 37.4559L65.6251 38.1774C65.377 37.5236 65.3996 36.9825 65.7152 36.8246ZM65.2418 37.1628C65.1967 37.4559 65.2418 37.8392 65.3996 38.2676L64.7683 38.5832C64.7007 38.0421 64.881 37.5236 65.2418 37.1628ZM65.0839 39.4625C64.9487 39.2596 64.8585 39.0341 64.8134 38.8087L65.4898 38.4705C65.5799 38.6734 65.6927 38.8764 65.8054 39.1018C65.9407 39.3047 66.076 39.5076 66.2112 39.6879L65.5349 40.0261C65.3545 39.8683 65.1967 39.6879 65.0839 39.4625ZM65.7603 40.184L66.3916 39.8684C66.7072 40.2066 67.0455 40.4546 67.3386 40.5673C66.7974 40.6575 66.2338 40.4996 65.7603 40.184ZM67.9022 40.4094C67.5866 40.5673 67.068 40.2968 66.572 39.7782L67.9924 39.0567C68.2404 39.7105 68.2179 40.2516 67.9022 40.4094ZM68.3757 40.0487C68.4208 39.7556 68.3757 39.3723 68.2179 38.9439L68.8491 38.6283C68.9168 39.1694 68.7364 39.688 68.3757 40.0487Z" fill="black"/>
<path d="M32.9104 52.6064C32.4821 52.8093 32.2341 53.2151 32.189 53.666C31.7606 53.4631 31.2421 53.4406 30.8137 53.6436C30.0922 54.0043 29.8667 54.9061 30.3402 55.6501C30.5657 56.0334 30.9489 56.304 31.3322 56.4167L33.9927 57.2284C34.128 57.2735 34.2632 57.2509 34.3759 57.2058C34.4887 57.1607 34.5789 57.0479 34.6014 56.9352L35.2327 54.4777C35.3229 54.117 35.2778 53.6886 35.0298 53.3054C34.6014 52.5613 33.6319 52.2457 32.9104 52.6064Z" fill="black"/>
<path d="M33.7446 22.282C34.1955 22.0566 34.8268 22.2143 35.1425 22.6652L36.1796 24.1533L38.5469 22.9584L40.0801 22.1693C40.531 21.9438 41.1623 22.1016 41.4779 22.5525L42.5151 24.0406L40.1477 25.2356L37.7804 26.4305L35.413 27.6254L33.0457 28.8204L30.6783 30.0153L29.6412 28.5272C29.3256 28.0763 29.4608 27.5352 29.9118 27.2872L31.4449 26.4981L33.8122 25.3032L32.7751 23.8151C32.4595 23.3642 32.5722 22.8231 33.0457 22.5751L33.7446 22.282Z" fill="black"/>
<path d="M44.8824 29.0911C45.3333 28.8657 45.9646 29.0235 46.2803 29.4745L47.3174 30.9625L44.95 32.1574L42.5827 33.3524L40.2153 34.5473L37.848 35.7422L36.3149 36.5314C35.864 36.7568 35.2326 36.5991 34.917 36.1481L33.8799 34.6601L36.2472 33.4652L38.6146 32.2702L40.9819 31.0753L43.3493 29.8803L44.8824 29.0911Z" fill="black"/>
<path d="M50.5416 35.584L51.5787 37.0721C51.8943 37.523 51.7591 38.0641 51.3081 38.3121L49.775 39.1012L47.4076 40.2961L48.4448 41.7842C48.7604 42.2351 48.6251 42.7762 48.1742 43.0242L47.4753 43.385C47.0244 43.6104 46.3931 43.4526 46.0774 43.0016L45.0403 41.5136L42.6729 42.7086L41.1398 43.4977C40.6889 43.7232 40.0576 43.5653 39.742 43.1144L38.7048 41.6263L41.0722 40.4314L43.4395 39.2364L45.8069 38.0415L48.1742 36.8466L50.5416 35.584Z" fill="black"/>
<path d="M48.8505 30.1957C49.3014 29.9702 49.9327 30.128 50.2483 30.5789L51.2854 32.0669L52.3226 33.555C52.6382 34.0059 52.5029 34.547 52.052 34.795L50.5189 35.5842L48.9181 33.2844L47.3173 30.9848L48.8505 30.1957Z" fill="black"/>
<path d="M36.2921 39.7327C36.7431 39.5073 37.3744 39.6651 37.69 40.1161L38.7271 41.604L37.194 42.3931C36.7431 42.6186 36.1118 42.4608 35.7961 42.0099L35.3227 41.3335C35.007 40.8826 35.1423 40.3415 35.5932 40.0935L36.2921 39.7327Z" fill="black"/>
<path d="M44.0481 23.2738C44.499 23.0483 45.1303 23.2062 45.446 23.6571L45.9194 24.3335C46.2351 24.7844 46.0998 25.3255 45.6488 25.5735L44.9499 25.9342C44.499 26.1596 43.8677 26.0019 43.5521 25.5509L42.515 24.0629L44.0481 23.2738Z" fill="black"/>
<path d="M30.7008 30.083L32.3016 32.3826L33.9024 34.6824L32.3692 35.4715C31.9183 35.697 31.287 35.5391 30.9714 35.0882L29.9342 33.6001L28.8971 32.1122C28.5815 31.6612 28.7167 31.1201 29.1677 30.8721L30.7008 30.083Z" fill="black"/>
<path d="M43.8227 63.7686C44.1609 63.5883 44.6344 63.7235 44.8824 64.0617L46.641 66.5869L49.2338 65.2567C49.572 65.0763 50.0455 65.2116 50.2935 65.5498L51.6237 67.4662C51.8491 67.8044 51.759 68.2328 51.4208 68.3906L48.828 69.7208L50.5866 72.246C50.812 72.5842 50.7218 73.0125 50.3836 73.1703L48.4221 74.1624C48.084 74.3428 47.6105 74.2075 47.3625 73.8693L45.6039 71.3442L43.0111 72.6744C42.6729 72.8547 42.1994 72.7194 41.9514 72.3812L40.6212 70.4648C40.3957 70.1266 40.4859 69.6983 40.8241 69.5405L43.4169 68.2102L41.6583 65.6851C41.4328 65.3469 41.523 64.9185 41.8612 64.7606L43.8227 63.7686Z" fill="black"/>
<path d="M56.4032 67.329C56.5401 67.329 56.6512 67.2179 56.6512 67.0809C56.6512 66.944 56.5401 66.833 56.4032 66.833C56.2662 66.833 56.1552 66.944 56.1552 67.0809C56.1552 67.2179 56.2662 67.329 56.4032 67.329Z" fill="black"/>
<path d="M59.5372 65.7284C59.6742 65.7284 59.7852 65.6174 59.7852 65.4805C59.7852 65.3435 59.6742 65.2324 59.5372 65.2324C59.4002 65.2324 59.2892 65.3435 59.2892 65.4805C59.2892 65.6174 59.4002 65.7284 59.5372 65.7284Z" fill="black"/>
<path d="M62.671 64.1064C62.8079 64.1064 62.919 63.9954 62.919 63.8584C62.919 63.7214 62.8079 63.6104 62.671 63.6104C62.534 63.6104 62.423 63.7214 62.423 63.8584C62.423 63.9954 62.534 64.1064 62.671 64.1064Z" fill="black"/>
<path d="M65.805 62.5048C65.942 62.5048 66.053 62.3938 66.053 62.2568C66.053 62.1198 65.942 62.0088 65.805 62.0088C65.668 62.0088 65.557 62.1198 65.557 62.2568C65.557 62.3938 65.668 62.5048 65.805 62.5048Z" fill="black"/>
<path d="M54.4416 64.6014C54.5786 64.6014 54.6896 64.4905 54.6896 64.3535C54.6896 64.2165 54.5786 64.1055 54.4416 64.1055C54.3046 64.1055 54.1936 64.2165 54.1936 64.3535C54.1936 64.4905 54.3046 64.6014 54.4416 64.6014Z" fill="black"/>
<path d="M57.5756 62.9785C57.7126 62.9785 57.8236 62.8674 57.8236 62.7305C57.8236 62.5935 57.7126 62.4824 57.5756 62.4824C57.4387 62.4824 57.3276 62.5935 57.3276 62.7305C57.3276 62.8674 57.4387 62.9785 57.5756 62.9785Z" fill="black"/>
<path d="M60.7097 61.3779C60.8466 61.3779 60.9577 61.2668 60.9577 61.1299C60.9577 60.9929 60.8466 60.8818 60.7097 60.8818C60.5727 60.8818 60.4617 60.9929 60.4617 61.1299C60.4617 61.2668 60.5727 61.3779 60.7097 61.3779Z" fill="black"/>
<path d="M63.8435 59.7538C63.9804 59.7538 64.0915 59.6428 64.0915 59.5058C64.0915 59.3689 63.9804 59.2578 63.8435 59.2578C63.7065 59.2578 63.5955 59.3689 63.5955 59.5058C63.5955 59.6428 63.7065 59.7538 63.8435 59.7538Z" fill="black"/>
<path d="M52.4803 61.8954C52.6173 61.8954 52.7283 61.7844 52.7283 61.6474C52.7283 61.5105 52.6173 61.3994 52.4803 61.3994C52.3433 61.3994 52.2323 61.5105 52.2323 61.6474C52.2323 61.7844 52.3433 61.8954 52.4803 61.8954Z" fill="black"/>
<path d="M55.6141 60.2724C55.7511 60.2724 55.8621 60.1614 55.8621 60.0244C55.8621 59.8874 55.7511 59.7764 55.6141 59.7764C55.4771 59.7764 55.3661 59.8874 55.3661 60.0244C55.3661 60.1614 55.4771 60.2724 55.6141 60.2724Z" fill="black"/>
<path d="M58.7482 58.6718C58.8851 58.6718 58.9962 58.5608 58.9962 58.4238C58.9962 58.2868 58.8851 58.1758 58.7482 58.1758C58.6112 58.1758 58.5001 58.2868 58.5001 58.4238C58.5001 58.5608 58.6112 58.6718 58.7482 58.6718Z" fill="black"/>
<path d="M61.8819 57.0487C62.0189 57.0487 62.1299 56.9377 62.1299 56.8008C62.1299 56.6638 62.0189 56.5527 61.8819 56.5527C61.7449 56.5527 61.6339 56.6638 61.6339 56.8008C61.6339 56.9377 61.7449 57.0487 61.8819 57.0487Z" fill="black"/>
</svg>
