<svg width="47" height="51" viewBox="0 0 47 51" fill="none" xmlns="http://www.w3.org/2000/svg">
<path d="M12.5198 6.7513L10.3052 5.94537C10.0198 5.84127 9.75281 5.84463 9.52278 5.93697L1.74721 9.06836C1.97556 8.97601 2.2442 8.97265 2.52963 9.07675L4.74427 9.88269C5.02971 9.98679 5.29667 9.98343 5.5267 9.89108L13.3023 6.7597C13.0722 6.85204 12.8053 6.8554 12.5198 6.7513Z" fill="#00C797" stroke="#00C797" stroke-miterlimit="10" stroke-linecap="round" stroke-linejoin="round"/>
<path d="M30.8716 40.8188L23.0944 43.9501C22.6444 44.1315 22.3438 44.6553 22.3472 45.3756L22.3657 48.2132C22.3707 48.9352 22.0702 49.4573 21.6219 49.6387L29.3991 46.5073C29.8491 46.326 30.148 45.8038 30.1429 45.0818L30.1245 42.2443C30.1211 41.5239 30.4216 41.0001 30.8716 40.8188Z" fill="#00C797" stroke="#00C797" stroke-miterlimit="10" stroke-linecap="round" stroke-linejoin="round"/>
<path d="M36.1236 35.9529L28.3464 39.0843C27.8964 39.2657 27.5958 39.7895 27.5992 40.5098L27.6177 43.3474C27.6227 44.0694 27.3222 44.5915 26.8739 44.7729L34.6511 41.6415C35.1011 41.4602 35.4 40.938 35.3949 40.216L35.3764 37.3784C35.3714 36.6565 35.672 36.1326 36.1236 35.9529Z" fill="#00C797" stroke="#00C797" stroke-miterlimit="10" stroke-linecap="round" stroke-linejoin="round"/>
<path d="M15.2869 6.94104L11.5343 5.57431L7.78163 4.20758C7.4962 4.10348 7.22923 4.10684 6.99921 4.19919L14.7748 1.06948C15.0031 0.977135 15.2718 0.973777 15.5572 1.07788L19.3098 2.4446L23.0625 3.81133L31.4391 6.86045L35.1917 8.22717L38.9444 9.5939C39.794 9.90284 40.4908 11.0463 40.4975 12.1326L40.5159 14.9701C40.5227 16.0598 41.2228 17.2016 42.069 17.5088L44.2803 18.3131C45.1299 18.622 45.8267 19.7654 45.8334 20.8518L45.8636 25.6672L45.8939 30.4827C45.8989 31.2047 45.5984 31.7268 45.1501 31.9082L37.3728 35.0395C37.8228 34.8582 38.1217 34.336 38.1166 33.6141L38.0864 28.7986L38.0562 23.9832C38.0495 22.8968 37.351 21.7534 36.5031 21.4445L34.2918 20.6402C33.4456 20.3313 32.7454 19.1912 32.7387 18.1015L32.7202 15.264C32.7135 14.1776 32.015 13.0342 31.1671 12.7253L27.4145 11.3586L23.6619 9.99183L15.2869 6.94104Z" fill="#00C797" stroke="#00C797" stroke-miterlimit="10" stroke-linecap="round" stroke-linejoin="round"/>
<path d="M41.3739 31.0854L33.5967 34.2168C33.1467 34.3982 32.8461 34.922 32.8495 35.6423L32.868 38.4799C32.873 39.2019 32.5725 39.724 32.1242 39.9054L39.9014 36.774C40.3514 36.5927 40.6503 36.0705 40.6452 35.3485L40.6268 32.5109C40.6234 31.7906 40.9239 31.2668 41.3739 31.0854Z" fill="#00C797" stroke="#00C797" stroke-miterlimit="10" stroke-linecap="round" stroke-linejoin="round"/>
<path d="M23.6636 9.99017L27.4162 11.3569L31.1688 12.7236C32.0184 13.0326 32.7152 14.176 32.7219 15.2623L32.7404 18.0999C32.7471 19.1896 33.4472 20.3313 34.2935 20.6386L36.5047 21.4428C37.3543 21.7518 38.0511 22.8952 38.0578 23.9815L38.0881 28.7969L38.1183 33.6124C38.125 34.7021 37.4383 35.3384 36.5887 35.0295L34.3774 34.2252C33.5312 33.9163 32.8411 34.556 32.8478 35.6423L32.8663 38.4799C32.873 39.5696 32.1863 40.2059 31.3367 39.897L29.1254 39.0927C28.2792 38.7838 27.5891 39.4235 27.5958 40.5098L27.6143 43.3474C27.621 44.4371 26.9343 45.0734 26.0847 44.7645L23.8734 43.9602C23.0272 43.6513 22.3371 44.291 22.3438 45.3773L22.3623 48.2149C22.369 49.3046 21.6823 49.9409 20.8327 49.632L18.6214 48.8277C17.7752 48.5188 17.0751 47.3787 17.0683 46.2891L17.0499 43.4515C17.0431 42.3652 16.3447 41.2217 15.4968 40.9128L13.2855 40.1086C12.4393 39.7996 11.7391 38.6596 11.7324 37.5699L11.7139 34.7323C11.7072 33.646 11.0087 32.5026 10.1625 32.1936L7.94786 31.3877C7.10163 31.0787 6.40148 29.9387 6.39476 28.849L6.37629 26.0114C6.36958 24.9251 5.6711 23.7817 4.82487 23.4728L2.61024 22.6668C1.76401 22.3579 1.06385 21.2178 1.05714 20.1281L1.03027 15.3093L1.00005 10.4922C0.993333 9.40587 1.68173 8.76784 2.52964 9.0751L4.74428 9.88103C5.59051 10.19 6.27723 9.55362 6.27051 8.46393L6.25204 5.62638C6.24533 4.54005 6.93373 3.90034 7.78164 4.20928L11.5343 5.57601L15.2869 6.94273L23.6636 9.99017Z" fill="#EBE8E8" stroke="#00C797" stroke-miterlimit="10" stroke-linecap="round" stroke-linejoin="round"/>
</svg>
