<svg width="111" height="69" viewBox="0 0 111 69" fill="none" xmlns="http://www.w3.org/2000/svg">
<path d="M32.4908 51.1825C32.7129 51.0341 32.8361 50.7622 32.8357 50.4411L32.8337 48.7616C32.8329 48.1194 32.3134 47.4779 31.6958 47.3305L6.84153 41.3834C6.22388 41.2359 5.7044 40.5944 5.70362 39.9522L5.67204 34.2715C5.67165 33.9504 5.79485 33.6786 6.01693 33.5054L0.36614 37.8839C0.144029 38.0324 0.0208873 38.3042 0.0213051 38.65L0.0528926 44.3307C0.0536686 44.9729 0.573083 45.6144 1.19073 45.7619L26.045 51.709C26.6627 51.8564 27.1821 52.498 27.1829 53.1401L27.1849 54.8197C27.1853 55.1408 27.0621 55.4126 26.84 55.5611L32.4908 51.1825Z" fill="#00C797"/>
<path d="M42.3013 55.269L47.952 50.8905C47.7546 51.0389 47.483 51.1133 47.1618 51.0396L44.4194 50.3761L38.7687 54.7546L41.511 55.4181C41.8322 55.4919 42.1039 55.4421 42.3013 55.269Z" fill="#EBE9E9" stroke="#00C797" stroke-linecap="round" stroke-linejoin="round"/>
<path d="M32.4517 39.1773C32.6738 39.0288 32.7969 38.757 32.7965 38.4359L32.7945 36.7564C32.7937 36.1142 32.2743 35.4726 31.6567 35.3252L30.026 34.932C29.4084 34.7845 28.8889 34.143 28.8881 33.5008L28.8861 31.8213C28.8853 31.1791 28.3659 30.5376 27.7483 30.3901L26.1424 29.9969C25.5247 29.8494 25.0052 29.2079 25.0045 28.5657L25.0024 26.8862C25.0016 26.244 24.4822 25.6025 23.8646 25.4551L22.234 25.0618C21.6163 24.9144 21.0968 24.2729 21.0961 23.6307L21.094 21.9512C21.0936 21.6301 21.2168 21.3582 21.4389 21.2098L15.7882 25.5883C15.5907 25.7367 15.4429 26.0086 15.4433 26.3297L15.4453 28.0092C15.4461 28.6514 15.9656 29.2929 16.5832 29.4404L18.2138 29.8336C18.8314 29.981 19.3509 30.6226 19.3517 31.2647L19.3537 32.9443C19.3545 33.5864 19.8739 34.228 20.4916 34.3754L22.0975 34.7687C22.7151 34.9161 23.2346 35.5577 23.2354 36.1998L23.2374 37.8794C23.2382 38.5215 23.7576 39.1631 24.3753 39.3105L26.0059 39.7037C26.6235 39.8512 27.143 40.4927 27.1438 41.1349L27.1458 42.8144C27.1462 43.1355 27.023 43.4073 26.8009 43.5558L32.4517 39.1773Z" fill="#00C797"/>
<path d="M37.6617 58.5107C37.9582 58.5844 38.2545 58.51 38.4519 58.3616L44.1026 53.983C43.9052 54.1315 43.6336 54.2059 43.3125 54.1322L41.6819 53.739C41.3854 53.6652 41.089 53.715 40.8917 53.8881L35.2409 58.2666C35.4383 58.1182 35.7099 58.0438 36.0311 58.1175L37.6617 58.5107Z" fill="#EBE9E9" stroke="#00C797" stroke-linecap="round" stroke-linejoin="round"/>
<path d="M33.8124 61.5774C34.1089 61.6511 34.4052 61.5766 34.6026 61.4282L40.2534 57.0497C40.056 57.1981 39.7844 57.2725 39.4632 57.1988L37.8326 56.8056C37.5361 56.7319 37.2398 56.7816 37.0424 56.9548L31.3916 61.3333C31.589 61.1849 31.8607 61.1104 32.1819 61.1842L33.8124 61.5774Z" fill="#EBE9E9" stroke="#00C797" stroke-linecap="round" stroke-linejoin="round"/>
<path d="M29.9631 64.647C30.2596 64.7207 30.5559 64.671 30.7533 64.4979L36.404 60.1193C36.2066 60.2678 35.935 60.3422 35.6138 60.2685L33.9832 59.8753C33.6867 59.8015 33.3905 59.876 33.193 60.0244L27.5423 64.4029C27.7397 64.2545 28.0113 64.1801 28.3325 64.2538L29.9631 64.647Z" fill="#EBE9E9" stroke="#00C797" stroke-linecap="round" stroke-linejoin="round"/>
<path d="M28.6415 54.2733C28.8636 54.1248 28.9868 53.853 28.9864 53.5319L28.9844 51.8523C28.984 51.5313 29.1072 51.2594 29.3293 51.111L23.6785 55.4895C23.4811 55.6379 23.3332 55.9098 23.3336 56.2309L23.3357 57.9104C23.336 58.2315 23.2128 58.5033 22.9907 58.6518L28.6415 54.2733Z" fill="#00C797"/>
<path d="M24.7922 57.3435C24.9896 57.1951 25.1375 56.9232 25.1371 56.6022L25.1351 54.9226C25.1347 54.6015 25.2578 54.3297 25.4799 54.1812L19.8292 58.5598C19.6318 58.7082 19.4839 58.9801 19.4843 59.3012L19.4863 60.9807C19.4867 61.3018 19.3635 61.5736 19.1414 61.7221L24.7922 57.3435Z" fill="#00C797"/>
<path d="M26.8792 67.5621L32.53 63.1835C32.3325 63.332 32.061 63.4064 31.7398 63.3327L22.3762 61.0964C21.7585 60.9489 21.2391 60.3074 21.2383 59.6652L21.2363 57.9857C21.2359 57.6646 21.3591 57.3928 21.5812 57.2443L15.9304 61.6229C15.7083 61.7713 15.5851 62.0432 15.5855 62.3642L15.5875 64.0438C15.5883 64.6859 16.1078 65.3275 16.7254 65.4749L26.089 67.7112C26.4102 67.7849 26.6818 67.7352 26.8792 67.5621Z" fill="#EBE9E9" stroke="#00C797" stroke-linecap="round" stroke-linejoin="round"/>
<path d="M21.5109 60.4336C21.3624 60.1868 21.2633 59.9152 21.2629 59.6435L21.2609 57.964C21.2605 57.6429 21.3837 57.3711 21.6058 57.2226L15.955 61.6011C15.7329 61.7496 15.6098 62.0214 15.6102 62.3425L15.6122 64.022C15.6125 64.2937 15.7116 64.5406 15.8354 64.7627L21.5109 60.4336Z" fill="#00C797"/>
<path d="M48.2968 50.1511C48.2976 50.7932 47.8041 51.189 47.1864 51.0416L45.5559 50.6484C44.9382 50.5009 44.4447 50.8967 44.4455 51.5389L44.4475 53.2184C44.4483 53.8605 43.9548 54.2563 43.3372 54.1089L41.7065 53.7157C41.0889 53.5682 40.5707 53.964 40.5962 54.6062L40.5982 56.2857C40.599 56.9279 40.1055 57.3236 39.4631 57.1762L37.8325 56.783C37.2149 56.6356 36.6967 57.0314 36.7221 57.6735L36.7242 59.353C36.725 59.9952 36.2314 60.391 35.5891 60.2436L33.9585 59.8503C33.3409 59.7029 32.8227 60.0987 32.8481 60.7408L32.8502 62.4204C32.8509 63.0625 32.3574 63.4583 31.7151 63.3109L22.3515 61.0746C21.7339 60.9272 21.2144 60.2856 21.2136 59.6435L21.2116 57.9639C21.2108 57.3218 21.729 56.926 22.3467 57.0734L23.9772 57.4666C24.5949 57.6141 25.1131 57.2183 25.0876 56.5761L25.0856 54.8966C25.0848 54.2544 25.603 53.8586 26.2207 54.0061L27.8266 54.3993C28.4442 54.5468 28.9625 54.1509 28.9617 53.5088L28.9597 51.8292C28.9589 51.1871 29.4771 50.7913 30.07 50.9388L31.7006 51.332C32.3183 51.4794 32.8365 51.0836 32.8357 50.4414L32.8337 48.7619C32.8329 48.1197 32.3134 47.4782 31.6958 47.3307L6.84153 41.3836C6.22388 41.2362 5.7044 40.5947 5.70363 39.9525L5.67204 34.2718C5.67126 33.6296 6.16476 33.2338 6.78242 33.3813L31.6367 39.3284C32.2544 39.4758 32.7726 39.08 32.7718 38.4378L32.7698 36.7583C32.769 36.1162 32.2495 35.4746 31.6319 35.3272L30.0012 34.9339C29.3836 34.7865 28.8642 34.145 28.8634 33.5028L28.8614 31.8233C28.8606 31.1811 28.3411 30.5396 27.7235 30.3921L26.1176 29.9989C25.4999 29.8514 24.9805 29.2099 24.9797 28.5677L24.9777 26.8882C24.9769 26.246 24.4574 25.6045 23.8398 25.457L22.2092 25.0638C21.5915 24.9164 21.0721 24.2748 21.0713 23.6327L21.0693 21.9531C21.0685 21.311 21.5867 20.9151 22.2043 21.0626L31.568 23.2989C32.1856 23.4463 32.705 24.0879 32.7058 24.73L32.7078 26.4096C32.7086 27.0517 33.2281 27.6933 33.8457 27.8407L35.4764 28.2339C36.094 28.3814 36.6134 29.0229 36.6142 29.6651L36.6162 31.3446C36.617 31.9868 37.1365 32.6283 37.7541 32.7758L39.3847 33.169C40.0023 33.3164 40.5218 33.958 40.5226 34.6002L40.5246 36.2797C40.5254 36.9218 41.0449 37.5634 41.6625 37.7108L43.2931 38.104C43.9107 38.2515 44.4302 38.893 44.431 39.5352L44.433 41.2147C44.4338 41.8569 44.9532 42.4984 45.5709 42.6459L47.2015 43.0391C47.8191 43.1865 48.3386 43.8281 48.3394 44.4703L48.2968 50.1511Z" fill="#EBE9E9" stroke="#00C797" stroke-linecap="round" stroke-linejoin="round"/>
<path d="M74.7455 20.364C74.5428 20.5381 74.4531 20.8227 74.492 21.1414L74.6955 22.8086C74.7733 23.446 75.366 24.0206 75.9968 24.0929L101.385 27.016C102.016 27.0883 102.609 27.6629 102.686 28.3003L103.399 33.9362C103.438 34.2549 103.348 34.5396 103.149 34.7381L108.233 29.7134C108.436 29.5394 108.526 29.2547 108.484 28.9115L107.771 23.2756C107.693 22.6382 107.101 22.0636 106.47 21.9913L81.0816 19.0682C80.4507 18.9959 79.8581 18.4213 79.7803 17.7839L79.5768 16.1167C79.5379 15.798 79.6276 15.5134 79.8303 15.3393L74.7455 20.364Z" fill="#00C797"/>
<path d="M64.5157 17.4837L59.4309 22.5084C59.6091 22.3374 59.8698 22.2309 60.1975 22.2656L62.9997 22.5954L68.0845 17.5707L65.2823 17.2409C64.9546 17.2062 64.6909 17.2882 64.5157 17.4837Z" fill="#EBE9E9" stroke="#00C797" stroke-linecap="round" stroke-linejoin="round"/>
<path d="M76.2243 32.2779C76.0216 32.4519 75.9319 32.7366 75.9708 33.0553L76.1743 34.7225C76.2521 35.3599 76.8447 35.9345 77.4756 36.0068L79.1416 36.2016C79.7725 36.2739 80.3651 36.8485 80.4429 37.4859L80.6464 39.1531C80.7242 39.7905 81.3168 40.3652 81.9477 40.4375L83.5892 40.6352C84.22 40.7075 84.8127 41.2821 84.8905 41.9196L85.094 43.5867C85.1718 44.2242 85.7644 44.7988 86.3953 44.8711L88.0613 45.0659C88.6922 45.1382 89.2848 45.7128 89.3626 46.3502L89.5661 48.0174C89.605 48.3361 89.5153 48.6207 89.3126 48.7948L94.3974 43.7701C94.5756 43.599 94.6897 43.3114 94.6509 42.9927L94.4474 41.3255C94.3696 40.6881 93.7769 40.1135 93.146 40.0412L91.4801 39.8464C90.8492 39.7741 90.2565 39.1995 90.1787 38.562L89.9753 36.8949C89.8975 36.2574 89.3049 35.6828 88.674 35.6105L87.0325 35.4127C86.4016 35.3404 85.809 34.7658 85.7312 34.1284L85.5277 32.4612C85.4499 31.8238 84.8572 31.2492 84.2263 31.1769L82.5604 30.9821C81.9295 30.9098 81.3368 30.3352 81.259 29.6978L81.0556 28.0306C81.0167 27.7119 81.1064 27.4272 81.3091 27.2532L76.2243 32.2779Z" fill="#00C797"/>
<path d="M68.7329 13.709C68.4297 13.6713 68.1445 13.7808 67.9663 13.9518L62.8816 18.9765C63.0597 18.8055 63.3204 18.699 63.6481 18.7337L65.3141 18.9285C65.6173 18.9661 65.9055 18.8812 66.0807 18.6856L71.1655 13.6609C70.9873 13.832 70.7266 13.9384 70.3989 13.9038L68.7329 13.709Z" fill="#EBE9E9" stroke="#00C797" stroke-linecap="round" stroke-linejoin="round"/>
<path d="M72.1866 10.2027C71.8834 10.1651 71.5982 10.2746 71.42 10.4456L66.3352 15.4703C66.5134 15.2993 66.7741 15.1928 67.1018 15.2274L68.7678 15.4222C69.071 15.4599 69.3592 15.3749 69.5344 15.1794L74.6192 10.1547C74.441 10.3257 74.1802 10.4322 73.8525 10.3975L72.1866 10.2027Z" fill="#EBE9E9" stroke="#00C797" stroke-linecap="round" stroke-linejoin="round"/>
<path d="M75.6399 6.69356C75.3367 6.65592 75.0485 6.74086 74.8733 6.93641L69.7886 11.9611C69.9668 11.7901 70.2275 11.6836 70.5552 11.7183L72.2212 11.9131C72.5244 11.9507 72.8096 11.8412 72.9878 11.6702L78.0725 6.6455C77.8943 6.81654 77.6336 6.92301 77.3059 6.88835L75.6399 6.69356Z" fill="#EBE9E9" stroke="#00C797" stroke-linecap="round" stroke-linejoin="round"/>
<path d="M78.1962 16.8339C77.9935 17.008 77.9038 17.2926 77.9427 17.6113L78.1462 19.2785C78.1851 19.5972 78.0954 19.8818 77.8927 20.0559L82.9775 15.0312C83.1557 14.8601 83.2699 14.5725 83.231 14.2538L83.0275 12.5866C82.9886 12.2679 83.0783 11.9833 83.281 11.8092L78.1962 16.8339Z" fill="#00C797"/>
<path d="M81.6496 13.3241C81.4714 13.4951 81.3572 13.7827 81.3961 14.1015L81.5995 15.7686C81.6384 16.0873 81.5488 16.372 81.3461 16.546L86.4308 11.5213C86.609 11.3503 86.7232 11.0626 86.6843 10.7439L86.4809 9.07677C86.442 8.75805 86.5316 8.4734 86.7343 8.29937L81.6496 13.3241Z" fill="#00C797"/>
<path d="M78.3519 3.42963L73.2671 8.45433C73.4453 8.28329 73.706 8.17683 74.0337 8.21148L83.5979 9.30851C84.2288 9.3808 84.8214 9.95541 84.8992 10.5929L85.1027 12.26C85.1416 12.5787 85.0519 12.8634 84.8492 13.0374L89.934 8.01271C90.1367 7.83868 90.2264 7.55402 90.1875 7.2353L89.984 5.56815C89.9062 4.93071 89.3136 4.3561 88.6827 4.28381L79.1185 3.18677C78.7908 3.15212 78.5271 3.23408 78.3519 3.42963Z" fill="#EBE9E9" stroke="#00C797" stroke-linecap="round" stroke-linejoin="round"/>
<path d="M84.5365 9.86277C84.7135 10.09 84.8445 10.3477 84.8774 10.6174L85.0808 12.2845C85.1197 12.6033 85.03 12.8879 84.8273 13.062L89.9121 8.03725C90.1148 7.86322 90.2045 7.57858 90.1656 7.25985L89.9621 5.5927C89.9292 5.32301 89.8013 5.08981 89.6517 4.88411L84.5365 9.86277Z" fill="#00C797"/>
<path d="M59.1773 23.2839C59.0995 22.6464 59.5419 22.1943 60.1728 22.2666L61.8388 22.4614C62.4696 22.5337 62.9121 22.0816 62.8343 21.4442L62.6308 19.777C62.5531 19.1396 62.9955 18.6875 63.6264 18.7598L65.2924 18.9545C65.9233 19.0268 66.3903 18.5717 66.288 17.9373L66.0845 16.2701C66.0067 15.6327 66.4491 15.1806 67.1045 15.2499L68.7705 15.4447C69.4014 15.517 69.8684 15.0619 69.7661 14.4274L69.5626 12.7603C69.4848 12.1228 69.9273 11.6707 70.5827 11.74L72.2487 11.9348C72.8795 12.0071 73.3465 11.552 73.2442 10.9176L73.0407 9.2504C72.963 8.61296 73.4054 8.16085 74.0608 8.23016L83.625 9.32718C84.2559 9.39948 84.8486 9.97409 84.9264 10.6115L85.1298 12.2787C85.2076 12.9161 84.7406 13.3712 84.1097 13.2989L82.4438 13.1041C81.8129 13.0318 81.3459 13.4869 81.4482 14.1214L81.6517 15.7885C81.7295 16.426 81.2625 16.8811 80.6316 16.8088L78.9901 16.611C78.3593 16.5387 77.8923 16.9938 77.9701 17.6313L78.1735 19.2984C78.2513 19.9359 77.7843 20.391 77.178 20.3157L75.512 20.1209C74.8811 20.0486 74.4141 20.5037 74.4919 21.1411L74.6954 22.8083C74.7732 23.4457 75.3659 24.0203 75.9967 24.0926L101.385 27.0157C102.016 27.088 102.608 27.6626 102.686 28.3L103.399 33.9359C103.477 34.5733 103.034 35.0255 102.403 34.9532L77.0152 32.0301C76.3843 31.9578 75.9173 32.413 75.9951 33.0504L76.1986 34.7175C76.2764 35.355 76.8691 35.9296 77.4999 36.0019L79.166 36.1967C79.7968 36.269 80.3895 36.8436 80.4672 37.481L80.6707 39.1482C80.7485 39.7856 81.3412 40.3602 81.9721 40.4325L83.6135 40.6303C84.2444 40.7026 84.837 41.2772 84.9148 41.9147L85.1183 43.5818C85.1961 44.2193 85.7888 44.7939 86.4196 44.8662L88.0857 45.0609C88.7165 45.1332 89.3091 45.7078 89.3869 46.3453L89.5904 48.0124C89.6682 48.6499 89.2013 49.105 88.5704 49.0327L79.0061 47.9357C78.3753 47.8634 77.7826 47.2888 77.7048 46.6513L77.5014 44.9842C77.4236 44.3467 76.8309 43.7721 76.2 43.6998L74.534 43.505C73.9031 43.4327 73.3105 42.8581 73.2327 42.2207L73.0293 40.5535C72.9515 39.9161 72.3588 39.3415 71.7279 39.2692L70.062 39.0744C69.4311 39.0021 68.8384 38.4275 68.7606 37.79L68.5571 36.1229C68.4793 35.4855 67.8867 34.9108 67.2558 34.8386L65.5898 34.6438C64.959 34.5715 64.3663 33.9969 64.2885 33.3594L64.085 31.6923C64.0072 31.0548 63.4146 30.4802 62.7837 30.4079L61.1177 30.2131C60.4868 30.1408 59.8942 29.5662 59.8164 28.9288L59.1773 23.2839Z" fill="#EBE9E9" stroke="#00C797" stroke-linecap="round" stroke-linejoin="round"/>
</svg>
