<svg width="411" height="283" viewBox="0 0 411 283" fill="none" xmlns="http://www.w3.org/2000/svg">
<path d="M214.292 99.9083L218.606 99.5714C222.35 99.2767 226.14 104.996 227.484 113.452C228.992 122.943 226.852 132.28 222.706 134.312C222.255 134.534 221.799 134.661 221.34 134.695L217.025 135.032C217.481 134.998 217.94 134.871 218.392 134.649C222.538 132.616 224.678 123.279 223.169 113.789C221.826 105.337 218.036 99.6174 214.292 99.9083Z" fill="#00C797"/>
<path d="M222.886 127.077L227.112 127.103C227.43 125.825 227.663 124.431 227.805 122.957L223.521 122.931C223.395 124.397 223.181 125.79 222.886 127.077Z" fill="#B5DF77"/>
<path d="M208.151 121.146C206.643 111.66 208.783 102.323 212.928 100.29C217.074 98.2572 221.661 104.302 223.169 113.788C224.677 123.278 222.537 132.615 218.391 134.648C214.245 136.681 209.659 130.636 208.147 121.146H208.151Z" fill="#B5DF77" stroke="black" stroke-linecap="round" stroke-linejoin="round"/>
<path d="M208.151 121.146C206.643 111.66 208.783 102.323 212.928 100.29C217.074 98.2572 221.661 104.302 223.169 113.788C224.677 123.278 222.537 132.615 218.391 134.648C214.245 136.681 209.659 130.636 208.147 121.146H208.151Z" stroke="black" stroke-linecap="round" stroke-linejoin="round"/>
<path d="M222.51 128.493C221.599 131.525 220.183 133.772 218.391 134.649C217.939 134.871 217.484 134.997 217.025 135.032L221.339 134.695C221.794 134.66 222.254 134.534 222.706 134.312C224.424 133.47 225.799 131.364 226.71 128.52L222.507 128.493H222.51Z" fill="black"/>
<path d="M208.151 121.146C206.643 111.66 208.783 102.323 212.928 100.29C217.074 98.2572 221.661 104.302 223.169 113.788C224.677 123.278 222.537 132.615 218.391 134.648C214.245 136.681 209.659 130.636 208.147 121.146H208.151Z" stroke="black" stroke-linecap="round" stroke-linejoin="round"/>
<path d="M214.292 99.9083L218.606 99.5714C222.35 99.2767 226.14 104.996 227.484 113.452C228.992 122.943 226.852 132.28 222.706 134.312C222.255 134.534 221.799 134.661 221.34 134.695L217.025 135.032C217.481 134.998 217.94 134.871 218.392 134.649C222.538 132.616 224.678 123.279 223.169 113.789C221.826 105.337 218.036 99.6174 214.292 99.9083Z" stroke="black" stroke-linecap="round" stroke-linejoin="round"/>
<path d="M251.357 181.654C253.125 182.071 253.378 183.296 251.923 184.379L240.458 192.909C237.07 195.427 235.963 194.467 238 190.765L242.38 182.806C243.256 181.213 245.419 180.253 247.188 180.67L251.357 181.65V181.654Z" stroke="#B5DF77" stroke-linecap="round" stroke-linejoin="round"/>
<path d="M119.054 200.297L115.494 141.113C115.226 136.649 116.719 136.228 118.813 140.183L137.334 175.153C138.555 177.462 140.216 177.316 141.024 174.832L144.27 164.832C145.702 160.419 147.306 160.579 147.83 165.192L153.634 216.134L201.039 180.44C202.348 179.456 204.76 178.652 206.398 178.66L217.45 178.702C220.111 178.714 220.926 180.421 219.268 182.5L200.055 206.583C197.536 209.741 198.558 211.138 202.329 209.687L222.568 201.905C228.108 199.776 228.743 200.932 223.985 204.473L186.928 232.048C183.731 234.429 184.371 236.573 188.348 236.81L232.342 239.467C236.373 239.712 236.583 241.082 232.805 242.514L180.24 262.455L119.05 200.289L119.054 200.297Z" stroke="#B5DF77" stroke-linecap="round" stroke-linejoin="round"/>
<path d="M202.969 147.413C207.406 145.408 207.733 136.542 203.698 127.609C199.662 118.677 192.794 113.06 188.357 115.065C183.919 117.069 183.593 125.936 187.628 134.868C191.663 143.801 198.532 149.417 202.969 147.413Z" fill="#B5DF77" stroke="black" stroke-linecap="round" stroke-linejoin="round"/>
<path d="M199.507 149.61C202.82 147.249 201.24 139.349 195.978 131.964C190.716 124.579 183.765 120.505 180.452 122.866C177.139 125.226 178.719 133.127 183.981 140.512C189.243 147.897 196.194 151.97 199.507 149.61Z" fill="#B5DF77" stroke="black" stroke-linecap="round" stroke-linejoin="round"/>
<path d="M195.856 152.417C198.055 150.079 194.748 143.396 188.47 137.49C182.191 131.584 175.319 128.691 173.12 131.029C170.921 133.367 174.228 140.05 180.506 145.956C186.785 151.862 193.657 154.755 195.856 152.417Z" fill="#B5DF77" stroke="black" stroke-linecap="round" stroke-linejoin="round"/>
<path d="M192.174 155.922C193.442 153.92 188.674 148.624 181.523 144.093C174.372 139.562 167.547 137.512 166.278 139.514C165.01 141.516 169.778 146.812 176.929 151.343C184.08 155.874 190.905 157.924 192.174 155.922Z" fill="#B5DF77" stroke="black" stroke-linecap="round" stroke-linejoin="round"/>
<path d="M188.689 160.073C189.301 158.555 183.323 154.711 175.335 151.488C167.348 148.264 160.376 146.88 159.764 148.398C159.151 149.915 165.13 153.759 173.117 156.983C181.105 160.207 188.076 161.59 188.689 160.073Z" fill="#B5DF77" stroke="black" stroke-linecap="round" stroke-linejoin="round"/>
<path d="M185.562 164.781C185.791 163.729 178.795 161.318 169.938 159.394C161.08 157.471 153.715 156.765 153.487 157.817C153.258 158.868 160.254 161.28 169.111 163.203C177.968 165.126 185.334 165.832 185.562 164.781Z" fill="#B5DF77" stroke="black" stroke-linecap="round" stroke-linejoin="round"/>
<path d="M182.88 170.036C182.924 169.319 175.028 168.255 165.244 167.66C155.461 167.065 147.494 167.164 147.45 167.881C147.407 168.599 155.303 169.663 165.086 170.258C174.87 170.853 182.836 170.754 182.88 170.036Z" fill="#B5DF77" stroke="black" stroke-linecap="round" stroke-linejoin="round"/>
<path d="M178.131 180.553C178.369 178.973 170.894 176.534 161.434 175.107C151.974 173.68 144.112 173.804 143.873 175.384C143.635 176.965 151.11 179.403 160.57 180.83C170.03 182.258 177.892 182.134 178.131 180.553Z" fill="#B5DF77" stroke="black" stroke-linecap="round" stroke-linejoin="round"/>
<path d="M174.262 191.19C174.862 188.686 167.907 184.872 158.727 182.672C149.547 180.471 141.618 180.717 141.018 183.222C140.418 185.726 147.373 189.54 156.553 191.74C165.733 193.941 173.662 193.695 174.262 191.19Z" fill="#B5DF77" stroke="black" stroke-linecap="round" stroke-linejoin="round"/>
<path d="M171.104 201.888C172.246 198.449 165.936 193.259 157.01 190.297C148.085 187.335 139.924 187.722 138.782 191.161C137.641 194.601 143.951 199.79 152.876 202.752C161.802 205.714 169.963 205.328 171.104 201.888Z" fill="#B5DF77" stroke="black" stroke-linecap="round" stroke-linejoin="round"/>
<path d="M168.442 212.576C170.329 208.251 164.84 201.681 156.18 197.901C147.52 194.122 138.97 194.564 137.082 198.889C135.194 203.214 140.684 209.784 149.344 213.564C158.003 217.343 166.554 216.901 168.442 212.576Z" fill="#B5DF77" stroke="black" stroke-linecap="round" stroke-linejoin="round"/>
<path d="M166.013 223.354C168.915 218.294 164.535 210.33 156.229 205.565C147.923 200.801 138.837 201.04 135.935 206.1C133.032 211.16 137.412 219.124 145.718 223.889C154.024 228.653 163.11 228.414 166.013 223.354Z" fill="#B5DF77" stroke="black" stroke-linecap="round" stroke-linejoin="round"/>
<path d="M163.327 234.287C167.627 228.862 164.885 219.529 157.204 213.44C149.522 207.352 139.81 206.814 135.51 212.239C131.21 217.664 133.952 226.997 141.633 233.085C149.315 239.174 159.028 239.712 163.327 234.287Z" fill="#B5DF77" stroke="black" stroke-linecap="round" stroke-linejoin="round"/>
<path d="M60.1796 252.144L63.6211 247.478C64.6356 250.598 68.2111 253.404 71.5991 253.737L68.1575 258.403C64.7734 258.07 61.194 255.264 60.1796 252.144Z" fill="black"/>
<path d="M43.8258 201.814L47.2674 197.151L63.6176 247.481L60.1799 252.143L43.8258 201.814Z" fill="black"/>
<path d="M44.193 198.166L47.6346 193.499C46.9646 194.406 46.7924 195.685 47.2671 197.147L43.8255 201.814C43.3508 200.348 43.5231 199.073 44.193 198.166Z" fill="black"/>
<path d="M44.1927 198.166L47.6343 193.5C48.3885 192.478 49.7743 191.923 51.5697 192.099L48.1281 196.765C46.3327 196.589 44.9469 197.144 44.1927 198.166Z" fill="white"/>
<path d="M42.2444 196.731L45.6859 192.064C46.6966 190.694 48.5494 189.955 50.9497 190.188L47.5082 194.855C45.1079 194.621 43.255 195.36 42.2444 196.731Z" fill="#00C797" stroke="black" stroke-linecap="round" stroke-linejoin="round"/>
<path d="M194.634 264.015L191.192 268.681C190.438 269.703 189.052 270.258 187.261 270.082L190.702 265.416C192.494 265.592 193.88 265.037 194.634 264.015Z" fill="black"/>
<path d="M195.246 261.484C195.349 262.48 195.127 263.345 194.633 264.015L191.192 268.681C191.682 268.015 191.908 267.146 191.804 266.151C192.953 264.597 194.097 263.042 195.246 261.484Z" fill="white"/>
<path d="M195.001 260.362C195.127 260.749 195.208 261.124 195.246 261.484C194.098 263.038 192.953 264.592 191.804 266.151C191.766 265.791 191.686 265.416 191.559 265.029C192.593 263.628 193.967 261.763 195.001 260.362Z" fill="white"/>
<path d="M175.209 214.697L178.651 210.034L195.001 260.363L191.563 265.026L175.209 214.697Z" fill="white"/>
<path d="M48.1283 196.764L51.5698 192.098L170.676 203.777L167.235 208.44L48.1283 196.764Z" fill="white"/>
<path d="M167.235 208.44L170.677 203.773C174.061 204.106 177.636 206.909 178.651 210.029L175.209 214.695C174.195 211.575 170.623 208.773 167.235 208.44Z" fill="white"/>
<path d="M193.634 265.227C194.989 269.4 192.409 272.432 187.884 271.988L68.7777 260.308C64.2489 259.864 59.4637 256.109 58.1085 251.936L41.7544 201.607C40.3992 197.438 42.9794 194.406 47.5082 194.85L166.615 206.53C171.14 206.974 175.925 210.729 177.28 214.898L193.634 265.227Z" fill="#00C797" stroke="black" stroke-linecap="round" stroke-linejoin="round"/>
<path d="M196.586 265.45L193.145 270.117C194.04 268.903 194.274 267.192 193.635 265.232L197.076 260.565C197.716 262.525 197.482 264.237 196.586 265.45Z" fill="#00C797" stroke="black" stroke-linecap="round" stroke-linejoin="round"/>
<path d="M177.28 214.9L180.722 210.237L197.076 260.567L193.634 265.229L177.28 214.9Z" fill="#00C797" stroke="black" stroke-linecap="round" stroke-linejoin="round"/>
<path d="M47.5083 194.855L50.946 190.188L170.057 201.868L166.615 206.535L47.5083 194.855Z" fill="#B5DF77" stroke="black" stroke-linecap="round" stroke-linejoin="round"/>
<path d="M166.615 206.535L170.056 201.868C174.581 202.312 179.366 206.068 180.722 210.237L177.28 214.903C175.925 210.734 171.14 206.979 166.615 206.535Z" fill="#B5DF77" stroke="black" stroke-linecap="round" stroke-linejoin="round"/>
<path d="M166.228 225.918C169.524 226.24 171.4 224.039 170.412 220.995C169.425 217.952 165.945 215.222 162.649 214.901L147.443 213.412C144.139 213.086 142.264 215.291 143.251 218.335C144.239 221.378 147.719 224.108 151.023 224.433L166.228 225.922V225.918Z" fill="black"/>
<path d="M168.204 220.778C168.828 222.696 167.645 224.086 165.566 223.883C163.484 223.68 161.29 221.957 160.666 220.039C160.042 218.121 161.225 216.732 163.307 216.935C165.386 217.138 167.58 218.86 168.204 220.778Z" stroke="#EBE9E9" stroke-linecap="round" stroke-linejoin="round"/>
<path d="M376.331 109.467L382.158 117.694C385.507 122.422 392.616 128.126 397.961 130.365L410 135.415C410 135.415 402.631 136.471 399.067 144.874C395.503 153.277 387.483 172.498 391.812 182.555L379.551 175.477C377.43 174.252 373.701 173.471 371.267 173.746L362.741 174.7C358.94 175.124 352.872 174.439 349.258 173.176L317.082 161.933H292.138L280.676 158.621L283.096 143.982L269.984 140.801L273.039 126.036L279.723 125.017V122.537L254.579 120.944L247.237 118.758C244.695 118 242.926 115.232 243.313 112.606L243.451 111.657C243.761 109.551 245.748 107.714 247.868 107.568L262.599 106.558L284.114 108.594V106.684L236.885 90.261L231.484 86.1189C229.344 84.4766 228.306 81.0427 229.175 78.4932L229.57 77.337C230.443 74.7836 233.302 73.2026 235.928 73.8266L329.562 95.9918" fill="#EBE9E9"/>
<path d="M376.331 109.467L382.158 117.694C385.507 122.422 392.616 128.126 397.961 130.365L410 135.415C410 135.415 402.631 136.471 399.067 144.874C395.503 153.277 387.483 172.498 391.813 182.555L379.551 175.477C377.43 174.252 373.701 173.471 371.267 173.746L362.741 174.7C358.94 175.124 352.872 174.439 349.258 173.176L317.082 161.933H292.138L280.676 158.621L283.096 143.982L269.984 140.801L273.039 126.036L279.723 125.017V122.537L254.579 120.944L247.237 118.758C244.695 118 242.926 115.232 243.313 112.606L243.451 111.657C243.761 109.551 245.748 107.714 247.868 107.568L262.599 106.558L284.114 108.594V106.684L236.885 90.261L231.484 86.1189C229.344 84.4766 228.306 81.0427 229.175 78.4932L229.57 77.337C230.443 74.7836 233.302 73.2026 235.928 73.8266L329.562 95.9918" stroke="black" stroke-linecap="round" stroke-linejoin="round"/>
<path d="M319.778 159.317L319.885 156.323" stroke="black" stroke-linecap="round" stroke-linejoin="round"/>
<path d="M261.711 1.98245L266.401 1.3508C268.943 1.00626 271.649 2.31933 273.449 5.10243L268.759 5.73408C266.96 2.95098 264.253 1.63791 261.711 1.98245Z" fill="#00C797" stroke="black" stroke-linecap="round" stroke-linejoin="round"/>
<path d="M302.095 167.021L297.406 167.653C295.503 167.909 293.482 166.929 292.138 164.847L296.827 164.215C298.175 166.294 300.196 167.277 302.095 167.021Z" fill="black" stroke="black" stroke-linecap="round" stroke-linejoin="round"/>
<path d="M304.82 165.623C304.016 166.427 303.071 166.886 302.095 167.017L297.405 167.648C298.381 167.518 299.327 167.059 300.131 166.255C301.536 166.063 303.412 165.811 304.82 165.623Z" fill="white" stroke="black" stroke-linecap="round" stroke-linejoin="round"/>
<path d="M258.063 3.85032C261.233 0.680573 266.033 1.52278 268.759 5.73762L340.469 116.518C343.194 120.729 342.831 126.735 339.657 129.905L301.379 168.183C298.209 171.353 293.409 170.511 290.683 166.3L218.973 55.5195C216.248 51.3085 216.611 45.302 219.781 42.1285L258.059 3.85032H258.063Z" fill="black" stroke="black" stroke-linecap="round" stroke-linejoin="round"/>
<path d="M259.311 5.77449C261.681 3.40484 265.268 4.03649 267.308 7.18327L339.018 117.964C341.055 121.11 340.783 125.605 338.413 127.974L300.135 166.252C297.765 168.622 294.178 167.99 292.138 164.844L220.428 54.0634C218.392 50.9166 218.663 46.4223 221.033 44.0526L259.311 5.77449Z" fill="#B5DF77"/>
<path d="M238.225 32.0929C238.704 31.6144 239.428 31.7407 239.841 32.3762C240.254 33.0117 240.197 33.9189 239.718 34.3975C239.24 34.876 238.516 34.7497 238.103 34.1103C237.69 33.4749 237.743 32.5676 238.225 32.0891V32.0929Z" stroke="black" stroke-linecap="round" stroke-linejoin="round"/>
<path d="M246.873 23.6851C247.295 23.264 247.922 23.375 248.282 23.9339C248.642 24.4928 248.596 25.2776 248.175 25.6987L242.62 31.2534C242.199 31.6745 241.568 31.5635 241.208 31.0084C240.848 30.4534 240.898 29.6609 241.315 29.2398L246.87 23.6851H246.873Z" stroke="black" stroke-linecap="round" stroke-linejoin="round"/>
<path d="M302.417 169.416L297.727 170.048C299.033 169.872 300.3 169.259 301.376 168.179L306.065 167.548C304.99 168.624 303.722 169.24 302.417 169.416Z" fill="black" stroke="black" stroke-linecap="round" stroke-linejoin="round"/>
<path d="M339.657 129.901L344.347 129.27L306.065 167.548L301.379 168.179L339.657 129.901Z" fill="#00C797" stroke="black" stroke-linecap="round" stroke-linejoin="round"/>
<path d="M268.759 5.73322L273.449 5.10156L345.155 115.882L340.469 116.514L268.759 5.73322Z" fill="#00C797" stroke="black" stroke-linecap="round" stroke-linejoin="round"/>
<path d="M295.078 38.3507L294.224 37.6272L294.117 37.7344L284.753 23.2676C284.432 22.7738 283.781 22.4063 283.157 22.322L282.671 21.832L282.035 22.6398C281.836 22.8963 281.833 23.2561 282.074 23.6275L291.721 38.5306C292.123 39.1546 293.057 39.5834 293.792 39.4838C294.087 39.4456 294.301 39.3231 294.435 39.1546H294.439L295.074 38.3507H295.078Z" fill="black" stroke="black" stroke-linecap="round" stroke-linejoin="round"/>
<path d="M282.709 22.8216C282.307 22.1976 282.579 21.608 283.314 21.5085C284.049 21.409 284.983 21.8377 285.385 22.4617L295.032 37.3649C295.434 37.9889 295.162 38.5784 294.427 38.678C293.692 38.7775 292.758 38.3487 292.356 37.7247L282.709 22.8216Z" fill="#00C797" stroke="black" stroke-linecap="round" stroke-linejoin="round"/>
<path d="M340.469 116.514L345.158 115.883C347.884 120.094 347.52 126.1 344.347 129.27L339.657 129.902C342.827 126.732 343.191 120.725 340.469 116.514Z" fill="#00C797" stroke="black" stroke-linecap="round" stroke-linejoin="round"/>
<path d="M299.557 82.6191C301.647 96.6112 295.028 109.351 284.198 111.583C280.183 112.41 276.128 111.683 272.43 109.742" stroke="black" stroke-linecap="round" stroke-linejoin="round"/>
<path d="M257.546 84.5283C256.612 71.6158 263.059 60.3111 273.2 58.2209C276.492 57.5433 279.811 57.9109 282.935 59.1359" stroke="black" stroke-linecap="round" stroke-linejoin="round"/>
<path d="M281.343 69.5149C281.036 69.8211 281.033 70.4489 281.331 70.9121L282.659 72.9679L283.988 75.0236C284.286 75.4868 284.784 75.617 285.09 75.3107L286.446 73.9556L288.356 72.0453L290.266 70.135L292.176 68.2248L294.087 66.3145L292.758 64.2587C292.46 63.7955 291.962 63.6654 291.656 63.9716L290.301 65.3268L288.39 67.2371L286.48 69.1473L284.57 71.0576L282.694 68.1597L281.339 69.5149H281.343Z" fill="black"/>
<path d="M288.842 81.1017C288.536 81.408 288.532 82.0358 288.831 82.499L289.616 83.7087C289.914 84.1719 290.412 84.3021 290.718 83.9958L292.073 82.6406L290.745 80.5849C290.446 80.1217 289.949 79.9915 289.642 80.2978L288.846 81.0941L288.842 81.1017Z" fill="black"/>
<path d="M297.83 72.1129L299.706 75.0109L301.061 73.6557C301.368 73.3494 301.372 72.7216 301.073 72.2584L299.745 70.2027L297.869 67.3047L296.54 65.249C296.242 64.7858 295.744 64.6556 295.438 64.9619L294.083 66.317L295.958 69.215L297.834 72.1129H297.83Z" fill="black"/>
<path d="M286.514 64.3471L288.425 62.4369L290.335 60.5266L291.69 59.1714C291.996 58.8651 292 58.2373 291.702 57.7741L290.917 56.5644C290.618 56.1012 290.121 55.971 289.814 56.2773L288.459 57.6325L286.549 59.5427L284.639 61.453L282.728 63.3633L281.373 64.7185C281.067 65.0247 281.063 65.6525 281.362 66.1157L282.69 68.1715L284.6 66.2612L286.511 64.351L286.514 64.3471Z" fill="black"/>
<path d="M295.89 78.8283L293.979 80.7386L292.069 82.6489L293.398 84.7046C293.696 85.1678 294.194 85.298 294.5 84.9917L295.855 83.6366L297.766 81.7263L299.676 79.816L301.031 78.4608C301.337 78.1546 301.341 77.5268 301.043 77.0636L299.714 75.0078L297.804 76.9181L295.894 78.8283H295.89Z" fill="black"/>
<path d="M269.333 81.5244L267.978 82.8796C267.672 83.1859 267.668 83.8137 267.967 84.2769L269.295 86.3326L270.623 88.3884C270.922 88.8516 271.42 88.9817 271.726 88.6755L273.081 87.3203L271.205 84.4224L269.329 81.5244H269.333Z" fill="black"/>
<path d="M276.901 83.4993L274.991 85.4096L273.085 87.3199L274.957 90.214L276.867 88.3075L278.777 86.3973L280.684 84.487L282.594 82.5806L280.718 79.6826L278.812 81.5929L276.901 83.4993Z" fill="black"/>
<path d="M274.957 90.2168L273.602 91.572C273.296 91.8782 273.292 92.5061 273.59 92.9693L274.919 95.025L276.247 97.0807C276.546 97.544 277.044 97.6741 277.35 97.3679L278.705 96.0127L276.829 93.1147L274.953 90.2168H274.957Z" fill="black"/>
<path d="M278.843 76.7843L280.718 79.6823L282.074 78.3271C282.38 78.0208 282.384 77.393 282.085 76.9298L280.757 74.874L279.428 72.8183C279.13 72.3551 278.632 72.2249 278.326 72.5312L276.971 73.8864L278.846 76.7843H278.843Z" fill="black"/>
<path d="M286.345 88.3747L287.701 87.0195C288.007 86.7132 288.011 86.0854 287.712 85.6222L286.384 83.5664L285.055 81.5107C284.757 81.0475 284.259 80.9173 283.953 81.2236L282.598 82.5788L284.473 85.4767L286.349 88.3747H286.345Z" fill="black"/>
<path d="M282.525 92.1946L280.615 94.1048L278.705 96.0151L280.033 98.0708C280.332 98.534 280.829 98.6642 281.136 98.358L282.491 97.0028L284.401 95.0925L286.311 93.1822L287.667 91.8271C287.973 91.5208 287.977 90.893 287.678 90.4298L286.35 88.374L284.439 90.2843L282.529 92.1946H282.525Z" fill="black"/>
<path d="M273.15 77.7083L275.06 75.798L276.971 73.8877L275.642 71.832C275.344 71.3688 274.846 71.2386 274.54 71.5449L273.184 72.9L271.274 74.8103L269.364 76.7206L268.009 78.0758C267.702 78.382 267.699 79.0099 267.997 79.4731L269.326 81.5288L271.236 79.6185L273.146 77.7083H273.15Z" fill="black"/>
<path d="M256.54 94.3483L257.891 92.9931L259.798 91.0828L258.469 89.0271C258.171 88.5639 258.174 87.9322 258.477 87.6259L259.273 86.8259C259.579 86.5196 260.073 86.6498 260.376 87.113L261.704 89.1687L263.61 87.2584L264.962 85.9033C265.268 85.597 265.762 85.7272 266.064 86.1904L266.849 87.4001C267.148 87.8633 267.144 88.495 266.841 88.8012L265.49 90.1564L263.584 92.0667L261.677 93.9769L259.771 95.8872L261.647 98.7851L260.295 100.14C259.989 100.447 259.495 100.316 259.193 99.8532L257.864 97.7975L256.536 95.7417C256.237 95.2785 256.241 94.6469 256.544 94.3406L256.54 94.3483Z" fill="black"/>
<path d="M265.456 94.9645L266.807 93.6093C267.113 93.3031 267.607 93.4332 267.91 93.8964L269.238 95.9522L267.332 97.8624L265.425 99.7727L264.074 101.128C263.767 101.434 263.274 101.304 262.971 100.841L261.643 98.785L263.549 96.8748L265.456 94.9645Z" fill="black"/>
<path d="M271.692 94.881L273.02 96.9367L274.348 98.9924C274.647 99.4557 274.643 100.087 274.341 100.394L272.989 101.749L271.083 103.659L272.411 105.715C272.71 106.178 272.706 106.81 272.404 107.116L271.607 107.916C271.301 108.222 270.807 108.092 270.505 107.629L269.176 105.573L267.27 107.483L265.919 108.839C265.612 109.145 265.119 109.015 264.816 108.551L264.031 107.342C263.733 106.879 263.737 106.247 264.039 105.941L265.39 104.585L267.297 102.675L269.203 100.765L271.11 98.8546L269.234 95.9567L270.585 94.6015C270.892 94.2952 271.385 94.4254 271.688 94.8886L271.692 94.881Z" fill="black"/>
<path d="M244.205 92.0136C239.098 67.2298 250.403 43.9582 269.452 40.0305C276.951 38.4839 284.535 40.1683 291.284 44.2913" stroke="black" stroke-linecap="round" stroke-linejoin="round"/>
<path d="M313.193 77.7969C318.3 102.581 306.995 125.852 287.946 129.78C280.596 131.296 273.169 129.711 266.523 125.768" stroke="black" stroke-linecap="round" stroke-linejoin="round"/>
<path d="M254.702 52.2554L259.564 47.3975L258.79 51.574L254.702 52.2554Z" fill="black" stroke="black" stroke-linecap="round" stroke-linejoin="round"/>
<path d="M259.491 59.651L264.349 54.793L263.58 58.9695L259.491 59.651Z" fill="black" stroke="black" stroke-linecap="round" stroke-linejoin="round"/>
<path d="M264.28 67.0484L269.138 62.1904L268.365 66.367L264.28 67.0484Z" fill="black" stroke="black" stroke-linecap="round" stroke-linejoin="round"/>
<path d="M269.98 140.801L267.155 139.985C265.295 139.449 263.365 137.482 262.864 135.614L262.171 133.026C261.459 130.373 262.971 127.379 265.532 126.38L273.835 123.134C275.424 122.513 277.499 123.168 278.444 124.588L279.819 126.652C281.105 128.589 280.998 131.135 279.547 132.953C278.398 134.392 276.58 135.973 273.717 137.195L269.984 140.801H269.98Z" fill="#EBE9E9" stroke="black" stroke-linecap="round" stroke-linejoin="round"/>
<path d="M280.673 158.622L277.629 157.746C275.891 157.244 274.077 155.403 273.598 153.657L272.97 151.36C272.174 148.455 273.958 145.71 276.936 145.254L284.646 144.079C286.296 143.826 288.061 144.925 288.566 146.518L289.435 149.266C290.063 151.253 289.014 153.554 287.104 154.381L283.414 155.977L280.673 158.626V158.622Z" fill="#EBE9E9" stroke="black" stroke-linecap="round" stroke-linejoin="round"/>
<path d="M342.724 135.415L335.305 118.41C333.988 115.393 332.526 110.256 332.059 106.994L329.961 92.4009L315.525 77.8538C313.902 76.2191 311.624 73.2599 310.46 71.2731L305.912 63.5172C304.58 61.2432 304.132 57.3231 304.921 54.808C305.602 52.6374 308.003 51.1138 310.254 51.4277L311.647 51.6191C313.263 51.845 315.23 53.1925 316.023 54.6166L318.546 59.1415L327.059 61.917C329.012 62.5525 331.925 64.1105 333.537 65.3815L352.8 80.5565C356.613 83.5578 362.022 89.2541 364.828 93.2163L376.336 109.467" fill="#EBE9E9"/>
<path d="M342.724 135.415L335.305 118.41C333.988 115.393 332.526 110.256 332.059 106.994L329.961 92.4009L315.525 77.8538C313.902 76.2191 311.624 73.2599 310.46 71.2731L305.912 63.5172C304.58 61.2432 304.132 57.3231 304.921 54.808C305.602 52.6374 308.003 51.1138 310.254 51.4277L311.647 51.6191C313.263 51.845 315.23 53.1925 316.023 54.6166L318.546 59.1415L327.059 61.917C329.012 62.5525 331.925 64.1105 333.537 65.3815L352.8 80.5565C356.613 83.5578 362.022 89.2541 364.828 93.2163L376.336 109.467" stroke="black" stroke-linecap="round" stroke-linejoin="round"/>
<path d="M342.724 135.415L339.773 128.646" stroke="black" stroke-linecap="round" stroke-linejoin="round"/>
<path d="M329.835 91.0163C330.045 88.6734 331.366 87.3604 331.366 87.3604" stroke="black" stroke-linecap="round" stroke-linejoin="round"/>
<path d="M306.835 53.1846L310.813 58.2761C311.536 59.2025 312.753 59.6006 313.887 59.2791C315.02 58.9575 316.712 58.7048 318.542 59.1374" stroke="black" stroke-linecap="round" stroke-linejoin="round"/>
<path d="M326.823 63.709L330.597 64.3445" stroke="black" stroke-linecap="round" stroke-linejoin="round"/>
<path d="M316.21 77.0774L316.892 75.125" stroke="black" stroke-linecap="round" stroke-linejoin="round"/>
<path d="M29.7689 171.84C29.7689 171.84 33.8344 184.664 23.2686 204.946C13.9393 222.854 8.34631 230.105 1 233.455L31.2963 245.146L62.833 273.831C65.5128 276.269 70.6502 277.892 74.2602 277.575L83.7465 276.736L97.2294 280.331C98.9061 280.779 101.513 280.335 103.002 279.443L109.208 275.718L122.587 281.257C124.191 281.92 126.844 282.008 128.49 281.453L133.394 279.791L152.574 277.33L163.702 273.375C164.678 273.031 165.253 271.928 164.985 270.929C164.41 268.8 162.144 266.932 159.943 266.779L153.764 266.347H126.772L106.402 252.718L128.211 256.171C130.079 256.466 133.115 256.366 134.96 255.953L139.5 254.927L168.285 255.08C169.892 255.088 171.182 253.752 171.117 252.144C171.022 249.774 169.502 246.394 167.285 245.556L157.964 242.034L128.372 238.286L121.336 233.263L89.148 216.955C84.8796 214.792 84.2977 210.405 87.8618 207.209L91.4794 203.962C93.0222 202.576 95.9622 201.118 98.0333 201.049L118.977 200.36C120.459 200.31 122.783 199.778 124.142 199.177L129.719 196.704C133.766 194.909 136.12 189.947 134.945 185.675C134.485 184.002 132.709 182.877 130.998 183.171L125.826 184.071C124.031 184.381 121.247 183.929 119.643 183.064L114.663 180.377C113.059 179.512 110.257 178.696 108.438 178.562L73.5558 176.043L51.3561 179.029C47.7652 179.512 42.2182 178.509 39.0216 176.797L29.7612 171.844L29.7689 171.84Z" fill="#EBE9E9" stroke="black" stroke-linecap="round" stroke-linejoin="round"/>
<path d="M156.497 275.935L156.084 275.016C155.754 274.285 156.064 273.378 156.773 272.999L162.17 270.116C162.17 270.116 163.334 270.916 163.92 272.413" stroke="black" stroke-linecap="round" stroke-linejoin="round"/>
<path d="M106.405 252.719L95.7784 251.505C95.1812 251.436 94.3926 251.769 94.0251 252.244L93.045 253.507" stroke="black" stroke-linecap="round" stroke-linejoin="round"/>
<path d="M89.9519 253.377C91.3454 251.784 92.5934 250.291 93.6385 249.005" stroke="black" stroke-linecap="round" stroke-linejoin="round"/>
<path d="M78.0847 265.057C78.7585 264.514 79.4284 263.951 80.0907 263.373" stroke="black" stroke-linecap="round" stroke-linejoin="round"/>
<path d="M65.6963 271.384C67.0936 271.25 68.5636 270.822 70.0719 270.167" stroke="black" stroke-linecap="round" stroke-linejoin="round"/>
<path d="M109.204 275.717L89.3203 264.849L84.8413 263.44C84.3513 263.287 83.6469 263.447 83.2717 263.8L82.5405 264.489" stroke="black" stroke-linecap="round" stroke-linejoin="round"/>
<path d="M74.4092 273.256L83.7423 276.736" stroke="black" stroke-linecap="round" stroke-linejoin="round"/>
<path d="M159.744 254.143L159.284 251.038C159.154 250.146 159.774 249.3 160.666 249.158L167.637 248.063C167.637 248.063 170.723 250.609 169.421 254.143" stroke="black" stroke-linecap="round" stroke-linejoin="round"/>
<path d="M123.368 184.664L123.494 186.812C123.548 187.711 124.329 188.45 125.232 188.45H133.616L134.156 186.126" stroke="black" stroke-linecap="round" stroke-linejoin="round"/>
</svg>
