<svg width="60" height="57" viewBox="0 0 60 57" fill="none" xmlns="http://www.w3.org/2000/svg">
<path d="M40.5663 34.2468C40.5663 28.485 37.1104 26.5091 30.1987 25.6831C25.2617 25.0232 24.2743 23.7072 24.2743 21.4033C24.2743 19.0993 25.9213 17.6174 29.2113 17.6174C32.1735 17.6174 33.8204 18.6054 34.642 21.0753C34.8078 21.5693 35.3015 21.8973 35.7952 21.8973H38.4296C39.0892 21.8973 39.5829 21.4033 39.5829 20.7433V20.5773C38.9233 16.9535 35.9611 14.1556 32.1774 13.8276V9.87571C32.1774 9.21575 31.6837 8.72176 30.8622 8.55974H28.3937C27.7341 8.55974 27.2404 9.05372 27.0785 9.87571V13.6616C22.1415 14.3215 19.0135 17.6134 19.0135 21.7313C19.0135 27.1651 22.3035 29.307 29.2152 30.129C33.8244 30.951 35.3055 31.9389 35.3055 34.5748C35.3055 37.2107 33.0029 39.0207 29.8748 39.0207C25.5974 39.0207 24.1163 37.2107 23.6226 34.7408C23.4567 34.0808 22.9631 33.7528 22.4694 33.7528H19.6731C19.0135 33.7528 18.5198 34.2468 18.5198 34.9068V35.0728C19.1794 39.1906 21.8098 42.1545 27.2404 42.9765V46.9283C27.2404 47.5883 27.7341 48.0823 28.5557 48.2443H31.0241C31.6837 48.2443 32.1774 47.7503 32.3393 46.9283V42.9765C37.2724 42.1505 40.5663 38.6927 40.5663 34.2468Z" fill="white"/>
<path d="M21.3104 51.5362C8.47428 46.9244 1.89033 32.5989 6.66537 19.9213C9.13386 13.0056 14.5645 7.73774 21.3104 5.26783C21.97 4.93982 22.2978 4.44584 22.2978 3.6199V1.31597C22.2978 0.656009 21.97 0.162026 21.3104 0C21.1445 0 20.8167 4.89942e-07 20.6508 0.165979C5.0184 5.1058 -3.54033 21.7352 1.39664 37.3806C4.35882 46.6003 11.4365 53.682 20.6508 56.6459C21.3104 56.9739 21.966 56.6459 22.1319 55.986C22.2978 55.82 22.2978 55.658 22.2978 55.326V53.0221C22.2978 52.5242 21.8041 51.8681 21.3104 51.5362ZM38.7517 0.162026C38.0922 -0.165978 37.4365 0.162027 37.2706 0.821987C37.1048 0.987965 37.1048 1.14999 37.1048 1.48195V3.78588C37.1048 4.44584 37.5985 5.10185 38.0922 5.43381C50.9283 10.0456 57.5122 24.3711 52.7372 37.0487C50.2687 43.9644 44.838 49.2323 38.0922 51.7022C37.4326 52.0302 37.1048 52.5242 37.1048 53.3501V55.654C37.1048 56.314 37.4326 56.808 38.0922 56.97C38.258 56.97 38.5859 56.97 38.7517 56.804C54.3842 51.8642 62.9429 35.2348 58.0059 19.5894C55.0438 10.2077 47.8042 3.12592 38.7517 0.162026Z" fill="white"/>
</svg>
