<svg width="456" height="351" viewBox="0 0 456 351" fill="none" xmlns="http://www.w3.org/2000/svg">
<path d="M40.074 90.2953L64.5992 89.8687C64.781 89.8687 64.9628 89.8959 65.1445 89.9594L40.6193 90.386C40.4375 90.3179 40.2512 90.2907 40.074 90.2953Z" fill="black" stroke="#00C797" stroke-linecap="round" stroke-linejoin="round"/>
<path d="M40.6238 90.391L65.1445 89.9644L67.6938 90.8902L43.1686 91.3168L40.6238 90.391Z" fill="black" stroke="#00C797" stroke-linecap="round" stroke-linejoin="round"/>
<path d="M68.2393 90.9804L43.714 91.407C43.5322 91.407 43.3505 91.3798 43.1687 91.3162L67.694 90.8896C67.8757 90.9577 68.0575 90.9849 68.2393 90.9804Z" fill="black" stroke="#00C797" stroke-linecap="round" stroke-linejoin="round"/>
<path d="M47.9036 84.9671L72.4288 84.5405C72.6106 84.5405 72.7924 84.5678 72.9741 84.6313L48.4489 85.0579C48.2671 84.9898 48.0808 84.9626 47.9036 84.9671Z" fill="black" stroke="#00C797" stroke-linecap="round" stroke-linejoin="round"/>
<path d="M48.449 85.0628L72.9742 84.6362L75.519 85.562L50.9983 85.9886L48.449 85.0628Z" fill="black" stroke="#00C797" stroke-linecap="round" stroke-linejoin="round"/>
<path d="M76.0642 85.6528L51.539 86.0794C51.3572 86.0794 51.1754 86.0521 50.9937 85.9886L75.5189 85.562C75.7007 85.6301 75.8824 85.6573 76.0642 85.6528Z" fill="black" stroke="#00C797" stroke-linecap="round" stroke-linejoin="round"/>
<path d="M55.7288 79.6395L80.254 79.2129C80.4358 79.2129 80.6176 79.2401 80.7993 79.3037L56.2741 79.7303C56.0923 79.6622 55.906 79.635 55.7288 79.6395Z" fill="black" stroke="#00C797" stroke-linecap="round" stroke-linejoin="round"/>
<path d="M81.0084 170.492C80.2222 170.506 79.5043 171.146 79.277 172.135L78.55 175.289C78.3227 176.274 77.6048 176.918 76.8186 176.932L101.344 176.505C102.13 176.492 102.848 175.847 103.075 174.862L103.802 171.708C104.03 170.723 104.747 170.079 105.534 170.065L81.0084 170.492Z" fill="#00C797" stroke="#00C797" stroke-linecap="round" stroke-linejoin="round"/>
<path d="M88.8336 165.163C88.0474 165.177 87.3294 165.821 87.1022 166.806L86.3752 169.956C86.1479 170.941 85.43 171.585 84.6438 171.599L109.169 171.172C109.955 171.159 110.673 170.514 110.9 169.529L111.627 166.38C111.855 165.395 112.573 164.75 113.359 164.737L88.8336 165.163Z" fill="#00C797" stroke="#00C797" stroke-linecap="round" stroke-linejoin="round"/>
<path d="M65.6306 91.875L90.1559 91.4484C93.0233 91.3984 95.9452 91.875 98.8445 92.9233C114.436 98.5826 123.47 118.805 119.025 138.098C115.408 153.8 103.979 164.048 91.4464 164.265L66.9212 164.692C79.4542 164.474 90.8875 154.231 94.5002 138.524C98.9444 119.232 89.9059 99.0046 74.3192 93.3499C71.42 92.297 68.4935 91.825 65.6306 91.875Z" fill="black" stroke="#00C797" stroke-linecap="round" stroke-linejoin="round"/>
<path d="M56.2788 79.7352L80.7995 79.3086L119.889 93.4953L95.3683 93.9219L56.2788 79.7352Z" fill="black" stroke="#00C797" stroke-linecap="round" stroke-linejoin="round"/>
<path d="M124.247 103.243L121.702 102.318C120.725 101.964 120.157 100.688 120.434 99.4811L121.161 96.3316C121.438 95.1198 120.875 93.8491 119.893 93.4951L95.3682 93.9217C96.3497 94.2757 96.9132 95.5464 96.636 96.7582L95.9089 99.9077C95.6317 101.115 96.1998 102.39 97.1768 102.744L99.7215 103.67L124.247 103.243Z" fill="black" stroke="#00C797" stroke-linecap="round" stroke-linejoin="round"/>
<path d="M128.6 112.991L126.055 112.065C125.074 111.711 124.51 110.436 124.787 109.229L125.515 106.079C125.792 104.867 125.228 103.597 124.247 103.243L99.7214 103.669C100.703 104.023 101.266 105.294 100.989 106.506L100.262 109.655C99.985 110.862 100.548 112.138 101.53 112.492L104.075 113.418L128.6 112.991Z" fill="black" stroke="#00C797" stroke-linecap="round" stroke-linejoin="round"/>
<path d="M53.9974 81.2871C54.2746 80.0753 55.2971 79.381 56.2741 79.735L95.3636 93.9217C96.3452 94.2757 96.9087 95.5464 96.6315 96.7581L95.9044 99.9077C95.6272 101.115 96.1952 102.39 97.1723 102.744L99.717 103.67C100.699 104.024 101.262 105.295 100.985 106.506L100.258 109.656C99.9806 110.863 100.544 112.138 101.526 112.492L104.07 113.418C105.052 113.772 105.615 115.043 105.338 116.255L94.1958 164.633C93.9186 165.845 92.8961 166.539 91.9191 166.185L89.3743 165.259C88.3928 164.905 87.3749 165.595 87.0977 166.811L86.3706 169.961C86.0934 171.173 85.0709 171.867 84.0939 171.513L81.5492 170.587C80.5721 170.233 79.5497 170.923 79.2725 172.139L78.5454 175.289C78.2682 176.501 77.2458 177.195 76.2688 176.841L37.1792 162.654C36.1977 162.3 35.6342 161.029 35.9114 159.818L36.6384 156.668C36.9156 155.456 36.3522 154.186 35.3706 153.832L32.8258 152.906C31.8443 152.552 31.2808 151.281 31.558 150.07L32.2851 146.92C32.5623 145.708 31.9988 144.437 31.0172 144.083L28.4725 143.158C27.4909 142.804 26.9274 141.533 27.2046 140.321L38.3471 91.943C38.6243 90.7313 39.6422 90.0369 40.6237 90.3909L43.1685 91.3167C44.1501 91.6707 45.168 90.9763 45.4452 89.7646L46.1723 86.615C46.4495 85.4033 47.4719 84.7089 48.4489 85.0629L50.9937 85.9887C51.9753 86.3427 52.9932 85.6484 53.2704 84.4366L53.9974 81.2871Z" fill="black" stroke="#00C797" stroke-linecap="round" stroke-linejoin="round"/>
<path d="M129.868 115.828C130.145 114.616 129.582 113.345 128.6 112.991L104.075 113.418C105.057 113.772 105.62 115.043 105.343 116.254L94.2003 164.633C93.9731 165.617 93.2551 166.262 92.469 166.275L116.994 165.849C117.78 165.835 118.498 165.191 118.726 164.206L129.868 115.828Z" fill="black" stroke="#00C797" stroke-linecap="round" stroke-linejoin="round"/>
<path d="M33.035 173.129C32.6396 173.133 32.2397 173.297 31.908 173.623L29.8222 175.661C29.4859 175.988 29.0906 176.151 28.6907 176.156L52.6706 175.747C53.0705 175.743 53.4659 175.579 53.8021 175.253L55.8879 173.215C56.2197 172.888 56.6196 172.729 57.0149 172.72L33.035 173.129Z" fill="#00C797" stroke="#00C797" stroke-linecap="round" stroke-linejoin="round"/>
<path d="M42.046 174.404C41.6507 174.408 41.2508 174.571 40.9191 174.898L38.8333 176.94C38.5015 177.267 38.1016 177.426 37.7063 177.435L61.6863 177.027C62.0816 177.018 62.4815 176.859 62.8132 176.532L64.899 174.49C65.2308 174.163 65.6307 174.004 66.026 173.995L42.046 174.404Z" fill="#00C797" stroke="#00C797" stroke-linecap="round" stroke-linejoin="round"/>
<path d="M63.9945 81.7135L62.3131 79.1403C61.936 78.564 61.377 78.269 60.8181 78.278L36.8381 78.6865C37.3971 78.6774 37.956 78.9724 38.3332 79.5488L40.0146 82.122C40.3917 82.6983 40.9507 82.9979 41.5096 82.9888L65.4896 82.5803C64.9306 82.5894 64.3762 82.2944 63.9945 81.7135Z" fill="black" stroke="#00C797" stroke-linecap="round" stroke-linejoin="round"/>
<path d="M73.0061 82.9887L71.3247 80.4155C70.9475 79.8391 70.3886 79.5396 69.8342 79.5532L45.8542 79.9616C46.4132 79.9526 46.9676 80.2475 47.3448 80.8239L49.0261 83.3971C49.4033 83.9735 49.9622 84.273 50.5166 84.2639L74.4966 83.8555C73.9376 83.8646 73.3832 83.5696 73.0061 82.9887Z" fill="black" stroke="#00C797" stroke-linecap="round" stroke-linejoin="round"/>
<path d="M79.8904 146.893L47.8399 178.216C47.5081 178.543 47.1082 178.702 46.7129 178.711L70.6928 178.302C71.0882 178.298 71.4881 178.134 71.8198 177.808L103.87 146.484L79.8904 146.893Z" fill="#00C797" stroke="#00C797" stroke-linecap="round" stroke-linejoin="round"/>
<path d="M79.7539 126.861L81.8397 124.823L105.82 124.415L103.734 126.452C102.93 127.237 102.807 128.676 103.448 129.665L79.4676 130.074C78.8224 129.089 78.9496 127.646 79.7539 126.861Z" fill="#00C797" stroke="#00C797" stroke-linecap="round" stroke-linejoin="round"/>
<path d="M104.156 143.271L102.475 140.698L78.4951 141.107L80.1765 143.68C80.8218 144.669 80.6945 146.108 79.8902 146.893L103.87 146.485C104.67 145.704 104.802 144.265 104.156 143.271Z" fill="black" stroke="#00C797" stroke-linecap="round" stroke-linejoin="round"/>
<path d="M104.847 135.452L80.8674 135.86L78.7816 137.898C77.9772 138.683 77.8545 140.122 78.4953 141.111L102.475 140.702C101.83 139.718 101.957 138.274 102.762 137.489L104.847 135.452Z" fill="#00C797" stroke="#00C797" stroke-linecap="round" stroke-linejoin="round"/>
<path d="M105.134 132.234L103.452 129.661L79.4724 130.069L81.1538 132.642C81.7991 133.632 81.6718 135.07 80.8675 135.855L104.847 135.447C105.652 134.662 105.779 133.223 105.134 132.234Z" fill="black" stroke="#00C797" stroke-linecap="round" stroke-linejoin="round"/>
<path d="M106.106 121.201L80.3312 81.6951C79.954 81.1142 79.3951 80.8193 78.8361 80.8283L54.8562 81.2368C55.4151 81.2277 55.9695 81.5227 56.3513 82.1036L82.1262 121.609C82.7715 122.599 82.6442 124.037 81.8399 124.823L105.82 124.414C106.624 123.629 106.751 122.195 106.106 121.206V121.201Z" fill="black" stroke="#00C797" stroke-linecap="round" stroke-linejoin="round"/>
<path d="M53.7293 81.7363C54.5336 80.9512 55.706 81.1191 56.3513 82.1085L82.1263 121.614C82.7715 122.604 82.6443 124.042 81.84 124.827L79.7542 126.865C78.9498 127.65 78.8271 129.089 79.4679 130.078L81.1492 132.651C81.7945 133.641 81.6673 135.079 80.8629 135.865L78.7771 137.902C77.9728 138.687 77.8501 140.126 78.4909 141.115L80.1722 143.689C80.8175 144.678 80.6903 146.117 79.8859 146.902L47.8354 178.225C47.0356 179.006 45.8587 178.842 45.2134 177.853L43.532 175.28C42.8868 174.295 41.7143 174.122 40.91 174.908L38.8242 176.95C38.0244 177.73 36.8475 177.567 36.2022 176.578L34.5208 174.004C33.8755 173.02 32.7031 172.847 31.8988 173.632L29.813 175.67C29.0086 176.455 27.8362 176.292 27.1864 175.302L1.41148 135.797C0.766203 134.807 0.893444 133.369 1.69777 132.583L3.78358 130.546C4.58791 129.761 4.71515 128.327 4.06987 127.333L2.3885 124.759C1.74322 123.77 1.87046 122.331 2.67479 121.546L4.76059 119.504C5.56492 118.719 5.69216 117.285 5.04688 116.291L3.36551 113.718C2.72023 112.733 2.84746 111.29 3.65179 110.505L35.7023 79.1813C36.5021 78.4007 37.6791 78.5641 38.3243 79.5534L40.0057 82.1266C40.651 83.116 41.8234 83.2839 42.6277 82.4988L44.7135 80.4611C45.5179 79.6759 46.6903 79.8393 47.3401 80.8287L49.0215 83.4019C49.6667 84.3912 50.8392 84.5592 51.6435 83.774L53.7293 81.7363Z" fill="black" stroke="#00C797" stroke-linecap="round" stroke-linejoin="round"/>
<path d="M48.6534 108.376C49.385 107.659 50.4529 107.814 51.0437 108.717L52.5751 111.063C53.1613 111.962 53.0477 113.273 52.3161 113.99L49.0897 117.144L45.427 111.53L48.6534 108.376Z" fill="#00C797"/>
<path d="M32.2256 106.052C32.9573 105.335 34.0251 105.489 34.6159 106.392L37.2107 110.373L40.4371 107.218C41.1687 106.501 42.2366 106.656 42.8273 107.559L45.4221 111.539L31.7667 124.881L35.4293 130.495L49.0847 117.153L52.7474 122.767L39.092 136.109L42.7546 141.723L56.4101 128.38L52.7474 122.767L55.9738 119.613C56.7054 118.895 57.7733 119.05 58.3641 119.953L63.5536 127.909C64.1444 128.812 64.0262 130.119 63.2946 130.836L55.5148 138.437L58.1096 142.417C58.7004 143.321 58.5822 144.628 57.8506 145.345L55.9511 147.201C55.2195 147.918 54.1516 147.764 53.5608 146.86L50.9661 142.88L46.4127 147.328L49.0075 151.308C49.5982 152.211 49.4801 153.523 48.7485 154.235L46.8444 156.096C46.1128 156.813 45.0449 156.659 44.4542 155.756L41.8594 151.775L38.633 154.93C37.9014 155.647 36.8335 155.492 36.2427 154.589L34.7159 152.247C34.1251 151.344 34.2433 150.037 34.9749 149.32L38.2013 146.166L27.2179 129.329L23.9915 132.483C23.2598 133.2 22.1919 133.046 21.6012 132.143L20.0698 129.796C19.479 128.893 19.5972 127.586 20.3288 126.869L23.5552 123.715L20.9605 119.735C20.3697 118.832 20.4879 117.525 21.2195 116.808L23.1235 114.947C23.8551 114.235 24.923 114.384 25.5138 115.287L28.1085 119.268L32.6619 114.82L30.0671 110.84C29.4764 109.937 29.5945 108.63 30.3261 107.913L32.2256 106.057V106.052Z" fill="#00C797"/>
<path d="M42.355 165.391C42.1959 165.391 42.0323 165.391 41.8733 165.391C41.6779 165.391 41.5188 165.228 41.5188 165.032C41.5188 164.837 41.6779 164.683 41.8687 164.678C41.8687 164.678 41.8733 164.678 41.8778 164.678C42.0323 164.678 42.1914 164.678 42.3459 164.678C42.5413 164.678 42.7049 164.833 42.7094 165.032C42.7094 165.228 42.5549 165.391 42.3595 165.396L42.355 165.391ZM38.556 165.137C38.556 165.137 38.5151 165.137 38.4969 165.137C38.3379 165.114 38.1788 165.087 38.0198 165.064C37.8244 165.032 37.6926 164.846 37.7244 164.656C37.7562 164.461 37.9425 164.329 38.1334 164.361C38.2879 164.388 38.4424 164.411 38.5969 164.433C38.7923 164.461 38.9286 164.642 38.8968 164.837C38.8695 165.014 38.7196 165.141 38.5514 165.141L38.556 165.137ZM34.8388 164.302C34.8024 164.302 34.7661 164.302 34.7297 164.288C34.5752 164.243 34.4253 164.193 34.2708 164.143C34.0845 164.079 33.9799 163.88 34.0436 163.694C34.1072 163.508 34.3071 163.403 34.4934 163.467C34.6434 163.517 34.7934 163.562 34.9388 163.607C35.1296 163.666 35.2342 163.866 35.1751 164.052C35.1296 164.202 34.9888 164.302 34.8388 164.306V164.302ZM31.2897 162.922C31.2352 162.922 31.1807 162.913 31.1307 162.886C30.9853 162.818 30.8399 162.745 30.6945 162.677C30.5172 162.591 30.4445 162.373 30.5354 162.201C30.6217 162.024 30.8399 161.951 31.0171 162.042C31.158 162.11 31.2988 162.182 31.4397 162.246C31.6169 162.332 31.6942 162.545 31.6078 162.722C31.5488 162.85 31.4215 162.922 31.2897 162.927V162.922ZM27.9725 161.052C27.9043 161.052 27.8316 161.034 27.7725 160.993C27.6362 160.907 27.5044 160.816 27.3726 160.726C27.209 160.612 27.1681 160.394 27.2772 160.231C27.3862 160.068 27.6089 160.027 27.7725 160.136C27.9043 160.226 28.0315 160.313 28.1633 160.399C28.3269 160.508 28.3723 160.73 28.2633 160.894C28.1951 160.998 28.0861 161.052 27.9725 161.052ZM24.9324 158.756C24.846 158.756 24.7642 158.729 24.6915 158.67C24.5688 158.565 24.4507 158.461 24.328 158.352C24.178 158.22 24.1644 157.994 24.2962 157.848C24.428 157.699 24.6552 157.685 24.8006 157.817C24.9187 157.921 25.0369 158.025 25.155 158.125C25.305 158.252 25.3232 158.479 25.1914 158.629C25.1232 158.711 25.0232 158.751 24.9278 158.751L24.9324 158.756ZM22.1922 156.106C22.0922 156.106 21.9968 156.069 21.9241 155.992C21.815 155.874 21.7059 155.756 21.6014 155.634C21.4696 155.488 21.4833 155.261 21.6287 155.13C21.7741 154.998 22.0013 155.012 22.1331 155.157C22.2376 155.275 22.3421 155.389 22.4512 155.507C22.583 155.652 22.5739 155.879 22.4285 156.01C22.3603 156.074 22.2785 156.101 22.1922 156.106ZM19.7701 153.165C19.6565 153.165 19.5474 153.115 19.4747 153.02L19.193 152.629C19.0794 152.47 19.1157 152.248 19.2748 152.13C19.4384 152.017 19.661 152.053 19.7746 152.212L20.0518 152.593C20.17 152.752 20.1336 152.974 19.9746 153.092C19.911 153.138 19.8428 153.16 19.7701 153.16V153.165ZM17.6752 149.983C17.548 149.983 17.4253 149.92 17.3617 149.806L17.1208 149.393C17.0208 149.221 17.0799 149.003 17.2526 148.908C17.4253 148.808 17.6434 148.867 17.7388 149.039L17.9751 149.448C18.0751 149.62 18.016 149.838 17.8479 149.938C17.7934 149.97 17.7343 149.988 17.6752 149.988V149.983ZM15.912 146.607C15.7757 146.607 15.6439 146.53 15.5803 146.398L15.3804 145.963C15.2986 145.781 15.3804 145.572 15.5621 145.491C15.7394 145.409 15.9529 145.491 16.0347 145.668L16.2301 146.099C16.3119 146.276 16.2301 146.489 16.0529 146.571C16.0075 146.593 15.9575 146.602 15.9075 146.602L15.912 146.607ZM14.4852 143.076C14.3352 143.076 14.1943 142.985 14.1398 142.836L13.9853 142.382C13.9217 142.196 14.0216 141.992 14.208 141.928C14.3988 141.864 14.5988 141.964 14.6624 142.15L14.8169 142.595C14.8805 142.781 14.7851 142.985 14.5988 143.049C14.5624 143.063 14.526 143.067 14.4852 143.067V143.076ZM13.3854 139.432C13.2219 139.432 13.0764 139.328 13.031 139.164L12.9174 138.701C12.8719 138.511 12.9901 138.315 13.181 138.27C13.3718 138.225 13.5672 138.343 13.6127 138.533L13.7263 138.992C13.7763 139.182 13.6581 139.377 13.4672 139.427C13.44 139.436 13.4127 139.436 13.3854 139.436V139.432ZM12.6129 135.706C12.4402 135.706 12.2812 135.583 12.2539 135.406L12.1812 134.934C12.1494 134.739 12.2857 134.558 12.4811 134.526C12.6765 134.499 12.8583 134.63 12.8901 134.826L12.9628 135.293C12.9946 135.488 12.8629 135.67 12.6675 135.701C12.6493 135.701 12.6311 135.701 12.6175 135.706H12.6129ZM12.1585 131.926C11.9722 131.926 11.8086 131.785 11.795 131.594L11.7586 131.118C11.745 130.923 11.8949 130.75 12.0903 130.737C12.2857 130.723 12.4584 130.873 12.4721 131.068L12.5084 131.54C12.522 131.735 12.3766 131.907 12.1767 131.921C12.1676 131.921 12.163 131.921 12.154 131.921L12.1585 131.926ZM12.0313 128.118C12.0313 128.118 12.0267 128.118 12.0222 128.118C11.8268 128.118 11.6677 127.955 11.6677 127.759V127.278C11.6768 127.083 11.8404 126.924 12.0404 126.929C12.2358 126.929 12.3948 127.097 12.3903 127.292V127.764C12.3812 127.959 12.2267 128.113 12.0313 128.118ZM12.2221 124.315C12.2221 124.315 12.1949 124.315 12.1812 124.315C11.9858 124.297 11.8404 124.124 11.8586 123.925L11.904 123.448C11.9222 123.253 12.104 123.108 12.2948 123.13C12.4902 123.149 12.6356 123.325 12.6129 123.521L12.5675 123.993C12.5493 124.174 12.3994 124.315 12.2176 124.315H12.2221ZM12.7402 120.544C12.7174 120.544 12.6947 120.544 12.6675 120.539C12.4721 120.503 12.3448 120.317 12.3812 120.121L12.4675 119.649C12.5039 119.454 12.6856 119.327 12.8856 119.368C13.081 119.404 13.2082 119.59 13.1673 119.786L13.081 120.249C13.0492 120.421 12.9038 120.539 12.7356 120.544H12.7402ZM13.5899 116.831C13.5581 116.831 13.5218 116.831 13.49 116.818C13.2991 116.763 13.19 116.568 13.24 116.377C13.2809 116.223 13.3264 116.069 13.3718 115.914C13.4263 115.724 13.6263 115.615 13.8172 115.669C14.008 115.724 14.1171 115.924 14.0625 116.114C14.0171 116.264 13.9762 116.418 13.9353 116.568C13.8944 116.722 13.7535 116.827 13.599 116.831H13.5899ZM14.7714 113.21C14.726 113.21 14.6806 113.205 14.6397 113.187C14.4533 113.119 14.3625 112.91 14.4306 112.724C14.4897 112.574 14.5442 112.425 14.6033 112.275C14.676 112.093 14.8851 112.002 15.0668 112.075C15.2486 112.148 15.3395 112.356 15.2668 112.538C15.2077 112.683 15.1532 112.833 15.0986 112.978C15.0441 113.119 14.9123 113.205 14.7714 113.21ZM16.2938 109.72C16.2392 109.72 16.1802 109.711 16.1302 109.683C15.9529 109.597 15.8802 109.379 15.9666 109.207C16.0393 109.062 16.112 108.921 16.1847 108.78C16.2756 108.603 16.4892 108.535 16.6664 108.626C16.8436 108.717 16.9118 108.93 16.8209 109.107C16.7482 109.248 16.68 109.388 16.6073 109.529C16.5437 109.652 16.421 109.724 16.2938 109.729V109.72ZM18.1569 106.398C18.0887 106.398 18.0206 106.379 17.9615 106.343C17.7934 106.239 17.7434 106.016 17.8479 105.849C17.9342 105.712 18.0206 105.576 18.1069 105.445C18.216 105.281 18.4341 105.231 18.6022 105.34C18.7658 105.449 18.8158 105.667 18.7068 105.835C18.6204 105.967 18.5341 106.098 18.4523 106.234C18.3841 106.339 18.2705 106.398 18.1569 106.402V106.398Z" fill="#00C797"/>
<path d="M66.0715 150.215C66.0079 150.215 65.9442 150.201 65.8852 150.165C65.7125 150.065 65.658 149.847 65.7534 149.674C65.8306 149.538 65.9079 149.402 65.9851 149.266C66.0806 149.094 66.2987 149.035 66.4714 149.13C66.6441 149.225 66.7031 149.443 66.6077 149.615C66.5304 149.756 66.4487 149.892 66.3714 150.033C66.3078 150.146 66.1896 150.21 66.0669 150.21L66.0715 150.215ZM67.8074 146.824C67.7574 146.824 67.7029 146.815 67.6529 146.793C67.4711 146.711 67.3938 146.498 67.4756 146.321C67.5393 146.175 67.6029 146.035 67.6665 145.89C67.7438 145.708 67.9573 145.626 68.1391 145.703C68.3209 145.781 68.4027 145.994 68.3254 146.175C68.2618 146.321 68.1982 146.47 68.13 146.616C68.0709 146.747 67.9437 146.824 67.8119 146.824H67.8074ZM69.207 143.28C69.1661 143.28 69.1252 143.275 69.0843 143.262C68.898 143.198 68.798 142.994 68.8616 142.808L69.0116 142.359C69.0752 142.173 69.2752 142.068 69.4615 142.132C69.6478 142.195 69.7523 142.395 69.6887 142.581L69.5342 143.035C69.4842 143.18 69.3479 143.275 69.2025 143.275L69.207 143.28ZM70.2658 139.622C70.234 139.622 70.2067 139.622 70.1749 139.613C69.9841 139.568 69.8659 139.373 69.9114 139.182C69.9477 139.028 69.9841 138.878 70.0204 138.724C70.0659 138.533 70.2567 138.41 70.4476 138.456C70.6384 138.501 70.7611 138.692 70.7157 138.882C70.6793 139.037 70.643 139.196 70.6066 139.35C70.5657 139.513 70.4249 139.622 70.2658 139.622ZM70.9929 135.883C70.9929 135.883 70.952 135.883 70.9338 135.883C70.7384 135.855 70.6021 135.674 70.6339 135.479C70.6566 135.324 70.6793 135.166 70.7021 135.011C70.7293 134.816 70.9066 134.68 71.1065 134.707C71.3019 134.734 71.4382 134.916 71.411 135.111C71.3882 135.27 71.3655 135.429 71.3428 135.588C71.3155 135.765 71.1656 135.887 70.9974 135.892L70.9929 135.883ZM71.3928 132.093C71.3928 132.093 71.3746 132.093 71.3655 132.093C71.1701 132.08 71.0202 131.912 71.0292 131.716C71.0383 131.558 71.0474 131.403 71.0565 131.244C71.0656 131.049 71.2337 130.895 71.4337 130.904C71.6291 130.913 71.7836 131.081 71.7745 131.281C71.7654 131.44 71.7563 131.598 71.7472 131.762C71.7336 131.948 71.5791 132.093 71.3973 132.098L71.3928 132.093ZM71.4655 128.285C71.2701 128.285 71.1065 128.131 71.102 127.936C71.102 127.777 71.0929 127.623 71.0883 127.464C71.0838 127.269 71.2337 127.101 71.4337 127.096H71.4382C71.6336 127.096 71.7972 127.246 71.8018 127.441C71.8063 127.6 71.8109 127.764 71.8154 127.922C71.8154 128.118 71.6654 128.281 71.4655 128.285ZM71.2156 124.487C71.0338 124.487 70.8747 124.355 70.8566 124.169L70.802 123.697C70.7793 123.502 70.9202 123.325 71.1156 123.302C71.3064 123.28 71.4882 123.42 71.5109 123.616L71.5655 124.092C71.5882 124.287 71.4428 124.464 71.2474 124.487C71.2383 124.487 71.2246 124.487 71.2156 124.487ZM70.6475 120.72C70.4794 120.72 70.3249 120.607 70.2931 120.434L70.1976 119.971C70.1567 119.776 70.284 119.59 70.4748 119.549C70.6702 119.508 70.8566 119.635 70.8975 119.826L70.9929 120.294C71.0293 120.489 70.9065 120.675 70.7111 120.716C70.6884 120.716 70.6703 120.72 70.6475 120.725V120.72ZM69.7523 117.017C69.5933 117.017 69.4478 116.917 69.4024 116.758L69.2706 116.304C69.2161 116.114 69.3206 115.919 69.5115 115.86C69.7023 115.801 69.8977 115.91 69.9568 116.1L70.0931 116.559C70.1477 116.749 70.0386 116.944 69.8477 116.999C69.8159 117.008 69.7841 117.012 69.7569 117.012L69.7523 117.017ZM68.5345 113.409C68.389 113.409 68.2527 113.323 68.1936 113.182L68.021 112.742C67.9483 112.56 68.0346 112.352 68.2209 112.279C68.4027 112.206 68.6117 112.293 68.6844 112.479C68.7435 112.628 68.8026 112.774 68.8616 112.923C68.9343 113.105 68.8435 113.314 68.6572 113.386C68.6163 113.404 68.5754 113.409 68.5345 113.409ZM66.9849 109.933C66.8531 109.933 66.7213 109.865 66.6577 109.737C66.585 109.597 66.5168 109.456 66.4441 109.315C66.3532 109.138 66.4214 108.925 66.5986 108.834C66.7758 108.744 66.9894 108.812 67.0803 108.989C67.153 109.129 67.2257 109.275 67.2984 109.415C67.3893 109.592 67.3166 109.806 67.1394 109.896C67.0894 109.924 67.0349 109.933 66.9849 109.933ZM65.1036 106.624C64.9854 106.624 64.8673 106.57 64.7945 106.461C64.7082 106.329 64.6264 106.198 64.5401 106.066C64.431 105.903 64.4764 105.68 64.6446 105.571C64.8082 105.462 65.0308 105.508 65.1399 105.676C65.2262 105.807 65.3171 105.943 65.3989 106.08C65.5034 106.248 65.458 106.465 65.2899 106.574C65.2308 106.611 65.1672 106.629 65.1036 106.629V106.624ZM62.8905 103.525C62.7814 103.525 62.6769 103.479 62.6042 103.393C62.5042 103.27 62.4088 103.148 62.3088 103.025C62.1816 102.871 62.2043 102.649 62.3588 102.522C62.5133 102.394 62.736 102.417 62.8632 102.571C62.9632 102.694 63.0677 102.821 63.1677 102.944C63.2904 103.098 63.2677 103.32 63.1132 103.447C63.0496 103.497 62.9723 103.525 62.8951 103.525H62.8905ZM60.3503 100.684C60.2549 100.684 60.164 100.652 60.0913 100.579C59.9777 100.466 59.8686 100.357 59.755 100.248C59.6141 100.112 59.6096 99.8848 59.7459 99.7441C59.8822 99.6034 60.1094 99.5989 60.2503 99.735C60.3639 99.8485 60.4821 99.9574 60.5957 100.071C60.7365 100.212 60.7365 100.438 60.5957 100.575C60.5275 100.643 60.4366 100.679 60.3503 100.679V100.684ZM57.4965 98.1557C57.4147 98.1557 57.3375 98.133 57.2693 98.0786C57.1466 97.9833 57.0239 97.888 56.8967 97.7927C56.7376 97.6747 56.7103 97.4477 56.8285 97.2934C56.9466 97.1346 57.1693 97.1028 57.3284 97.2254C57.4556 97.3207 57.5828 97.4205 57.7101 97.5203C57.8646 97.6429 57.8918 97.8653 57.7692 98.0196C57.701 98.1058 57.5965 98.1557 57.492 98.1557H57.4965ZM54.3473 96.0091C54.2837 96.0091 54.2201 95.9955 54.161 95.9592C54.0247 95.8775 53.8884 95.8003 53.752 95.7232C53.5794 95.6279 53.5203 95.41 53.6157 95.2376C53.7111 95.0651 53.9293 95.0061 54.102 95.1014C54.2428 95.1786 54.3792 95.2603 54.52 95.342C54.6882 95.4418 54.7472 95.6596 54.6473 95.8321C54.5836 95.9456 54.4655 96.0046 54.3428 96.0091H54.3473ZM50.9392 94.3118C50.8937 94.3118 50.8437 94.3027 50.7983 94.2845C50.6529 94.2255 50.5075 94.1666 50.362 94.1076C50.1803 94.0349 50.0894 93.8307 50.1576 93.6447C50.2303 93.4586 50.4393 93.3723 50.6211 93.4404C50.771 93.4994 50.921 93.5584 51.0709 93.622C51.2527 93.6991 51.3391 93.9079 51.2663 94.0894C51.2118 94.2255 51.08 94.3072 50.9437 94.3118H50.9392ZM47.3174 93.1273C47.2856 93.1273 47.2583 93.1273 47.2265 93.1182C47.072 93.0819 46.9221 93.0456 46.7676 93.0093C46.5767 92.9639 46.454 92.7733 46.4994 92.5827C46.5449 92.3921 46.7357 92.2695 46.9266 92.3149C47.0811 92.3512 47.2402 92.3875 47.3947 92.4238C47.5855 92.4692 47.7037 92.6644 47.6582 92.855C47.6173 93.0138 47.4765 93.1227 47.3174 93.1273ZM43.5639 92.5055C43.5639 92.5055 43.5366 92.5055 43.5275 92.5055C43.373 92.4919 43.214 92.4783 43.0595 92.4692C42.8641 92.4556 42.7141 92.2877 42.7277 92.088C42.7414 91.8929 42.9186 91.7431 43.1094 91.7567C43.2685 91.7658 43.4321 91.7794 43.5911 91.793C43.7865 91.8112 43.9319 91.9836 43.9183 92.1788C43.9001 92.3648 43.7502 92.501 43.5684 92.5055H43.5639ZM39.2786 92.5055C39.0923 92.5055 38.9333 92.3694 38.9151 92.1788C38.8969 91.9836 39.0423 91.8066 39.2377 91.793C39.3968 91.7794 39.5604 91.7658 39.7194 91.7567C39.9012 91.7431 40.0875 91.8929 40.1012 92.088C40.1148 92.2832 39.9648 92.4556 39.7694 92.4692C39.6149 92.4783 39.4559 92.4919 39.3014 92.5055C39.2923 92.5055 39.2832 92.5055 39.2741 92.5055H39.2786Z" fill="#00C797"/>
<path d="M40.8643 89.6782L38.4558 92.1607L41.7549 94.743L40.8643 89.6782Z" fill="#00C797" stroke="#00C797" stroke-linecap="round" stroke-linejoin="round"/>
<path d="M43 167.565L45.4085 165.082L42.1094 162.5L43 167.565Z" fill="#00C797" stroke="#00C797" stroke-linecap="round" stroke-linejoin="round"/>
<path d="M114.69 135.134C112.545 134.358 110.064 135.765 109.151 138.279C108.237 140.793 109.233 143.462 111.378 144.242L117.958 146.629L121.27 137.525L114.69 135.138V135.134Z" fill="#EBE9E9" stroke="#00C797" stroke-linecap="round" stroke-linejoin="round"/>
<path d="M123.493 143.484C124.408 140.97 123.411 138.302 121.267 137.524C119.123 136.746 116.643 138.153 115.728 140.666C114.814 143.18 115.811 145.848 117.955 146.626C120.099 147.404 122.579 145.997 123.493 143.484Z" fill="#EBE9E9" stroke="#00C797" stroke-linecap="round" stroke-linejoin="round"/>
<path d="M121.358 142.709C121.77 141.576 121.322 140.373 120.357 140.023C119.393 139.673 118.276 140.308 117.864 141.441C117.452 142.574 117.9 143.776 118.864 144.127C119.829 144.477 120.945 143.842 121.358 142.709Z" fill="black" stroke="#00C797" stroke-linecap="round" stroke-linejoin="round"/>
<path d="M316.654 161.338C333.986 152.874 348.623 158.288 352.072 179.977L357.621 214.917C368.3 282.147 302.404 290.298 272.503 247.865L216.213 167.996C187.439 127.169 159.297 157.503 126.869 144.891L119.621 142.073" stroke="#00C797" stroke-width="6" stroke-linecap="round" stroke-linejoin="round"/>
<path d="M317.295 162.976C316.695 163.262 316.059 163.58 315.35 163.938C315.114 164.061 314.846 164.106 314.578 164.088C314.028 164.052 313.473 163.743 313.151 163.235C312.665 162.477 312.883 161.565 313.614 161.184C314.441 160.757 315.2 160.398 315.9 160.035C317.5 159.205 319.09 162.109 317.295 162.976Z" fill="#EBE9E9" stroke="#00C797" stroke-linecap="round" stroke-linejoin="round"/>
<path d="M315.35 163.943C313.051 165.114 311.038 165.499 309.352 165.481C307.439 165.459 305.957 164.923 305.026 164.447C302.444 163.13 300.663 160.594 300.663 158.034C300.663 156.142 301.64 154.508 303.303 153.555C303.876 154.476 304.162 154.948 304.748 155.896C303.93 156.368 303.744 157.185 303.735 157.793C303.721 159.064 304.567 160.839 306.402 161.792C308.393 162.831 310.869 162.604 313.614 161.184C314.278 162.264 314.623 162.813 315.355 163.938L315.35 163.943Z" fill="#EBE9E9"/>
<path d="M313.482 164.746C311.951 165.29 310.565 165.49 309.352 165.476C307.439 165.454 305.957 164.918 305.026 164.442C304.498 164.174 304.008 163.852 303.553 163.493C303.971 162.222 304.199 161.592 304.676 160.348C305.103 160.902 305.671 161.41 306.398 161.791C308.388 162.831 310.865 162.604 313.61 161.183C313.61 161.183 314.173 162.722 313.478 164.741L313.482 164.746Z" fill="black"/>
<path d="M313.614 161.184C310.869 162.6 308.393 162.831 306.402 161.792C304.567 160.834 303.721 159.06 303.735 157.793C303.74 157.19 303.93 156.368 304.748 155.896" stroke="#00C797" stroke-linecap="round" stroke-linejoin="round"/>
<path d="M303.303 153.555C301.636 154.508 300.663 156.142 300.663 158.034C300.663 160.594 302.449 163.135 305.026 164.447C305.957 164.923 307.439 165.459 309.352 165.481C311.038 165.499 313.051 165.114 315.35 163.943" stroke="#00C797" stroke-linecap="round" stroke-linejoin="round"/>
<path d="M304.744 155.896C305.521 155.447 306.425 155.774 306.889 156.01C308.248 156.704 309.584 158.492 309.624 160.525C309.661 162.314 308.647 163.897 306.643 165.154C307.352 166.198 307.72 166.729 308.488 167.809C311.351 166.021 312.792 163.489 312.724 160.589C312.655 157.684 311.106 154.807 308.588 153.5C306.852 152.597 304.903 152.633 303.299 153.55C303.871 154.471 304.158 154.943 304.744 155.892V155.896Z" fill="#EBE9E9"/>
<path d="M308.493 167.809C311.356 166.021 312.796 163.489 312.728 160.589C312.66 157.684 311.11 154.807 308.593 153.5C306.857 152.597 304.907 152.633 303.303 153.55" stroke="#00C797" stroke-linecap="round" stroke-linejoin="round"/>
<path d="M304.744 155.896C305.521 155.447 306.425 155.774 306.889 156.01C308.247 156.704 309.584 158.492 309.624 160.525C309.661 162.313 308.647 163.897 306.643 165.154" stroke="#00C797" stroke-linecap="round" stroke-linejoin="round"/>
<path d="M308.493 167.809C306.316 169.166 304.376 169.697 302.726 169.792C300.854 169.901 299.368 169.452 298.423 169.03C295.81 167.859 293.87 165.381 293.688 162.776C293.551 160.852 294.401 159.137 295.983 158.079C296.619 158.987 296.937 159.445 297.582 160.38C296.805 160.906 296.678 161.751 296.714 162.363C296.787 163.652 297.746 165.404 299.613 166.257C301.64 167.183 304.049 166.784 306.648 165.154C307.357 166.198 307.725 166.729 308.493 167.809Z" fill="#EBE9E9"/>
<path d="M306.716 168.762C305.253 169.425 303.912 169.724 302.726 169.797C300.854 169.906 299.368 169.457 298.423 169.034C297.891 168.794 297.387 168.499 296.919 168.163C297.255 166.852 297.437 166.198 297.823 164.909C298.277 165.445 298.873 165.926 299.613 166.266C301.636 167.192 304.049 166.793 306.648 165.163C306.648 165.163 307.289 166.675 306.716 168.771V168.762Z" fill="black"/>
<path d="M306.648 165.154C304.049 166.783 301.64 167.183 299.613 166.257C297.746 165.404 296.792 163.652 296.714 162.363C296.678 161.75 296.805 160.906 297.582 160.38" stroke="#00C797" stroke-linecap="round" stroke-linejoin="round"/>
<path d="M295.987 158.079C294.406 159.137 293.561 160.852 293.692 162.776C293.874 165.381 295.81 167.859 298.427 169.03C299.373 169.452 300.859 169.901 302.731 169.792C304.38 169.697 306.321 169.166 308.497 167.809" stroke="#00C797" stroke-linecap="round" stroke-linejoin="round"/>
<path d="M297.587 160.385C298.323 159.886 299.241 160.162 299.718 160.376C301.108 160.997 302.544 162.717 302.713 164.769C302.863 166.575 301.958 168.25 300.063 169.652C300.818 170.664 301.208 171.177 302.013 172.216C304.721 170.215 305.989 167.546 305.753 164.624C305.512 161.692 303.799 158.901 301.218 157.73C299.436 156.922 297.509 157.067 295.992 158.084C296.628 158.992 296.946 159.45 297.591 160.385H297.587Z" fill="#EBE9E9"/>
<path d="M302.013 172.216C304.721 170.215 305.989 167.546 305.753 164.624C305.512 161.692 303.799 158.901 301.218 157.73C299.436 156.922 297.509 157.067 295.992 158.084" stroke="#00C797" stroke-linecap="round" stroke-linejoin="round"/>
<path d="M297.587 160.385C298.323 159.885 299.241 160.162 299.718 160.375C301.108 160.997 302.544 162.717 302.713 164.769C302.863 166.575 301.958 168.249 300.063 169.652" stroke="#00C797" stroke-linecap="round" stroke-linejoin="round"/>
<path d="M302.013 172.216C299.959 173.736 298.082 174.394 296.469 174.589C294.638 174.812 293.147 174.44 292.193 174.063C289.543 173.019 287.467 170.596 287.108 167.954C286.844 166.003 287.562 164.215 289.057 163.062C289.757 163.961 290.102 164.41 290.807 165.327C290.075 165.903 290.007 166.765 290.084 167.387C290.243 168.694 291.307 170.423 293.206 171.186C295.265 172.012 297.61 171.462 300.068 169.647C300.822 170.659 301.213 171.172 302.017 172.211L302.013 172.216Z" fill="#EBE9E9"/>
<path d="M300.322 173.296C298.923 174.063 297.627 174.449 296.464 174.59C294.633 174.812 293.142 174.44 292.188 174.063C291.647 173.85 291.134 173.577 290.647 173.26C290.902 171.912 291.038 171.24 291.343 169.911C291.829 170.432 292.447 170.886 293.197 171.19C295.255 172.016 297.6 171.467 300.059 169.652C300.059 169.652 300.772 171.14 300.322 173.296Z" fill="black"/>
<path d="M300.059 169.647C297.601 171.467 295.256 172.012 293.197 171.186C291.302 170.423 290.239 168.694 290.075 167.387C289.998 166.765 290.066 165.903 290.798 165.327" stroke="#00C797" stroke-linecap="round" stroke-linejoin="round"/>
<path d="M289.053 163.062C287.557 164.215 286.835 166.003 287.103 167.954C287.462 170.596 289.543 173.019 292.188 174.063C293.147 174.44 294.633 174.812 296.464 174.589C298.077 174.394 299.954 173.732 302.008 172.216" stroke="#00C797" stroke-linecap="round" stroke-linejoin="round"/>
<path d="M290.807 165.331C291.502 164.787 292.429 165.018 292.92 165.209C294.342 165.767 295.873 167.428 296.164 169.498C296.419 171.322 295.624 173.069 293.838 174.594C294.637 175.574 295.046 176.069 295.887 177.077C298.446 174.894 299.559 172.107 299.15 169.162C298.741 166.212 296.86 163.484 294.219 162.436C292.397 161.71 290.493 161.95 289.057 163.058C289.757 163.956 290.102 164.406 290.807 165.322V165.331Z" fill="#EBE9E9"/>
<path d="M295.883 177.077C298.441 174.894 299.554 172.107 299.145 169.162C298.737 166.212 296.855 163.484 294.215 162.436C292.393 161.71 290.489 161.95 289.053 163.058" stroke="#00C797" stroke-linecap="round" stroke-linejoin="round"/>
<path d="M290.807 165.331C291.502 164.787 292.429 165.018 292.92 165.209C294.342 165.767 295.873 167.428 296.164 169.497C296.419 171.322 295.624 173.069 293.838 174.594" stroke="#00C797" stroke-linecap="round" stroke-linejoin="round"/>
<path d="M295.883 177.077C293.938 178.733 292.129 179.505 290.548 179.786C288.753 180.108 287.267 179.804 286.303 179.468C283.631 178.543 281.423 176.169 280.896 173.5C280.505 171.526 281.1 169.679 282.509 168.445C283.263 169.33 283.64 169.779 284.404 170.682C283.713 171.299 283.704 172.18 283.818 172.806C284.063 174.127 285.222 175.838 287.144 176.518C289.225 177.254 291.511 176.577 293.833 174.599C294.633 175.579 295.042 176.074 295.883 177.081V177.077Z" fill="#EBE9E9"/>
<path d="M294.278 178.265C292.942 179.118 291.684 179.581 290.548 179.786C288.753 180.108 287.267 179.804 286.299 179.468C285.753 179.277 285.231 179.028 284.731 178.728C284.908 177.353 285.008 176.668 285.226 175.306C285.74 175.81 286.376 176.246 287.139 176.513C289.221 177.249 291.506 176.572 293.829 174.594C293.829 174.594 294.615 176.06 294.274 178.265H294.278Z" fill="black"/>
<path d="M293.838 174.594C291.516 176.573 289.23 177.249 287.149 176.514C285.231 175.833 284.068 174.122 283.822 172.802C283.704 172.171 283.718 171.295 284.408 170.678" stroke="#00C797" stroke-linecap="round" stroke-linejoin="round"/>
<path d="M282.513 168.445C281.105 169.679 280.509 171.526 280.9 173.5C281.427 176.174 283.631 178.543 286.308 179.468C287.276 179.804 288.762 180.108 290.552 179.786C292.134 179.5 293.942 178.733 295.887 177.077" stroke="#00C797" stroke-linecap="round" stroke-linejoin="round"/>
<path d="M284.404 170.677C285.063 170.092 285.999 170.287 286.494 170.459C287.944 170.958 289.571 172.574 289.98 174.653C290.339 176.486 289.644 178.297 287.958 179.926C288.794 180.875 289.221 181.356 290.089 182.327C292.511 179.994 293.474 177.112 292.906 174.153C292.338 171.19 290.293 168.526 287.603 167.582C285.745 166.928 283.868 167.251 282.509 168.44C283.263 169.325 283.641 169.774 284.404 170.677Z" fill="#EBE9E9"/>
<path d="M290.089 182.327C292.511 179.994 293.474 177.112 292.906 174.153C292.338 171.19 290.293 168.526 287.603 167.582C285.745 166.928 283.868 167.251 282.509 168.44" stroke="#00C797" stroke-linecap="round" stroke-linejoin="round"/>
<path d="M284.404 170.678C285.063 170.092 285.999 170.288 286.494 170.46C287.944 170.959 289.571 172.575 289.98 174.653C290.339 176.487 289.643 178.298 287.957 179.927" stroke="#00C797" stroke-linecap="round" stroke-linejoin="round"/>
<path d="M290.089 182.327C288.253 184.097 286.499 184.96 284.954 185.318C283.2 185.727 281.718 185.486 280.746 185.186C278.06 184.365 275.747 182.051 275.066 179.359C274.561 177.372 275.038 175.475 276.356 174.167C277.165 175.043 277.569 175.484 278.378 176.373C277.728 177.027 277.774 177.916 277.924 178.551C278.242 179.881 279.492 181.569 281.432 182.173C283.531 182.831 285.758 182.046 287.948 179.931C288.785 180.88 289.212 181.361 290.08 182.332L290.089 182.327Z" fill="#EBE9E9"/>
<path d="M288.566 183.612C287.289 184.542 286.067 185.064 284.958 185.323C283.204 185.731 281.723 185.491 280.75 185.191C280.2 185.023 279.673 184.792 279.164 184.506C279.273 183.113 279.332 182.418 279.478 181.029C280.014 181.52 280.668 181.933 281.436 182.173C283.536 182.831 285.763 182.046 287.953 179.931C287.953 179.931 288.803 181.374 288.562 183.612H288.566Z" fill="black"/>
<path d="M287.958 179.931C285.767 182.046 283.541 182.831 281.441 182.173C279.505 181.569 278.256 179.881 277.933 178.551C277.778 177.916 277.738 177.027 278.387 176.373" stroke="#00C797" stroke-linecap="round" stroke-linejoin="round"/>
<path d="M276.361 174.167C275.038 175.475 274.566 177.372 275.07 179.359C275.752 182.051 278.065 184.365 280.75 185.186C281.723 185.481 283.204 185.727 284.958 185.318C286.503 184.96 288.253 184.097 290.093 182.327" stroke="#00C797" stroke-linecap="round" stroke-linejoin="round"/>
<path d="M278.387 176.373C279.005 175.756 279.946 175.919 280.451 176.073C281.923 176.523 283.636 178.088 284.15 180.172C284.599 182.01 284 183.866 282.405 185.581C283.272 186.498 283.713 186.961 284.608 187.896C286.899 185.44 287.735 182.495 287.021 179.532C286.308 176.564 284.113 173.959 281.373 173.105C279.483 172.515 277.633 172.91 276.365 174.167C277.174 175.043 277.579 175.483 278.387 176.373Z" fill="#EBE9E9"/>
<path d="M284.608 187.896C286.899 185.44 287.735 182.495 287.021 179.532C286.308 176.564 284.113 173.959 281.373 173.105C279.483 172.515 277.633 172.91 276.365 174.167" stroke="#00C797" stroke-linecap="round" stroke-linejoin="round"/>
<path d="M278.387 176.373C279.005 175.756 279.946 175.919 280.45 176.074C281.923 176.523 283.636 178.089 284.149 180.172C284.599 182.01 283.999 183.866 282.404 185.581" stroke="#00C797" stroke-linecap="round" stroke-linejoin="round"/>
<path d="M284.608 187.896C282.868 189.757 281.177 190.696 279.669 191.118C277.955 191.599 276.488 191.413 275.52 191.15C272.834 190.424 270.444 188.173 269.626 185.477C269.021 183.485 269.38 181.547 270.612 180.186C271.466 181.052 271.893 181.484 272.748 182.355C272.139 183.036 272.234 183.934 272.416 184.57C272.807 185.899 274.125 187.56 276.07 188.096C278.178 188.677 280.341 187.801 282.409 185.582C283.277 186.498 283.718 186.961 284.613 187.896H284.608Z" fill="#EBE9E9"/>
<path d="M283.154 189.249C281.932 190.238 280.75 190.814 279.669 191.114C277.956 191.595 276.488 191.409 275.52 191.146C274.97 190.996 274.438 190.783 273.925 190.515C273.97 189.117 273.997 188.414 274.075 187.011C274.629 187.488 275.297 187.878 276.065 188.091C278.174 188.672 280.337 187.796 282.404 185.577C282.404 185.577 283.309 186.993 283.154 189.244V189.249Z" fill="black"/>
<path d="M282.404 185.581C280.337 187.805 278.174 188.681 276.065 188.095C274.125 187.56 272.802 185.899 272.411 184.569C272.225 183.934 272.134 183.035 272.743 182.354" stroke="#00C797" stroke-linecap="round" stroke-linejoin="round"/>
<path d="M270.608 180.181C269.376 181.547 269.017 183.48 269.621 185.472C270.439 188.168 272.834 190.419 275.515 191.145C276.483 191.408 277.956 191.594 279.664 191.113C281.173 190.691 282.863 189.756 284.604 187.891" stroke="#00C797" stroke-linecap="round" stroke-linejoin="round"/>
<path d="M272.743 182.354C273.32 181.71 274.266 181.842 274.775 181.982C276.261 182.386 278.046 183.907 278.651 185.985C279.183 187.814 278.665 189.706 277.16 191.481C278.051 192.366 278.501 192.811 279.405 193.709C281.577 191.168 282.295 188.177 281.455 185.223C280.609 182.264 278.283 179.718 275.511 178.946C273.598 178.415 271.789 178.869 270.603 180.185C271.457 181.052 271.884 181.483 272.739 182.354H272.743Z" fill="#EBE9E9"/>
<path d="M279.41 193.705C281.582 191.163 282.3 188.173 281.459 185.218C280.614 182.259 278.287 179.713 275.515 178.942C273.602 178.411 271.794 178.865 270.608 180.181" stroke="#00C797" stroke-linecap="round" stroke-linejoin="round"/>
<path d="M272.743 182.354C273.32 181.71 274.265 181.841 274.774 181.982C276.26 182.386 278.046 183.906 278.651 185.985C279.182 187.814 278.664 189.706 277.16 191.481" stroke="#00C797" stroke-linecap="round" stroke-linejoin="round"/>
<path d="M279.41 193.705C277.76 195.634 276.124 196.627 274.656 197.104C272.989 197.644 271.544 197.508 270.58 197.276C267.917 196.641 265.477 194.463 264.546 191.78C263.855 189.797 264.109 187.837 265.25 186.425C266.136 187.274 266.581 187.701 267.472 188.554C266.909 189.257 267.04 190.16 267.254 190.791C267.699 192.116 269.076 193.741 271.007 194.213C273.107 194.726 275.206 193.777 277.156 191.472C278.046 192.357 278.496 192.802 279.401 193.7L279.41 193.705Z" fill="#EBE9E9"/>
<path d="M274.72 193.605C275.552 193.124 276.365 192.411 277.16 191.477C277.16 191.477 278.106 192.861 278.024 195.112C276.851 196.142 275.711 196.759 274.656 197.104C274.675 195.711 274.684 195.012 274.72 193.61V193.605Z" fill="black"/>
<path d="M277.16 191.477C275.206 193.782 273.107 194.731 271.012 194.218C269.076 193.746 267.704 192.121 267.258 190.796C267.045 190.165 266.913 189.262 267.477 188.559" stroke="#00C797" stroke-linecap="round" stroke-linejoin="round"/>
<path d="M265.255 186.425C264.109 187.832 263.859 189.797 264.55 191.78C265.482 194.467 267.922 196.641 270.585 197.276C271.548 197.508 272.993 197.639 274.661 197.104C276.129 196.627 277.765 195.634 279.414 193.705" stroke="#00C797" stroke-linecap="round" stroke-linejoin="round"/>
<path d="M267.477 188.558C268.013 187.891 268.954 188 269.467 188.123C270.958 188.486 272.798 189.956 273.48 192.017C274.079 193.832 273.634 195.733 272.212 197.553C273.116 198.406 273.57 198.828 274.475 199.682C276.542 197.086 277.165 194.077 276.22 191.154C275.27 188.222 272.83 185.74 270.044 185.041C268.122 184.56 266.359 185.073 265.259 186.425C266.145 187.274 266.591 187.701 267.481 188.554L267.477 188.558Z" fill="#EBE9E9"/>
<path d="M274.475 199.682C276.542 197.086 277.165 194.077 276.22 191.154C275.27 188.222 272.83 185.74 270.044 185.041C268.122 184.56 266.359 185.073 265.259 186.425" stroke="#00C797" stroke-linecap="round" stroke-linejoin="round"/>
<path d="M267.477 188.558C268.013 187.891 268.953 188 269.467 188.123C270.957 188.486 272.798 189.956 273.479 192.017C274.079 193.832 273.625 195.724 272.203 197.54" stroke="#00C797" stroke-linecap="round" stroke-linejoin="round"/>
<path d="M210.001 323.132C172.674 336.702 131.399 317.478 117.816 280.2C104.229 242.923 123.479 201.701 160.805 188.136L216.208 167.995C253.535 154.426 294.81 173.65 308.393 210.928C321.98 248.205 302.731 289.427 265.404 302.992L210.001 323.132Z" fill="#EBE9E9"/>
<path d="M299.045 313.139C304.424 313.139 308.783 308.785 308.783 303.414C308.783 298.042 304.424 293.688 299.045 293.688C293.667 293.688 289.307 298.042 289.307 303.414C289.307 308.785 293.667 313.139 299.045 313.139Z" fill="black" stroke="#00C797" stroke-linecap="round" stroke-linejoin="round"/>
<path d="M307.875 294.155C312.746 302.583 299.018 316.284 289.68 311.582C289.68 311.582 270.567 296.787 270.548 296.765L296.709 275.63L307.879 294.155H307.875Z" fill="#EBE9E9" stroke="#00C797" stroke-linecap="round" stroke-linejoin="round"/>
<path d="M301.999 306.763C302.549 306.273 303.072 305.751 303.558 305.197C304.185 304.48 304.748 303.709 305.23 302.887C306.339 300.999 307.134 298.639 306.503 296.461C306.275 295.676 305.862 295.063 305.448 294.373C304.944 293.534 304.435 292.694 303.93 291.855C302.204 288.987 300.472 286.118 298.745 283.25C297.873 281.807 297.001 280.359 296.133 278.916L274.279 296.801L280.832 301.93C285.49 300.954 290.857 298.163 302.004 306.768L301.999 306.763Z" fill="#00C797"/>
<path d="M133.885 325.175C139.263 325.175 143.623 320.82 143.623 315.449C143.623 310.078 139.263 305.724 133.885 305.724C128.507 305.724 124.147 310.078 124.147 315.449C124.147 320.82 128.507 325.175 133.885 325.175Z" fill="black" stroke="#00C797" stroke-linecap="round" stroke-linejoin="round"/>
<path d="M125.201 308.301C122.729 311.129 124.765 316.947 129.754 321.299C134.326 325.288 139.792 326.659 142.574 324.676L158.169 316.071L132.476 297.214L125.201 308.301Z" fill="#EBE9E9" stroke="#00C797" stroke-linecap="round" stroke-linejoin="round"/>
<path d="M126.978 309.853C125.987 311.033 126.682 313.039 127.228 314.251L127.678 315.145C129.177 317.831 131.554 320.087 134.217 321.603C135.53 322.351 136.975 322.951 138.484 323.155C139.165 323.246 139.879 323.259 140.542 323.064C140.974 322.937 141.324 322.669 141.715 322.456L153.793 315.789L133.081 300.59L129.145 306.585L126.978 309.853Z" fill="#00C797"/>
<path d="M288.398 218.198C274.811 180.92 242.488 158.447 216.204 168L160.801 188.141L210.001 323.137L265.404 302.996C291.688 293.443 301.985 255.475 288.398 218.198Z" fill="black" stroke="#00C797" stroke-linecap="round" stroke-linejoin="round"/>
<path d="M232.126 196.746L232.92 196.066L232.24 195.274L231.446 195.953L232.126 196.746Z" fill="white"/>
<path d="M218.257 190.795L219.278 189.921L218.403 188.901L217.381 189.775L218.257 190.795Z" fill="white"/>
<path d="M233.399 221.43L234.421 220.556L233.545 219.536L232.524 220.41L233.399 221.43Z" fill="white"/>
<path d="M234.583 217.421L235.238 217.574L235.391 216.92L234.736 216.767L234.583 217.421Z" fill="white"/>
<path d="M284.439 198.803L284.913 198.914L285.023 198.441L284.55 198.33L284.439 198.803Z" fill="white"/>
<path d="M221.867 191.979L222.749 191.977L222.746 191.096L221.865 191.098L221.867 191.979Z" fill="white"/>
<path d="M263.597 284.456L264.391 283.776L263.711 282.984L262.917 283.663L263.597 284.456Z" fill="white"/>
<path d="M257.215 256.218L258.237 255.344L257.362 254.324L256.34 255.198L257.215 256.218Z" fill="white"/>
<path d="M259.585 259.063L260.467 259.061L260.465 258.18L259.583 258.182L259.585 259.063Z" fill="white"/>
<path d="M273.161 213.316L274.042 213.313L274.04 212.433L273.159 212.435L273.161 213.316Z" fill="white"/>
<path d="M245.814 209.473L246.696 209.471L246.694 208.59L245.812 208.593L245.814 209.473Z" fill="white"/>
<path d="M241.808 219.175L242.69 219.172L242.688 218.292L241.806 218.294L241.808 219.175Z" fill="white"/>
<path d="M235.647 208.389L236.529 208.387L236.527 207.506L235.645 207.509L235.647 208.389Z" fill="white"/>
<path d="M242.422 182.843L243.303 182.84L243.301 181.96L242.42 181.962L242.422 182.843Z" fill="white"/>
<path d="M261.965 196.338C272.676 193.545 280.47 187.881 279.374 183.685C278.277 179.489 268.705 178.352 257.993 181.145C247.282 183.937 239.488 189.602 240.584 193.797C241.681 197.993 251.253 199.13 261.965 196.338Z" fill="#B5DF77" stroke="#00C797" stroke-linecap="round" stroke-linejoin="round"/>
<path d="M261.964 196.341C272.675 193.55 280.469 187.886 279.373 183.688L280.782 189.08C281.877 193.273 274.084 198.942 263.373 201.733C252.662 204.524 243.088 203.389 241.992 199.191L240.584 193.8C241.679 197.993 251.254 199.132 261.964 196.341Z" fill="#00C797" stroke="#00C797" stroke-linecap="round" stroke-linejoin="round"/>
<path d="M264.536 195.597C266.027 195.125 267.444 194.599 268.767 194.031L270.176 199.423C268.849 199.99 267.435 200.516 265.945 200.988L264.536 195.597Z" fill="#B5DF77"/>
<path d="M270.667 193.16C273.875 191.585 276.397 189.788 277.906 188L279.314 193.392C277.806 195.18 275.284 196.977 272.075 198.552L270.667 193.16Z" fill="black"/>
<path d="M261.964 196.341C272.675 193.55 280.469 187.886 279.373 183.688L280.782 189.08C281.877 193.273 274.084 198.942 263.373 201.733C252.662 204.524 243.088 203.389 241.992 199.191L240.584 193.8C241.679 197.993 251.254 199.132 261.964 196.341Z" stroke="#00C797" stroke-linecap="round" stroke-linejoin="round"/>
<path d="M251.998 272.737C256.028 262.44 256.017 252.813 251.974 251.234C247.93 249.655 241.384 256.723 237.354 267.02C233.324 277.318 233.335 286.945 237.378 288.523C241.422 290.102 247.968 283.034 251.998 272.737Z" fill="#00C797" stroke="#00C797" stroke-linecap="round" stroke-linejoin="round"/>
<path d="M237.357 267.034C233.327 277.332 233.336 286.958 237.38 288.537L232.186 286.508C228.142 284.929 228.133 275.303 232.163 265.006C236.194 254.708 242.738 247.642 246.782 249.222L251.976 251.25C247.932 249.671 241.388 256.742 237.357 267.034Z" fill="#00C797" stroke="#00C797" stroke-linecap="round" stroke-linejoin="round"/>
<path d="M236.449 269.554C235.958 271.038 235.549 272.49 235.231 273.892L230.037 271.864C230.355 270.461 230.764 269.004 231.254 267.525L236.449 269.554Z" fill="#B5DF77"/>
<path d="M234.822 275.934C234.213 279.452 234.186 282.547 234.749 284.816L229.555 282.787C228.991 280.518 229.019 277.423 229.628 273.906L234.822 275.934Z" fill="black"/>
<path d="M237.357 267.034C233.327 277.332 233.336 286.958 237.38 288.537L232.186 286.508C228.142 284.929 228.133 275.303 232.163 265.006C236.194 254.708 242.738 247.642 246.782 249.222L251.976 251.25C247.932 249.671 241.388 256.742 237.357 267.034Z" stroke="#00C797" stroke-linecap="round" stroke-linejoin="round"/>
<path d="M292.491 268.01C300.349 260.222 302.244 249.405 296.723 243.849C291.202 238.292 280.356 240.101 272.499 247.889C264.641 255.677 262.746 266.494 268.267 272.05C273.788 277.606 284.633 275.797 292.491 268.01Z" fill="#B5DF77" stroke="#00C797" stroke-linecap="round" stroke-linejoin="round"/>
<path d="M292.488 267.988C300.345 260.2 302.24 249.385 296.718 243.831L299.568 246.699C305.089 252.254 303.194 263.073 295.337 270.861C287.48 278.648 276.633 280.459 271.116 274.904L268.267 272.036C273.788 277.591 284.631 275.78 292.488 267.992V267.988Z" fill="#00C797" stroke="#00C797" stroke-linecap="round" stroke-linejoin="round"/>
<path d="M294.301 266.009C295.305 264.807 296.178 263.554 296.919 262.279L299.768 265.147C299.027 266.422 298.155 267.675 297.15 268.877L294.301 266.009Z" fill="#B5DF77"/>
<path d="M297.914 260.367C299.49 256.991 300.14 253.537 299.781 250.465L302.63 253.333C302.994 256.405 302.34 259.859 300.763 263.236L297.914 260.367Z" fill="black"/>
<path d="M292.488 267.988C300.345 260.2 302.24 249.385 296.718 243.831L299.568 246.699C305.089 252.254 303.194 263.073 295.337 270.861C287.48 278.648 276.633 280.459 271.116 274.904L268.267 272.036C273.788 277.591 284.631 275.78 292.488 267.992V267.988Z" stroke="#00C797" stroke-linecap="round" stroke-linejoin="round"/>
<path d="M240.956 308.108C247.323 303.544 247.252 292.562 240.797 283.581C234.341 274.599 223.947 271.018 217.579 275.583C211.212 280.147 211.283 291.128 217.738 300.11C224.194 309.092 234.589 312.673 240.956 308.108Z" fill="#B5DF77" stroke="#00C797" stroke-linecap="round" stroke-linejoin="round"/>
<path d="M217.735 300.119C224.188 309.1 234.585 312.681 240.952 308.12L237.666 310.476C231.3 315.041 220.907 311.456 214.45 302.475C207.997 293.493 207.924 282.511 214.291 277.95L217.576 275.594C211.21 280.16 211.283 291.138 217.735 300.119Z" fill="#00C797" stroke="#00C797" stroke-linecap="round" stroke-linejoin="round"/>
<path d="M219.403 302.216C220.435 303.396 221.534 304.458 222.68 305.388L219.394 307.743C218.249 306.813 217.149 305.751 216.118 304.571L219.403 302.216Z" fill="#B5DF77"/>
<path d="M224.406 306.677C227.496 308.769 230.805 309.958 233.904 310.085L230.614 312.441C227.519 312.309 224.206 311.12 221.121 309.028L224.406 306.672V306.677Z" fill="black"/>
<path d="M217.735 300.119C224.188 309.1 234.585 312.681 240.952 308.12L237.666 310.476C231.3 315.041 220.907 311.456 214.45 302.475C207.997 293.493 207.924 282.511 214.291 277.95L217.576 275.594C211.21 280.16 211.283 291.138 217.735 300.119Z" stroke="#00C797" stroke-linecap="round" stroke-linejoin="round"/>
<path d="M308.393 210.927C294.805 173.65 253.535 154.43 216.208 167.995C242.492 158.442 274.815 180.915 288.403 218.193C301.99 255.471 291.693 293.438 265.409 302.991C302.735 289.422 321.98 248.205 308.397 210.927H308.393Z" fill="#EBE9E9" stroke="#00C797" stroke-linecap="round" stroke-linejoin="round"/>
<path d="M301.545 255.693C299.014 261.116 295.774 266.204 291.902 270.819C290.025 277.813 287.117 284.089 283.268 289.308C291.788 282.605 298.486 274.042 302.967 264.443C306.094 257.749 308.138 250.556 308.979 243.14C309.829 235.634 309.438 227.901 307.675 220.231C308.866 232.571 306.63 244.792 301.545 255.689V255.693Z" fill="#00C797"/>
<path d="M308.393 210.927C294.805 173.65 253.535 154.43 216.208 167.995C242.492 158.442 274.815 180.915 288.403 218.193C301.99 255.471 291.693 293.438 265.409 302.991C302.735 289.422 321.98 248.205 308.397 210.927H308.393Z" stroke="#00C797" stroke-linecap="round" stroke-linejoin="round"/>
<path d="M232.995 238.334C219.408 201.057 187.085 178.583 160.801 188.136C123.474 201.706 104.229 242.922 117.812 280.2C131.399 317.478 172.67 336.697 209.997 323.132C236.28 313.579 246.578 275.612 232.99 238.334H232.995Z" fill="#EBE9E9" stroke="#00C797" stroke-linecap="round" stroke-linejoin="round"/>
<path d="M200.89 350.113C206.268 350.113 210.628 345.758 210.628 340.387C210.628 335.016 206.268 330.662 200.89 330.662C195.512 330.662 191.152 335.016 191.152 340.387C191.152 345.758 195.512 350.113 200.89 350.113Z" fill="black" stroke="#00C797" stroke-linecap="round" stroke-linejoin="round"/>
<path d="M213.105 321.912L213.059 339.951C213.055 342.325 208.22 345.003 201.939 346.037C195.75 347.058 190.379 346.119 189.484 343.945L182.508 326.981C182.499 326.954 182.49 326.931 182.485 326.904C182.276 325.651 188.961 323.509 197.418 322.111C205.87 320.718 212.891 320.6 213.095 321.853C213.095 321.871 213.1 321.889 213.1 321.912H213.105Z" fill="#EBE9E9"/>
<path d="M123.242 253.306C122.397 252.862 121.929 251.931 122.079 250.987C122.756 246.767 124.256 239.274 127.887 230.347C128.223 229.526 129.145 229.113 129.981 229.417L132.281 230.252C132.685 230.402 133.017 230.706 133.19 231.1C133.362 231.495 133.371 231.945 133.203 232.344C131.108 237.391 128.464 245.083 127 253.601C126.819 254.668 125.555 255.149 124.706 254.473L123.242 253.302V253.306Z" fill="black" stroke="black" stroke-linecap="round" stroke-linejoin="round"/>
<path d="M163.632 264.071C163.545 264.698 163.196 265.256 162.668 265.605C162.141 265.955 161.491 266.073 160.883 265.919L156.556 264.82C155.461 264.543 154.752 263.491 154.902 262.37C155.47 258.181 156.497 251.727 159.651 243.232C160.046 242.165 161.187 241.566 162.291 241.852L166.581 242.968C167.185 243.127 167.694 243.527 167.985 244.076C168.276 244.625 168.326 245.274 168.117 245.859C165.327 253.733 164.168 260.232 163.632 264.071Z" fill="black" stroke="black" stroke-linecap="round" stroke-linejoin="round"/>
<path d="M197.545 183.58C195.764 184.229 195.764 185.286 197.545 185.935L202.321 187.669C204.103 188.318 207.015 188.318 208.797 187.669L241.583 175.752C243.365 175.103 243.365 174.045 241.583 173.396L236.807 171.663C235.026 171.014 232.113 171.014 230.332 171.663L197.545 183.58Z" fill="#B5DF77" stroke="#00C797" stroke-linecap="round" stroke-linejoin="round"/>
<path d="M233.045 172.91V178.855" stroke="#00C797" stroke-linecap="round" stroke-linejoin="round"/>
<path d="M283.154 252.205C284.95 248.257 278.236 241.349 268.158 236.775C258.079 232.2 248.453 231.692 246.656 235.64C244.86 239.587 251.574 246.496 261.652 251.07C271.731 255.644 281.357 256.152 283.154 252.205Z" fill="#B5DF77" stroke="#00C797" stroke-linecap="round" stroke-linejoin="round"/>
<path d="M261.664 251.082C258.747 249.757 256.116 248.241 253.889 246.653L270.208 237.771C279.132 242.305 284.835 248.545 283.163 252.221C281.368 256.17 271.739 255.661 261.664 251.087V251.082Z" fill="black"/>
<path d="M268.167 236.787C258.088 232.213 248.463 231.704 246.668 235.653L248.977 230.583C250.772 226.635 260.401 227.143 270.476 231.718C280.555 236.292 287.267 243.2 285.472 247.148L283.163 252.217C284.958 248.269 278.246 241.362 268.167 236.787Z" fill="#00C797" stroke="#00C797" stroke-linecap="round" stroke-linejoin="round"/>
<path d="M265.7 235.748C264.245 235.176 262.814 234.695 261.428 234.3L263.736 229.226C265.122 229.621 266.554 230.102 268.008 230.674L265.7 235.743V235.748Z" fill="#B5DF77"/>
<path d="M259.406 233.778C255.92 232.979 252.826 232.788 250.526 233.224L252.835 228.155C255.134 227.715 258.229 227.91 261.714 228.709L259.406 233.782V233.778Z" fill="black"/>
<path d="M268.167 236.787C258.088 232.213 248.463 231.704 246.668 235.653L248.977 230.583C250.772 226.635 260.401 227.143 270.476 231.718C280.555 236.292 287.267 243.2 285.472 247.148L283.163 252.217C284.958 248.269 278.246 241.362 268.167 236.787Z" stroke="#00C797" stroke-linecap="round" stroke-linejoin="round"/>
<path d="M156.933 191.926L144.478 188.295C141.892 187.542 137.82 187.923 135.421 189.144L151.108 197.05" fill="#EBE9E9"/>
<path d="M156.933 191.926L144.478 188.295C141.892 187.542 137.82 187.923 135.421 189.144L151.108 197.05" stroke="#00C797" stroke-linecap="round" stroke-linejoin="round"/>
<path d="M134.535 205.074L131.776 193.156C131.531 192.094 132.126 190.819 133.099 190.324L135.416 189.144C136.539 188.572 138.32 188.672 139.374 189.362L151.103 197.05C149.213 197.39 147.34 197.889 145.5 198.561C141.424 200.045 137.757 202.255 134.535 205.074Z" fill="#EBE9E9" stroke="#00C797" stroke-linecap="round" stroke-linejoin="round"/>
<path d="M211.492 220.989L211.41 241.239L217.049 238.353C219.249 237.227 220.367 234.885 219.839 232.689L218.058 225.287C216.818 220.127 211.492 220.985 211.492 220.985V220.989Z" fill="#00C797"/>
<path d="M201.212 209.866L202.08 209.693C205.988 208.913 211.287 210.764 213.85 213.819L216.177 216.587C217.558 218.234 219.103 221.289 219.607 223.381L222.111 233.787C222.638 235.979 221.384 238.53 219.321 239.451" stroke="#00C797" stroke-linecap="round" stroke-linejoin="round"/>
<path d="M191.401 211.831C199.44 219.383 206.443 229.417 211.41 241.244L213.037 224.525C213.246 222.387 212.282 219.288 210.901 217.64L205.684 211.432C204.712 210.275 202.698 209.567 201.212 209.866L191.347 211.84" fill="#EBE9E9"/>
<path d="M191.401 211.831C199.44 219.383 206.443 229.417 211.41 241.244L213.037 224.525C213.246 222.387 212.282 219.288 210.901 217.64L205.684 211.432C204.712 210.275 202.698 209.567 201.212 209.866L191.347 211.84" stroke="#00C797" stroke-linecap="round" stroke-linejoin="round"/>
<path d="M222.679 305.388C197.423 313.721 177.601 307.294 169.639 303.791C166.972 302.615 163.991 302.329 161.146 302.983L149.376 305.683C141.569 302.702 131.145 291.056 127.541 285.842C124.288 281.136 120.952 279.062 120.952 279.062C127.432 296.838 140.442 310.435 156.415 317.714C174.492 325.956 181.4 324.703 194.919 322.516C197.854 322.039 200.663 323.918 201.335 326.814L205.102 343.038L210.624 340.388L210.246 324.64C210.178 321.835 212.282 318.753 214.922 317.796L223.225 314.778C226.824 311.283 229.85 307.045 232.259 302.225L222.675 305.388H222.679Z" fill="#00C797"/>
<path d="M213.105 321.912L213.059 339.951C213.055 342.325 208.22 345.003 201.939 346.037C195.75 347.058 190.379 346.119 189.484 343.945L182.508 326.981C182.499 326.954 182.49 326.931 182.485 326.904C182.276 325.651 188.961 323.509 197.418 322.111C205.87 320.718 212.891 320.6 213.095 321.853C213.095 321.871 213.1 321.889 213.1 321.912H213.105Z" stroke="#00C797" stroke-linecap="round" stroke-linejoin="round"/>
<path d="M116.108 271.864L122.461 265.641C125.474 262.692 130.036 262.742 132.931 263.794L142.587 267.303C149.917 269.967 156.388 276.692 160.514 287.743L162.659 293.484C168.208 308.347 170.084 309.885 160.569 311.9L145.114 315.172" fill="#EBE9E9"/>
<path d="M156.488 304.003C155.988 307.448 153.97 310.638 153.97 310.638L167.249 307.716C167.312 306.531 166.917 304.961 166.172 302.81C164.513 302.569 162.809 302.624 161.146 302.987L156.488 304.003Z" fill="#00C797"/>
<path d="M116.108 271.864L122.461 265.641C125.474 262.692 130.036 262.742 132.931 263.794L142.587 267.303C149.917 269.967 156.388 276.692 160.514 287.743L162.659 293.484C168.208 308.347 170.084 309.885 160.569 311.9L145.114 315.172" stroke="#00C797" stroke-linecap="round" stroke-linejoin="round"/>
<path d="M138.352 273.107C144.078 275.19 149.49 280.895 152.312 288.642C156.565 300.305 153.344 312.186 145.119 315.177C142.356 316.18 139.384 316.053 136.489 315.004L126.832 311.496C121.107 309.413 115.695 303.709 112.873 295.962C108.619 284.298 111.841 272.417 120.066 269.426C122.829 268.423 125.801 268.55 128.696 269.599L138.352 273.107Z" fill="black" stroke="#00C797" stroke-linecap="round" stroke-linejoin="round"/>
<path d="M130.004 272.853V278.18L134.376 279.773V274.441L130.004 272.853Z" fill="#00C797" stroke="black" stroke-linecap="round" stroke-linejoin="round"/>
<path d="M121.261 275.003V280.331L125.633 281.92V276.592L121.261 275.003Z" fill="#00C797" stroke="black" stroke-linecap="round" stroke-linejoin="round"/>
<path d="M125.633 276.592V281.92L130.004 283.513V278.181L125.633 276.592Z" fill="#00C797" stroke="black" stroke-linecap="round" stroke-linejoin="round"/>
<path d="M130.004 278.18V283.513L134.376 285.101V279.773L130.004 278.18Z" fill="#00C797" stroke="black" stroke-linecap="round" stroke-linejoin="round"/>
<path d="M134.376 279.773V285.101L138.747 286.69V281.362L134.376 279.773Z" fill="#00C797" stroke="black" stroke-linecap="round" stroke-linejoin="round"/>
<path d="M138.747 281.362V286.69L143.119 288.279V282.951L138.747 281.362Z" fill="#00C797" stroke="black" stroke-linecap="round" stroke-linejoin="round"/>
<path d="M121.261 280.331V285.664L125.633 287.252V281.919L121.261 280.331Z" fill="#00C797" stroke="black" stroke-linecap="round" stroke-linejoin="round"/>
<path d="M125.633 287.253V292.581L130.004 294.169V288.841L125.633 287.253Z" fill="#00C797" stroke="black" stroke-linecap="round" stroke-linejoin="round"/>
<path d="M130.004 288.841V294.169L134.376 295.757V290.429L130.004 288.841Z" fill="#00C797" stroke="black" stroke-linecap="round" stroke-linejoin="round"/>
<path d="M134.376 290.43V295.758L138.747 297.346V292.018L134.376 290.43Z" fill="#00C797" stroke="black" stroke-linecap="round" stroke-linejoin="round"/>
<path d="M138.747 297.346V302.674L143.119 304.262V298.934L138.747 297.346Z" fill="#00C797" stroke="black" stroke-linecap="round" stroke-linejoin="round"/>
<path d="M121.261 296.32V301.648L125.633 303.237V297.909L121.261 296.32Z" fill="#00C797" stroke="black" stroke-linecap="round" stroke-linejoin="round"/>
<path d="M125.633 297.909V303.237L130.004 304.825V299.497L125.633 297.909Z" fill="#00C797" stroke="black" stroke-linecap="round" stroke-linejoin="round"/>
<path d="M130.004 299.497V304.825L134.376 306.413V301.085L130.004 299.497Z" fill="#00C797" stroke="black" stroke-linecap="round" stroke-linejoin="round"/>
<path d="M134.376 301.085V306.413L138.747 308.002V302.674L134.376 301.085Z" fill="#00C797" stroke="black" stroke-linecap="round" stroke-linejoin="round"/>
<path d="M138.747 302.673V308.001L143.119 309.594V304.262L138.747 302.673Z" fill="#00C797" stroke="black" stroke-linecap="round" stroke-linejoin="round"/>
<path d="M130.004 304.825V310.153L134.376 311.742V306.414L130.004 304.825Z" fill="#00C797" stroke="black" stroke-linecap="round" stroke-linejoin="round"/>
<path d="M220.607 317.11C226.156 312.608 230.55 306.481 233.645 299.243" stroke="#00C797" stroke-linecap="round" stroke-linejoin="round"/>
<path d="M193.474 176.259L216.204 167.995C225.538 164.605 235.113 163.262 244.446 163.738" stroke="#00C797" stroke-linecap="round" stroke-linejoin="round"/>
<path d="M258.434 58.6951L283.277 92.5916L321.821 99.0814C322.93 99.2674 324.043 98.7818 324.657 97.8424C326.92 94.3797 326.679 89.8505 324.052 86.651L320.712 82.5756L297.628 77.1387L273.829 38.3726L258.429 58.6905L258.434 58.6951Z" fill="#00C797"/>
<path d="M246.432 46.0969L261.755 106.016L306.166 115.369C307.52 115.655 308.888 114.97 309.47 113.718C311.737 108.843 310.256 103.053 305.93 99.8576L301.14 96.3222L279.61 91.7975L274.311 34.438L246.432 46.0969Z" fill="#00C797"/>
<path d="M246.691 39.6931L240.415 90.2225C239.679 96.1495 242.147 102.018 246.896 105.644L282.95 133.164C284.54 134.38 286.803 134.153 288.121 132.647L288.734 131.948C292.479 127.668 293.306 121.578 290.847 116.454C288.557 111.684 285.144 107.536 280.909 104.359L263.418 91.2482L277.192 33.2124L246.691 39.6886V39.6931Z" fill="#00C797"/>
<path d="M287.939 111.548C285.985 108.816 283.618 106.393 280.909 104.364L263.419 91.2529" stroke="black" stroke-linecap="round" stroke-linejoin="round"/>
<path d="M235.662 65.9338L238.62 71.4479L238.293 83.1249L246.468 93.2771L235.676 109.751L227.891 104.773C223.347 101.864 220.085 97.3389 218.771 92.1107L212.314 66.483C210.728 60.1929 212.1 53.5261 216.04 48.3751L247.391 7.358C252.199 1.93473 259.383 -0.751937 266.572 0.182953L355.703 11.7692C365.359 13.0218 374.77 15.7085 383.632 19.7339L431.619 41.5223C417.159 47.295 402.477 90.064 402.695 100.021L368.945 80.2703C352.308 70.5357 346.905 82.367 335.781 86.869L331.255 88.7025L275.433 55.7227L272.211 48.4432C272.211 48.4432 263.791 53.6532 256.188 50.6851L252.017 49.0559L248.404 56.0857C243.487 65.6479 235.662 65.9429 235.662 65.9429V65.9338Z" fill="#00C797"/>
<path d="M406.98 115.923L382.091 100.511C379.887 99.1453 378.847 96.504 379.524 94.0034C384.018 77.3932 409.111 31.2977 428.356 40.0339L443.993 47.1364" fill="black"/>
<path d="M406.98 115.923L382.091 100.511C379.887 99.1453 378.847 96.504 379.524 94.0034C384.018 77.3932 409.111 31.2977 428.356 40.0339L443.993 47.1364" stroke="#00C797" stroke-miterlimit="10"/>
<path d="M275.433 55.713L272.212 48.4336C272.212 48.4336 263.791 53.6436 256.189 50.6755L252.017 49.0463L248.404 56.0761C247.055 58.6992 245.491 60.6235 243.928 62.0349" stroke="black" stroke-linecap="round" stroke-linejoin="round"/>
<path d="M210.351 112.651C214.104 102.132 224.374 93.2775 233.29 92.8735C236.176 92.7419 238.561 93.5134 240.347 94.9702L236.73 92.0203C234.944 90.5635 232.554 89.792 229.673 89.9236C220.757 90.323 210.487 99.1818 206.733 109.702C204.193 116.827 205.288 122.885 209.024 125.935L212.641 128.885C208.901 125.835 207.806 119.777 210.351 112.651Z" fill="black"/>
<path d="M210.351 112.651C211.496 109.443 213.25 106.389 215.381 103.684L211.796 100.688C209.646 103.407 207.879 106.475 206.729 109.697C204.189 116.822 205.284 122.881 209.019 125.93L212.637 128.88C208.901 125.831 207.802 119.772 210.346 112.647L210.351 112.651Z" fill="#00C797"/>
<path d="M233.29 92.8734C242.211 92.474 246.396 100.679 242.642 111.199C238.889 121.723 228.614 130.578 219.698 130.981C210.783 131.381 206.597 123.176 210.351 112.651C214.104 102.131 224.374 93.2773 233.29 92.8734Z" fill="#B5DF77" stroke="#00C797" stroke-linecap="round" stroke-linejoin="round"/>
<path d="M233.29 92.8734C242.211 92.474 246.396 100.679 242.642 111.199C238.889 121.723 228.614 130.578 219.698 130.981C210.783 131.381 206.597 123.176 210.351 112.651C214.104 102.131 224.374 93.2773 233.29 92.8734Z" stroke="#00C797" stroke-linecap="round" stroke-linejoin="round"/>
<path d="M213.873 98.2966L217.454 101.287C219.244 99.3994 221.221 97.7474 223.279 96.4177L219.712 93.436C217.649 94.7612 215.672 96.4086 213.873 98.292V98.2966Z" fill="#B5DF77"/>
<path d="M210.351 112.651C214.104 102.132 224.374 93.2775 233.29 92.8735C236.176 92.7419 238.561 93.5134 240.347 94.9702L236.73 92.0203C234.944 90.5635 232.554 89.792 229.673 89.9236C220.757 90.323 210.487 99.1818 206.733 109.702C204.193 116.827 205.288 122.885 209.024 125.935L212.641 128.885C208.901 125.835 207.806 119.777 210.351 112.651Z" stroke="#00C797" stroke-linecap="round" stroke-linejoin="round"/>
<path d="M272.211 48.4341L268.835 40.8007C268.149 39.2486 267.067 37.8962 265.704 36.8841L259.792 32.4956" fill="#00C797"/>
<path d="M272.211 48.4341L268.835 40.8007C268.149 39.2486 267.067 37.8962 265.704 36.8841L259.792 32.4956" stroke="black" stroke-linecap="round" stroke-linejoin="round"/>
<path d="M282.372 46.7822L267.172 68.0215L234.472 89.6601L222.825 102.34C219.985 105.431 219.63 110.06 221.966 113.55C226.328 120.067 234.576 122.772 241.956 120.108L248.009 117.92L272.775 103.96C281.518 99.0317 293.719 101.768 305.166 97.7791L331.255 88.6934" fill="#00C797"/>
<path d="M222.897 104.205C222.897 104.205 223.147 114.28 233.785 117.203L241.565 110.046C242.724 108.979 242.91 107.069 241.979 105.798L236.816 98.7591C236.103 97.7879 234.613 97.3703 233.499 97.8287L227.292 100.375" stroke="black" stroke-linecap="round" stroke-linejoin="round"/>
<path d="M256.557 113.105L272.775 103.965C281.518 99.0361 293.719 101.773 305.166 97.7835L325.947 90.5449" stroke="black" stroke-linecap="round" stroke-linejoin="round"/>
<path d="M282.372 46.7822L267.172 68.0215L234.472 89.6601" stroke="black" stroke-linecap="round" stroke-linejoin="round"/>
<path d="M248.5 47.6757L242.388 45.2886" stroke="black" stroke-linecap="round" stroke-linejoin="round"/>
<path d="M235.662 65.9339L224.438 62.7798" stroke="black" stroke-linecap="round" stroke-linejoin="round"/>
<path d="M286.79 40.2153L284.558 43.3331" stroke="black" stroke-linecap="round" stroke-linejoin="round"/>
<path d="M231.382 81.0601L236.38 82.2582" stroke="black" stroke-linecap="round" stroke-linejoin="round"/>
<path d="M412.742 294.687L454.949 239.814L423.68 215.825L381.473 270.697C381.042 271.26 381.196 272.272 382.041 273.602L388.958 284.457C390.648 287.112 394.497 290.062 397.501 291.011L409.788 294.886C411.293 295.363 412.31 295.249 412.747 294.687H412.742Z" fill="black" stroke="#00C797" stroke-linecap="round" stroke-linejoin="round"/>
<path d="M393.061 288.619C394.52 289.695 396.097 290.57 397.496 291.011L409.784 294.886C411.288 295.363 412.306 295.249 412.742 294.687L454.949 239.814L435.277 233.737L393.061 288.619Z" fill="#302247" stroke="#00C797" stroke-linecap="round" stroke-linejoin="round"/>
<path d="M412.742 294.687L454.949 239.814L423.68 215.825L381.473 270.697C381.042 271.26 381.196 272.272 382.041 273.602L388.958 284.457C390.648 287.112 394.497 290.062 397.501 291.011L409.788 294.886C411.293 295.363 412.31 295.249 412.747 294.687H412.742Z" stroke="#00C797" stroke-linecap="round" stroke-linejoin="round"/>
<path d="M424.244 218.729C422.553 216.074 423.626 214.676 426.634 215.625L438.921 219.501C441.93 220.449 445.774 223.399 447.465 226.054L454.381 236.91C456.071 239.564 454.999 240.962 451.991 240.014L439.703 236.138C436.695 235.19 432.85 232.24 431.16 229.585L424.244 218.729Z" fill="black" stroke="#00C797" stroke-linecap="round" stroke-linejoin="round"/>
<path d="M387.754 286.804L411.079 256.479L379.81 232.489L356.485 262.814C356.053 263.377 356.207 264.389 357.053 265.719L363.969 276.574C365.659 279.229 369.508 282.179 372.512 283.128L384.8 287.003C386.304 287.48 387.322 287.366 387.758 286.804H387.754Z" fill="black" stroke="#00C797" stroke-linecap="round" stroke-linejoin="round"/>
<path d="M368.073 280.736C369.531 281.811 371.108 282.687 372.508 283.128L384.795 287.003C386.299 287.48 387.317 287.366 387.754 286.804L411.079 256.479L391.407 250.402L368.077 280.736H368.073Z" fill="#302247" stroke="#00C797" stroke-linecap="round" stroke-linejoin="round"/>
<path d="M387.754 286.804L411.079 256.479L379.81 232.489L356.485 262.814C356.053 263.377 356.207 264.389 357.053 265.719L363.969 276.574C365.659 279.229 369.508 282.179 372.512 283.128L384.8 287.003C386.304 287.48 387.322 287.366 387.758 286.804H387.754Z" stroke="#00C797" stroke-linecap="round" stroke-linejoin="round"/>
<path d="M380.374 235.394C378.683 232.739 379.756 231.341 382.764 232.289L395.052 236.165C398.06 237.114 401.904 240.064 403.595 242.718L410.511 253.574C412.202 256.229 411.129 257.627 408.121 256.678L395.833 252.803C392.825 251.854 388.98 248.904 387.29 246.249L380.374 235.394Z" fill="black" stroke="#00C797" stroke-linecap="round" stroke-linejoin="round"/>
<path d="M362.765 278.92L371.403 267.688L340.134 243.699L331.496 254.931C331.064 255.494 331.218 256.506 332.064 257.836L338.98 268.691C340.67 271.346 344.519 274.296 347.523 275.244L359.811 279.12C361.315 279.597 362.333 279.483 362.769 278.92H362.765Z" fill="black" stroke="#00C797" stroke-linecap="round" stroke-linejoin="round"/>
<path d="M343.088 272.853C344.547 273.928 346.124 274.804 347.523 275.244L359.811 279.12C361.315 279.597 362.333 279.483 362.769 278.92L371.408 267.688L351.736 261.611L343.088 272.853Z" fill="#302247" stroke="#00C797" stroke-linecap="round" stroke-linejoin="round"/>
<path d="M362.765 278.92L371.403 267.688L340.134 243.699L331.496 254.931C331.064 255.494 331.218 256.506 332.064 257.836L338.98 268.691C340.67 271.346 344.519 274.296 347.523 275.244L359.811 279.12C361.315 279.597 362.333 279.483 362.769 278.92H362.765Z" stroke="#00C797" stroke-linecap="round" stroke-linejoin="round"/>
<path d="M340.698 246.603C339.007 243.948 340.08 242.55 343.088 243.499L355.376 247.375C358.384 248.323 362.228 251.273 363.919 253.928L370.835 264.784C372.526 267.438 371.453 268.836 368.445 267.888L356.157 264.012C353.149 263.064 349.304 260.114 347.614 257.459L340.698 246.603Z" fill="black" stroke="#00C797" stroke-linecap="round" stroke-linejoin="round"/>
</svg>
