<svg width="49" height="50" viewBox="0 0 49 50" fill="none" xmlns="http://www.w3.org/2000/svg">
<path d="M31.1634 16.8567C31.0152 16.6345 30.7436 16.5109 30.4225 16.5109H28.7429C28.1008 16.5109 27.4586 17.0296 27.3104 17.6471L21.3333 42.4941C21.1851 43.1116 20.5429 43.6303 19.9008 43.6303L14.22 43.655C13.8989 43.655 13.6272 43.5315 13.4543 43.3092L17.826 48.9653C17.9742 49.1876 18.2459 49.311 18.5917 49.311L24.2725 49.2863C24.9146 49.2863 25.5568 48.7677 25.705 48.1502L31.6821 23.3031C31.8303 22.6856 32.4725 22.167 33.1147 22.167H34.7942C35.1153 22.167 35.3869 22.2905 35.5351 22.5128L31.1634 16.8567Z" fill="#00C797"/>
<path d="M35.2618 7.05122L30.8901 1.3952C31.0383 1.59279 31.1124 1.86447 31.0383 2.18555L30.3714 4.92715L34.7431 10.5832L35.41 7.84163C35.4841 7.52055 35.4347 7.24881 35.2618 7.05122Z" fill="#EBE9E9" stroke="#00C797" stroke-linecap="round" stroke-linejoin="round"/>
<path d="M19.1581 16.8813C19.0099 16.6591 18.7383 16.5356 18.4172 16.5356H16.7376C16.0955 16.5356 15.4533 17.0542 15.3051 17.6717L14.9099 19.3018C14.7617 19.9193 14.1196 20.438 13.4774 20.438H11.7979C11.1557 20.438 10.5135 20.9567 10.3653 21.5741L9.97015 23.1796C9.82196 23.797 9.17979 24.3157 8.53762 24.3157H6.85809C6.21592 24.3157 5.57375 24.8344 5.42556 25.4518L5.03038 27.082C4.88218 27.6995 4.24001 28.2182 3.59784 28.2182H1.91832C1.59723 28.2182 1.32555 28.0946 1.17735 27.8723L5.54905 33.5284C5.69725 33.726 5.96893 33.8742 6.29002 33.8742H7.96954C8.61171 33.8742 9.25389 33.3555 9.40208 32.738L9.79726 31.1079C9.94545 30.4904 10.5876 29.9717 11.2298 29.9717H12.9093C13.5515 29.9717 14.1937 29.4531 14.3419 28.8356L14.737 27.2302C14.8852 26.6127 15.5274 26.094 16.1696 26.094H17.8491C18.4913 26.094 19.1334 25.5753 19.2816 24.9579L19.6768 23.3278C19.825 22.7103 20.4672 22.1916 21.1093 22.1916H22.7889C23.11 22.1916 23.3816 22.3151 23.5298 22.5374L19.1581 16.8813Z" fill="#00C797"/>
<path d="M38.4979 11.6946C38.572 11.3982 38.4979 11.1019 38.3497 10.9043L33.978 5.24826C34.1262 5.44585 34.2003 5.71753 34.1262 6.03861L33.731 7.6687C33.6569 7.96509 33.7063 8.26152 33.8792 8.45911L38.2509 14.1151C38.1027 13.9175 38.0286 13.6459 38.1027 13.3248L38.4979 11.6946Z" fill="#EBE9E9" stroke="#00C797" stroke-linecap="round" stroke-linejoin="round"/>
<path d="M41.5599 15.5477C41.634 15.2513 41.5599 14.9549 41.4117 14.7573L37.04 9.10123C37.1882 9.29882 37.2623 9.57049 37.1882 9.89158L36.793 11.5217C36.7189 11.8181 36.7683 12.1145 36.9412 12.3121L41.3129 17.9682C41.1647 17.7706 41.0906 17.4988 41.1647 17.1777L41.5599 15.5477Z" fill="#EBE9E9" stroke="#00C797" stroke-linecap="round" stroke-linejoin="round"/>
<path d="M44.6249 19.4007C44.699 19.1043 44.6496 18.8079 44.4767 18.6103L40.105 12.9543C40.2532 13.1519 40.3273 13.4236 40.2532 13.7447L39.858 15.3748C39.7839 15.6712 39.858 15.9676 40.0062 16.1652L44.3779 21.8212C44.2297 21.6236 44.1556 21.3519 44.2297 21.0308L44.6249 19.4007Z" fill="#EBE9E9" stroke="#00C797" stroke-linecap="round" stroke-linejoin="round"/>
<path d="M34.2495 20.7097C34.1013 20.4874 33.8296 20.3639 33.5086 20.3639H31.829C31.5079 20.3639 31.2363 20.2404 31.0881 20.0181L35.4598 25.6742C35.608 25.8718 35.8796 26.02 36.2007 26.02H37.8802C38.2013 26.02 38.473 26.1435 38.6212 26.3658L34.2495 20.7097Z" fill="#00C797"/>
<path d="M37.3151 24.5628C37.167 24.3652 36.8953 24.217 36.5742 24.217H34.8947C34.5736 24.217 34.3019 24.0935 34.1537 23.8712L38.5254 29.5272C38.6736 29.7248 38.9453 29.8731 39.2664 29.8731H40.9459C41.267 29.8731 41.5386 29.9965 41.6868 30.2188L37.3151 24.5628Z" fill="#00C797"/>
<path d="M47.5362 22.488L43.1645 16.832C43.3127 17.0296 43.3868 17.3013 43.3127 17.6224L41.0651 26.9833C40.9169 27.6008 40.2747 28.1194 39.6326 28.1194H37.953C37.632 28.1194 37.3603 27.9959 37.2121 27.7736L41.5838 33.4297C41.732 33.652 42.0037 33.7755 42.3247 33.7755H44.0043C44.6464 33.7755 45.2886 33.2568 45.4368 32.6393L47.6844 23.2785C47.7585 22.9574 47.7091 22.6856 47.5362 22.488Z" fill="#EBE9E9" stroke="#00C797" stroke-linecap="round" stroke-linejoin="round"/>
<path d="M40.4012 27.8478C40.1542 27.996 39.8825 28.0948 39.6109 28.0948H37.9313C37.6102 28.0948 37.3386 27.9712 37.1904 27.7489L41.5621 33.405C41.7103 33.6273 41.9819 33.7508 42.303 33.7508H43.9826C44.2542 33.7508 44.5012 33.652 44.7235 33.5285L40.4012 27.8478Z" fill="#00C797"/>
<path d="M30.1511 1.04945C30.7933 1.04945 31.1884 1.54342 31.0402 2.1609L30.6451 3.79098C30.4969 4.40846 30.8921 4.90243 31.5342 4.90243H33.2137C33.8559 4.90243 34.2511 5.39641 34.1029 6.01388L33.7077 7.64403C33.5595 8.2615 33.9547 8.78018 34.5969 8.75548H36.2764C36.9186 8.75548 37.3138 9.24942 37.1656 9.89159L36.7704 11.5217C36.6222 12.1392 37.0174 12.6579 37.6595 12.6332H39.3391C39.9812 12.6332 40.3764 13.1272 40.2282 13.7694L39.833 15.3995C39.6848 16.0169 40.08 16.5356 40.7222 16.5109H42.4017C43.0439 16.5109 43.4391 17.0049 43.2909 17.6471L41.0433 27.0079C40.8951 27.6254 40.2529 28.1441 39.6107 28.1441H37.9312C37.2891 28.1441 36.8939 27.6254 37.0421 27.0079L37.4373 25.3778C37.5854 24.7604 37.1903 24.2417 36.5481 24.2664H34.8686C34.2264 24.2664 33.8312 23.7477 33.9794 23.1302L34.3746 21.5248C34.5228 20.9073 34.1276 20.3886 33.4854 20.3886H31.8059C31.1637 20.3886 30.7686 19.8699 30.9167 19.2772L31.3119 17.6471C31.4601 17.0296 31.0649 16.5109 30.4228 16.5109H28.7432C28.1011 16.5109 27.4589 17.0296 27.3107 17.6471L21.3336 42.4941C21.1854 43.1116 20.5432 43.6303 19.9011 43.6303L14.2203 43.655C13.5781 43.655 13.183 43.161 13.3311 42.5436L19.3083 17.6965C19.4565 17.079 19.0613 16.5603 18.4191 16.5603H16.7396C16.0974 16.5603 15.4553 17.079 15.3071 17.6965L14.9119 19.3266C14.7637 19.9441 14.1215 20.4627 13.4793 20.4627H11.7998C11.1576 20.4627 10.5155 20.9814 10.3673 21.5989L9.9721 23.2043C9.82391 23.8218 9.18174 24.3404 8.53957 24.3404H6.86004C6.21787 24.3404 5.5757 24.8591 5.42751 25.4766L5.03233 27.1068C4.88413 27.7242 4.24197 28.2429 3.59979 28.2429H1.92027C1.2781 28.2429 0.882916 27.7242 1.03111 27.1068L3.27871 17.7458C3.4269 17.1284 4.06907 16.6097 4.71124 16.6097H6.39076C7.03293 16.6097 7.67511 16.091 7.8233 15.4736L8.21848 13.8434C8.36668 13.2259 9.00885 12.7073 9.65102 12.7073H11.3305C11.9727 12.7073 12.6149 12.1886 12.7631 11.5711L13.1583 9.94104C13.3065 9.32357 13.9486 8.80487 14.5908 8.80487H16.2703C16.9125 8.80487 17.5547 8.28617 17.7028 7.6687L18.098 6.03861C18.2462 5.42113 18.8884 4.90243 19.5306 4.90243H21.2101C21.8523 4.90243 22.4944 4.38379 22.6426 3.76632L23.0378 2.13617C23.186 1.5187 23.8282 1 24.4703 1L30.1511 1.04945Z" fill="#EBE9E9" stroke="#00C797" stroke-linecap="round" stroke-linejoin="round"/>
</svg>
